G04 #@! TF.FileFunction,Legend,Bot*
%FSLAX46Y46*%
G04 Gerber Fmt 4.6, Leading zero omitted, Abs format (unit mm)*
G04 Created by KiCad (PCBNEW 4.0.5+dfsg1-4) date Tue Mar 27 21:16:24 2018*
%MOMM*%
%LPD*%
G01*
G04 APERTURE LIST*
%ADD10C,0.100000*%
%ADD11C,0.250000*%
%ADD12C,0.200000*%
G04 APERTURE END LIST*
D10*
D11*
X170696000Y-118181715D02*
X170648381Y-118086477D01*
X170648381Y-117943620D01*
X170696000Y-117800762D01*
X170791238Y-117705524D01*
X170886476Y-117657905D01*
X171076952Y-117610286D01*
X171219810Y-117610286D01*
X171410286Y-117657905D01*
X171505524Y-117705524D01*
X171600762Y-117800762D01*
X171648381Y-117943620D01*
X171648381Y-118038858D01*
X171600762Y-118181715D01*
X171553143Y-118229334D01*
X171219810Y-118229334D01*
X171219810Y-118038858D01*
X171172190Y-118848381D02*
X171648381Y-118848381D01*
X170648381Y-118515048D02*
X171172190Y-118848381D01*
X170648381Y-119181715D01*
X171267429Y-119515048D02*
X171267429Y-120276953D01*
X170648381Y-121229334D02*
X170648381Y-120753143D01*
X171124571Y-120705524D01*
X171076952Y-120753143D01*
X171029333Y-120848381D01*
X171029333Y-121086477D01*
X171076952Y-121181715D01*
X171124571Y-121229334D01*
X171219810Y-121276953D01*
X171457905Y-121276953D01*
X171553143Y-121229334D01*
X171600762Y-121181715D01*
X171648381Y-121086477D01*
X171648381Y-120848381D01*
X171600762Y-120753143D01*
X171553143Y-120705524D01*
X170743619Y-121657905D02*
X170696000Y-121705524D01*
X170648381Y-121800762D01*
X170648381Y-122038858D01*
X170696000Y-122134096D01*
X170743619Y-122181715D01*
X170838857Y-122229334D01*
X170934095Y-122229334D01*
X171076952Y-122181715D01*
X171648381Y-121610286D01*
X171648381Y-122229334D01*
X171648381Y-123181715D02*
X171648381Y-122610286D01*
X171648381Y-122896000D02*
X170648381Y-122896000D01*
X170791238Y-122800762D01*
X170886476Y-122705524D01*
X170934095Y-122610286D01*
D12*
X148717000Y-123825000D02*
X148717000Y-107315000D01*
X170307000Y-123825000D02*
X148717000Y-123825000D01*
X170307000Y-107315000D02*
X170307000Y-123825000D01*
X148717000Y-107315000D02*
X170307000Y-107315000D01*
M02*
