G04 #@! TF.FileFunction,Legend,Bot*
%FSLAX46Y46*%
G04 Gerber Fmt 4.6, Leading zero omitted, Abs format (unit mm)*
G04 Created by KiCad (PCBNEW 4.0.5+dfsg1-4) date Fri Mar 16 22:59:51 2018*
%MOMM*%
%LPD*%
G01*
G04 APERTURE LIST*
%ADD10C,0.100000*%
%ADD11C,0.250000*%
%ADD12C,0.200000*%
G04 APERTURE END LIST*
D10*
D11*
X170950000Y-118435715D02*
X170902381Y-118340477D01*
X170902381Y-118197620D01*
X170950000Y-118054762D01*
X171045238Y-117959524D01*
X171140476Y-117911905D01*
X171330952Y-117864286D01*
X171473810Y-117864286D01*
X171664286Y-117911905D01*
X171759524Y-117959524D01*
X171854762Y-118054762D01*
X171902381Y-118197620D01*
X171902381Y-118292858D01*
X171854762Y-118435715D01*
X171807143Y-118483334D01*
X171473810Y-118483334D01*
X171473810Y-118292858D01*
X171426190Y-119102381D02*
X171902381Y-119102381D01*
X170902381Y-118769048D02*
X171426190Y-119102381D01*
X170902381Y-119435715D01*
X171521429Y-119769048D02*
X171521429Y-120530953D01*
X170902381Y-121483334D02*
X170902381Y-121007143D01*
X171378571Y-120959524D01*
X171330952Y-121007143D01*
X171283333Y-121102381D01*
X171283333Y-121340477D01*
X171330952Y-121435715D01*
X171378571Y-121483334D01*
X171473810Y-121530953D01*
X171711905Y-121530953D01*
X171807143Y-121483334D01*
X171854762Y-121435715D01*
X171902381Y-121340477D01*
X171902381Y-121102381D01*
X171854762Y-121007143D01*
X171807143Y-120959524D01*
X170997619Y-121911905D02*
X170950000Y-121959524D01*
X170902381Y-122054762D01*
X170902381Y-122292858D01*
X170950000Y-122388096D01*
X170997619Y-122435715D01*
X171092857Y-122483334D01*
X171188095Y-122483334D01*
X171330952Y-122435715D01*
X171902381Y-121864286D01*
X171902381Y-122483334D01*
X171902381Y-123435715D02*
X171902381Y-122864286D01*
X171902381Y-123150000D02*
X170902381Y-123150000D01*
X171045238Y-123054762D01*
X171140476Y-122959524D01*
X171188095Y-122864286D01*
D12*
X149225000Y-123825000D02*
X149225000Y-107315000D01*
X170815000Y-123825000D02*
X149225000Y-123825000D01*
X170815000Y-107315000D02*
X170815000Y-123825000D01*
X149225000Y-107315000D02*
X170815000Y-107315000D01*
M02*
