G04 #@! TF.GenerationSoftware,KiCad,Pcbnew,(5.0.1)-4*
G04 #@! TF.CreationDate,2019-02-21T10:43:33+00:00*
G04 #@! TF.ProjectId,Bell-Boy,42656C6C2D426F792E6B696361645F70,rev?*
G04 #@! TF.SameCoordinates,Original*
G04 #@! TF.FileFunction,Legend,Top*
G04 #@! TF.FilePolarity,Positive*
%FSLAX46Y46*%
G04 Gerber Fmt 4.6, Leading zero omitted, Abs format (unit mm)*
G04 Created by KiCad (PCBNEW (5.0.1)-4) date 21/02/2019 10:43:33*
%MOMM*%
%LPD*%
G01*
G04 APERTURE LIST*
%ADD10C,0.187500*%
%ADD11C,0.300000*%
%ADD12C,0.120000*%
%ADD13C,0.150000*%
G04 APERTURE END LIST*
D10*
X65196428Y-74535714D02*
X65160714Y-74642857D01*
X65160714Y-74821428D01*
X65196428Y-74892857D01*
X65232142Y-74928571D01*
X65303571Y-74964285D01*
X65375000Y-74964285D01*
X65446428Y-74928571D01*
X65482142Y-74892857D01*
X65517857Y-74821428D01*
X65553571Y-74678571D01*
X65589285Y-74607142D01*
X65625000Y-74571428D01*
X65696428Y-74535714D01*
X65767857Y-74535714D01*
X65839285Y-74571428D01*
X65875000Y-74607142D01*
X65910714Y-74678571D01*
X65910714Y-74857142D01*
X65875000Y-74964285D01*
X65232142Y-75714285D02*
X65196428Y-75678571D01*
X65160714Y-75571428D01*
X65160714Y-75500000D01*
X65196428Y-75392857D01*
X65267857Y-75321428D01*
X65339285Y-75285714D01*
X65482142Y-75250000D01*
X65589285Y-75250000D01*
X65732142Y-75285714D01*
X65803571Y-75321428D01*
X65875000Y-75392857D01*
X65910714Y-75500000D01*
X65910714Y-75571428D01*
X65875000Y-75678571D01*
X65839285Y-75714285D01*
X65160714Y-76035714D02*
X65910714Y-76035714D01*
X65160714Y-76464285D02*
X65589285Y-76142857D01*
X65910714Y-76464285D02*
X65482142Y-76035714D01*
X62510714Y-74071428D02*
X63260714Y-74071428D01*
X62725000Y-74321428D01*
X63260714Y-74571428D01*
X62510714Y-74571428D01*
X62510714Y-74928571D02*
X63260714Y-74928571D01*
X62546428Y-75250000D02*
X62510714Y-75357142D01*
X62510714Y-75535714D01*
X62546428Y-75607142D01*
X62582142Y-75642857D01*
X62653571Y-75678571D01*
X62725000Y-75678571D01*
X62796428Y-75642857D01*
X62832142Y-75607142D01*
X62867857Y-75535714D01*
X62903571Y-75392857D01*
X62939285Y-75321428D01*
X62975000Y-75285714D01*
X63046428Y-75250000D01*
X63117857Y-75250000D01*
X63189285Y-75285714D01*
X63225000Y-75321428D01*
X63260714Y-75392857D01*
X63260714Y-75571428D01*
X63225000Y-75678571D01*
X63260714Y-76142857D02*
X63260714Y-76285714D01*
X63225000Y-76357142D01*
X63153571Y-76428571D01*
X63010714Y-76464285D01*
X62760714Y-76464285D01*
X62617857Y-76428571D01*
X62546428Y-76357142D01*
X62510714Y-76285714D01*
X62510714Y-76142857D01*
X62546428Y-76071428D01*
X62617857Y-76000000D01*
X62760714Y-75964285D01*
X63010714Y-75964285D01*
X63153571Y-76000000D01*
X63225000Y-76071428D01*
X63260714Y-76142857D01*
X59960714Y-74171428D02*
X60710714Y-74171428D01*
X60175000Y-74421428D01*
X60710714Y-74671428D01*
X59960714Y-74671428D01*
X60710714Y-75171428D02*
X60710714Y-75314285D01*
X60675000Y-75385714D01*
X60603571Y-75457142D01*
X60460714Y-75492857D01*
X60210714Y-75492857D01*
X60067857Y-75457142D01*
X59996428Y-75385714D01*
X59960714Y-75314285D01*
X59960714Y-75171428D01*
X59996428Y-75100000D01*
X60067857Y-75028571D01*
X60210714Y-74992857D01*
X60460714Y-74992857D01*
X60603571Y-75028571D01*
X60675000Y-75100000D01*
X60710714Y-75171428D01*
X59996428Y-75778571D02*
X59960714Y-75885714D01*
X59960714Y-76064285D01*
X59996428Y-76135714D01*
X60032142Y-76171428D01*
X60103571Y-76207142D01*
X60175000Y-76207142D01*
X60246428Y-76171428D01*
X60282142Y-76135714D01*
X60317857Y-76064285D01*
X60353571Y-75921428D01*
X60389285Y-75850000D01*
X60425000Y-75814285D01*
X60496428Y-75778571D01*
X60567857Y-75778571D01*
X60639285Y-75814285D01*
X60675000Y-75850000D01*
X60710714Y-75921428D01*
X60710714Y-76100000D01*
X60675000Y-76207142D01*
X59960714Y-76528571D02*
X60710714Y-76528571D01*
X58353571Y-76521428D02*
X58389285Y-76414285D01*
X58389285Y-76235714D01*
X58353571Y-76164285D01*
X58317857Y-76128571D01*
X58246428Y-76092857D01*
X58175000Y-76092857D01*
X58103571Y-76128571D01*
X58067857Y-76164285D01*
X58032142Y-76235714D01*
X57996428Y-76378571D01*
X57960714Y-76450000D01*
X57925000Y-76485714D01*
X57853571Y-76521428D01*
X57782142Y-76521428D01*
X57710714Y-76485714D01*
X57675000Y-76450000D01*
X57639285Y-76378571D01*
X57639285Y-76200000D01*
X57675000Y-76092857D01*
X58353571Y-75807142D02*
X58389285Y-75700000D01*
X58389285Y-75521428D01*
X58353571Y-75450000D01*
X58317857Y-75414285D01*
X58246428Y-75378571D01*
X58175000Y-75378571D01*
X58103571Y-75414285D01*
X58067857Y-75450000D01*
X58032142Y-75521428D01*
X57996428Y-75664285D01*
X57960714Y-75735714D01*
X57925000Y-75771428D01*
X57853571Y-75807142D01*
X57782142Y-75807142D01*
X57710714Y-75771428D01*
X57675000Y-75735714D01*
X57639285Y-75664285D01*
X57639285Y-75485714D01*
X57675000Y-75378571D01*
X98060714Y-74692857D02*
X98810714Y-74692857D01*
X98810714Y-74871428D01*
X98775000Y-74978571D01*
X98703571Y-75050000D01*
X98632142Y-75085714D01*
X98489285Y-75121428D01*
X98382142Y-75121428D01*
X98239285Y-75085714D01*
X98167857Y-75050000D01*
X98096428Y-74978571D01*
X98060714Y-74871428D01*
X98060714Y-74692857D01*
X98810714Y-75335714D02*
X98810714Y-75764285D01*
X98060714Y-75550000D02*
X98810714Y-75550000D01*
X98060714Y-76442857D02*
X98417857Y-76192857D01*
X98060714Y-76014285D02*
X98810714Y-76014285D01*
X98810714Y-76300000D01*
X98775000Y-76371428D01*
X98739285Y-76407142D01*
X98667857Y-76442857D01*
X98560714Y-76442857D01*
X98489285Y-76407142D01*
X98453571Y-76371428D01*
X98417857Y-76300000D01*
X98417857Y-76014285D01*
X96210714Y-74585714D02*
X96210714Y-75014285D01*
X95460714Y-74800000D02*
X96210714Y-74800000D01*
X96210714Y-75192857D02*
X95460714Y-75692857D01*
X96210714Y-75692857D02*
X95460714Y-75192857D01*
X96210714Y-76121428D02*
X96210714Y-76264285D01*
X96175000Y-76335714D01*
X96103571Y-76407142D01*
X95960714Y-76442857D01*
X95710714Y-76442857D01*
X95567857Y-76407142D01*
X95496428Y-76335714D01*
X95460714Y-76264285D01*
X95460714Y-76121428D01*
X95496428Y-76050000D01*
X95567857Y-75978571D01*
X95710714Y-75942857D01*
X95960714Y-75942857D01*
X96103571Y-75978571D01*
X96175000Y-76050000D01*
X96210714Y-76121428D01*
X92960714Y-75396428D02*
X93317857Y-75146428D01*
X92960714Y-74967857D02*
X93710714Y-74967857D01*
X93710714Y-75253571D01*
X93675000Y-75325000D01*
X93639285Y-75360714D01*
X93567857Y-75396428D01*
X93460714Y-75396428D01*
X93389285Y-75360714D01*
X93353571Y-75325000D01*
X93317857Y-75253571D01*
X93317857Y-74967857D01*
X93710714Y-75646428D02*
X92960714Y-76146428D01*
X93710714Y-76146428D02*
X92960714Y-75646428D01*
X92960714Y-76432142D02*
X93710714Y-76432142D01*
X90796428Y-73400000D02*
X90796428Y-73971428D01*
X90510714Y-73685714D02*
X91082142Y-73685714D01*
X91260714Y-74257142D02*
X91260714Y-74721428D01*
X90975000Y-74471428D01*
X90975000Y-74578571D01*
X90939285Y-74650000D01*
X90903571Y-74685714D01*
X90832142Y-74721428D01*
X90653571Y-74721428D01*
X90582142Y-74685714D01*
X90546428Y-74650000D01*
X90510714Y-74578571D01*
X90510714Y-74364285D01*
X90546428Y-74292857D01*
X90582142Y-74257142D01*
X90582142Y-75042857D02*
X90546428Y-75078571D01*
X90510714Y-75042857D01*
X90546428Y-75007142D01*
X90582142Y-75042857D01*
X90510714Y-75042857D01*
X91260714Y-75328571D02*
X91260714Y-75792857D01*
X90975000Y-75542857D01*
X90975000Y-75650000D01*
X90939285Y-75721428D01*
X90903571Y-75757142D01*
X90832142Y-75792857D01*
X90653571Y-75792857D01*
X90582142Y-75757142D01*
X90546428Y-75721428D01*
X90510714Y-75650000D01*
X90510714Y-75435714D01*
X90546428Y-75364285D01*
X90582142Y-75328571D01*
X91260714Y-76007142D02*
X90510714Y-76257142D01*
X91260714Y-76507142D01*
X87882142Y-75189285D02*
X87846428Y-75153571D01*
X87810714Y-75046428D01*
X87810714Y-74975000D01*
X87846428Y-74867857D01*
X87917857Y-74796428D01*
X87989285Y-74760714D01*
X88132142Y-74725000D01*
X88239285Y-74725000D01*
X88382142Y-74760714D01*
X88453571Y-74796428D01*
X88525000Y-74867857D01*
X88560714Y-74975000D01*
X88560714Y-75046428D01*
X88525000Y-75153571D01*
X88489285Y-75189285D01*
X88560714Y-75403571D02*
X88560714Y-75832142D01*
X87810714Y-75617857D02*
X88560714Y-75617857D01*
X87846428Y-76046428D02*
X87810714Y-76153571D01*
X87810714Y-76332142D01*
X87846428Y-76403571D01*
X87882142Y-76439285D01*
X87953571Y-76475000D01*
X88025000Y-76475000D01*
X88096428Y-76439285D01*
X88132142Y-76403571D01*
X88167857Y-76332142D01*
X88203571Y-76189285D01*
X88239285Y-76117857D01*
X88275000Y-76082142D01*
X88346428Y-76046428D01*
X88417857Y-76046428D01*
X88489285Y-76082142D01*
X88525000Y-76117857D01*
X88560714Y-76189285D01*
X88560714Y-76367857D01*
X88525000Y-76475000D01*
X86125000Y-76646428D02*
X86160714Y-76575000D01*
X86160714Y-76467857D01*
X86125000Y-76360714D01*
X86053571Y-76289285D01*
X85982142Y-76253571D01*
X85839285Y-76217857D01*
X85732142Y-76217857D01*
X85589285Y-76253571D01*
X85517857Y-76289285D01*
X85446428Y-76360714D01*
X85410714Y-76467857D01*
X85410714Y-76539285D01*
X85446428Y-76646428D01*
X85482142Y-76682142D01*
X85732142Y-76682142D01*
X85732142Y-76539285D01*
D11*
X110928571Y-73157142D02*
X112071428Y-73157142D01*
X111500000Y-73728571D02*
X111500000Y-72585714D01*
D12*
G04 #@! TO.C,LED1*
X101680000Y-76670000D02*
X101680000Y-79330000D01*
X104280000Y-76670000D02*
X101680000Y-76670000D01*
X104280000Y-79330000D02*
X101680000Y-79330000D01*
X104280000Y-76670000D02*
X104280000Y-79330000D01*
X105550000Y-76670000D02*
X106880000Y-76670000D01*
X106880000Y-76670000D02*
X106880000Y-78000000D01*
G04 #@! TO.C,BATT1*
X105780000Y-71770000D02*
X105780000Y-74430000D01*
X108380000Y-71770000D02*
X105780000Y-71770000D01*
X108380000Y-74430000D02*
X105780000Y-74430000D01*
X108380000Y-71770000D02*
X108380000Y-74430000D01*
X109650000Y-71770000D02*
X110980000Y-71770000D01*
X110980000Y-71770000D02*
X110980000Y-73100000D01*
G04 #@! TO.C,SW1*
X101130000Y-54170000D02*
X101130000Y-54400000D01*
X100610000Y-50500000D02*
X108330000Y-50500000D01*
X108330000Y-50500000D02*
X108330000Y-54400000D01*
X100610000Y-57510000D02*
X101130000Y-57510000D01*
X100610000Y-50500000D02*
X100610000Y-54400000D01*
X107810000Y-54170000D02*
X107810000Y-54400000D01*
X101130000Y-57000000D02*
X101130000Y-57510000D01*
X100610000Y-57000000D02*
X100610000Y-57510000D01*
X107270000Y-54170000D02*
X107810000Y-54170000D01*
X107810000Y-57000000D02*
X107810000Y-57510000D01*
X107810000Y-57510000D02*
X108330000Y-57510000D01*
X108330000Y-57000000D02*
X108330000Y-57510000D01*
X101130000Y-54170000D02*
X101670000Y-54170000D01*
X102770000Y-54170000D02*
X106170000Y-54170000D01*
G04 #@! TO.C,J2*
X99780000Y-79380000D02*
X99780000Y-76720000D01*
X87020000Y-79380000D02*
X99780000Y-79380000D01*
X87020000Y-76720000D02*
X99780000Y-76720000D01*
X87020000Y-79380000D02*
X87020000Y-76720000D01*
X85750000Y-79380000D02*
X84420000Y-79380000D01*
X84420000Y-79380000D02*
X84420000Y-78050000D01*
G04 #@! TO.C,J3*
X66750000Y-79380000D02*
X66750000Y-76720000D01*
X59070000Y-79380000D02*
X66750000Y-79380000D01*
X59070000Y-76720000D02*
X66750000Y-76720000D01*
X59070000Y-79380000D02*
X59070000Y-76720000D01*
X57800000Y-79380000D02*
X56470000Y-79380000D01*
X56470000Y-79380000D02*
X56470000Y-78050000D01*
G04 #@! TO.C,*
D13*
G04 #@! TO.C,LED1*
X107480952Y-79402380D02*
X107004761Y-79402380D01*
X107004761Y-78402380D01*
X107814285Y-78878571D02*
X108147619Y-78878571D01*
X108290476Y-79402380D02*
X107814285Y-79402380D01*
X107814285Y-78402380D01*
X108290476Y-78402380D01*
X108719047Y-79402380D02*
X108719047Y-78402380D01*
X108957142Y-78402380D01*
X109100000Y-78450000D01*
X109195238Y-78545238D01*
X109242857Y-78640476D01*
X109290476Y-78830952D01*
X109290476Y-78973809D01*
X109242857Y-79164285D01*
X109195238Y-79259523D01*
X109100000Y-79354761D01*
X108957142Y-79402380D01*
X108719047Y-79402380D01*
X110242857Y-79402380D02*
X109671428Y-79402380D01*
X109957142Y-79402380D02*
X109957142Y-78402380D01*
X109861904Y-78545238D01*
X109766666Y-78640476D01*
X109671428Y-78688095D01*
G04 #@! TO.C,BATT1*
X101954761Y-72928571D02*
X102097619Y-72976190D01*
X102145238Y-73023809D01*
X102192857Y-73119047D01*
X102192857Y-73261904D01*
X102145238Y-73357142D01*
X102097619Y-73404761D01*
X102002380Y-73452380D01*
X101621428Y-73452380D01*
X101621428Y-72452380D01*
X101954761Y-72452380D01*
X102050000Y-72500000D01*
X102097619Y-72547619D01*
X102145238Y-72642857D01*
X102145238Y-72738095D01*
X102097619Y-72833333D01*
X102050000Y-72880952D01*
X101954761Y-72928571D01*
X101621428Y-72928571D01*
X102573809Y-73166666D02*
X103050000Y-73166666D01*
X102478571Y-73452380D02*
X102811904Y-72452380D01*
X103145238Y-73452380D01*
X103335714Y-72452380D02*
X103907142Y-72452380D01*
X103621428Y-73452380D02*
X103621428Y-72452380D01*
X104097619Y-72452380D02*
X104669047Y-72452380D01*
X104383333Y-73452380D02*
X104383333Y-72452380D01*
X105526190Y-73452380D02*
X104954761Y-73452380D01*
X105240476Y-73452380D02*
X105240476Y-72452380D01*
X105145238Y-72595238D01*
X105050000Y-72690476D01*
X104954761Y-72738095D01*
G04 #@! TO.C,SW1*
X103136666Y-55284761D02*
X103279523Y-55332380D01*
X103517619Y-55332380D01*
X103612857Y-55284761D01*
X103660476Y-55237142D01*
X103708095Y-55141904D01*
X103708095Y-55046666D01*
X103660476Y-54951428D01*
X103612857Y-54903809D01*
X103517619Y-54856190D01*
X103327142Y-54808571D01*
X103231904Y-54760952D01*
X103184285Y-54713333D01*
X103136666Y-54618095D01*
X103136666Y-54522857D01*
X103184285Y-54427619D01*
X103231904Y-54380000D01*
X103327142Y-54332380D01*
X103565238Y-54332380D01*
X103708095Y-54380000D01*
X104041428Y-54332380D02*
X104279523Y-55332380D01*
X104470000Y-54618095D01*
X104660476Y-55332380D01*
X104898571Y-54332380D01*
X105803333Y-55332380D02*
X105231904Y-55332380D01*
X105517619Y-55332380D02*
X105517619Y-54332380D01*
X105422380Y-54475238D01*
X105327142Y-54570476D01*
X105231904Y-54618095D01*
G04 #@! TO.C,J2*
X99902380Y-78333333D02*
X100616666Y-78333333D01*
X100759523Y-78380952D01*
X100854761Y-78476190D01*
X100902380Y-78619047D01*
X100902380Y-78714285D01*
X99997619Y-77904761D02*
X99950000Y-77857142D01*
X99902380Y-77761904D01*
X99902380Y-77523809D01*
X99950000Y-77428571D01*
X99997619Y-77380952D01*
X100092857Y-77333333D01*
X100188095Y-77333333D01*
X100330952Y-77380952D01*
X100902380Y-77952380D01*
X100902380Y-77333333D01*
G04 #@! TO.C,J3*
X54922380Y-78383333D02*
X55636666Y-78383333D01*
X55779523Y-78430952D01*
X55874761Y-78526190D01*
X55922380Y-78669047D01*
X55922380Y-78764285D01*
X54922380Y-78002380D02*
X54922380Y-77383333D01*
X55303333Y-77716666D01*
X55303333Y-77573809D01*
X55350952Y-77478571D01*
X55398571Y-77430952D01*
X55493809Y-77383333D01*
X55731904Y-77383333D01*
X55827142Y-77430952D01*
X55874761Y-77478571D01*
X55922380Y-77573809D01*
X55922380Y-77859523D01*
X55874761Y-77954761D01*
X55827142Y-78002380D01*
G04 #@! TD*
M02*
