M48
;DRILL file {KiCad 4.0.5+dfsg1-4} date Sat Feb  3 00:59:08 2018
;FORMAT={-:-/ absolute / inch / decimal}
FMAT,2
INCH,TZ
T1C0.013
T2C0.028
T3C0.039
T4C0.040
T5C0.106
%
G90
G05
M72
T1
X4.925Y-2.9
X5.1Y-2.95
X5.175Y-2.7
X5.5Y-2.8
X6.2Y-3.1
X6.4Y-3.28
T2
X4.7249Y-2.7
X4.7249Y-3.1
X4.8249Y-2.7
X4.8249Y-3.1
X4.9251Y-2.7
X4.9251Y-3.1
X5.0249Y-2.7
X5.0249Y-3.1
T3
X5.175Y-2.7
X5.175Y-3.1
X5.275Y-2.7
X5.275Y-3.1
T4
X4.85Y-2.6
X4.95Y-2.6
X5.1Y-4.3
X5.2Y-4.3
X5.3Y-2.57
X5.3Y-4.3
X5.4Y-2.57
X5.4Y-4.3
X5.46Y-2.9
X5.46Y-3.
X5.46Y-3.1
X5.9Y-4.1
X6.Y-4.1
X6.Y-4.3
X6.1Y-4.1
X6.1Y-4.3
X6.2Y-4.1
X6.2Y-4.3
X6.3Y-4.1
X6.3Y-4.3
X6.4Y-2.6
X6.4Y-2.7
X6.4Y-2.8
X6.4Y-2.9
X6.4Y-3.
X6.4Y-3.1
X6.4Y-4.1
X6.5Y-2.6
X6.5Y-2.7
X6.5Y-2.8
X6.5Y-2.9
X6.5Y-3.
X6.5Y-3.1
T5
X4.6Y-2.7
X4.6Y-4.3
X6.8Y-2.7
X6.8Y-4.3
T0
M30
