M48
;DRILL file {KiCad (5.0.1)-4} date 04/08/2019 22:45:11
;FORMAT={-:-/ absolute / inch / decimal}
FMAT,2
INCH,TZ
T1C0.0130
T2C0.0200
T3C0.0390
T4C0.0394
T5C0.0512
T6C0.1063
%
G90
G05
M72
T1
X2.0236Y-2.8327
X2.0551Y-2.5315
X2.0728Y-2.4567
X2.126Y-2.8012
X2.1319Y-2.8406
X2.1358Y-2.4843
X2.194Y-2.7992
X2.2165Y-2.8327
X2.2441Y-2.6378
X2.252Y-3.002
X2.2894Y-2.7087
X2.3189Y-2.6024
X2.3287Y-2.2933
X2.3484Y-2.8091
X2.381Y-2.5107
X2.3957Y-2.5709
X2.4331Y-2.9154
X2.437Y-2.9508
X2.4505Y-2.5593
X2.4744Y-2.5846
X2.4941Y-2.4783
X2.502Y-2.5236
X2.5101Y-2.8406
X2.5256Y-2.9508
X2.5315Y-2.2657
X2.5335Y-2.8839
X2.5394Y-3.002
X2.5827Y-2.561
X2.6594Y-2.3189
X2.811Y-2.4961
X2.906Y-2.4941
X3.0492Y-2.5098
X3.0669Y-2.5846
X3.0906Y-2.6909
X3.122Y-2.2185
X3.1949Y-2.4173
X3.2539Y-2.439
X3.2815Y-2.3878
X3.3307Y-2.6437
X3.435Y-2.9272
X3.5059Y-2.8366
X3.6476Y-2.3583
X3.875Y-2.745
X4.0256Y-2.3937
X4.2106Y-2.4764
X4.2657Y-2.5236
X4.311Y-2.5591
T2
X2.0037Y-2.7362
X2.0276Y-2.4213
X2.2087Y-2.2539
X2.2126Y-2.0079
X2.3268Y-2.7362
X2.5886Y-2.7441
X2.6791Y-2.1142
X2.872Y-2.5571
X3.1201Y-2.3735
X3.3701Y-2.3996
X3.4252Y-2.1142
X3.485Y-2.525
X3.6319Y-2.5079
X3.8209Y-2.9783
X3.865Y-2.555
X3.895Y-2.0079
X4.0315Y-2.5728
X4.4114Y-2.4488
T3
X4.0244Y-2.0945
X4.2016Y-2.0945
T4
X3.376Y-3.0728
X3.476Y-3.0728
X3.576Y-3.0728
X3.676Y-3.0728
X3.776Y-3.0728
X3.876Y-3.0728
X4.115Y-2.885
X4.255Y-2.885
X4.0555Y-3.0709
X4.1555Y-3.0709
X4.175Y-2.2854
X2.2756Y-3.0728
X2.3756Y-3.0728
X2.4756Y-3.0728
X2.5756Y-3.0728
T5
X3.9752Y-2.1925
X4.2512Y-2.1925
T6
X2.0866Y-2.1063
X4.3701Y-2.1063
X4.3701Y-3.0118
X2.0866Y-3.0118
T0
M30
