G04 #@! TF.FileFunction,Copper,L2,Bot,Signal*
%FSLAX46Y46*%
G04 Gerber Fmt 4.6, Leading zero omitted, Abs format (unit mm)*
G04 Created by KiCad (PCBNEW 4.0.5+dfsg1-4) date Sat Feb  3 00:51:27 2018*
%MOMM*%
%LPD*%
G01*
G04 APERTURE LIST*
%ADD10C,0.100000*%
%ADD11C,1.699260*%
%ADD12R,1.699260X1.699260*%
%ADD13R,1.727200X1.727200*%
%ADD14O,1.727200X1.727200*%
%ADD15R,1.727200X2.032000*%
%ADD16O,1.727200X2.032000*%
%ADD17R,2.032000X1.727200*%
%ADD18O,2.032000X1.727200*%
%ADD19R,2.032000X2.032000*%
%ADD20O,2.032000X2.032000*%
%ADD21C,1.998980*%
%ADD22C,0.685800*%
%ADD23C,0.635000*%
%ADD24C,1.270000*%
G04 APERTURE END LIST*
D10*
D11*
X125097540Y-78740520D03*
D12*
X125097540Y-68580520D03*
D11*
X120012460Y-68579480D03*
D12*
X120012460Y-78739480D03*
D11*
X127632460Y-68579480D03*
D12*
X127632460Y-78739480D03*
D11*
X122552460Y-68579480D03*
D12*
X122552460Y-78739480D03*
D13*
X162560000Y-66040000D03*
D14*
X165100000Y-66040000D03*
X162560000Y-68580000D03*
X165100000Y-68580000D03*
X162560000Y-71120000D03*
X165100000Y-71120000D03*
X162560000Y-73660000D03*
X165100000Y-73660000D03*
X162560000Y-76200000D03*
X165100000Y-76200000D03*
X162560000Y-78740000D03*
X165100000Y-78740000D03*
D15*
X162560000Y-104140000D03*
D16*
X160020000Y-104140000D03*
X157480000Y-104140000D03*
X154940000Y-104140000D03*
X152400000Y-104140000D03*
X149860000Y-104140000D03*
D17*
X138684000Y-78740000D03*
D18*
X138684000Y-76200000D03*
X138684000Y-73660000D03*
D19*
X123190000Y-66040000D03*
D20*
X125730000Y-66040000D03*
D19*
X137160000Y-65278000D03*
D20*
X134620000Y-65278000D03*
D21*
X133985000Y-78740000D03*
X133985000Y-68580000D03*
X131445000Y-78740000D03*
X131445000Y-68580000D03*
D15*
X152400000Y-109220000D03*
D16*
X154940000Y-109220000D03*
X157480000Y-109220000D03*
X160020000Y-109220000D03*
D15*
X137160000Y-109220000D03*
D16*
X134620000Y-109220000D03*
X132080000Y-109220000D03*
X129540000Y-109220000D03*
D22*
X125095000Y-73660000D03*
X139700000Y-71120000D03*
X131445000Y-68580000D03*
X162560000Y-83312000D03*
X157480000Y-78740000D03*
X129540000Y-74930000D03*
D23*
X137160000Y-65278000D02*
X137160000Y-72390000D01*
X135890000Y-73660000D02*
X125095000Y-73660000D01*
X137160000Y-72390000D02*
X135890000Y-73660000D01*
X122552460Y-68579480D02*
X122552460Y-71752460D01*
X135890000Y-67310000D02*
X134620000Y-66040000D01*
X135890000Y-69850000D02*
X135890000Y-67310000D01*
X133985000Y-71755000D02*
X135890000Y-69850000D01*
X122555000Y-71755000D02*
X133985000Y-71755000D01*
X122552460Y-71752460D02*
X122555000Y-71755000D01*
X134620000Y-66040000D02*
X134620000Y-65278000D01*
X165100000Y-80010000D02*
X163830000Y-81280000D01*
X163830000Y-81280000D02*
X156210000Y-81280000D01*
X156210000Y-81280000D02*
X154940000Y-80010000D01*
X154940000Y-80010000D02*
X154940000Y-71120000D01*
X154940000Y-71120000D02*
X139700000Y-71120000D01*
X165100000Y-80010000D02*
X165100000Y-78740000D01*
X131445000Y-68580000D02*
X131444480Y-68579480D01*
X131444480Y-68579480D02*
X127632460Y-68579480D01*
X122552460Y-78739480D02*
X122555000Y-80645000D01*
X155448000Y-83312000D02*
X162560000Y-83312000D01*
X152908000Y-80772000D02*
X155448000Y-83312000D01*
X122936000Y-80772000D02*
X152908000Y-80772000D01*
X122555000Y-80645000D02*
X122936000Y-80772000D01*
X129540000Y-109220000D02*
X129540000Y-118110000D01*
X160020000Y-118110000D02*
X160020000Y-109220000D01*
X129540000Y-118110000D02*
X160020000Y-118110000D01*
X160020000Y-109220000D02*
X160020000Y-104140000D01*
X157480000Y-104140000D02*
X157480000Y-109220000D01*
X157480000Y-109220000D02*
X157480000Y-115570000D01*
X132080000Y-115570000D02*
X132080000Y-109220000D01*
X157480000Y-115570000D02*
X132080000Y-115570000D01*
X162560000Y-71120000D02*
X157480000Y-71120000D01*
X157480000Y-71120000D02*
X157480000Y-78740000D01*
X125730000Y-66040000D02*
X132080000Y-66040000D01*
X133350000Y-67310000D02*
X133985000Y-68580000D01*
X132080000Y-66040000D02*
X133350000Y-67310000D01*
X129540000Y-74930000D02*
X130810000Y-76962000D01*
X131445000Y-78740000D02*
X130810000Y-76962000D01*
D24*
X154940000Y-104140000D02*
X154940000Y-109220000D01*
X154940000Y-109220000D02*
X154940000Y-113030000D01*
X134620000Y-113030000D02*
X134620000Y-109220000D01*
X154940000Y-113030000D02*
X134620000Y-113030000D01*
X154940000Y-100076000D02*
X154940000Y-104140000D01*
X172212000Y-82804000D02*
X154940000Y-100076000D01*
X165100000Y-71120000D02*
X171704000Y-71120000D01*
X172212000Y-71628000D02*
X172212000Y-82804000D01*
X171704000Y-71120000D02*
X172212000Y-71628000D01*
M02*
