G04 #@! TF.FileFunction,Legend,Top*
%FSLAX46Y46*%
G04 Gerber Fmt 4.6, Leading zero omitted, Abs format (unit mm)*
G04 Created by KiCad (PCBNEW 4.0.5+dfsg1-4) date Tue Mar 27 21:16:24 2018*
%MOMM*%
%LPD*%
G01*
G04 APERTURE LIST*
%ADD10C,0.100000*%
%ADD11C,0.300000*%
%ADD12C,0.250000*%
%ADD13C,0.200000*%
%ADD14C,0.150000*%
G04 APERTURE END LIST*
D10*
D11*
X120840572Y-65131143D02*
X121983429Y-65131143D01*
X121412000Y-65702571D02*
X121412000Y-64559714D01*
X127444572Y-65131143D02*
X128587429Y-65131143D01*
X151853572Y-89162143D02*
X153567858Y-89162143D01*
X152710715Y-92162143D02*
X152710715Y-89162143D01*
X155139286Y-89162143D02*
X155710715Y-89162143D01*
X155996429Y-89305000D01*
X156282143Y-89590714D01*
X156425001Y-90162143D01*
X156425001Y-91162143D01*
X156282143Y-91733571D01*
X155996429Y-92019286D01*
X155710715Y-92162143D01*
X155139286Y-92162143D01*
X154853572Y-92019286D01*
X154567858Y-91733571D01*
X154425001Y-91162143D01*
X154425001Y-90162143D01*
X154567858Y-89590714D01*
X154853572Y-89305000D01*
X155139286Y-89162143D01*
X157710715Y-92162143D02*
X157710715Y-89162143D01*
X158853572Y-89162143D01*
X159139286Y-89305000D01*
X159282143Y-89447857D01*
X159425000Y-89733571D01*
X159425000Y-90162143D01*
X159282143Y-90447857D01*
X159139286Y-90590714D01*
X158853572Y-90733571D01*
X157710715Y-90733571D01*
X162853572Y-92019286D02*
X163282143Y-92162143D01*
X163996429Y-92162143D01*
X164282143Y-92019286D01*
X164425000Y-91876429D01*
X164567857Y-91590714D01*
X164567857Y-91305000D01*
X164425000Y-91019286D01*
X164282143Y-90876429D01*
X163996429Y-90733571D01*
X163425000Y-90590714D01*
X163139286Y-90447857D01*
X162996429Y-90305000D01*
X162853572Y-90019286D01*
X162853572Y-89733571D01*
X162996429Y-89447857D01*
X163139286Y-89305000D01*
X163425000Y-89162143D01*
X164139286Y-89162143D01*
X164567857Y-89305000D01*
X165853572Y-92162143D02*
X165853572Y-89162143D01*
X167282143Y-92162143D02*
X167282143Y-89162143D01*
X167996428Y-89162143D01*
X168425000Y-89305000D01*
X168710714Y-89590714D01*
X168853571Y-89876429D01*
X168996428Y-90447857D01*
X168996428Y-90876429D01*
X168853571Y-91447857D01*
X168710714Y-91733571D01*
X168425000Y-92019286D01*
X167996428Y-92162143D01*
X167282143Y-92162143D01*
X170282143Y-90590714D02*
X171282143Y-90590714D01*
X171710714Y-92162143D02*
X170282143Y-92162143D01*
X170282143Y-89162143D01*
X171710714Y-89162143D01*
D12*
X142105000Y-118435715D02*
X142152619Y-118340477D01*
X142152619Y-118197620D01*
X142105000Y-118054762D01*
X142009762Y-117959524D01*
X141914524Y-117911905D01*
X141724048Y-117864286D01*
X141581190Y-117864286D01*
X141390714Y-117911905D01*
X141295476Y-117959524D01*
X141200238Y-118054762D01*
X141152619Y-118197620D01*
X141152619Y-118292858D01*
X141200238Y-118435715D01*
X141247857Y-118483334D01*
X141581190Y-118483334D01*
X141581190Y-118292858D01*
X141628810Y-119102381D02*
X141152619Y-119102381D01*
X142152619Y-118769048D02*
X141628810Y-119102381D01*
X142152619Y-119435715D01*
X141533571Y-119769048D02*
X141533571Y-120530953D01*
X142152619Y-121483334D02*
X142152619Y-121007143D01*
X141676429Y-120959524D01*
X141724048Y-121007143D01*
X141771667Y-121102381D01*
X141771667Y-121340477D01*
X141724048Y-121435715D01*
X141676429Y-121483334D01*
X141581190Y-121530953D01*
X141343095Y-121530953D01*
X141247857Y-121483334D01*
X141200238Y-121435715D01*
X141152619Y-121340477D01*
X141152619Y-121102381D01*
X141200238Y-121007143D01*
X141247857Y-120959524D01*
X142057381Y-121911905D02*
X142105000Y-121959524D01*
X142152619Y-122054762D01*
X142152619Y-122292858D01*
X142105000Y-122388096D01*
X142057381Y-122435715D01*
X141962143Y-122483334D01*
X141866905Y-122483334D01*
X141724048Y-122435715D01*
X141152619Y-121864286D01*
X141152619Y-122483334D01*
X141152619Y-123435715D02*
X141152619Y-122864286D01*
X141152619Y-123150000D02*
X142152619Y-123150000D01*
X142009762Y-123054762D01*
X141914524Y-122959524D01*
X141866905Y-122864286D01*
D13*
X119380000Y-107950000D02*
X140970000Y-107950000D01*
X119380000Y-123825000D02*
X119380000Y-107950000D01*
X140970000Y-123825000D02*
X119380000Y-123825000D01*
X140970000Y-107950000D02*
X140970000Y-123825000D01*
D14*
X125097540Y-75946520D02*
X125097540Y-77343520D01*
X125097540Y-71501520D02*
X125097540Y-69977520D01*
X125859540Y-71882520D02*
X124335540Y-71882520D01*
X125859540Y-71628520D02*
X124335540Y-71628520D01*
X125097540Y-71374520D02*
X124335540Y-71374520D01*
X124335540Y-71374520D02*
X124335540Y-75946520D01*
X124335540Y-75946520D02*
X125859540Y-75946520D01*
X125859540Y-75946520D02*
X125859540Y-71374520D01*
X125859540Y-71374520D02*
X125097540Y-71374520D01*
X120012460Y-71373480D02*
X120012460Y-69976480D01*
X120012460Y-75818480D02*
X120012460Y-77342480D01*
X119250460Y-75437480D02*
X120774460Y-75437480D01*
X119250460Y-75691480D02*
X120774460Y-75691480D01*
X120012460Y-75945480D02*
X120774460Y-75945480D01*
X120774460Y-75945480D02*
X120774460Y-71373480D01*
X120774460Y-71373480D02*
X119250460Y-71373480D01*
X119250460Y-71373480D02*
X119250460Y-75945480D01*
X119250460Y-75945480D02*
X120012460Y-75945480D01*
X127632460Y-71373480D02*
X127632460Y-69976480D01*
X127632460Y-75818480D02*
X127632460Y-77342480D01*
X126870460Y-75437480D02*
X128394460Y-75437480D01*
X126870460Y-75691480D02*
X128394460Y-75691480D01*
X127632460Y-75945480D02*
X128394460Y-75945480D01*
X128394460Y-75945480D02*
X128394460Y-71373480D01*
X128394460Y-71373480D02*
X126870460Y-71373480D01*
X126870460Y-71373480D02*
X126870460Y-75945480D01*
X126870460Y-75945480D02*
X127632460Y-75945480D01*
X122552460Y-71373480D02*
X122552460Y-69976480D01*
X122552460Y-75818480D02*
X122552460Y-77342480D01*
X121790460Y-75437480D02*
X123314460Y-75437480D01*
X121790460Y-75691480D02*
X123314460Y-75691480D01*
X122552460Y-75945480D02*
X123314460Y-75945480D01*
X123314460Y-75945480D02*
X123314460Y-71373480D01*
X123314460Y-71373480D02*
X121790460Y-71373480D01*
X121790460Y-71373480D02*
X121790460Y-75945480D01*
X121790460Y-75945480D02*
X122552460Y-75945480D01*
X167640000Y-80010000D02*
X167640000Y-64770000D01*
X162560000Y-67310000D02*
X162560000Y-80010000D01*
X167640000Y-80010000D02*
X162560000Y-80010000D01*
X167640000Y-64770000D02*
X165100000Y-64770000D01*
X163830000Y-64490000D02*
X162280000Y-64490000D01*
X165100000Y-64770000D02*
X165100000Y-67310000D01*
X165100000Y-67310000D02*
X162560000Y-67310000D01*
X162280000Y-64490000D02*
X162280000Y-66040000D01*
X135255000Y-74930000D02*
X135255000Y-80010000D01*
X135255000Y-80010000D02*
X137795000Y-80010000D01*
X137795000Y-80010000D02*
X137795000Y-74930000D01*
X138075000Y-72110000D02*
X138075000Y-73660000D01*
X137795000Y-74930000D02*
X135255000Y-74930000D01*
X134975000Y-73660000D02*
X134975000Y-72110000D01*
X134975000Y-72110000D02*
X138075000Y-72110000D01*
X124714000Y-63754000D02*
X127254000Y-63754000D01*
X121894000Y-63474000D02*
X123444000Y-63474000D01*
X124714000Y-63754000D02*
X124714000Y-66294000D01*
X123444000Y-66574000D02*
X121894000Y-66574000D01*
X121894000Y-66574000D02*
X121894000Y-63474000D01*
X124714000Y-66294000D02*
X127254000Y-66294000D01*
X127254000Y-66294000D02*
X127254000Y-63754000D01*
X132588000Y-66294000D02*
X130048000Y-66294000D01*
X135408000Y-66574000D02*
X133858000Y-66574000D01*
X132588000Y-66294000D02*
X132588000Y-63754000D01*
X133858000Y-63474000D02*
X135408000Y-63474000D01*
X135408000Y-63474000D02*
X135408000Y-66574000D01*
X132588000Y-63754000D02*
X130048000Y-63754000D01*
X130048000Y-63754000D02*
X130048000Y-66294000D01*
X152146000Y-110490000D02*
X159766000Y-110490000D01*
X152146000Y-107950000D02*
X159766000Y-107950000D01*
X149326000Y-107670000D02*
X150876000Y-107670000D01*
X159766000Y-110490000D02*
X159766000Y-107950000D01*
X152146000Y-107950000D02*
X152146000Y-110490000D01*
X150876000Y-110770000D02*
X149326000Y-110770000D01*
X149326000Y-110770000D02*
X149326000Y-107670000D01*
X122555000Y-123825000D02*
X130175000Y-123825000D01*
X122555000Y-121285000D02*
X130175000Y-121285000D01*
X119735000Y-121005000D02*
X121285000Y-121005000D01*
X130175000Y-123825000D02*
X130175000Y-121285000D01*
X122555000Y-121285000D02*
X122555000Y-123825000D01*
X121285000Y-124105000D02*
X119735000Y-124105000D01*
X119735000Y-124105000D02*
X119735000Y-121005000D01*
X132080000Y-77470000D02*
X132080000Y-72390000D01*
X132080000Y-72390000D02*
X134620000Y-72390000D01*
X134620000Y-72390000D02*
X134620000Y-77470000D01*
X134620000Y-77470000D02*
X132080000Y-77470000D01*
X129540000Y-77470000D02*
X129540000Y-72390000D01*
X129540000Y-72390000D02*
X132080000Y-72390000D01*
X132080000Y-72390000D02*
X132080000Y-77470000D01*
X132080000Y-77470000D02*
X129540000Y-77470000D01*
X167666000Y-107670000D02*
X167666000Y-109220000D01*
X164566000Y-109220000D02*
X164566000Y-107670000D01*
X164566000Y-107670000D02*
X167666000Y-107670000D01*
X164846000Y-110490000D02*
X167386000Y-110490000D01*
X125547381Y-75280001D02*
X125547381Y-75680001D01*
X125547381Y-75480001D02*
X124547381Y-75480001D01*
X124690238Y-75546667D01*
X124785476Y-75613334D01*
X124833095Y-75680001D01*
X125547381Y-74980000D02*
X124547381Y-74980000D01*
X125547381Y-74580000D01*
X124547381Y-74580000D01*
X124880714Y-73946667D02*
X125547381Y-73946667D01*
X124499762Y-74113334D02*
X125214048Y-74280001D01*
X125214048Y-73846667D01*
X125547381Y-73213334D02*
X125547381Y-73613334D01*
X125547381Y-73413334D02*
X124547381Y-73413334D01*
X124690238Y-73480000D01*
X124785476Y-73546667D01*
X124833095Y-73613334D01*
X124880714Y-72613333D02*
X125547381Y-72613333D01*
X124499762Y-72780000D02*
X125214048Y-72946667D01*
X125214048Y-72513333D01*
X124975952Y-72146666D02*
X124928333Y-72213333D01*
X124880714Y-72246666D01*
X124785476Y-72280000D01*
X124737857Y-72280000D01*
X124642619Y-72246666D01*
X124595000Y-72213333D01*
X124547381Y-72146666D01*
X124547381Y-72013333D01*
X124595000Y-71946666D01*
X124642619Y-71913333D01*
X124737857Y-71880000D01*
X124785476Y-71880000D01*
X124880714Y-71913333D01*
X124928333Y-71946666D01*
X124975952Y-72013333D01*
X124975952Y-72146666D01*
X125023571Y-72213333D01*
X125071190Y-72246666D01*
X125166429Y-72280000D01*
X125356905Y-72280000D01*
X125452143Y-72246666D01*
X125499762Y-72213333D01*
X125547381Y-72146666D01*
X125547381Y-72013333D01*
X125499762Y-71946666D01*
X125452143Y-71913333D01*
X125356905Y-71880000D01*
X125166429Y-71880000D01*
X125071190Y-71913333D01*
X125023571Y-71946666D01*
X124975952Y-72013333D01*
X119943571Y-74723333D02*
X119991190Y-74623333D01*
X120038810Y-74590000D01*
X120134048Y-74556666D01*
X120276905Y-74556666D01*
X120372143Y-74590000D01*
X120419762Y-74623333D01*
X120467381Y-74690000D01*
X120467381Y-74956666D01*
X119467381Y-74956666D01*
X119467381Y-74723333D01*
X119515000Y-74656666D01*
X119562619Y-74623333D01*
X119657857Y-74590000D01*
X119753095Y-74590000D01*
X119848333Y-74623333D01*
X119895952Y-74656666D01*
X119943571Y-74723333D01*
X119943571Y-74956666D01*
X120181667Y-74290000D02*
X120181667Y-73956666D01*
X120467381Y-74356666D02*
X119467381Y-74123333D01*
X120467381Y-73890000D01*
X119467381Y-73756666D02*
X119467381Y-73356666D01*
X120467381Y-73556666D02*
X119467381Y-73556666D01*
X119895952Y-73023333D02*
X119848333Y-73090000D01*
X119800714Y-73123333D01*
X119705476Y-73156667D01*
X119657857Y-73156667D01*
X119562619Y-73123333D01*
X119515000Y-73090000D01*
X119467381Y-73023333D01*
X119467381Y-72890000D01*
X119515000Y-72823333D01*
X119562619Y-72790000D01*
X119657857Y-72756667D01*
X119705476Y-72756667D01*
X119800714Y-72790000D01*
X119848333Y-72823333D01*
X119895952Y-72890000D01*
X119895952Y-73023333D01*
X119943571Y-73090000D01*
X119991190Y-73123333D01*
X120086429Y-73156667D01*
X120276905Y-73156667D01*
X120372143Y-73123333D01*
X120419762Y-73090000D01*
X120467381Y-73023333D01*
X120467381Y-72890000D01*
X120419762Y-72823333D01*
X120372143Y-72790000D01*
X120276905Y-72756667D01*
X120086429Y-72756667D01*
X119991190Y-72790000D01*
X119943571Y-72823333D01*
X119895952Y-72890000D01*
X119467381Y-72123333D02*
X119467381Y-72456666D01*
X119943571Y-72490000D01*
X119895952Y-72456666D01*
X119848333Y-72390000D01*
X119848333Y-72223333D01*
X119895952Y-72156666D01*
X119943571Y-72123333D01*
X120038810Y-72090000D01*
X120276905Y-72090000D01*
X120372143Y-72123333D01*
X120419762Y-72156666D01*
X120467381Y-72223333D01*
X120467381Y-72390000D01*
X120419762Y-72456666D01*
X120372143Y-72490000D01*
X127563571Y-74723333D02*
X127611190Y-74623333D01*
X127658810Y-74590000D01*
X127754048Y-74556666D01*
X127896905Y-74556666D01*
X127992143Y-74590000D01*
X128039762Y-74623333D01*
X128087381Y-74690000D01*
X128087381Y-74956666D01*
X127087381Y-74956666D01*
X127087381Y-74723333D01*
X127135000Y-74656666D01*
X127182619Y-74623333D01*
X127277857Y-74590000D01*
X127373095Y-74590000D01*
X127468333Y-74623333D01*
X127515952Y-74656666D01*
X127563571Y-74723333D01*
X127563571Y-74956666D01*
X127801667Y-74290000D02*
X127801667Y-73956666D01*
X128087381Y-74356666D02*
X127087381Y-74123333D01*
X128087381Y-73890000D01*
X127087381Y-73756666D02*
X127087381Y-73356666D01*
X128087381Y-73556666D02*
X127087381Y-73556666D01*
X127515952Y-73023333D02*
X127468333Y-73090000D01*
X127420714Y-73123333D01*
X127325476Y-73156667D01*
X127277857Y-73156667D01*
X127182619Y-73123333D01*
X127135000Y-73090000D01*
X127087381Y-73023333D01*
X127087381Y-72890000D01*
X127135000Y-72823333D01*
X127182619Y-72790000D01*
X127277857Y-72756667D01*
X127325476Y-72756667D01*
X127420714Y-72790000D01*
X127468333Y-72823333D01*
X127515952Y-72890000D01*
X127515952Y-73023333D01*
X127563571Y-73090000D01*
X127611190Y-73123333D01*
X127706429Y-73156667D01*
X127896905Y-73156667D01*
X127992143Y-73123333D01*
X128039762Y-73090000D01*
X128087381Y-73023333D01*
X128087381Y-72890000D01*
X128039762Y-72823333D01*
X127992143Y-72790000D01*
X127896905Y-72756667D01*
X127706429Y-72756667D01*
X127611190Y-72790000D01*
X127563571Y-72823333D01*
X127515952Y-72890000D01*
X127087381Y-72123333D02*
X127087381Y-72456666D01*
X127563571Y-72490000D01*
X127515952Y-72456666D01*
X127468333Y-72390000D01*
X127468333Y-72223333D01*
X127515952Y-72156666D01*
X127563571Y-72123333D01*
X127658810Y-72090000D01*
X127896905Y-72090000D01*
X127992143Y-72123333D01*
X128039762Y-72156666D01*
X128087381Y-72223333D01*
X128087381Y-72390000D01*
X128039762Y-72456666D01*
X127992143Y-72490000D01*
X122483571Y-74723333D02*
X122531190Y-74623333D01*
X122578810Y-74590000D01*
X122674048Y-74556666D01*
X122816905Y-74556666D01*
X122912143Y-74590000D01*
X122959762Y-74623333D01*
X123007381Y-74690000D01*
X123007381Y-74956666D01*
X122007381Y-74956666D01*
X122007381Y-74723333D01*
X122055000Y-74656666D01*
X122102619Y-74623333D01*
X122197857Y-74590000D01*
X122293095Y-74590000D01*
X122388333Y-74623333D01*
X122435952Y-74656666D01*
X122483571Y-74723333D01*
X122483571Y-74956666D01*
X122721667Y-74290000D02*
X122721667Y-73956666D01*
X123007381Y-74356666D02*
X122007381Y-74123333D01*
X123007381Y-73890000D01*
X122007381Y-73756666D02*
X122007381Y-73356666D01*
X123007381Y-73556666D02*
X122007381Y-73556666D01*
X122435952Y-73023333D02*
X122388333Y-73090000D01*
X122340714Y-73123333D01*
X122245476Y-73156667D01*
X122197857Y-73156667D01*
X122102619Y-73123333D01*
X122055000Y-73090000D01*
X122007381Y-73023333D01*
X122007381Y-72890000D01*
X122055000Y-72823333D01*
X122102619Y-72790000D01*
X122197857Y-72756667D01*
X122245476Y-72756667D01*
X122340714Y-72790000D01*
X122388333Y-72823333D01*
X122435952Y-72890000D01*
X122435952Y-73023333D01*
X122483571Y-73090000D01*
X122531190Y-73123333D01*
X122626429Y-73156667D01*
X122816905Y-73156667D01*
X122912143Y-73123333D01*
X122959762Y-73090000D01*
X123007381Y-73023333D01*
X123007381Y-72890000D01*
X122959762Y-72823333D01*
X122912143Y-72790000D01*
X122816905Y-72756667D01*
X122626429Y-72756667D01*
X122531190Y-72790000D01*
X122483571Y-72823333D01*
X122435952Y-72890000D01*
X122007381Y-72123333D02*
X122007381Y-72456666D01*
X122483571Y-72490000D01*
X122435952Y-72456666D01*
X122388333Y-72390000D01*
X122388333Y-72223333D01*
X122435952Y-72156666D01*
X122483571Y-72123333D01*
X122578810Y-72090000D01*
X122816905Y-72090000D01*
X122912143Y-72123333D01*
X122959762Y-72156666D01*
X123007381Y-72223333D01*
X123007381Y-72390000D01*
X122959762Y-72456666D01*
X122912143Y-72490000D01*
X133135714Y-75525714D02*
X133802381Y-75525714D01*
X132754762Y-75763810D02*
X133469048Y-76001905D01*
X133469048Y-75382857D01*
X133802381Y-75001905D02*
X132802381Y-75001905D01*
X133802381Y-74430476D02*
X133230952Y-74859048D01*
X132802381Y-74430476D02*
X133373810Y-75001905D01*
X132802381Y-74097143D02*
X132802381Y-73430476D01*
X133802381Y-73859048D01*
X130357619Y-76478095D02*
X130310000Y-76430476D01*
X130262381Y-76335238D01*
X130262381Y-76097142D01*
X130310000Y-76001904D01*
X130357619Y-75954285D01*
X130452857Y-75906666D01*
X130548095Y-75906666D01*
X130690952Y-75954285D01*
X131262381Y-76525714D01*
X131262381Y-75906666D01*
X130262381Y-75573333D02*
X130262381Y-74906666D01*
X131262381Y-75335238D01*
X130262381Y-74335238D02*
X130262381Y-74239999D01*
X130310000Y-74144761D01*
X130357619Y-74097142D01*
X130452857Y-74049523D01*
X130643333Y-74001904D01*
X130881429Y-74001904D01*
X131071905Y-74049523D01*
X131167143Y-74097142D01*
X131214762Y-74144761D01*
X131262381Y-74239999D01*
X131262381Y-74335238D01*
X131214762Y-74430476D01*
X131167143Y-74478095D01*
X131071905Y-74525714D01*
X130881429Y-74573333D01*
X130643333Y-74573333D01*
X130452857Y-74525714D01*
X130357619Y-74478095D01*
X130310000Y-74430476D01*
X130262381Y-74335238D01*
X131262381Y-73001904D02*
X130786190Y-73335238D01*
X131262381Y-73573333D02*
X130262381Y-73573333D01*
X130262381Y-73192380D01*
X130310000Y-73097142D01*
X130357619Y-73049523D01*
X130452857Y-73001904D01*
X130595714Y-73001904D01*
X130690952Y-73049523D01*
X130738571Y-73097142D01*
X130786190Y-73192380D01*
X130786190Y-73573333D01*
M02*
