G04 #@! TF.GenerationSoftware,KiCad,Pcbnew,(5.0.1)-4*
G04 #@! TF.CreationDate,2019-07-27T10:37:25+01:00*
G04 #@! TF.ProjectId,Bell-Boy,42656C6C2D426F792E6B696361645F70,rev?*
G04 #@! TF.SameCoordinates,Original*
G04 #@! TF.FileFunction,Soldermask,Bot*
G04 #@! TF.FilePolarity,Negative*
%FSLAX46Y46*%
G04 Gerber Fmt 4.6, Leading zero omitted, Abs format (unit mm)*
G04 Created by KiCad (PCBNEW (5.0.1)-4) date 27/07/2019 10:37:25*
%MOMM*%
%LPD*%
G01*
G04 APERTURE LIST*
%ADD10C,0.100000*%
G04 APERTURE END LIST*
D10*
G36*
X98631567Y-77137202D02*
X98806156Y-77190163D01*
X98967059Y-77276167D01*
X99108091Y-77391909D01*
X99223833Y-77532941D01*
X99309837Y-77693844D01*
X99362798Y-77868433D01*
X99380681Y-78050000D01*
X99362798Y-78231567D01*
X99309837Y-78406156D01*
X99223833Y-78567059D01*
X99108091Y-78708091D01*
X98967059Y-78823833D01*
X98806156Y-78909837D01*
X98752214Y-78926200D01*
X98631567Y-78962798D01*
X98495496Y-78976200D01*
X98404504Y-78976200D01*
X98268433Y-78962798D01*
X98147786Y-78926200D01*
X98093844Y-78909837D01*
X97932941Y-78823833D01*
X97791909Y-78708091D01*
X97676167Y-78567059D01*
X97590163Y-78406156D01*
X97537202Y-78231567D01*
X97519319Y-78050000D01*
X97537202Y-77868433D01*
X97590163Y-77693844D01*
X97676167Y-77532941D01*
X97791909Y-77391909D01*
X97932941Y-77276167D01*
X98093844Y-77190163D01*
X98268433Y-77137202D01*
X98404504Y-77123800D01*
X98495496Y-77123800D01*
X98631567Y-77137202D01*
X98631567Y-77137202D01*
G37*
G36*
X88471567Y-77137202D02*
X88646156Y-77190163D01*
X88807059Y-77276167D01*
X88948091Y-77391909D01*
X89063833Y-77532941D01*
X89149837Y-77693844D01*
X89202798Y-77868433D01*
X89220681Y-78050000D01*
X89202798Y-78231567D01*
X89149837Y-78406156D01*
X89063833Y-78567059D01*
X88948091Y-78708091D01*
X88807059Y-78823833D01*
X88646156Y-78909837D01*
X88471567Y-78962798D01*
X88335496Y-78976200D01*
X88244504Y-78976200D01*
X88108433Y-78962798D01*
X87933844Y-78909837D01*
X87772941Y-78823833D01*
X87631909Y-78708091D01*
X87516167Y-78567059D01*
X87430163Y-78406156D01*
X87377202Y-78231567D01*
X87359319Y-78050000D01*
X87377202Y-77868433D01*
X87430163Y-77693844D01*
X87516167Y-77532941D01*
X87631909Y-77391909D01*
X87772941Y-77276167D01*
X87933844Y-77190163D01*
X88108433Y-77137202D01*
X88244504Y-77123800D01*
X88335496Y-77123800D01*
X88471567Y-77137202D01*
X88471567Y-77137202D01*
G37*
G36*
X86676200Y-78976200D02*
X84823800Y-78976200D01*
X84823800Y-77123800D01*
X86676200Y-77123800D01*
X86676200Y-78976200D01*
X86676200Y-78976200D01*
G37*
G36*
X91011567Y-77137202D02*
X91186156Y-77190163D01*
X91347059Y-77276167D01*
X91488091Y-77391909D01*
X91603833Y-77532941D01*
X91689837Y-77693844D01*
X91742798Y-77868433D01*
X91760681Y-78050000D01*
X91742798Y-78231567D01*
X91689837Y-78406156D01*
X91603833Y-78567059D01*
X91488091Y-78708091D01*
X91347059Y-78823833D01*
X91186156Y-78909837D01*
X91011567Y-78962798D01*
X90875496Y-78976200D01*
X90784504Y-78976200D01*
X90648433Y-78962798D01*
X90473844Y-78909837D01*
X90312941Y-78823833D01*
X90171909Y-78708091D01*
X90056167Y-78567059D01*
X89970163Y-78406156D01*
X89917202Y-78231567D01*
X89899319Y-78050000D01*
X89917202Y-77868433D01*
X89970163Y-77693844D01*
X90056167Y-77532941D01*
X90171909Y-77391909D01*
X90312941Y-77276167D01*
X90473844Y-77190163D01*
X90648433Y-77137202D01*
X90784504Y-77123800D01*
X90875496Y-77123800D01*
X91011567Y-77137202D01*
X91011567Y-77137202D01*
G37*
G36*
X93551567Y-77137202D02*
X93726156Y-77190163D01*
X93887059Y-77276167D01*
X94028091Y-77391909D01*
X94143833Y-77532941D01*
X94229837Y-77693844D01*
X94282798Y-77868433D01*
X94300681Y-78050000D01*
X94282798Y-78231567D01*
X94229837Y-78406156D01*
X94143833Y-78567059D01*
X94028091Y-78708091D01*
X93887059Y-78823833D01*
X93726156Y-78909837D01*
X93551567Y-78962798D01*
X93415496Y-78976200D01*
X93324504Y-78976200D01*
X93188433Y-78962798D01*
X93013844Y-78909837D01*
X92852941Y-78823833D01*
X92711909Y-78708091D01*
X92596167Y-78567059D01*
X92510163Y-78406156D01*
X92457202Y-78231567D01*
X92439319Y-78050000D01*
X92457202Y-77868433D01*
X92510163Y-77693844D01*
X92596167Y-77532941D01*
X92711909Y-77391909D01*
X92852941Y-77276167D01*
X93013844Y-77190163D01*
X93188433Y-77137202D01*
X93324504Y-77123800D01*
X93415496Y-77123800D01*
X93551567Y-77137202D01*
X93551567Y-77137202D01*
G37*
G36*
X96091567Y-77137202D02*
X96266156Y-77190163D01*
X96427059Y-77276167D01*
X96568091Y-77391909D01*
X96683833Y-77532941D01*
X96769837Y-77693844D01*
X96822798Y-77868433D01*
X96840681Y-78050000D01*
X96822798Y-78231567D01*
X96769837Y-78406156D01*
X96683833Y-78567059D01*
X96568091Y-78708091D01*
X96427059Y-78823833D01*
X96266156Y-78909837D01*
X96091567Y-78962798D01*
X95955496Y-78976200D01*
X95864504Y-78976200D01*
X95728433Y-78962798D01*
X95553844Y-78909837D01*
X95392941Y-78823833D01*
X95251909Y-78708091D01*
X95136167Y-78567059D01*
X95050163Y-78406156D01*
X94997202Y-78231567D01*
X94979319Y-78050000D01*
X94997202Y-77868433D01*
X95050163Y-77693844D01*
X95136167Y-77532941D01*
X95251909Y-77391909D01*
X95392941Y-77276167D01*
X95553844Y-77190163D01*
X95728433Y-77137202D01*
X95864504Y-77123800D01*
X95955496Y-77123800D01*
X96091567Y-77137202D01*
X96091567Y-77137202D01*
G37*
G36*
X60521567Y-77137202D02*
X60696156Y-77190163D01*
X60857059Y-77276167D01*
X60998091Y-77391909D01*
X61113833Y-77532941D01*
X61199837Y-77693844D01*
X61252798Y-77868433D01*
X61270681Y-78050000D01*
X61252798Y-78231567D01*
X61199837Y-78406156D01*
X61113833Y-78567059D01*
X60998091Y-78708091D01*
X60857059Y-78823833D01*
X60696156Y-78909837D01*
X60521567Y-78962798D01*
X60385496Y-78976200D01*
X60294504Y-78976200D01*
X60158433Y-78962798D01*
X59983844Y-78909837D01*
X59822941Y-78823833D01*
X59681909Y-78708091D01*
X59566167Y-78567059D01*
X59480163Y-78406156D01*
X59427202Y-78231567D01*
X59409319Y-78050000D01*
X59427202Y-77868433D01*
X59480163Y-77693844D01*
X59566167Y-77532941D01*
X59681909Y-77391909D01*
X59822941Y-77276167D01*
X59983844Y-77190163D01*
X60158433Y-77137202D01*
X60294504Y-77123800D01*
X60385496Y-77123800D01*
X60521567Y-77137202D01*
X60521567Y-77137202D01*
G37*
G36*
X63061567Y-77137202D02*
X63236156Y-77190163D01*
X63397059Y-77276167D01*
X63538091Y-77391909D01*
X63653833Y-77532941D01*
X63739837Y-77693844D01*
X63792798Y-77868433D01*
X63810681Y-78050000D01*
X63792798Y-78231567D01*
X63739837Y-78406156D01*
X63653833Y-78567059D01*
X63538091Y-78708091D01*
X63397059Y-78823833D01*
X63236156Y-78909837D01*
X63061567Y-78962798D01*
X62925496Y-78976200D01*
X62834504Y-78976200D01*
X62698433Y-78962798D01*
X62523844Y-78909837D01*
X62362941Y-78823833D01*
X62221909Y-78708091D01*
X62106167Y-78567059D01*
X62020163Y-78406156D01*
X61967202Y-78231567D01*
X61949319Y-78050000D01*
X61967202Y-77868433D01*
X62020163Y-77693844D01*
X62106167Y-77532941D01*
X62221909Y-77391909D01*
X62362941Y-77276167D01*
X62523844Y-77190163D01*
X62698433Y-77137202D01*
X62834504Y-77123800D01*
X62925496Y-77123800D01*
X63061567Y-77137202D01*
X63061567Y-77137202D01*
G37*
G36*
X65601567Y-77137202D02*
X65776156Y-77190163D01*
X65937059Y-77276167D01*
X66078091Y-77391909D01*
X66193833Y-77532941D01*
X66279837Y-77693844D01*
X66332798Y-77868433D01*
X66350681Y-78050000D01*
X66332798Y-78231567D01*
X66279837Y-78406156D01*
X66193833Y-78567059D01*
X66078091Y-78708091D01*
X65937059Y-78823833D01*
X65776156Y-78909837D01*
X65601567Y-78962798D01*
X65465496Y-78976200D01*
X65374504Y-78976200D01*
X65238433Y-78962798D01*
X65063844Y-78909837D01*
X64902941Y-78823833D01*
X64761909Y-78708091D01*
X64646167Y-78567059D01*
X64560163Y-78406156D01*
X64507202Y-78231567D01*
X64489319Y-78050000D01*
X64507202Y-77868433D01*
X64560163Y-77693844D01*
X64646167Y-77532941D01*
X64761909Y-77391909D01*
X64902941Y-77276167D01*
X65063844Y-77190163D01*
X65238433Y-77137202D01*
X65374504Y-77123800D01*
X65465496Y-77123800D01*
X65601567Y-77137202D01*
X65601567Y-77137202D01*
G37*
G36*
X58726200Y-78976200D02*
X56873800Y-78976200D01*
X56873800Y-77123800D01*
X58726200Y-77123800D01*
X58726200Y-78976200D01*
X58726200Y-78976200D01*
G37*
G36*
X103191567Y-77087202D02*
X103366156Y-77140163D01*
X103527059Y-77226167D01*
X103668091Y-77341909D01*
X103783833Y-77482941D01*
X103869837Y-77643844D01*
X103922798Y-77818433D01*
X103940681Y-78000000D01*
X103922798Y-78181567D01*
X103869837Y-78356156D01*
X103783833Y-78517059D01*
X103668091Y-78658091D01*
X103527059Y-78773833D01*
X103366156Y-78859837D01*
X103191567Y-78912798D01*
X103055496Y-78926200D01*
X102964504Y-78926200D01*
X102828433Y-78912798D01*
X102653844Y-78859837D01*
X102492941Y-78773833D01*
X102351909Y-78658091D01*
X102236167Y-78517059D01*
X102150163Y-78356156D01*
X102097202Y-78181567D01*
X102079319Y-78000000D01*
X102097202Y-77818433D01*
X102150163Y-77643844D01*
X102236167Y-77482941D01*
X102351909Y-77341909D01*
X102492941Y-77226167D01*
X102653844Y-77140163D01*
X102828433Y-77087202D01*
X102964504Y-77073800D01*
X103055496Y-77073800D01*
X103191567Y-77087202D01*
X103191567Y-77087202D01*
G37*
G36*
X106476200Y-78926200D02*
X104623800Y-78926200D01*
X104623800Y-77073800D01*
X106476200Y-77073800D01*
X106476200Y-78926200D01*
X106476200Y-78926200D01*
G37*
G36*
X111416007Y-75128608D02*
X111675559Y-75236118D01*
X111909150Y-75392198D01*
X112107802Y-75590850D01*
X112263882Y-75824441D01*
X112371392Y-76083993D01*
X112426200Y-76359532D01*
X112426200Y-76640468D01*
X112371392Y-76916007D01*
X112263882Y-77175559D01*
X112107802Y-77409150D01*
X111909150Y-77607802D01*
X111675559Y-77763882D01*
X111416007Y-77871392D01*
X111140468Y-77926200D01*
X110859532Y-77926200D01*
X110583993Y-77871392D01*
X110324441Y-77763882D01*
X110090850Y-77607802D01*
X109892198Y-77409150D01*
X109736118Y-77175559D01*
X109628608Y-76916007D01*
X109573800Y-76640468D01*
X109573800Y-76359532D01*
X109628608Y-76083993D01*
X109736118Y-75824441D01*
X109892198Y-75590850D01*
X110090850Y-75392198D01*
X110324441Y-75236118D01*
X110583993Y-75128608D01*
X110859532Y-75073800D01*
X111140468Y-75073800D01*
X111416007Y-75128608D01*
X111416007Y-75128608D01*
G37*
G36*
X53416005Y-75128607D02*
X53675557Y-75236117D01*
X53909148Y-75392197D01*
X54107800Y-75590849D01*
X54263880Y-75824440D01*
X54371390Y-76083992D01*
X54426198Y-76359531D01*
X54426198Y-76640467D01*
X54371390Y-76916006D01*
X54263880Y-77175558D01*
X54107800Y-77409149D01*
X53909148Y-77607801D01*
X53675557Y-77763881D01*
X53416005Y-77871391D01*
X53140466Y-77926199D01*
X52859530Y-77926199D01*
X52583991Y-77871391D01*
X52324439Y-77763881D01*
X52090848Y-77607801D01*
X51892196Y-77409149D01*
X51736116Y-77175558D01*
X51628606Y-76916006D01*
X51573798Y-76640467D01*
X51573798Y-76359531D01*
X51628606Y-76083992D01*
X51736116Y-75824440D01*
X51892196Y-75590849D01*
X52090848Y-75392197D01*
X52324439Y-75236117D01*
X52583991Y-75128607D01*
X52859530Y-75073799D01*
X53140466Y-75073799D01*
X53416005Y-75128607D01*
X53416005Y-75128607D01*
G37*
G36*
X101144685Y-74153136D02*
X101181024Y-74164159D01*
X101214504Y-74182054D01*
X101243857Y-74206143D01*
X101267946Y-74235496D01*
X101285841Y-74268976D01*
X101296864Y-74305315D01*
X101301200Y-74349334D01*
X101301200Y-75850666D01*
X101296864Y-75894685D01*
X101285841Y-75931024D01*
X101267946Y-75964504D01*
X101243857Y-75993857D01*
X101214504Y-76017946D01*
X101181024Y-76035841D01*
X101144685Y-76046864D01*
X101100666Y-76051200D01*
X99924334Y-76051200D01*
X99880315Y-76046864D01*
X99843976Y-76035841D01*
X99810496Y-76017946D01*
X99781143Y-75993857D01*
X99757054Y-75964504D01*
X99739159Y-75931024D01*
X99728136Y-75894685D01*
X99723800Y-75850666D01*
X99723800Y-74349334D01*
X99728136Y-74305315D01*
X99739159Y-74268976D01*
X99757054Y-74235496D01*
X99781143Y-74206143D01*
X99810496Y-74182054D01*
X99843976Y-74164159D01*
X99880315Y-74153136D01*
X99924334Y-74148800D01*
X101100666Y-74148800D01*
X101144685Y-74153136D01*
X101144685Y-74153136D01*
G37*
G36*
X104119685Y-74153136D02*
X104156024Y-74164159D01*
X104189504Y-74182054D01*
X104218857Y-74206143D01*
X104242946Y-74235496D01*
X104260841Y-74268976D01*
X104271864Y-74305315D01*
X104276200Y-74349334D01*
X104276200Y-75850666D01*
X104271864Y-75894685D01*
X104260841Y-75931024D01*
X104242946Y-75964504D01*
X104218857Y-75993857D01*
X104189504Y-76017946D01*
X104156024Y-76035841D01*
X104119685Y-76046864D01*
X104075666Y-76051200D01*
X102899334Y-76051200D01*
X102855315Y-76046864D01*
X102818976Y-76035841D01*
X102785496Y-76017946D01*
X102756143Y-75993857D01*
X102732054Y-75964504D01*
X102714159Y-75931024D01*
X102703136Y-75894685D01*
X102698800Y-75850666D01*
X102698800Y-74349334D01*
X102703136Y-74305315D01*
X102714159Y-74268976D01*
X102732054Y-74235496D01*
X102756143Y-74206143D01*
X102785496Y-74182054D01*
X102818976Y-74164159D01*
X102855315Y-74153136D01*
X102899334Y-74148800D01*
X104075666Y-74148800D01*
X104119685Y-74153136D01*
X104119685Y-74153136D01*
G37*
G36*
X60076200Y-74076200D02*
X53723800Y-74076200D01*
X53723800Y-72723800D01*
X60076200Y-72723800D01*
X60076200Y-74076200D01*
X60076200Y-74076200D01*
G37*
G36*
X110576200Y-74026200D02*
X108723800Y-74026200D01*
X108723800Y-72173800D01*
X110576200Y-72173800D01*
X110576200Y-74026200D01*
X110576200Y-74026200D01*
G37*
G36*
X106275567Y-72187202D02*
X106450156Y-72240163D01*
X106611059Y-72326167D01*
X106752091Y-72441909D01*
X106867833Y-72582941D01*
X106953837Y-72743844D01*
X107006798Y-72918433D01*
X107024681Y-73100000D01*
X107006798Y-73281567D01*
X106953837Y-73456156D01*
X106867833Y-73617059D01*
X106752091Y-73758091D01*
X106611059Y-73873833D01*
X106450156Y-73959837D01*
X106275567Y-74012798D01*
X106139496Y-74026200D01*
X106048504Y-74026200D01*
X105912433Y-74012798D01*
X105737844Y-73959837D01*
X105576941Y-73873833D01*
X105435909Y-73758091D01*
X105320167Y-73617059D01*
X105234163Y-73456156D01*
X105181202Y-73281567D01*
X105163319Y-73100000D01*
X105181202Y-72918433D01*
X105234163Y-72743844D01*
X105320167Y-72582941D01*
X105435909Y-72441909D01*
X105576941Y-72326167D01*
X105737844Y-72240163D01*
X105912433Y-72187202D01*
X106048504Y-72173800D01*
X106139496Y-72173800D01*
X106275567Y-72187202D01*
X106275567Y-72187202D01*
G37*
G36*
X53326200Y-72326200D02*
X51973800Y-72326200D01*
X51973800Y-65973800D01*
X53326200Y-65973800D01*
X53326200Y-72326200D01*
X53326200Y-72326200D01*
G37*
G36*
X61826200Y-72326200D02*
X60473800Y-72326200D01*
X60473800Y-65973800D01*
X61826200Y-65973800D01*
X61826200Y-72326200D01*
X61826200Y-72326200D01*
G37*
G36*
X113369685Y-69303136D02*
X113406024Y-69314159D01*
X113439504Y-69332054D01*
X113468857Y-69356143D01*
X113492946Y-69385496D01*
X113510841Y-69418976D01*
X113521864Y-69455315D01*
X113526200Y-69499334D01*
X113526200Y-71000666D01*
X113521864Y-71044685D01*
X113510841Y-71081024D01*
X113492946Y-71114504D01*
X113468857Y-71143857D01*
X113439504Y-71167946D01*
X113406024Y-71185841D01*
X113369685Y-71196864D01*
X113325666Y-71201200D01*
X112149334Y-71201200D01*
X112105315Y-71196864D01*
X112068976Y-71185841D01*
X112035496Y-71167946D01*
X112006143Y-71143857D01*
X111982054Y-71114504D01*
X111964159Y-71081024D01*
X111953136Y-71044685D01*
X111948800Y-71000666D01*
X111948800Y-69499334D01*
X111953136Y-69455315D01*
X111964159Y-69418976D01*
X111982054Y-69385496D01*
X112006143Y-69356143D01*
X112035496Y-69332054D01*
X112068976Y-69314159D01*
X112105315Y-69303136D01*
X112149334Y-69298800D01*
X113325666Y-69298800D01*
X113369685Y-69303136D01*
X113369685Y-69303136D01*
G37*
G36*
X110394685Y-69303136D02*
X110431024Y-69314159D01*
X110464504Y-69332054D01*
X110493857Y-69356143D01*
X110517946Y-69385496D01*
X110535841Y-69418976D01*
X110546864Y-69455315D01*
X110551200Y-69499334D01*
X110551200Y-71000666D01*
X110546864Y-71044685D01*
X110535841Y-71081024D01*
X110517946Y-71114504D01*
X110493857Y-71143857D01*
X110464504Y-71167946D01*
X110431024Y-71185841D01*
X110394685Y-71196864D01*
X110350666Y-71201200D01*
X109174334Y-71201200D01*
X109130315Y-71196864D01*
X109093976Y-71185841D01*
X109060496Y-71167946D01*
X109031143Y-71143857D01*
X109007054Y-71114504D01*
X108989159Y-71081024D01*
X108978136Y-71044685D01*
X108973800Y-71000666D01*
X108973800Y-69499334D01*
X108978136Y-69455315D01*
X108989159Y-69418976D01*
X109007054Y-69385496D01*
X109031143Y-69356143D01*
X109060496Y-69332054D01*
X109093976Y-69314159D01*
X109130315Y-69303136D01*
X109174334Y-69298800D01*
X110350666Y-69298800D01*
X110394685Y-69303136D01*
X110394685Y-69303136D01*
G37*
G36*
X104354685Y-69157136D02*
X104391024Y-69168159D01*
X104424504Y-69186054D01*
X104453857Y-69210143D01*
X104477946Y-69239496D01*
X104495841Y-69272976D01*
X104506864Y-69309315D01*
X104511200Y-69353334D01*
X104511200Y-70854666D01*
X104506864Y-70898685D01*
X104495841Y-70935024D01*
X104477946Y-70968504D01*
X104453857Y-70997857D01*
X104424504Y-71021946D01*
X104391024Y-71039841D01*
X104354685Y-71050864D01*
X104310666Y-71055200D01*
X103134334Y-71055200D01*
X103090315Y-71050864D01*
X103053976Y-71039841D01*
X103020496Y-71021946D01*
X102991143Y-70997857D01*
X102967054Y-70968504D01*
X102949159Y-70935024D01*
X102938136Y-70898685D01*
X102933800Y-70854666D01*
X102933800Y-69353334D01*
X102938136Y-69309315D01*
X102949159Y-69272976D01*
X102967054Y-69239496D01*
X102991143Y-69210143D01*
X103020496Y-69186054D01*
X103053976Y-69168159D01*
X103090315Y-69157136D01*
X103134334Y-69152800D01*
X104310666Y-69152800D01*
X104354685Y-69157136D01*
X104354685Y-69157136D01*
G37*
G36*
X101379685Y-69157136D02*
X101416024Y-69168159D01*
X101449504Y-69186054D01*
X101478857Y-69210143D01*
X101502946Y-69239496D01*
X101520841Y-69272976D01*
X101531864Y-69309315D01*
X101536200Y-69353334D01*
X101536200Y-70854666D01*
X101531864Y-70898685D01*
X101520841Y-70935024D01*
X101502946Y-70968504D01*
X101478857Y-70997857D01*
X101449504Y-71021946D01*
X101416024Y-71039841D01*
X101379685Y-71050864D01*
X101335666Y-71055200D01*
X100159334Y-71055200D01*
X100115315Y-71050864D01*
X100078976Y-71039841D01*
X100045496Y-71021946D01*
X100016143Y-70997857D01*
X99992054Y-70968504D01*
X99974159Y-70935024D01*
X99963136Y-70898685D01*
X99958800Y-70854666D01*
X99958800Y-69353334D01*
X99963136Y-69309315D01*
X99974159Y-69272976D01*
X99992054Y-69239496D01*
X100016143Y-69210143D01*
X100045496Y-69186054D01*
X100078976Y-69168159D01*
X100115315Y-69157136D01*
X100159334Y-69152800D01*
X101335666Y-69152800D01*
X101379685Y-69157136D01*
X101379685Y-69157136D01*
G37*
G36*
X74144685Y-66703136D02*
X74181024Y-66714159D01*
X74214504Y-66732054D01*
X74243857Y-66756143D01*
X74267946Y-66785496D01*
X74285841Y-66818976D01*
X74296864Y-66855315D01*
X74301200Y-66899334D01*
X74301200Y-68400666D01*
X74296864Y-68444685D01*
X74285841Y-68481024D01*
X74267946Y-68514504D01*
X74243857Y-68543857D01*
X74214504Y-68567946D01*
X74181024Y-68585841D01*
X74144685Y-68596864D01*
X74100666Y-68601200D01*
X72924334Y-68601200D01*
X72880315Y-68596864D01*
X72843976Y-68585841D01*
X72810496Y-68567946D01*
X72781143Y-68543857D01*
X72757054Y-68514504D01*
X72739159Y-68481024D01*
X72728136Y-68444685D01*
X72723800Y-68400666D01*
X72723800Y-66899334D01*
X72728136Y-66855315D01*
X72739159Y-66818976D01*
X72757054Y-66785496D01*
X72781143Y-66756143D01*
X72810496Y-66732054D01*
X72843976Y-66714159D01*
X72880315Y-66703136D01*
X72924334Y-66698800D01*
X74100666Y-66698800D01*
X74144685Y-66703136D01*
X74144685Y-66703136D01*
G37*
G36*
X77119685Y-66703136D02*
X77156024Y-66714159D01*
X77189504Y-66732054D01*
X77218857Y-66756143D01*
X77242946Y-66785496D01*
X77260841Y-66818976D01*
X77271864Y-66855315D01*
X77276200Y-66899334D01*
X77276200Y-68400666D01*
X77271864Y-68444685D01*
X77260841Y-68481024D01*
X77242946Y-68514504D01*
X77218857Y-68543857D01*
X77189504Y-68567946D01*
X77156024Y-68585841D01*
X77119685Y-68596864D01*
X77075666Y-68601200D01*
X75899334Y-68601200D01*
X75855315Y-68596864D01*
X75818976Y-68585841D01*
X75785496Y-68567946D01*
X75756143Y-68543857D01*
X75732054Y-68514504D01*
X75714159Y-68481024D01*
X75703136Y-68444685D01*
X75698800Y-68400666D01*
X75698800Y-66899334D01*
X75703136Y-66855315D01*
X75714159Y-66818976D01*
X75732054Y-66785496D01*
X75756143Y-66756143D01*
X75785496Y-66732054D01*
X75818976Y-66714159D01*
X75855315Y-66703136D01*
X75899334Y-66698800D01*
X77075666Y-66698800D01*
X77119685Y-66703136D01*
X77119685Y-66703136D01*
G37*
G36*
X71969685Y-66653136D02*
X72006024Y-66664159D01*
X72039504Y-66682054D01*
X72068857Y-66706143D01*
X72092946Y-66735496D01*
X72110841Y-66768976D01*
X72121864Y-66805315D01*
X72126200Y-66849334D01*
X72126200Y-68350666D01*
X72121864Y-68394685D01*
X72110841Y-68431024D01*
X72092946Y-68464504D01*
X72068857Y-68493857D01*
X72039504Y-68517946D01*
X72006024Y-68535841D01*
X71969685Y-68546864D01*
X71925666Y-68551200D01*
X70749334Y-68551200D01*
X70705315Y-68546864D01*
X70668976Y-68535841D01*
X70635496Y-68517946D01*
X70606143Y-68493857D01*
X70582054Y-68464504D01*
X70564159Y-68431024D01*
X70553136Y-68394685D01*
X70548800Y-68350666D01*
X70548800Y-66849334D01*
X70553136Y-66805315D01*
X70564159Y-66768976D01*
X70582054Y-66735496D01*
X70606143Y-66706143D01*
X70635496Y-66682054D01*
X70668976Y-66664159D01*
X70705315Y-66653136D01*
X70749334Y-66648800D01*
X71925666Y-66648800D01*
X71969685Y-66653136D01*
X71969685Y-66653136D01*
G37*
G36*
X68994685Y-66653136D02*
X69031024Y-66664159D01*
X69064504Y-66682054D01*
X69093857Y-66706143D01*
X69117946Y-66735496D01*
X69135841Y-66768976D01*
X69146864Y-66805315D01*
X69151200Y-66849334D01*
X69151200Y-68350666D01*
X69146864Y-68394685D01*
X69135841Y-68431024D01*
X69117946Y-68464504D01*
X69093857Y-68493857D01*
X69064504Y-68517946D01*
X69031024Y-68535841D01*
X68994685Y-68546864D01*
X68950666Y-68551200D01*
X67774334Y-68551200D01*
X67730315Y-68546864D01*
X67693976Y-68535841D01*
X67660496Y-68517946D01*
X67631143Y-68493857D01*
X67607054Y-68464504D01*
X67589159Y-68431024D01*
X67578136Y-68394685D01*
X67573800Y-68350666D01*
X67573800Y-66849334D01*
X67578136Y-66805315D01*
X67589159Y-66768976D01*
X67607054Y-66735496D01*
X67631143Y-66706143D01*
X67660496Y-66682054D01*
X67693976Y-66664159D01*
X67730315Y-66653136D01*
X67774334Y-66648800D01*
X68950666Y-66648800D01*
X68994685Y-66653136D01*
X68994685Y-66653136D01*
G37*
G36*
X113151200Y-67756200D02*
X112348800Y-67756200D01*
X112348800Y-66543800D01*
X113151200Y-66543800D01*
X113151200Y-67756200D01*
X113151200Y-67756200D01*
G37*
G36*
X111251200Y-67756200D02*
X110448800Y-67756200D01*
X110448800Y-66543800D01*
X111251200Y-66543800D01*
X111251200Y-67756200D01*
X111251200Y-67756200D01*
G37*
G36*
X80336158Y-62800356D02*
X80351003Y-62804860D01*
X80363130Y-62809883D01*
X80387548Y-62814741D01*
X80412445Y-62814742D01*
X80436863Y-62809885D01*
X80448993Y-62804861D01*
X80463842Y-62800356D01*
X80479643Y-62798800D01*
X80820357Y-62798800D01*
X80836158Y-62800356D01*
X80851003Y-62804860D01*
X80863130Y-62809883D01*
X80887548Y-62814741D01*
X80912445Y-62814742D01*
X80936863Y-62809885D01*
X80948993Y-62804861D01*
X80963842Y-62800356D01*
X80979643Y-62798800D01*
X81320357Y-62798800D01*
X81336158Y-62800356D01*
X81351003Y-62804860D01*
X81363130Y-62809883D01*
X81387548Y-62814741D01*
X81412445Y-62814742D01*
X81436863Y-62809885D01*
X81448993Y-62804861D01*
X81463842Y-62800356D01*
X81479643Y-62798800D01*
X81820357Y-62798800D01*
X81836158Y-62800356D01*
X81851003Y-62804860D01*
X81863130Y-62809883D01*
X81887548Y-62814741D01*
X81912445Y-62814742D01*
X81936863Y-62809885D01*
X81948993Y-62804861D01*
X81963842Y-62800356D01*
X81979643Y-62798800D01*
X82320357Y-62798800D01*
X82336158Y-62800356D01*
X82351003Y-62804860D01*
X82363130Y-62809883D01*
X82387548Y-62814741D01*
X82412445Y-62814742D01*
X82436863Y-62809885D01*
X82448993Y-62804861D01*
X82463842Y-62800356D01*
X82479643Y-62798800D01*
X82820357Y-62798800D01*
X82836158Y-62800356D01*
X82845348Y-62803144D01*
X82853813Y-62807668D01*
X82861238Y-62813762D01*
X82867332Y-62821187D01*
X82871856Y-62829652D01*
X82874644Y-62838842D01*
X82876200Y-62854643D01*
X82876200Y-63646800D01*
X82878640Y-63671576D01*
X82885867Y-63695401D01*
X82897603Y-63717357D01*
X82913397Y-63736603D01*
X82932643Y-63752397D01*
X82954599Y-63764133D01*
X82978424Y-63771360D01*
X83003200Y-63773800D01*
X83795357Y-63773800D01*
X83811158Y-63775356D01*
X83820348Y-63778144D01*
X83828813Y-63782668D01*
X83836238Y-63788762D01*
X83842332Y-63796187D01*
X83846856Y-63804652D01*
X83849644Y-63813842D01*
X83851200Y-63829643D01*
X83851200Y-64170357D01*
X83849644Y-64186158D01*
X83845140Y-64201003D01*
X83840117Y-64213130D01*
X83835259Y-64237548D01*
X83835258Y-64262445D01*
X83840115Y-64286863D01*
X83845139Y-64298993D01*
X83849644Y-64313842D01*
X83851200Y-64329643D01*
X83851200Y-64670357D01*
X83849644Y-64686158D01*
X83845140Y-64701003D01*
X83840117Y-64713130D01*
X83835259Y-64737548D01*
X83835258Y-64762445D01*
X83840115Y-64786863D01*
X83845139Y-64798993D01*
X83849644Y-64813842D01*
X83851200Y-64829643D01*
X83851200Y-65170357D01*
X83849644Y-65186158D01*
X83845140Y-65201003D01*
X83840117Y-65213130D01*
X83835259Y-65237548D01*
X83835258Y-65262445D01*
X83840115Y-65286863D01*
X83845139Y-65298993D01*
X83849644Y-65313842D01*
X83851200Y-65329643D01*
X83851200Y-65670357D01*
X83849644Y-65686158D01*
X83845140Y-65701003D01*
X83840117Y-65713130D01*
X83835259Y-65737548D01*
X83835258Y-65762445D01*
X83840115Y-65786863D01*
X83845139Y-65798993D01*
X83849644Y-65813842D01*
X83851200Y-65829643D01*
X83851200Y-66170357D01*
X83849644Y-66186158D01*
X83845140Y-66201003D01*
X83840117Y-66213130D01*
X83835259Y-66237548D01*
X83835258Y-66262445D01*
X83840115Y-66286863D01*
X83845139Y-66298993D01*
X83849644Y-66313842D01*
X83851200Y-66329643D01*
X83851200Y-66670357D01*
X83849644Y-66686158D01*
X83846856Y-66695348D01*
X83842332Y-66703813D01*
X83836238Y-66711238D01*
X83828813Y-66717332D01*
X83820348Y-66721856D01*
X83811158Y-66724644D01*
X83795357Y-66726200D01*
X83003200Y-66726200D01*
X82978424Y-66728640D01*
X82954599Y-66735867D01*
X82932643Y-66747603D01*
X82913397Y-66763397D01*
X82897603Y-66782643D01*
X82885867Y-66804599D01*
X82878640Y-66828424D01*
X82876200Y-66853200D01*
X82876200Y-67645357D01*
X82874644Y-67661158D01*
X82871856Y-67670348D01*
X82867332Y-67678813D01*
X82861238Y-67686238D01*
X82853813Y-67692332D01*
X82845348Y-67696856D01*
X82836158Y-67699644D01*
X82820357Y-67701200D01*
X82479643Y-67701200D01*
X82463842Y-67699644D01*
X82448997Y-67695140D01*
X82436870Y-67690117D01*
X82412452Y-67685259D01*
X82387555Y-67685258D01*
X82363137Y-67690115D01*
X82351007Y-67695139D01*
X82336158Y-67699644D01*
X82320357Y-67701200D01*
X81979643Y-67701200D01*
X81963842Y-67699644D01*
X81948997Y-67695140D01*
X81936870Y-67690117D01*
X81912452Y-67685259D01*
X81887555Y-67685258D01*
X81863137Y-67690115D01*
X81851007Y-67695139D01*
X81836158Y-67699644D01*
X81820357Y-67701200D01*
X81479643Y-67701200D01*
X81463842Y-67699644D01*
X81448997Y-67695140D01*
X81436870Y-67690117D01*
X81412452Y-67685259D01*
X81387555Y-67685258D01*
X81363137Y-67690115D01*
X81351007Y-67695139D01*
X81336158Y-67699644D01*
X81320357Y-67701200D01*
X80979643Y-67701200D01*
X80963842Y-67699644D01*
X80948997Y-67695140D01*
X80936870Y-67690117D01*
X80912452Y-67685259D01*
X80887555Y-67685258D01*
X80863137Y-67690115D01*
X80851007Y-67695139D01*
X80836158Y-67699644D01*
X80820357Y-67701200D01*
X80479643Y-67701200D01*
X80463842Y-67699644D01*
X80448997Y-67695140D01*
X80436870Y-67690117D01*
X80412452Y-67685259D01*
X80387555Y-67685258D01*
X80363137Y-67690115D01*
X80351007Y-67695139D01*
X80336158Y-67699644D01*
X80320357Y-67701200D01*
X79979643Y-67701200D01*
X79963842Y-67699644D01*
X79954652Y-67696856D01*
X79946187Y-67692332D01*
X79938762Y-67686238D01*
X79932668Y-67678813D01*
X79928144Y-67670348D01*
X79925356Y-67661158D01*
X79923800Y-67645357D01*
X79923800Y-66853200D01*
X79921360Y-66828424D01*
X79914133Y-66804599D01*
X79902397Y-66782643D01*
X79886603Y-66763397D01*
X79867357Y-66747603D01*
X79845401Y-66735867D01*
X79821576Y-66728640D01*
X79796800Y-66726200D01*
X79004643Y-66726200D01*
X78988842Y-66724644D01*
X78979652Y-66721856D01*
X78971187Y-66717332D01*
X78963762Y-66711238D01*
X78957668Y-66703813D01*
X78953144Y-66695348D01*
X78950356Y-66686158D01*
X78948800Y-66670357D01*
X78948800Y-66329643D01*
X78950356Y-66313842D01*
X78954860Y-66298997D01*
X78959883Y-66286870D01*
X78964741Y-66262452D01*
X78964742Y-66237555D01*
X78959885Y-66213137D01*
X78954861Y-66201007D01*
X78950356Y-66186158D01*
X78948800Y-66170357D01*
X78948800Y-65829643D01*
X78950356Y-65813842D01*
X78954860Y-65798997D01*
X78959883Y-65786870D01*
X78964741Y-65762452D01*
X78964742Y-65737555D01*
X78959885Y-65713137D01*
X78954861Y-65701007D01*
X78950356Y-65686158D01*
X78948800Y-65670357D01*
X78948800Y-65329643D01*
X78950356Y-65313842D01*
X78954860Y-65298997D01*
X78959883Y-65286870D01*
X78964741Y-65262452D01*
X78964742Y-65237555D01*
X78959885Y-65213137D01*
X78954861Y-65201007D01*
X78950356Y-65186158D01*
X78948800Y-65170357D01*
X78948800Y-64829643D01*
X78950356Y-64813842D01*
X78954860Y-64798997D01*
X78959883Y-64786870D01*
X78964741Y-64762452D01*
X78964742Y-64737555D01*
X78959885Y-64713137D01*
X78954861Y-64701007D01*
X78950356Y-64686158D01*
X78948800Y-64670357D01*
X78948800Y-64329643D01*
X78950356Y-64313842D01*
X78954860Y-64298997D01*
X78959883Y-64286870D01*
X78964741Y-64262452D01*
X78964741Y-64262445D01*
X79935258Y-64262445D01*
X79940115Y-64286863D01*
X79945139Y-64298993D01*
X79949644Y-64313842D01*
X79951200Y-64329643D01*
X79951200Y-64670357D01*
X79949644Y-64686158D01*
X79945140Y-64701003D01*
X79940117Y-64713130D01*
X79935259Y-64737548D01*
X79935258Y-64762445D01*
X79940115Y-64786863D01*
X79945139Y-64798993D01*
X79949644Y-64813842D01*
X79951200Y-64829643D01*
X79951200Y-65170357D01*
X79949644Y-65186158D01*
X79945140Y-65201003D01*
X79940117Y-65213130D01*
X79935259Y-65237548D01*
X79935258Y-65262445D01*
X79940115Y-65286863D01*
X79945139Y-65298993D01*
X79949644Y-65313842D01*
X79951200Y-65329643D01*
X79951200Y-65670357D01*
X79949644Y-65686158D01*
X79945140Y-65701003D01*
X79940117Y-65713130D01*
X79935259Y-65737548D01*
X79935258Y-65762445D01*
X79940115Y-65786863D01*
X79945139Y-65798993D01*
X79949644Y-65813842D01*
X79951200Y-65829643D01*
X79951200Y-66170357D01*
X79949644Y-66186158D01*
X79945140Y-66201003D01*
X79940117Y-66213130D01*
X79935259Y-66237548D01*
X79935258Y-66262445D01*
X79940115Y-66286863D01*
X79945139Y-66298993D01*
X79949644Y-66313842D01*
X79951200Y-66329643D01*
X79951200Y-66571800D01*
X79953640Y-66596576D01*
X79960867Y-66620401D01*
X79972603Y-66642357D01*
X79988397Y-66661603D01*
X80007643Y-66677397D01*
X80029599Y-66689133D01*
X80053424Y-66696360D01*
X80078200Y-66698800D01*
X80320357Y-66698800D01*
X80336158Y-66700356D01*
X80351003Y-66704860D01*
X80363130Y-66709883D01*
X80387548Y-66714741D01*
X80412445Y-66714742D01*
X80436863Y-66709885D01*
X80448993Y-66704861D01*
X80463842Y-66700356D01*
X80479643Y-66698800D01*
X80820357Y-66698800D01*
X80836158Y-66700356D01*
X80851003Y-66704860D01*
X80863130Y-66709883D01*
X80887548Y-66714741D01*
X80912445Y-66714742D01*
X80936863Y-66709885D01*
X80948993Y-66704861D01*
X80963842Y-66700356D01*
X80979643Y-66698800D01*
X81320357Y-66698800D01*
X81336158Y-66700356D01*
X81351003Y-66704860D01*
X81363130Y-66709883D01*
X81387548Y-66714741D01*
X81412445Y-66714742D01*
X81436863Y-66709885D01*
X81448993Y-66704861D01*
X81463842Y-66700356D01*
X81479643Y-66698800D01*
X81820357Y-66698800D01*
X81836158Y-66700356D01*
X81851003Y-66704860D01*
X81863130Y-66709883D01*
X81887548Y-66714741D01*
X81912445Y-66714742D01*
X81936863Y-66709885D01*
X81948993Y-66704861D01*
X81963842Y-66700356D01*
X81979643Y-66698800D01*
X82320357Y-66698800D01*
X82336158Y-66700356D01*
X82351003Y-66704860D01*
X82363130Y-66709883D01*
X82387548Y-66714741D01*
X82412445Y-66714742D01*
X82436863Y-66709885D01*
X82448993Y-66704861D01*
X82463842Y-66700356D01*
X82479643Y-66698800D01*
X82721800Y-66698800D01*
X82746576Y-66696360D01*
X82770401Y-66689133D01*
X82792357Y-66677397D01*
X82811603Y-66661603D01*
X82827397Y-66642357D01*
X82839133Y-66620401D01*
X82846360Y-66596576D01*
X82848800Y-66571800D01*
X82848800Y-66329643D01*
X82850356Y-66313842D01*
X82854860Y-66298997D01*
X82859883Y-66286870D01*
X82864741Y-66262452D01*
X82864742Y-66237555D01*
X82859885Y-66213137D01*
X82854861Y-66201007D01*
X82850356Y-66186158D01*
X82848800Y-66170357D01*
X82848800Y-65829643D01*
X82850356Y-65813842D01*
X82854860Y-65798997D01*
X82859883Y-65786870D01*
X82864741Y-65762452D01*
X82864742Y-65737555D01*
X82859885Y-65713137D01*
X82854861Y-65701007D01*
X82850356Y-65686158D01*
X82848800Y-65670357D01*
X82848800Y-65329643D01*
X82850356Y-65313842D01*
X82854860Y-65298997D01*
X82859883Y-65286870D01*
X82864741Y-65262452D01*
X82864742Y-65237555D01*
X82859885Y-65213137D01*
X82854861Y-65201007D01*
X82850356Y-65186158D01*
X82848800Y-65170357D01*
X82848800Y-64829643D01*
X82850356Y-64813842D01*
X82854860Y-64798997D01*
X82859883Y-64786870D01*
X82864741Y-64762452D01*
X82864742Y-64737555D01*
X82859885Y-64713137D01*
X82854861Y-64701007D01*
X82850356Y-64686158D01*
X82848800Y-64670357D01*
X82848800Y-64329643D01*
X82850356Y-64313842D01*
X82854860Y-64298997D01*
X82859883Y-64286870D01*
X82864741Y-64262452D01*
X82864742Y-64237555D01*
X82859885Y-64213137D01*
X82854861Y-64201007D01*
X82850356Y-64186158D01*
X82848800Y-64170357D01*
X82848800Y-63928200D01*
X82846360Y-63903424D01*
X82839133Y-63879599D01*
X82827397Y-63857643D01*
X82811603Y-63838397D01*
X82792357Y-63822603D01*
X82770401Y-63810867D01*
X82746576Y-63803640D01*
X82721800Y-63801200D01*
X82479643Y-63801200D01*
X82463842Y-63799644D01*
X82448997Y-63795140D01*
X82436870Y-63790117D01*
X82412452Y-63785259D01*
X82387555Y-63785258D01*
X82363137Y-63790115D01*
X82351007Y-63795139D01*
X82336158Y-63799644D01*
X82320357Y-63801200D01*
X81979643Y-63801200D01*
X81963842Y-63799644D01*
X81948997Y-63795140D01*
X81936870Y-63790117D01*
X81912452Y-63785259D01*
X81887555Y-63785258D01*
X81863137Y-63790115D01*
X81851007Y-63795139D01*
X81836158Y-63799644D01*
X81820357Y-63801200D01*
X81479643Y-63801200D01*
X81463842Y-63799644D01*
X81448997Y-63795140D01*
X81436870Y-63790117D01*
X81412452Y-63785259D01*
X81387555Y-63785258D01*
X81363137Y-63790115D01*
X81351007Y-63795139D01*
X81336158Y-63799644D01*
X81320357Y-63801200D01*
X80979643Y-63801200D01*
X80963842Y-63799644D01*
X80948997Y-63795140D01*
X80936870Y-63790117D01*
X80912452Y-63785259D01*
X80887555Y-63785258D01*
X80863137Y-63790115D01*
X80851007Y-63795139D01*
X80836158Y-63799644D01*
X80820357Y-63801200D01*
X80479643Y-63801200D01*
X80463842Y-63799644D01*
X80448997Y-63795140D01*
X80436870Y-63790117D01*
X80412452Y-63785259D01*
X80387555Y-63785258D01*
X80363137Y-63790115D01*
X80351007Y-63795139D01*
X80336158Y-63799644D01*
X80320357Y-63801200D01*
X80078200Y-63801200D01*
X80053424Y-63803640D01*
X80029599Y-63810867D01*
X80007643Y-63822603D01*
X79988397Y-63838397D01*
X79972603Y-63857643D01*
X79960867Y-63879599D01*
X79953640Y-63903424D01*
X79951200Y-63928200D01*
X79951200Y-64170357D01*
X79949644Y-64186158D01*
X79945140Y-64201003D01*
X79940117Y-64213130D01*
X79935259Y-64237548D01*
X79935258Y-64262445D01*
X78964741Y-64262445D01*
X78964742Y-64237555D01*
X78959885Y-64213137D01*
X78954861Y-64201007D01*
X78950356Y-64186158D01*
X78948800Y-64170357D01*
X78948800Y-63829643D01*
X78950356Y-63813842D01*
X78953144Y-63804652D01*
X78957668Y-63796187D01*
X78963762Y-63788762D01*
X78971187Y-63782668D01*
X78979652Y-63778144D01*
X78988842Y-63775356D01*
X79004643Y-63773800D01*
X79796800Y-63773800D01*
X79821576Y-63771360D01*
X79845401Y-63764133D01*
X79867357Y-63752397D01*
X79886603Y-63736603D01*
X79902397Y-63717357D01*
X79914133Y-63695401D01*
X79921360Y-63671576D01*
X79923800Y-63646800D01*
X79923800Y-62854643D01*
X79925356Y-62838842D01*
X79928144Y-62829652D01*
X79932668Y-62821187D01*
X79938762Y-62813762D01*
X79946187Y-62807668D01*
X79954652Y-62803144D01*
X79963842Y-62800356D01*
X79979643Y-62798800D01*
X80320357Y-62798800D01*
X80336158Y-62800356D01*
X80336158Y-62800356D01*
G37*
G36*
X108606200Y-67551200D02*
X107393800Y-67551200D01*
X107393800Y-66748800D01*
X108606200Y-66748800D01*
X108606200Y-67551200D01*
X108606200Y-67551200D01*
G37*
G36*
X106406200Y-67551200D02*
X105193800Y-67551200D01*
X105193800Y-64848800D01*
X106406200Y-64848800D01*
X106406200Y-67551200D01*
X106406200Y-67551200D01*
G37*
G36*
X71969685Y-63953136D02*
X72006024Y-63964159D01*
X72039504Y-63982054D01*
X72068857Y-64006143D01*
X72092946Y-64035496D01*
X72110841Y-64068976D01*
X72121864Y-64105315D01*
X72126200Y-64149334D01*
X72126200Y-65650666D01*
X72121864Y-65694685D01*
X72110841Y-65731024D01*
X72092946Y-65764504D01*
X72068857Y-65793857D01*
X72039504Y-65817946D01*
X72006024Y-65835841D01*
X71969685Y-65846864D01*
X71925666Y-65851200D01*
X70749334Y-65851200D01*
X70705315Y-65846864D01*
X70668976Y-65835841D01*
X70635496Y-65817946D01*
X70606143Y-65793857D01*
X70582054Y-65764504D01*
X70564159Y-65731024D01*
X70553136Y-65694685D01*
X70548800Y-65650666D01*
X70548800Y-64149334D01*
X70553136Y-64105315D01*
X70564159Y-64068976D01*
X70582054Y-64035496D01*
X70606143Y-64006143D01*
X70635496Y-63982054D01*
X70668976Y-63964159D01*
X70705315Y-63953136D01*
X70749334Y-63948800D01*
X71925666Y-63948800D01*
X71969685Y-63953136D01*
X71969685Y-63953136D01*
G37*
G36*
X68994685Y-63953136D02*
X69031024Y-63964159D01*
X69064504Y-63982054D01*
X69093857Y-64006143D01*
X69117946Y-64035496D01*
X69135841Y-64068976D01*
X69146864Y-64105315D01*
X69151200Y-64149334D01*
X69151200Y-65650666D01*
X69146864Y-65694685D01*
X69135841Y-65731024D01*
X69117946Y-65764504D01*
X69093857Y-65793857D01*
X69064504Y-65817946D01*
X69031024Y-65835841D01*
X68994685Y-65846864D01*
X68950666Y-65851200D01*
X67774334Y-65851200D01*
X67730315Y-65846864D01*
X67693976Y-65835841D01*
X67660496Y-65817946D01*
X67631143Y-65793857D01*
X67607054Y-65764504D01*
X67589159Y-65731024D01*
X67578136Y-65694685D01*
X67573800Y-65650666D01*
X67573800Y-64149334D01*
X67578136Y-64105315D01*
X67589159Y-64068976D01*
X67607054Y-64035496D01*
X67631143Y-64006143D01*
X67660496Y-63982054D01*
X67693976Y-63964159D01*
X67730315Y-63953136D01*
X67774334Y-63948800D01*
X68950666Y-63948800D01*
X68994685Y-63953136D01*
X68994685Y-63953136D01*
G37*
G36*
X108606200Y-65651200D02*
X107393800Y-65651200D01*
X107393800Y-64848800D01*
X108606200Y-64848800D01*
X108606200Y-65651200D01*
X108606200Y-65651200D01*
G37*
G36*
X60076200Y-65576200D02*
X53723800Y-65576200D01*
X53723800Y-64223800D01*
X60076200Y-64223800D01*
X60076200Y-65576200D01*
X60076200Y-65576200D01*
G37*
G36*
X113151200Y-65556200D02*
X110448800Y-65556200D01*
X110448800Y-64343800D01*
X113151200Y-64343800D01*
X113151200Y-65556200D01*
X113151200Y-65556200D01*
G37*
G36*
X103244685Y-61903136D02*
X103281024Y-61914159D01*
X103314504Y-61932054D01*
X103343857Y-61956143D01*
X103367946Y-61985496D01*
X103385841Y-62018976D01*
X103396864Y-62055315D01*
X103401200Y-62099334D01*
X103401200Y-63600666D01*
X103396864Y-63644685D01*
X103385841Y-63681024D01*
X103367946Y-63714504D01*
X103343857Y-63743857D01*
X103314504Y-63767946D01*
X103281024Y-63785841D01*
X103244685Y-63796864D01*
X103200666Y-63801200D01*
X102024334Y-63801200D01*
X101980315Y-63796864D01*
X101943976Y-63785841D01*
X101910496Y-63767946D01*
X101881143Y-63743857D01*
X101857054Y-63714504D01*
X101839159Y-63681024D01*
X101828136Y-63644685D01*
X101823800Y-63600666D01*
X101823800Y-62099334D01*
X101828136Y-62055315D01*
X101839159Y-62018976D01*
X101857054Y-61985496D01*
X101881143Y-61956143D01*
X101910496Y-61932054D01*
X101943976Y-61914159D01*
X101980315Y-61903136D01*
X102024334Y-61898800D01*
X103200666Y-61898800D01*
X103244685Y-61903136D01*
X103244685Y-61903136D01*
G37*
G36*
X106219685Y-61903136D02*
X106256024Y-61914159D01*
X106289504Y-61932054D01*
X106318857Y-61956143D01*
X106342946Y-61985496D01*
X106360841Y-62018976D01*
X106371864Y-62055315D01*
X106376200Y-62099334D01*
X106376200Y-63600666D01*
X106371864Y-63644685D01*
X106360841Y-63681024D01*
X106342946Y-63714504D01*
X106318857Y-63743857D01*
X106289504Y-63767946D01*
X106256024Y-63785841D01*
X106219685Y-63796864D01*
X106175666Y-63801200D01*
X104999334Y-63801200D01*
X104955315Y-63796864D01*
X104918976Y-63785841D01*
X104885496Y-63767946D01*
X104856143Y-63743857D01*
X104832054Y-63714504D01*
X104814159Y-63681024D01*
X104803136Y-63644685D01*
X104798800Y-63600666D01*
X104798800Y-62099334D01*
X104803136Y-62055315D01*
X104814159Y-62018976D01*
X104832054Y-61985496D01*
X104856143Y-61956143D01*
X104885496Y-61932054D01*
X104918976Y-61914159D01*
X104955315Y-61903136D01*
X104999334Y-61898800D01*
X106175666Y-61898800D01*
X106219685Y-61903136D01*
X106219685Y-61903136D01*
G37*
G36*
X96956200Y-63751200D02*
X95743800Y-63751200D01*
X95743800Y-62948800D01*
X96956200Y-62948800D01*
X96956200Y-63751200D01*
X96956200Y-63751200D01*
G37*
G36*
X94756200Y-63751200D02*
X93543800Y-63751200D01*
X93543800Y-61048800D01*
X94756200Y-61048800D01*
X94756200Y-63751200D01*
X94756200Y-63751200D01*
G37*
G36*
X65419685Y-61403136D02*
X65456024Y-61414159D01*
X65489504Y-61432054D01*
X65518857Y-61456143D01*
X65542946Y-61485496D01*
X65560841Y-61518976D01*
X65571864Y-61555315D01*
X65576200Y-61599334D01*
X65576200Y-63100666D01*
X65571864Y-63144685D01*
X65560841Y-63181024D01*
X65542946Y-63214504D01*
X65518857Y-63243857D01*
X65489504Y-63267946D01*
X65456024Y-63285841D01*
X65419685Y-63296864D01*
X65375666Y-63301200D01*
X64199334Y-63301200D01*
X64155315Y-63296864D01*
X64118976Y-63285841D01*
X64085496Y-63267946D01*
X64056143Y-63243857D01*
X64032054Y-63214504D01*
X64014159Y-63181024D01*
X64003136Y-63144685D01*
X63998800Y-63100666D01*
X63998800Y-61599334D01*
X64003136Y-61555315D01*
X64014159Y-61518976D01*
X64032054Y-61485496D01*
X64056143Y-61456143D01*
X64085496Y-61432054D01*
X64118976Y-61414159D01*
X64155315Y-61403136D01*
X64199334Y-61398800D01*
X65375666Y-61398800D01*
X65419685Y-61403136D01*
X65419685Y-61403136D01*
G37*
G36*
X62444685Y-61403136D02*
X62481024Y-61414159D01*
X62514504Y-61432054D01*
X62543857Y-61456143D01*
X62567946Y-61485496D01*
X62585841Y-61518976D01*
X62596864Y-61555315D01*
X62601200Y-61599334D01*
X62601200Y-63100666D01*
X62596864Y-63144685D01*
X62585841Y-63181024D01*
X62567946Y-63214504D01*
X62543857Y-63243857D01*
X62514504Y-63267946D01*
X62481024Y-63285841D01*
X62444685Y-63296864D01*
X62400666Y-63301200D01*
X61224334Y-63301200D01*
X61180315Y-63296864D01*
X61143976Y-63285841D01*
X61110496Y-63267946D01*
X61081143Y-63243857D01*
X61057054Y-63214504D01*
X61039159Y-63181024D01*
X61028136Y-63144685D01*
X61023800Y-63100666D01*
X61023800Y-61599334D01*
X61028136Y-61555315D01*
X61039159Y-61518976D01*
X61057054Y-61485496D01*
X61081143Y-61456143D01*
X61110496Y-61432054D01*
X61143976Y-61414159D01*
X61180315Y-61403136D01*
X61224334Y-61398800D01*
X62400666Y-61398800D01*
X62444685Y-61403136D01*
X62444685Y-61403136D01*
G37*
G36*
X60119685Y-61403136D02*
X60156024Y-61414159D01*
X60189504Y-61432054D01*
X60218857Y-61456143D01*
X60242946Y-61485496D01*
X60260841Y-61518976D01*
X60271864Y-61555315D01*
X60276200Y-61599334D01*
X60276200Y-63100666D01*
X60271864Y-63144685D01*
X60260841Y-63181024D01*
X60242946Y-63214504D01*
X60218857Y-63243857D01*
X60189504Y-63267946D01*
X60156024Y-63285841D01*
X60119685Y-63296864D01*
X60075666Y-63301200D01*
X58899334Y-63301200D01*
X58855315Y-63296864D01*
X58818976Y-63285841D01*
X58785496Y-63267946D01*
X58756143Y-63243857D01*
X58732054Y-63214504D01*
X58714159Y-63181024D01*
X58703136Y-63144685D01*
X58698800Y-63100666D01*
X58698800Y-61599334D01*
X58703136Y-61555315D01*
X58714159Y-61518976D01*
X58732054Y-61485496D01*
X58756143Y-61456143D01*
X58785496Y-61432054D01*
X58818976Y-61414159D01*
X58855315Y-61403136D01*
X58899334Y-61398800D01*
X60075666Y-61398800D01*
X60119685Y-61403136D01*
X60119685Y-61403136D01*
G37*
G36*
X57144685Y-61403136D02*
X57181024Y-61414159D01*
X57214504Y-61432054D01*
X57243857Y-61456143D01*
X57267946Y-61485496D01*
X57285841Y-61518976D01*
X57296864Y-61555315D01*
X57301200Y-61599334D01*
X57301200Y-63100666D01*
X57296864Y-63144685D01*
X57285841Y-63181024D01*
X57267946Y-63214504D01*
X57243857Y-63243857D01*
X57214504Y-63267946D01*
X57181024Y-63285841D01*
X57144685Y-63296864D01*
X57100666Y-63301200D01*
X55924334Y-63301200D01*
X55880315Y-63296864D01*
X55843976Y-63285841D01*
X55810496Y-63267946D01*
X55781143Y-63243857D01*
X55757054Y-63214504D01*
X55739159Y-63181024D01*
X55728136Y-63144685D01*
X55723800Y-63100666D01*
X55723800Y-61599334D01*
X55728136Y-61555315D01*
X55739159Y-61518976D01*
X55757054Y-61485496D01*
X55781143Y-61456143D01*
X55810496Y-61432054D01*
X55843976Y-61414159D01*
X55880315Y-61403136D01*
X55924334Y-61398800D01*
X57100666Y-61398800D01*
X57144685Y-61403136D01*
X57144685Y-61403136D01*
G37*
G36*
X109694685Y-61703136D02*
X109731024Y-61714159D01*
X109764504Y-61732054D01*
X109793857Y-61756143D01*
X109817946Y-61785496D01*
X109835841Y-61818976D01*
X109846864Y-61855315D01*
X109851200Y-61899334D01*
X109851200Y-63075666D01*
X109846864Y-63119685D01*
X109835841Y-63156024D01*
X109817946Y-63189504D01*
X109793857Y-63218857D01*
X109764504Y-63242946D01*
X109731024Y-63260841D01*
X109694685Y-63271864D01*
X109650666Y-63276200D01*
X108149334Y-63276200D01*
X108105315Y-63271864D01*
X108068976Y-63260841D01*
X108035496Y-63242946D01*
X108006143Y-63218857D01*
X107982054Y-63189504D01*
X107964159Y-63156024D01*
X107953136Y-63119685D01*
X107948800Y-63075666D01*
X107948800Y-61899334D01*
X107953136Y-61855315D01*
X107964159Y-61818976D01*
X107982054Y-61785496D01*
X108006143Y-61756143D01*
X108035496Y-61732054D01*
X108068976Y-61714159D01*
X108105315Y-61703136D01*
X108149334Y-61698800D01*
X109650666Y-61698800D01*
X109694685Y-61703136D01*
X109694685Y-61703136D01*
G37*
G36*
X91194685Y-61553136D02*
X91231024Y-61564159D01*
X91264504Y-61582054D01*
X91293857Y-61606143D01*
X91317946Y-61635496D01*
X91335841Y-61668976D01*
X91346864Y-61705315D01*
X91351200Y-61749334D01*
X91351200Y-62925666D01*
X91346864Y-62969685D01*
X91335841Y-63006024D01*
X91317946Y-63039504D01*
X91293857Y-63068857D01*
X91264504Y-63092946D01*
X91231024Y-63110841D01*
X91194685Y-63121864D01*
X91150666Y-63126200D01*
X89649334Y-63126200D01*
X89605315Y-63121864D01*
X89568976Y-63110841D01*
X89535496Y-63092946D01*
X89506143Y-63068857D01*
X89482054Y-63039504D01*
X89464159Y-63006024D01*
X89453136Y-62969685D01*
X89448800Y-62925666D01*
X89448800Y-61749334D01*
X89453136Y-61705315D01*
X89464159Y-61668976D01*
X89482054Y-61635496D01*
X89506143Y-61606143D01*
X89535496Y-61582054D01*
X89568976Y-61564159D01*
X89605315Y-61553136D01*
X89649334Y-61548800D01*
X91150666Y-61548800D01*
X91194685Y-61553136D01*
X91194685Y-61553136D01*
G37*
G36*
X87494685Y-61503136D02*
X87531024Y-61514159D01*
X87564504Y-61532054D01*
X87593857Y-61556143D01*
X87617946Y-61585496D01*
X87635841Y-61618976D01*
X87646864Y-61655315D01*
X87651200Y-61699334D01*
X87651200Y-62875666D01*
X87646864Y-62919685D01*
X87635841Y-62956024D01*
X87617946Y-62989504D01*
X87593857Y-63018857D01*
X87564504Y-63042946D01*
X87531024Y-63060841D01*
X87494685Y-63071864D01*
X87450666Y-63076200D01*
X85949334Y-63076200D01*
X85905315Y-63071864D01*
X85868976Y-63060841D01*
X85835496Y-63042946D01*
X85806143Y-63018857D01*
X85782054Y-62989504D01*
X85764159Y-62956024D01*
X85753136Y-62919685D01*
X85748800Y-62875666D01*
X85748800Y-61699334D01*
X85753136Y-61655315D01*
X85764159Y-61618976D01*
X85782054Y-61585496D01*
X85806143Y-61556143D01*
X85835496Y-61532054D01*
X85868976Y-61514159D01*
X85905315Y-61503136D01*
X85949334Y-61498800D01*
X87450666Y-61498800D01*
X87494685Y-61503136D01*
X87494685Y-61503136D01*
G37*
G36*
X78244685Y-61303136D02*
X78281024Y-61314159D01*
X78314504Y-61332054D01*
X78343857Y-61356143D01*
X78367946Y-61385496D01*
X78385841Y-61418976D01*
X78396864Y-61455315D01*
X78401200Y-61499334D01*
X78401200Y-62675666D01*
X78396864Y-62719685D01*
X78385841Y-62756024D01*
X78367946Y-62789504D01*
X78343857Y-62818857D01*
X78314504Y-62842946D01*
X78281024Y-62860841D01*
X78244685Y-62871864D01*
X78200666Y-62876200D01*
X76699334Y-62876200D01*
X76655315Y-62871864D01*
X76618976Y-62860841D01*
X76585496Y-62842946D01*
X76556143Y-62818857D01*
X76532054Y-62789504D01*
X76514159Y-62756024D01*
X76503136Y-62719685D01*
X76498800Y-62675666D01*
X76498800Y-61499334D01*
X76503136Y-61455315D01*
X76514159Y-61418976D01*
X76532054Y-61385496D01*
X76556143Y-61356143D01*
X76585496Y-61332054D01*
X76618976Y-61314159D01*
X76655315Y-61303136D01*
X76699334Y-61298800D01*
X78200666Y-61298800D01*
X78244685Y-61303136D01*
X78244685Y-61303136D01*
G37*
G36*
X75844685Y-61303136D02*
X75881024Y-61314159D01*
X75914504Y-61332054D01*
X75943857Y-61356143D01*
X75967946Y-61385496D01*
X75985841Y-61418976D01*
X75996864Y-61455315D01*
X76001200Y-61499334D01*
X76001200Y-62675666D01*
X75996864Y-62719685D01*
X75985841Y-62756024D01*
X75967946Y-62789504D01*
X75943857Y-62818857D01*
X75914504Y-62842946D01*
X75881024Y-62860841D01*
X75844685Y-62871864D01*
X75800666Y-62876200D01*
X74299334Y-62876200D01*
X74255315Y-62871864D01*
X74218976Y-62860841D01*
X74185496Y-62842946D01*
X74156143Y-62818857D01*
X74132054Y-62789504D01*
X74114159Y-62756024D01*
X74103136Y-62719685D01*
X74098800Y-62675666D01*
X74098800Y-61499334D01*
X74103136Y-61455315D01*
X74114159Y-61418976D01*
X74132054Y-61385496D01*
X74156143Y-61356143D01*
X74185496Y-61332054D01*
X74218976Y-61314159D01*
X74255315Y-61303136D01*
X74299334Y-61298800D01*
X75800666Y-61298800D01*
X75844685Y-61303136D01*
X75844685Y-61303136D01*
G37*
G36*
X70844685Y-61253136D02*
X70881024Y-61264159D01*
X70914504Y-61282054D01*
X70943857Y-61306143D01*
X70967946Y-61335496D01*
X70985841Y-61368976D01*
X70996864Y-61405315D01*
X71001200Y-61449334D01*
X71001200Y-62625666D01*
X70996864Y-62669685D01*
X70985841Y-62706024D01*
X70967946Y-62739504D01*
X70943857Y-62768857D01*
X70914504Y-62792946D01*
X70881024Y-62810841D01*
X70844685Y-62821864D01*
X70800666Y-62826200D01*
X69299334Y-62826200D01*
X69255315Y-62821864D01*
X69218976Y-62810841D01*
X69185496Y-62792946D01*
X69156143Y-62768857D01*
X69132054Y-62739504D01*
X69114159Y-62706024D01*
X69103136Y-62669685D01*
X69098800Y-62625666D01*
X69098800Y-61449334D01*
X69103136Y-61405315D01*
X69114159Y-61368976D01*
X69132054Y-61335496D01*
X69156143Y-61306143D01*
X69185496Y-61282054D01*
X69218976Y-61264159D01*
X69255315Y-61253136D01*
X69299334Y-61248800D01*
X70800666Y-61248800D01*
X70844685Y-61253136D01*
X70844685Y-61253136D01*
G37*
G36*
X73294685Y-61253136D02*
X73331024Y-61264159D01*
X73364504Y-61282054D01*
X73393857Y-61306143D01*
X73417946Y-61335496D01*
X73435841Y-61368976D01*
X73446864Y-61405315D01*
X73451200Y-61449334D01*
X73451200Y-62625666D01*
X73446864Y-62669685D01*
X73435841Y-62706024D01*
X73417946Y-62739504D01*
X73393857Y-62768857D01*
X73364504Y-62792946D01*
X73331024Y-62810841D01*
X73294685Y-62821864D01*
X73250666Y-62826200D01*
X71749334Y-62826200D01*
X71705315Y-62821864D01*
X71668976Y-62810841D01*
X71635496Y-62792946D01*
X71606143Y-62768857D01*
X71582054Y-62739504D01*
X71564159Y-62706024D01*
X71553136Y-62669685D01*
X71548800Y-62625666D01*
X71548800Y-61449334D01*
X71553136Y-61405315D01*
X71564159Y-61368976D01*
X71582054Y-61335496D01*
X71606143Y-61306143D01*
X71635496Y-61282054D01*
X71668976Y-61264159D01*
X71705315Y-61253136D01*
X71749334Y-61248800D01*
X73250666Y-61248800D01*
X73294685Y-61253136D01*
X73294685Y-61253136D01*
G37*
G36*
X96956200Y-61851200D02*
X95743800Y-61851200D01*
X95743800Y-61048800D01*
X96956200Y-61048800D01*
X96956200Y-61851200D01*
X96956200Y-61851200D01*
G37*
G36*
X53526200Y-61026200D02*
X52573800Y-61026200D01*
X52573800Y-59973800D01*
X53526200Y-59973800D01*
X53526200Y-61026200D01*
X53526200Y-61026200D01*
G37*
G36*
X65419685Y-58903136D02*
X65456024Y-58914159D01*
X65489504Y-58932054D01*
X65518857Y-58956143D01*
X65542946Y-58985496D01*
X65560841Y-59018976D01*
X65571864Y-59055315D01*
X65576200Y-59099334D01*
X65576200Y-60600666D01*
X65571864Y-60644685D01*
X65560841Y-60681024D01*
X65542946Y-60714504D01*
X65518857Y-60743857D01*
X65489504Y-60767946D01*
X65456024Y-60785841D01*
X65419685Y-60796864D01*
X65375666Y-60801200D01*
X64199334Y-60801200D01*
X64155315Y-60796864D01*
X64118976Y-60785841D01*
X64085496Y-60767946D01*
X64056143Y-60743857D01*
X64032054Y-60714504D01*
X64014159Y-60681024D01*
X64003136Y-60644685D01*
X63998800Y-60600666D01*
X63998800Y-59099334D01*
X64003136Y-59055315D01*
X64014159Y-59018976D01*
X64032054Y-58985496D01*
X64056143Y-58956143D01*
X64085496Y-58932054D01*
X64118976Y-58914159D01*
X64155315Y-58903136D01*
X64199334Y-58898800D01*
X65375666Y-58898800D01*
X65419685Y-58903136D01*
X65419685Y-58903136D01*
G37*
G36*
X62444685Y-58903136D02*
X62481024Y-58914159D01*
X62514504Y-58932054D01*
X62543857Y-58956143D01*
X62567946Y-58985496D01*
X62585841Y-59018976D01*
X62596864Y-59055315D01*
X62601200Y-59099334D01*
X62601200Y-60600666D01*
X62596864Y-60644685D01*
X62585841Y-60681024D01*
X62567946Y-60714504D01*
X62543857Y-60743857D01*
X62514504Y-60767946D01*
X62481024Y-60785841D01*
X62444685Y-60796864D01*
X62400666Y-60801200D01*
X61224334Y-60801200D01*
X61180315Y-60796864D01*
X61143976Y-60785841D01*
X61110496Y-60767946D01*
X61081143Y-60743857D01*
X61057054Y-60714504D01*
X61039159Y-60681024D01*
X61028136Y-60644685D01*
X61023800Y-60600666D01*
X61023800Y-59099334D01*
X61028136Y-59055315D01*
X61039159Y-59018976D01*
X61057054Y-58985496D01*
X61081143Y-58956143D01*
X61110496Y-58932054D01*
X61143976Y-58914159D01*
X61180315Y-58903136D01*
X61224334Y-58898800D01*
X62400666Y-58898800D01*
X62444685Y-58903136D01*
X62444685Y-58903136D01*
G37*
G36*
X57144685Y-58903136D02*
X57181024Y-58914159D01*
X57214504Y-58932054D01*
X57243857Y-58956143D01*
X57267946Y-58985496D01*
X57285841Y-59018976D01*
X57296864Y-59055315D01*
X57301200Y-59099334D01*
X57301200Y-60600666D01*
X57296864Y-60644685D01*
X57285841Y-60681024D01*
X57267946Y-60714504D01*
X57243857Y-60743857D01*
X57214504Y-60767946D01*
X57181024Y-60785841D01*
X57144685Y-60796864D01*
X57100666Y-60801200D01*
X55924334Y-60801200D01*
X55880315Y-60796864D01*
X55843976Y-60785841D01*
X55810496Y-60767946D01*
X55781143Y-60743857D01*
X55757054Y-60714504D01*
X55739159Y-60681024D01*
X55728136Y-60644685D01*
X55723800Y-60600666D01*
X55723800Y-59099334D01*
X55728136Y-59055315D01*
X55739159Y-59018976D01*
X55757054Y-58985496D01*
X55781143Y-58956143D01*
X55810496Y-58932054D01*
X55843976Y-58914159D01*
X55880315Y-58903136D01*
X55924334Y-58898800D01*
X57100666Y-58898800D01*
X57144685Y-58903136D01*
X57144685Y-58903136D01*
G37*
G36*
X60119685Y-58903136D02*
X60156024Y-58914159D01*
X60189504Y-58932054D01*
X60218857Y-58956143D01*
X60242946Y-58985496D01*
X60260841Y-59018976D01*
X60271864Y-59055315D01*
X60276200Y-59099334D01*
X60276200Y-60600666D01*
X60271864Y-60644685D01*
X60260841Y-60681024D01*
X60242946Y-60714504D01*
X60218857Y-60743857D01*
X60189504Y-60767946D01*
X60156024Y-60785841D01*
X60119685Y-60796864D01*
X60075666Y-60801200D01*
X58899334Y-60801200D01*
X58855315Y-60796864D01*
X58818976Y-60785841D01*
X58785496Y-60767946D01*
X58756143Y-60743857D01*
X58732054Y-60714504D01*
X58714159Y-60681024D01*
X58703136Y-60644685D01*
X58698800Y-60600666D01*
X58698800Y-59099334D01*
X58703136Y-59055315D01*
X58714159Y-59018976D01*
X58732054Y-58985496D01*
X58756143Y-58956143D01*
X58785496Y-58932054D01*
X58818976Y-58914159D01*
X58855315Y-58903136D01*
X58899334Y-58898800D01*
X60075666Y-58898800D01*
X60119685Y-58903136D01*
X60119685Y-58903136D01*
G37*
G36*
X109694685Y-58728136D02*
X109731024Y-58739159D01*
X109764504Y-58757054D01*
X109793857Y-58781143D01*
X109817946Y-58810496D01*
X109835841Y-58843976D01*
X109846864Y-58880315D01*
X109851200Y-58924334D01*
X109851200Y-60100666D01*
X109846864Y-60144685D01*
X109835841Y-60181024D01*
X109817946Y-60214504D01*
X109793857Y-60243857D01*
X109764504Y-60267946D01*
X109731024Y-60285841D01*
X109694685Y-60296864D01*
X109650666Y-60301200D01*
X108149334Y-60301200D01*
X108105315Y-60296864D01*
X108068976Y-60285841D01*
X108035496Y-60267946D01*
X108006143Y-60243857D01*
X107982054Y-60214504D01*
X107964159Y-60181024D01*
X107953136Y-60144685D01*
X107948800Y-60100666D01*
X107948800Y-58924334D01*
X107953136Y-58880315D01*
X107964159Y-58843976D01*
X107982054Y-58810496D01*
X108006143Y-58781143D01*
X108035496Y-58757054D01*
X108068976Y-58739159D01*
X108105315Y-58728136D01*
X108149334Y-58723800D01*
X109650666Y-58723800D01*
X109694685Y-58728136D01*
X109694685Y-58728136D01*
G37*
G36*
X91194685Y-58578136D02*
X91231024Y-58589159D01*
X91264504Y-58607054D01*
X91293857Y-58631143D01*
X91317946Y-58660496D01*
X91335841Y-58693976D01*
X91346864Y-58730315D01*
X91351200Y-58774334D01*
X91351200Y-59950666D01*
X91346864Y-59994685D01*
X91335841Y-60031024D01*
X91317946Y-60064504D01*
X91293857Y-60093857D01*
X91264504Y-60117946D01*
X91231024Y-60135841D01*
X91194685Y-60146864D01*
X91150666Y-60151200D01*
X89649334Y-60151200D01*
X89605315Y-60146864D01*
X89568976Y-60135841D01*
X89535496Y-60117946D01*
X89506143Y-60093857D01*
X89482054Y-60064504D01*
X89464159Y-60031024D01*
X89453136Y-59994685D01*
X89448800Y-59950666D01*
X89448800Y-58774334D01*
X89453136Y-58730315D01*
X89464159Y-58693976D01*
X89482054Y-58660496D01*
X89506143Y-58631143D01*
X89535496Y-58607054D01*
X89568976Y-58589159D01*
X89605315Y-58578136D01*
X89649334Y-58573800D01*
X91150666Y-58573800D01*
X91194685Y-58578136D01*
X91194685Y-58578136D01*
G37*
G36*
X87494685Y-58528136D02*
X87531024Y-58539159D01*
X87564504Y-58557054D01*
X87593857Y-58581143D01*
X87617946Y-58610496D01*
X87635841Y-58643976D01*
X87646864Y-58680315D01*
X87651200Y-58724334D01*
X87651200Y-59900666D01*
X87646864Y-59944685D01*
X87635841Y-59981024D01*
X87617946Y-60014504D01*
X87593857Y-60043857D01*
X87564504Y-60067946D01*
X87531024Y-60085841D01*
X87494685Y-60096864D01*
X87450666Y-60101200D01*
X85949334Y-60101200D01*
X85905315Y-60096864D01*
X85868976Y-60085841D01*
X85835496Y-60067946D01*
X85806143Y-60043857D01*
X85782054Y-60014504D01*
X85764159Y-59981024D01*
X85753136Y-59944685D01*
X85748800Y-59900666D01*
X85748800Y-58724334D01*
X85753136Y-58680315D01*
X85764159Y-58643976D01*
X85782054Y-58610496D01*
X85806143Y-58581143D01*
X85835496Y-58557054D01*
X85868976Y-58539159D01*
X85905315Y-58528136D01*
X85949334Y-58523800D01*
X87450666Y-58523800D01*
X87494685Y-58528136D01*
X87494685Y-58528136D01*
G37*
G36*
X78244685Y-58328136D02*
X78281024Y-58339159D01*
X78314504Y-58357054D01*
X78343857Y-58381143D01*
X78367946Y-58410496D01*
X78385841Y-58443976D01*
X78396864Y-58480315D01*
X78401200Y-58524334D01*
X78401200Y-59700666D01*
X78396864Y-59744685D01*
X78385841Y-59781024D01*
X78367946Y-59814504D01*
X78343857Y-59843857D01*
X78314504Y-59867946D01*
X78281024Y-59885841D01*
X78244685Y-59896864D01*
X78200666Y-59901200D01*
X76699334Y-59901200D01*
X76655315Y-59896864D01*
X76618976Y-59885841D01*
X76585496Y-59867946D01*
X76556143Y-59843857D01*
X76532054Y-59814504D01*
X76514159Y-59781024D01*
X76503136Y-59744685D01*
X76498800Y-59700666D01*
X76498800Y-58524334D01*
X76503136Y-58480315D01*
X76514159Y-58443976D01*
X76532054Y-58410496D01*
X76556143Y-58381143D01*
X76585496Y-58357054D01*
X76618976Y-58339159D01*
X76655315Y-58328136D01*
X76699334Y-58323800D01*
X78200666Y-58323800D01*
X78244685Y-58328136D01*
X78244685Y-58328136D01*
G37*
G36*
X75844685Y-58328136D02*
X75881024Y-58339159D01*
X75914504Y-58357054D01*
X75943857Y-58381143D01*
X75967946Y-58410496D01*
X75985841Y-58443976D01*
X75996864Y-58480315D01*
X76001200Y-58524334D01*
X76001200Y-59700666D01*
X75996864Y-59744685D01*
X75985841Y-59781024D01*
X75967946Y-59814504D01*
X75943857Y-59843857D01*
X75914504Y-59867946D01*
X75881024Y-59885841D01*
X75844685Y-59896864D01*
X75800666Y-59901200D01*
X74299334Y-59901200D01*
X74255315Y-59896864D01*
X74218976Y-59885841D01*
X74185496Y-59867946D01*
X74156143Y-59843857D01*
X74132054Y-59814504D01*
X74114159Y-59781024D01*
X74103136Y-59744685D01*
X74098800Y-59700666D01*
X74098800Y-58524334D01*
X74103136Y-58480315D01*
X74114159Y-58443976D01*
X74132054Y-58410496D01*
X74156143Y-58381143D01*
X74185496Y-58357054D01*
X74218976Y-58339159D01*
X74255315Y-58328136D01*
X74299334Y-58323800D01*
X75800666Y-58323800D01*
X75844685Y-58328136D01*
X75844685Y-58328136D01*
G37*
G36*
X73294685Y-58278136D02*
X73331024Y-58289159D01*
X73364504Y-58307054D01*
X73393857Y-58331143D01*
X73417946Y-58360496D01*
X73435841Y-58393976D01*
X73446864Y-58430315D01*
X73451200Y-58474334D01*
X73451200Y-59650666D01*
X73446864Y-59694685D01*
X73435841Y-59731024D01*
X73417946Y-59764504D01*
X73393857Y-59793857D01*
X73364504Y-59817946D01*
X73331024Y-59835841D01*
X73294685Y-59846864D01*
X73250666Y-59851200D01*
X71749334Y-59851200D01*
X71705315Y-59846864D01*
X71668976Y-59835841D01*
X71635496Y-59817946D01*
X71606143Y-59793857D01*
X71582054Y-59764504D01*
X71564159Y-59731024D01*
X71553136Y-59694685D01*
X71548800Y-59650666D01*
X71548800Y-58474334D01*
X71553136Y-58430315D01*
X71564159Y-58393976D01*
X71582054Y-58360496D01*
X71606143Y-58331143D01*
X71635496Y-58307054D01*
X71668976Y-58289159D01*
X71705315Y-58278136D01*
X71749334Y-58273800D01*
X73250666Y-58273800D01*
X73294685Y-58278136D01*
X73294685Y-58278136D01*
G37*
G36*
X70844685Y-58278136D02*
X70881024Y-58289159D01*
X70914504Y-58307054D01*
X70943857Y-58331143D01*
X70967946Y-58360496D01*
X70985841Y-58393976D01*
X70996864Y-58430315D01*
X71001200Y-58474334D01*
X71001200Y-59650666D01*
X70996864Y-59694685D01*
X70985841Y-59731024D01*
X70967946Y-59764504D01*
X70943857Y-59793857D01*
X70914504Y-59817946D01*
X70881024Y-59835841D01*
X70844685Y-59846864D01*
X70800666Y-59851200D01*
X69299334Y-59851200D01*
X69255315Y-59846864D01*
X69218976Y-59835841D01*
X69185496Y-59817946D01*
X69156143Y-59793857D01*
X69132054Y-59764504D01*
X69114159Y-59731024D01*
X69103136Y-59694685D01*
X69098800Y-59650666D01*
X69098800Y-58474334D01*
X69103136Y-58430315D01*
X69114159Y-58393976D01*
X69132054Y-58360496D01*
X69156143Y-58331143D01*
X69185496Y-58307054D01*
X69218976Y-58289159D01*
X69255315Y-58278136D01*
X69299334Y-58273800D01*
X70800666Y-58273800D01*
X70844685Y-58278136D01*
X70844685Y-58278136D01*
G37*
G36*
X54476200Y-59026200D02*
X53523800Y-59026200D01*
X53523800Y-57973800D01*
X54476200Y-57973800D01*
X54476200Y-59026200D01*
X54476200Y-59026200D01*
G37*
G36*
X52576200Y-59026200D02*
X51623800Y-59026200D01*
X51623800Y-57973800D01*
X52576200Y-57973800D01*
X52576200Y-59026200D01*
X52576200Y-59026200D01*
G37*
G36*
X106971200Y-58976200D02*
X105118800Y-58976200D01*
X105118800Y-57123800D01*
X106971200Y-57123800D01*
X106971200Y-58976200D01*
X106971200Y-58976200D01*
G37*
G36*
X58476200Y-57796200D02*
X57323800Y-57796200D01*
X57323800Y-54643800D01*
X58476200Y-54643800D01*
X58476200Y-57796200D01*
X58476200Y-57796200D01*
G37*
G36*
X96576200Y-57796200D02*
X95423800Y-57796200D01*
X95423800Y-54643800D01*
X96576200Y-54643800D01*
X96576200Y-57796200D01*
X96576200Y-57796200D01*
G37*
G36*
X94036200Y-57796200D02*
X92883800Y-57796200D01*
X92883800Y-54643800D01*
X94036200Y-54643800D01*
X94036200Y-57796200D01*
X94036200Y-57796200D01*
G37*
G36*
X91496200Y-57796200D02*
X90343800Y-57796200D01*
X90343800Y-54643800D01*
X91496200Y-54643800D01*
X91496200Y-57796200D01*
X91496200Y-57796200D01*
G37*
G36*
X88956200Y-57796200D02*
X87803800Y-57796200D01*
X87803800Y-54643800D01*
X88956200Y-54643800D01*
X88956200Y-57796200D01*
X88956200Y-57796200D01*
G37*
G36*
X68636200Y-57796200D02*
X67483800Y-57796200D01*
X67483800Y-54643800D01*
X68636200Y-54643800D01*
X68636200Y-57796200D01*
X68636200Y-57796200D01*
G37*
G36*
X86416200Y-57796200D02*
X85263800Y-57796200D01*
X85263800Y-54643800D01*
X86416200Y-54643800D01*
X86416200Y-57796200D01*
X86416200Y-57796200D01*
G37*
G36*
X81336200Y-57796200D02*
X80183800Y-57796200D01*
X80183800Y-54643800D01*
X81336200Y-54643800D01*
X81336200Y-57796200D01*
X81336200Y-57796200D01*
G37*
G36*
X63556200Y-57796200D02*
X62403800Y-57796200D01*
X62403800Y-54643800D01*
X63556200Y-54643800D01*
X63556200Y-57796200D01*
X63556200Y-57796200D01*
G37*
G36*
X83876200Y-57796200D02*
X82723800Y-57796200D01*
X82723800Y-54643800D01*
X83876200Y-54643800D01*
X83876200Y-57796200D01*
X83876200Y-57796200D01*
G37*
G36*
X71176200Y-57796200D02*
X70023800Y-57796200D01*
X70023800Y-54643800D01*
X71176200Y-54643800D01*
X71176200Y-57796200D01*
X71176200Y-57796200D01*
G37*
G36*
X73716200Y-57796200D02*
X72563800Y-57796200D01*
X72563800Y-54643800D01*
X73716200Y-54643800D01*
X73716200Y-57796200D01*
X73716200Y-57796200D01*
G37*
G36*
X76256200Y-57796200D02*
X75103800Y-57796200D01*
X75103800Y-54643800D01*
X76256200Y-54643800D01*
X76256200Y-57796200D01*
X76256200Y-57796200D01*
G37*
G36*
X66096200Y-57796200D02*
X64943800Y-57796200D01*
X64943800Y-54643800D01*
X66096200Y-54643800D01*
X66096200Y-57796200D01*
X66096200Y-57796200D01*
G37*
G36*
X78796200Y-57796200D02*
X77643800Y-57796200D01*
X77643800Y-54643800D01*
X78796200Y-54643800D01*
X78796200Y-57796200D01*
X78796200Y-57796200D01*
G37*
G36*
X61016200Y-57796200D02*
X59863800Y-57796200D01*
X59863800Y-54643800D01*
X61016200Y-54643800D01*
X61016200Y-57796200D01*
X61016200Y-57796200D01*
G37*
G36*
X101298500Y-54607079D02*
X101503456Y-54691975D01*
X101687911Y-54815223D01*
X101844777Y-54972089D01*
X101968025Y-55156544D01*
X102052921Y-55361500D01*
X102096200Y-55579079D01*
X102096200Y-55800921D01*
X102052921Y-56018500D01*
X101968025Y-56223456D01*
X101844777Y-56407911D01*
X101687911Y-56564777D01*
X101503456Y-56688025D01*
X101298500Y-56772921D01*
X101080921Y-56816200D01*
X100859079Y-56816200D01*
X100641500Y-56772921D01*
X100436544Y-56688025D01*
X100252089Y-56564777D01*
X100095223Y-56407911D01*
X99971975Y-56223456D01*
X99887079Y-56018500D01*
X99843800Y-55800921D01*
X99843800Y-55579079D01*
X99887079Y-55361500D01*
X99971975Y-55156544D01*
X100095223Y-54972089D01*
X100252089Y-54815223D01*
X100436544Y-54691975D01*
X100641500Y-54607079D01*
X100859079Y-54563800D01*
X101080921Y-54563800D01*
X101298500Y-54607079D01*
X101298500Y-54607079D01*
G37*
G36*
X108308500Y-54607079D02*
X108513456Y-54691975D01*
X108697911Y-54815223D01*
X108854777Y-54972089D01*
X108978025Y-55156544D01*
X109062921Y-55361500D01*
X109106200Y-55579079D01*
X109106200Y-55800921D01*
X109062921Y-56018500D01*
X108978025Y-56223456D01*
X108854777Y-56407911D01*
X108697911Y-56564777D01*
X108513456Y-56688025D01*
X108308500Y-56772921D01*
X108090921Y-56816200D01*
X107869079Y-56816200D01*
X107651500Y-56772921D01*
X107446544Y-56688025D01*
X107262089Y-56564777D01*
X107105223Y-56407911D01*
X106981975Y-56223456D01*
X106897079Y-56018500D01*
X106853800Y-55800921D01*
X106853800Y-55579079D01*
X106897079Y-55361500D01*
X106981975Y-55156544D01*
X107105223Y-54972089D01*
X107262089Y-54815223D01*
X107446544Y-54691975D01*
X107651500Y-54607079D01*
X107869079Y-54563800D01*
X108090921Y-54563800D01*
X108308500Y-54607079D01*
X108308500Y-54607079D01*
G37*
G36*
X53416005Y-52128608D02*
X53675557Y-52236118D01*
X53909148Y-52392198D01*
X54107800Y-52590850D01*
X54263880Y-52824441D01*
X54371390Y-53083993D01*
X54426198Y-53359532D01*
X54426198Y-53640468D01*
X54371390Y-53916007D01*
X54263880Y-54175559D01*
X54107800Y-54409150D01*
X53909148Y-54607802D01*
X53675557Y-54763882D01*
X53416005Y-54871392D01*
X53140466Y-54926200D01*
X52859530Y-54926200D01*
X52583991Y-54871392D01*
X52324439Y-54763882D01*
X52090848Y-54607802D01*
X51892196Y-54409150D01*
X51736116Y-54175559D01*
X51628606Y-53916007D01*
X51573798Y-53640468D01*
X51573798Y-53359532D01*
X51628606Y-53083993D01*
X51736116Y-52824441D01*
X51892196Y-52590850D01*
X52090848Y-52392198D01*
X52324439Y-52236118D01*
X52583991Y-52128608D01*
X52859530Y-52073800D01*
X53140466Y-52073800D01*
X53416005Y-52128608D01*
X53416005Y-52128608D01*
G37*
G36*
X111416007Y-52128608D02*
X111675559Y-52236118D01*
X111909150Y-52392198D01*
X112107802Y-52590850D01*
X112263882Y-52824441D01*
X112371392Y-53083993D01*
X112426200Y-53359532D01*
X112426200Y-53640468D01*
X112371392Y-53916007D01*
X112263882Y-54175559D01*
X112107802Y-54409150D01*
X111909150Y-54607802D01*
X111675559Y-54763882D01*
X111416007Y-54871392D01*
X111140468Y-54926200D01*
X110859532Y-54926200D01*
X110583993Y-54871392D01*
X110324441Y-54763882D01*
X110090850Y-54607802D01*
X109892198Y-54409150D01*
X109736118Y-54175559D01*
X109628608Y-53916007D01*
X109573800Y-53640468D01*
X109573800Y-53359532D01*
X109628608Y-53083993D01*
X109736118Y-52824441D01*
X109892198Y-52590850D01*
X110090850Y-52392198D01*
X110324441Y-52236118D01*
X110583993Y-52128608D01*
X110859532Y-52073800D01*
X111140468Y-52073800D01*
X111416007Y-52128608D01*
X111416007Y-52128608D01*
G37*
G36*
X102497455Y-52285355D02*
X102670562Y-52357058D01*
X102670563Y-52357059D01*
X102826352Y-52461153D01*
X102958847Y-52593648D01*
X103028243Y-52697507D01*
X103062942Y-52749438D01*
X103134645Y-52922545D01*
X103171200Y-53106315D01*
X103171200Y-53293685D01*
X103134645Y-53477455D01*
X103062942Y-53650562D01*
X103062941Y-53650563D01*
X102958847Y-53806352D01*
X102826352Y-53938847D01*
X102722493Y-54008243D01*
X102670562Y-54042942D01*
X102497455Y-54114645D01*
X102313685Y-54151200D01*
X102126315Y-54151200D01*
X101942545Y-54114645D01*
X101769438Y-54042942D01*
X101717507Y-54008243D01*
X101613648Y-53938847D01*
X101481153Y-53806352D01*
X101377059Y-53650563D01*
X101377058Y-53650562D01*
X101305355Y-53477455D01*
X101268800Y-53293685D01*
X101268800Y-53106315D01*
X101305355Y-52922545D01*
X101377058Y-52749438D01*
X101411757Y-52697507D01*
X101481153Y-52593648D01*
X101613648Y-52461153D01*
X101769437Y-52357059D01*
X101769438Y-52357058D01*
X101942545Y-52285355D01*
X102126315Y-52248800D01*
X102313685Y-52248800D01*
X102497455Y-52285355D01*
X102497455Y-52285355D01*
G37*
G36*
X106997455Y-52285355D02*
X107170562Y-52357058D01*
X107170563Y-52357059D01*
X107326352Y-52461153D01*
X107458847Y-52593648D01*
X107528243Y-52697507D01*
X107562942Y-52749438D01*
X107634645Y-52922545D01*
X107671200Y-53106315D01*
X107671200Y-53293685D01*
X107634645Y-53477455D01*
X107562942Y-53650562D01*
X107562941Y-53650563D01*
X107458847Y-53806352D01*
X107326352Y-53938847D01*
X107222493Y-54008243D01*
X107170562Y-54042942D01*
X106997455Y-54114645D01*
X106813685Y-54151200D01*
X106626315Y-54151200D01*
X106442545Y-54114645D01*
X106269438Y-54042942D01*
X106217507Y-54008243D01*
X106113648Y-53938847D01*
X105981153Y-53806352D01*
X105877059Y-53650563D01*
X105877058Y-53650562D01*
X105805355Y-53477455D01*
X105768800Y-53293685D01*
X105768800Y-53106315D01*
X105805355Y-52922545D01*
X105877058Y-52749438D01*
X105911757Y-52697507D01*
X105981153Y-52593648D01*
X106113648Y-52461153D01*
X106269437Y-52357059D01*
X106269438Y-52357058D01*
X106442545Y-52285355D01*
X106626315Y-52248800D01*
X106813685Y-52248800D01*
X106997455Y-52285355D01*
X106997455Y-52285355D01*
G37*
G36*
X61016200Y-52756200D02*
X59863800Y-52756200D01*
X59863800Y-49603800D01*
X61016200Y-49603800D01*
X61016200Y-52756200D01*
X61016200Y-52756200D01*
G37*
G36*
X63556200Y-52756200D02*
X62403800Y-52756200D01*
X62403800Y-49603800D01*
X63556200Y-49603800D01*
X63556200Y-52756200D01*
X63556200Y-52756200D01*
G37*
G36*
X66096200Y-52756200D02*
X64943800Y-52756200D01*
X64943800Y-49603800D01*
X66096200Y-49603800D01*
X66096200Y-52756200D01*
X66096200Y-52756200D01*
G37*
G36*
X68636200Y-52756200D02*
X67483800Y-52756200D01*
X67483800Y-49603800D01*
X68636200Y-49603800D01*
X68636200Y-52756200D01*
X68636200Y-52756200D01*
G37*
G36*
X71176200Y-52756200D02*
X70023800Y-52756200D01*
X70023800Y-49603800D01*
X71176200Y-49603800D01*
X71176200Y-52756200D01*
X71176200Y-52756200D01*
G37*
G36*
X73716200Y-52756200D02*
X72563800Y-52756200D01*
X72563800Y-49603800D01*
X73716200Y-49603800D01*
X73716200Y-52756200D01*
X73716200Y-52756200D01*
G37*
G36*
X76256200Y-52756200D02*
X75103800Y-52756200D01*
X75103800Y-49603800D01*
X76256200Y-49603800D01*
X76256200Y-52756200D01*
X76256200Y-52756200D01*
G37*
G36*
X78796200Y-52756200D02*
X77643800Y-52756200D01*
X77643800Y-49603800D01*
X78796200Y-49603800D01*
X78796200Y-52756200D01*
X78796200Y-52756200D01*
G37*
G36*
X81336200Y-52756200D02*
X80183800Y-52756200D01*
X80183800Y-49603800D01*
X81336200Y-49603800D01*
X81336200Y-52756200D01*
X81336200Y-52756200D01*
G37*
G36*
X83876200Y-52756200D02*
X82723800Y-52756200D01*
X82723800Y-49603800D01*
X83876200Y-49603800D01*
X83876200Y-52756200D01*
X83876200Y-52756200D01*
G37*
G36*
X86416200Y-52756200D02*
X85263800Y-52756200D01*
X85263800Y-49603800D01*
X86416200Y-49603800D01*
X86416200Y-52756200D01*
X86416200Y-52756200D01*
G37*
G36*
X88956200Y-52756200D02*
X87803800Y-52756200D01*
X87803800Y-49603800D01*
X88956200Y-49603800D01*
X88956200Y-52756200D01*
X88956200Y-52756200D01*
G37*
G36*
X96576200Y-52756200D02*
X95423800Y-52756200D01*
X95423800Y-49603800D01*
X96576200Y-49603800D01*
X96576200Y-52756200D01*
X96576200Y-52756200D01*
G37*
G36*
X94036200Y-52756200D02*
X92883800Y-52756200D01*
X92883800Y-49603800D01*
X94036200Y-49603800D01*
X94036200Y-52756200D01*
X94036200Y-52756200D01*
G37*
G36*
X58476200Y-52756200D02*
X57323800Y-52756200D01*
X57323800Y-49603800D01*
X58476200Y-49603800D01*
X58476200Y-52756200D01*
X58476200Y-52756200D01*
G37*
G36*
X91496200Y-52756200D02*
X90343800Y-52756200D01*
X90343800Y-49603800D01*
X91496200Y-49603800D01*
X91496200Y-52756200D01*
X91496200Y-52756200D01*
G37*
M02*
