G04 #@! TF.FileFunction,Copper,L2,Bot,Signal*
%FSLAX46Y46*%
G04 Gerber Fmt 4.6, Leading zero omitted, Abs format (unit mm)*
G04 Created by KiCad (PCBNEW 4.0.5+dfsg1-4) date Tue Mar 27 21:16:24 2018*
%MOMM*%
%LPD*%
G01*
G04 APERTURE LIST*
%ADD10C,0.100000*%
%ADD11C,1.699260*%
%ADD12R,1.699260X1.699260*%
%ADD13R,1.727200X1.727200*%
%ADD14O,1.727200X1.727200*%
%ADD15R,2.032000X1.727200*%
%ADD16O,2.032000X1.727200*%
%ADD17R,2.032000X2.032000*%
%ADD18O,2.032000X2.032000*%
%ADD19R,1.727200X2.032000*%
%ADD20O,1.727200X2.032000*%
%ADD21C,1.998980*%
%ADD22R,2.235200X2.235200*%
%ADD23C,0.685800*%
%ADD24C,0.635000*%
%ADD25C,1.270000*%
G04 APERTURE END LIST*
D10*
D11*
X125097540Y-78740520D03*
D12*
X125097540Y-68580520D03*
D11*
X120012460Y-68579480D03*
D12*
X120012460Y-78739480D03*
D11*
X127632460Y-68579480D03*
D12*
X127632460Y-78739480D03*
D11*
X122552460Y-68579480D03*
D12*
X122552460Y-78739480D03*
D13*
X163830000Y-66040000D03*
D14*
X166370000Y-66040000D03*
X163830000Y-68580000D03*
X166370000Y-68580000D03*
X163830000Y-71120000D03*
X166370000Y-71120000D03*
X163830000Y-73660000D03*
X166370000Y-73660000D03*
X163830000Y-76200000D03*
X166370000Y-76200000D03*
X163830000Y-78740000D03*
X166370000Y-78740000D03*
D15*
X136525000Y-73660000D03*
D16*
X136525000Y-76200000D03*
X136525000Y-78740000D03*
D17*
X123444000Y-65024000D03*
D18*
X125984000Y-65024000D03*
D17*
X133858000Y-65024000D03*
D18*
X131318000Y-65024000D03*
D19*
X150876000Y-109220000D03*
D20*
X153416000Y-109220000D03*
X155956000Y-109220000D03*
X158496000Y-109220000D03*
D19*
X121285000Y-122555000D03*
D20*
X123825000Y-122555000D03*
X126365000Y-122555000D03*
X128905000Y-122555000D03*
D21*
X133350000Y-78740000D03*
X133350000Y-71120000D03*
X130810000Y-78740000D03*
X130810000Y-71120000D03*
D22*
X166116000Y-109220000D03*
D23*
X136144000Y-67310000D03*
X149860000Y-79248000D03*
X163830000Y-83185000D03*
X158496000Y-101600000D03*
X155956000Y-101600000D03*
X156210000Y-71120000D03*
X128905000Y-74930000D03*
D24*
X125097540Y-73660000D02*
X133858000Y-73660000D01*
X133858000Y-65024000D02*
X137668000Y-65024000D01*
X137668000Y-68580000D02*
X137668000Y-65024000D01*
X133858000Y-73660000D02*
X137668000Y-68580000D01*
X125097540Y-73660000D02*
X125097540Y-68580520D01*
X122552460Y-68579480D02*
X122552460Y-68201540D01*
X122552460Y-68201540D02*
X123952000Y-66802000D01*
X131318000Y-66802000D02*
X131318000Y-65024000D01*
X123952000Y-66802000D02*
X131318000Y-66802000D01*
X127632460Y-68579480D02*
X128904480Y-68579480D01*
X128904480Y-68579480D02*
X130810000Y-71120000D01*
X130810000Y-71120000D02*
X130810000Y-70485000D01*
X130810000Y-70485000D02*
X134620000Y-67310000D01*
X134620000Y-67310000D02*
X136144000Y-67310000D01*
X149860000Y-79248000D02*
X155194000Y-79248000D01*
X155194000Y-79248000D02*
X157226000Y-81280000D01*
X157226000Y-81280000D02*
X166370000Y-81280000D01*
X166370000Y-81280000D02*
X166370000Y-78740000D01*
X122552460Y-78739480D02*
X122555000Y-80645000D01*
X155448000Y-83312000D02*
X163830000Y-83185000D01*
X152908000Y-80772000D02*
X155448000Y-83312000D01*
X122936000Y-80772000D02*
X152908000Y-80772000D01*
X122555000Y-80645000D02*
X122936000Y-80772000D01*
X158496000Y-101600000D02*
X158496000Y-109220000D01*
X158496000Y-109220000D02*
X158496000Y-116840000D01*
X128905000Y-116840000D02*
X128778000Y-122682000D01*
X158496000Y-116840000D02*
X128905000Y-116840000D01*
X163830000Y-71120000D02*
X156210000Y-71120000D01*
X155956000Y-101600000D02*
X155956000Y-109220000D01*
X155956000Y-109220000D02*
X155956000Y-114808000D01*
X126365000Y-114935000D02*
X126238000Y-122682000D01*
X155956000Y-114808000D02*
X126365000Y-114935000D01*
X130810000Y-78740000D02*
X130810000Y-76835000D01*
X128905000Y-74930000D02*
X130810000Y-76835000D01*
D25*
X153416000Y-109220000D02*
X153416000Y-112268000D01*
X123825000Y-112395000D02*
X123698000Y-122682000D01*
X153416000Y-112268000D02*
X123825000Y-112395000D01*
X153416000Y-103632000D02*
X153416000Y-109220000D01*
X153416000Y-100076000D02*
X153416000Y-103632000D01*
X172212000Y-82804000D02*
X153416000Y-100076000D01*
X166370000Y-71120000D02*
X171704000Y-71120000D01*
X172212000Y-71628000D02*
X172212000Y-82804000D01*
X171704000Y-71120000D02*
X172212000Y-71628000D01*
M02*
