M48
;DRILL file {KiCad 4.0.5+dfsg1-4} date Tue Mar 27 21:16:35 2018
;FORMAT={-:-/ absolute / inch / decimal}
FMAT,2
INCH,TZ
T1C0.013
T2C0.028
T3C0.039
T4C0.040
T5C0.106
%
G90
G05
M72
T1
X5.075Y-2.95
X5.36Y-2.65
X5.9Y-3.12
X6.14Y-4.
X6.15Y-2.8
X6.24Y-4.
X6.45Y-3.275
T2
X4.7249Y-2.7
X4.7249Y-3.1
X4.8249Y-2.7
X4.8249Y-3.1
X4.9251Y-2.7
X4.9251Y-3.1
X5.0249Y-2.7
X5.0249Y-3.1
T3
X5.15Y-2.8
X5.15Y-3.1
X5.25Y-2.8
X5.25Y-3.1
T4
X4.775Y-4.825
X4.86Y-2.56
X4.875Y-4.825
X4.96Y-2.56
X4.975Y-4.825
X5.075Y-4.825
X5.17Y-2.56
X5.27Y-2.56
X5.375Y-2.9
X5.375Y-3.
X5.375Y-3.1
X5.94Y-4.3
X6.04Y-4.3
X6.14Y-4.3
X6.24Y-4.3
X6.45Y-2.6
X6.45Y-2.7
X6.45Y-2.8
X6.45Y-2.9
X6.45Y-3.
X6.45Y-3.1
X6.54Y-4.3
X6.55Y-2.6
X6.55Y-2.7
X6.55Y-2.8
X6.55Y-2.9
X6.55Y-3.
X6.55Y-3.1
T5
X4.6Y-2.7
X4.6Y-4.34
X6.8Y-2.7
X6.8Y-4.34
T0
M30
