G04 #@! TF.FileFunction,Copper,L1,Top,Signal*
%FSLAX46Y46*%
G04 Gerber Fmt 4.6, Leading zero omitted, Abs format (unit mm)*
G04 Created by KiCad (PCBNEW 4.0.5+dfsg1-4) date Sat Feb  3 00:51:27 2018*
%MOMM*%
%LPD*%
G01*
G04 APERTURE LIST*
%ADD10C,0.100000*%
%ADD11C,1.699260*%
%ADD12R,1.699260X1.699260*%
%ADD13R,1.727200X1.727200*%
%ADD14O,1.727200X1.727200*%
%ADD15R,1.727200X2.032000*%
%ADD16O,1.727200X2.032000*%
%ADD17R,2.032000X1.727200*%
%ADD18O,2.032000X1.727200*%
%ADD19R,2.032000X2.032000*%
%ADD20O,2.032000X2.032000*%
%ADD21C,1.998980*%
%ADD22C,0.685800*%
%ADD23C,0.635000*%
%ADD24C,1.270000*%
G04 APERTURE END LIST*
D10*
D11*
X125097540Y-78740520D03*
D12*
X125097540Y-68580520D03*
D11*
X120012460Y-68579480D03*
D12*
X120012460Y-78739480D03*
D11*
X127632460Y-68579480D03*
D12*
X127632460Y-78739480D03*
D11*
X122552460Y-68579480D03*
D12*
X122552460Y-78739480D03*
D13*
X162560000Y-66040000D03*
D14*
X165100000Y-66040000D03*
X162560000Y-68580000D03*
X165100000Y-68580000D03*
X162560000Y-71120000D03*
X165100000Y-71120000D03*
X162560000Y-73660000D03*
X165100000Y-73660000D03*
X162560000Y-76200000D03*
X165100000Y-76200000D03*
X162560000Y-78740000D03*
X165100000Y-78740000D03*
D15*
X162560000Y-104140000D03*
D16*
X160020000Y-104140000D03*
X157480000Y-104140000D03*
X154940000Y-104140000D03*
X152400000Y-104140000D03*
X149860000Y-104140000D03*
D17*
X138684000Y-78740000D03*
D18*
X138684000Y-76200000D03*
X138684000Y-73660000D03*
D19*
X123190000Y-66040000D03*
D20*
X125730000Y-66040000D03*
D19*
X137160000Y-65278000D03*
D20*
X134620000Y-65278000D03*
D21*
X133985000Y-78740000D03*
X133985000Y-68580000D03*
X131445000Y-78740000D03*
X131445000Y-68580000D03*
D15*
X152400000Y-109220000D03*
D16*
X154940000Y-109220000D03*
X157480000Y-109220000D03*
X160020000Y-109220000D03*
D15*
X137160000Y-109220000D03*
D16*
X134620000Y-109220000D03*
X132080000Y-109220000D03*
X129540000Y-109220000D03*
D22*
X125095000Y-73660000D03*
X139700000Y-71120000D03*
X131445000Y-68580000D03*
X162560000Y-83312000D03*
X157480000Y-78740000D03*
X129540000Y-74930000D03*
D23*
X125097540Y-78740520D02*
X125097540Y-76202540D01*
X137414000Y-74930000D02*
X138684000Y-73660000D01*
X133985000Y-74930000D02*
X137414000Y-74930000D01*
X132715000Y-76200000D02*
X133985000Y-74930000D01*
X125100080Y-76200000D02*
X132715000Y-76200000D01*
X125097540Y-76202540D02*
X125100080Y-76200000D01*
X125097540Y-73657460D02*
X125097540Y-68580520D01*
X125095000Y-73660000D02*
X125097540Y-73657460D01*
X120012460Y-68579480D02*
X122552460Y-68579480D01*
X127632460Y-78739480D02*
X127632460Y-79377540D01*
X127632460Y-79377540D02*
X126365000Y-80645000D01*
X120012460Y-80642460D02*
X120012460Y-78739480D01*
X120015000Y-80645000D02*
X120012460Y-80642460D01*
X126365000Y-80645000D02*
X120015000Y-80645000D01*
X133985000Y-78740000D02*
X133985000Y-77470000D01*
X135255000Y-76200000D02*
X138684000Y-76200000D01*
X133985000Y-77470000D02*
X135255000Y-76200000D01*
X127632460Y-78739480D02*
X127634480Y-78739480D01*
X127634480Y-78739480D02*
X129032000Y-80772000D01*
X129032000Y-80772000D02*
X132588000Y-80772000D01*
X132588000Y-80772000D02*
X133350000Y-80010000D01*
X133350000Y-80010000D02*
X133985000Y-78740000D01*
X131445000Y-68580000D02*
X131445000Y-69850000D01*
X132715000Y-71120000D02*
X139700000Y-71120000D01*
X131445000Y-69850000D02*
X132715000Y-71120000D01*
X162560000Y-83312000D02*
X162560000Y-78740000D01*
D24*
X149860000Y-100330000D02*
X149860000Y-104140000D01*
X152400000Y-97790000D02*
X149860000Y-100330000D01*
X162560000Y-66040000D02*
X152400000Y-66040000D01*
X152400000Y-66040000D02*
X152400000Y-97790000D01*
X165100000Y-66040000D02*
X167640000Y-66040000D01*
X168910000Y-119380000D02*
X152400000Y-119380000D01*
X152400000Y-119380000D02*
X152400000Y-109220000D01*
X168910000Y-69850000D02*
X168910000Y-119380000D01*
X167640000Y-68580000D02*
X168910000Y-69850000D01*
X167640000Y-66040000D02*
X167640000Y-68580000D01*
X152400000Y-109220000D02*
X137160000Y-109220000D01*
D23*
X162560000Y-68580000D02*
X160020000Y-68580000D01*
X160020000Y-68580000D02*
X160020000Y-104140000D01*
X157480000Y-78740000D02*
X157480000Y-104140000D01*
X133985000Y-68580000D02*
X139700000Y-68580000D01*
X140208000Y-78740000D02*
X138684000Y-78740000D01*
X142748000Y-76200000D02*
X140208000Y-78740000D01*
X142748000Y-71628000D02*
X142748000Y-76200000D01*
X139700000Y-68580000D02*
X142748000Y-71628000D01*
X127508000Y-64008000D02*
X128778000Y-64008000D01*
X123190000Y-64770000D02*
X123952000Y-64008000D01*
X123952000Y-64008000D02*
X127508000Y-64008000D01*
X123190000Y-64770000D02*
X123190000Y-66040000D01*
X129540000Y-64770000D02*
X129540000Y-74930000D01*
X128778000Y-64008000D02*
X129540000Y-64770000D01*
M02*
