G04 #@! TF.GenerationSoftware,KiCad,Pcbnew,(5.0.1)-4*
G04 #@! TF.CreationDate,2019-03-17T18:40:41+00:00*
G04 #@! TF.ProjectId,Bell-Boy,42656C6C2D426F792E6B696361645F70,rev?*
G04 #@! TF.SameCoordinates,Original*
G04 #@! TF.FileFunction,Paste,Bot*
G04 #@! TF.FilePolarity,Positive*
%FSLAX46Y46*%
G04 Gerber Fmt 4.6, Leading zero omitted, Abs format (unit mm)*
G04 Created by KiCad (PCBNEW (5.0.1)-4) date 17/03/2019 18:40:41*
%MOMM*%
%LPD*%
G01*
G04 APERTURE LIST*
%ADD10C,0.100000*%
%ADD11C,1.425000*%
%ADD12R,1.000000X3.000000*%
%ADD13R,1.060000X0.650000*%
%ADD14R,0.800000X0.900000*%
%ADD15R,0.650000X1.060000*%
%ADD16R,1.200000X0.600000*%
%ADD17R,0.600000X1.200000*%
%ADD18C,0.300000*%
G04 APERTURE END LIST*
D10*
G04 #@! TO.C,C7*
G36*
X78099504Y-58401204D02*
X78123773Y-58404804D01*
X78147571Y-58410765D01*
X78170671Y-58419030D01*
X78192849Y-58429520D01*
X78213893Y-58442133D01*
X78233598Y-58456747D01*
X78251777Y-58473223D01*
X78268253Y-58491402D01*
X78282867Y-58511107D01*
X78295480Y-58532151D01*
X78305970Y-58554329D01*
X78314235Y-58577429D01*
X78320196Y-58601227D01*
X78323796Y-58625496D01*
X78325000Y-58650000D01*
X78325000Y-59575000D01*
X78323796Y-59599504D01*
X78320196Y-59623773D01*
X78314235Y-59647571D01*
X78305970Y-59670671D01*
X78295480Y-59692849D01*
X78282867Y-59713893D01*
X78268253Y-59733598D01*
X78251777Y-59751777D01*
X78233598Y-59768253D01*
X78213893Y-59782867D01*
X78192849Y-59795480D01*
X78170671Y-59805970D01*
X78147571Y-59814235D01*
X78123773Y-59820196D01*
X78099504Y-59823796D01*
X78075000Y-59825000D01*
X76825000Y-59825000D01*
X76800496Y-59823796D01*
X76776227Y-59820196D01*
X76752429Y-59814235D01*
X76729329Y-59805970D01*
X76707151Y-59795480D01*
X76686107Y-59782867D01*
X76666402Y-59768253D01*
X76648223Y-59751777D01*
X76631747Y-59733598D01*
X76617133Y-59713893D01*
X76604520Y-59692849D01*
X76594030Y-59670671D01*
X76585765Y-59647571D01*
X76579804Y-59623773D01*
X76576204Y-59599504D01*
X76575000Y-59575000D01*
X76575000Y-58650000D01*
X76576204Y-58625496D01*
X76579804Y-58601227D01*
X76585765Y-58577429D01*
X76594030Y-58554329D01*
X76604520Y-58532151D01*
X76617133Y-58511107D01*
X76631747Y-58491402D01*
X76648223Y-58473223D01*
X76666402Y-58456747D01*
X76686107Y-58442133D01*
X76707151Y-58429520D01*
X76729329Y-58419030D01*
X76752429Y-58410765D01*
X76776227Y-58404804D01*
X76800496Y-58401204D01*
X76825000Y-58400000D01*
X78075000Y-58400000D01*
X78099504Y-58401204D01*
X78099504Y-58401204D01*
G37*
D11*
X77450000Y-59112500D03*
D10*
G36*
X78099504Y-61376204D02*
X78123773Y-61379804D01*
X78147571Y-61385765D01*
X78170671Y-61394030D01*
X78192849Y-61404520D01*
X78213893Y-61417133D01*
X78233598Y-61431747D01*
X78251777Y-61448223D01*
X78268253Y-61466402D01*
X78282867Y-61486107D01*
X78295480Y-61507151D01*
X78305970Y-61529329D01*
X78314235Y-61552429D01*
X78320196Y-61576227D01*
X78323796Y-61600496D01*
X78325000Y-61625000D01*
X78325000Y-62550000D01*
X78323796Y-62574504D01*
X78320196Y-62598773D01*
X78314235Y-62622571D01*
X78305970Y-62645671D01*
X78295480Y-62667849D01*
X78282867Y-62688893D01*
X78268253Y-62708598D01*
X78251777Y-62726777D01*
X78233598Y-62743253D01*
X78213893Y-62757867D01*
X78192849Y-62770480D01*
X78170671Y-62780970D01*
X78147571Y-62789235D01*
X78123773Y-62795196D01*
X78099504Y-62798796D01*
X78075000Y-62800000D01*
X76825000Y-62800000D01*
X76800496Y-62798796D01*
X76776227Y-62795196D01*
X76752429Y-62789235D01*
X76729329Y-62780970D01*
X76707151Y-62770480D01*
X76686107Y-62757867D01*
X76666402Y-62743253D01*
X76648223Y-62726777D01*
X76631747Y-62708598D01*
X76617133Y-62688893D01*
X76604520Y-62667849D01*
X76594030Y-62645671D01*
X76585765Y-62622571D01*
X76579804Y-62598773D01*
X76576204Y-62574504D01*
X76575000Y-62550000D01*
X76575000Y-61625000D01*
X76576204Y-61600496D01*
X76579804Y-61576227D01*
X76585765Y-61552429D01*
X76594030Y-61529329D01*
X76604520Y-61507151D01*
X76617133Y-61486107D01*
X76631747Y-61466402D01*
X76648223Y-61448223D01*
X76666402Y-61431747D01*
X76686107Y-61417133D01*
X76707151Y-61404520D01*
X76729329Y-61394030D01*
X76752429Y-61385765D01*
X76776227Y-61379804D01*
X76800496Y-61376204D01*
X76825000Y-61375000D01*
X78075000Y-61375000D01*
X78099504Y-61376204D01*
X78099504Y-61376204D01*
G37*
D11*
X77450000Y-62087500D03*
G04 #@! TD*
D12*
G04 #@! TO.C,J4*
X57900000Y-56220000D03*
X57900000Y-51180000D03*
X60440000Y-56220000D03*
X60440000Y-51180000D03*
X62980000Y-56220000D03*
X62980000Y-51180000D03*
X65520000Y-56220000D03*
X65520000Y-51180000D03*
X68060000Y-56220000D03*
X68060000Y-51180000D03*
X70600000Y-56220000D03*
X70600000Y-51180000D03*
X73140000Y-56220000D03*
X73140000Y-51180000D03*
X75680000Y-56220000D03*
X75680000Y-51180000D03*
X78220000Y-56220000D03*
X78220000Y-51180000D03*
X80760000Y-56220000D03*
X80760000Y-51180000D03*
X83300000Y-56220000D03*
X83300000Y-51180000D03*
X85840000Y-56220000D03*
X85840000Y-51180000D03*
X88380000Y-56220000D03*
X88380000Y-51180000D03*
X90920000Y-56220000D03*
X90920000Y-51180000D03*
X93460000Y-56220000D03*
X93460000Y-51180000D03*
X96000000Y-56220000D03*
X96000000Y-51180000D03*
G04 #@! TD*
D13*
G04 #@! TO.C,U4*
X108000000Y-67150000D03*
X108000000Y-65250000D03*
X105800000Y-65250000D03*
X105800000Y-66200000D03*
X105800000Y-67150000D03*
G04 #@! TD*
D14*
G04 #@! TO.C,D1*
X52100000Y-58500000D03*
X54000000Y-58500000D03*
X53050000Y-60500000D03*
G04 #@! TD*
D15*
G04 #@! TO.C,U3*
X110850000Y-64950000D03*
X111800000Y-64950000D03*
X112750000Y-64950000D03*
X112750000Y-67150000D03*
X110850000Y-67150000D03*
G04 #@! TD*
D10*
G04 #@! TO.C,C1*
G36*
X73999504Y-66776204D02*
X74023773Y-66779804D01*
X74047571Y-66785765D01*
X74070671Y-66794030D01*
X74092849Y-66804520D01*
X74113893Y-66817133D01*
X74133598Y-66831747D01*
X74151777Y-66848223D01*
X74168253Y-66866402D01*
X74182867Y-66886107D01*
X74195480Y-66907151D01*
X74205970Y-66929329D01*
X74214235Y-66952429D01*
X74220196Y-66976227D01*
X74223796Y-67000496D01*
X74225000Y-67025000D01*
X74225000Y-68275000D01*
X74223796Y-68299504D01*
X74220196Y-68323773D01*
X74214235Y-68347571D01*
X74205970Y-68370671D01*
X74195480Y-68392849D01*
X74182867Y-68413893D01*
X74168253Y-68433598D01*
X74151777Y-68451777D01*
X74133598Y-68468253D01*
X74113893Y-68482867D01*
X74092849Y-68495480D01*
X74070671Y-68505970D01*
X74047571Y-68514235D01*
X74023773Y-68520196D01*
X73999504Y-68523796D01*
X73975000Y-68525000D01*
X73050000Y-68525000D01*
X73025496Y-68523796D01*
X73001227Y-68520196D01*
X72977429Y-68514235D01*
X72954329Y-68505970D01*
X72932151Y-68495480D01*
X72911107Y-68482867D01*
X72891402Y-68468253D01*
X72873223Y-68451777D01*
X72856747Y-68433598D01*
X72842133Y-68413893D01*
X72829520Y-68392849D01*
X72819030Y-68370671D01*
X72810765Y-68347571D01*
X72804804Y-68323773D01*
X72801204Y-68299504D01*
X72800000Y-68275000D01*
X72800000Y-67025000D01*
X72801204Y-67000496D01*
X72804804Y-66976227D01*
X72810765Y-66952429D01*
X72819030Y-66929329D01*
X72829520Y-66907151D01*
X72842133Y-66886107D01*
X72856747Y-66866402D01*
X72873223Y-66848223D01*
X72891402Y-66831747D01*
X72911107Y-66817133D01*
X72932151Y-66804520D01*
X72954329Y-66794030D01*
X72977429Y-66785765D01*
X73001227Y-66779804D01*
X73025496Y-66776204D01*
X73050000Y-66775000D01*
X73975000Y-66775000D01*
X73999504Y-66776204D01*
X73999504Y-66776204D01*
G37*
D11*
X73512500Y-67650000D03*
D10*
G36*
X76974504Y-66776204D02*
X76998773Y-66779804D01*
X77022571Y-66785765D01*
X77045671Y-66794030D01*
X77067849Y-66804520D01*
X77088893Y-66817133D01*
X77108598Y-66831747D01*
X77126777Y-66848223D01*
X77143253Y-66866402D01*
X77157867Y-66886107D01*
X77170480Y-66907151D01*
X77180970Y-66929329D01*
X77189235Y-66952429D01*
X77195196Y-66976227D01*
X77198796Y-67000496D01*
X77200000Y-67025000D01*
X77200000Y-68275000D01*
X77198796Y-68299504D01*
X77195196Y-68323773D01*
X77189235Y-68347571D01*
X77180970Y-68370671D01*
X77170480Y-68392849D01*
X77157867Y-68413893D01*
X77143253Y-68433598D01*
X77126777Y-68451777D01*
X77108598Y-68468253D01*
X77088893Y-68482867D01*
X77067849Y-68495480D01*
X77045671Y-68505970D01*
X77022571Y-68514235D01*
X76998773Y-68520196D01*
X76974504Y-68523796D01*
X76950000Y-68525000D01*
X76025000Y-68525000D01*
X76000496Y-68523796D01*
X75976227Y-68520196D01*
X75952429Y-68514235D01*
X75929329Y-68505970D01*
X75907151Y-68495480D01*
X75886107Y-68482867D01*
X75866402Y-68468253D01*
X75848223Y-68451777D01*
X75831747Y-68433598D01*
X75817133Y-68413893D01*
X75804520Y-68392849D01*
X75794030Y-68370671D01*
X75785765Y-68347571D01*
X75779804Y-68323773D01*
X75776204Y-68299504D01*
X75775000Y-68275000D01*
X75775000Y-67025000D01*
X75776204Y-67000496D01*
X75779804Y-66976227D01*
X75785765Y-66952429D01*
X75794030Y-66929329D01*
X75804520Y-66907151D01*
X75817133Y-66886107D01*
X75831747Y-66866402D01*
X75848223Y-66848223D01*
X75866402Y-66831747D01*
X75886107Y-66817133D01*
X75907151Y-66804520D01*
X75929329Y-66794030D01*
X75952429Y-66785765D01*
X75976227Y-66779804D01*
X76000496Y-66776204D01*
X76025000Y-66775000D01*
X76950000Y-66775000D01*
X76974504Y-66776204D01*
X76974504Y-66776204D01*
G37*
D11*
X76487500Y-67650000D03*
G04 #@! TD*
D10*
G04 #@! TO.C,R1*
G36*
X103974504Y-74226204D02*
X103998773Y-74229804D01*
X104022571Y-74235765D01*
X104045671Y-74244030D01*
X104067849Y-74254520D01*
X104088893Y-74267133D01*
X104108598Y-74281747D01*
X104126777Y-74298223D01*
X104143253Y-74316402D01*
X104157867Y-74336107D01*
X104170480Y-74357151D01*
X104180970Y-74379329D01*
X104189235Y-74402429D01*
X104195196Y-74426227D01*
X104198796Y-74450496D01*
X104200000Y-74475000D01*
X104200000Y-75725000D01*
X104198796Y-75749504D01*
X104195196Y-75773773D01*
X104189235Y-75797571D01*
X104180970Y-75820671D01*
X104170480Y-75842849D01*
X104157867Y-75863893D01*
X104143253Y-75883598D01*
X104126777Y-75901777D01*
X104108598Y-75918253D01*
X104088893Y-75932867D01*
X104067849Y-75945480D01*
X104045671Y-75955970D01*
X104022571Y-75964235D01*
X103998773Y-75970196D01*
X103974504Y-75973796D01*
X103950000Y-75975000D01*
X103025000Y-75975000D01*
X103000496Y-75973796D01*
X102976227Y-75970196D01*
X102952429Y-75964235D01*
X102929329Y-75955970D01*
X102907151Y-75945480D01*
X102886107Y-75932867D01*
X102866402Y-75918253D01*
X102848223Y-75901777D01*
X102831747Y-75883598D01*
X102817133Y-75863893D01*
X102804520Y-75842849D01*
X102794030Y-75820671D01*
X102785765Y-75797571D01*
X102779804Y-75773773D01*
X102776204Y-75749504D01*
X102775000Y-75725000D01*
X102775000Y-74475000D01*
X102776204Y-74450496D01*
X102779804Y-74426227D01*
X102785765Y-74402429D01*
X102794030Y-74379329D01*
X102804520Y-74357151D01*
X102817133Y-74336107D01*
X102831747Y-74316402D01*
X102848223Y-74298223D01*
X102866402Y-74281747D01*
X102886107Y-74267133D01*
X102907151Y-74254520D01*
X102929329Y-74244030D01*
X102952429Y-74235765D01*
X102976227Y-74229804D01*
X103000496Y-74226204D01*
X103025000Y-74225000D01*
X103950000Y-74225000D01*
X103974504Y-74226204D01*
X103974504Y-74226204D01*
G37*
D11*
X103487500Y-75100000D03*
D10*
G36*
X100999504Y-74226204D02*
X101023773Y-74229804D01*
X101047571Y-74235765D01*
X101070671Y-74244030D01*
X101092849Y-74254520D01*
X101113893Y-74267133D01*
X101133598Y-74281747D01*
X101151777Y-74298223D01*
X101168253Y-74316402D01*
X101182867Y-74336107D01*
X101195480Y-74357151D01*
X101205970Y-74379329D01*
X101214235Y-74402429D01*
X101220196Y-74426227D01*
X101223796Y-74450496D01*
X101225000Y-74475000D01*
X101225000Y-75725000D01*
X101223796Y-75749504D01*
X101220196Y-75773773D01*
X101214235Y-75797571D01*
X101205970Y-75820671D01*
X101195480Y-75842849D01*
X101182867Y-75863893D01*
X101168253Y-75883598D01*
X101151777Y-75901777D01*
X101133598Y-75918253D01*
X101113893Y-75932867D01*
X101092849Y-75945480D01*
X101070671Y-75955970D01*
X101047571Y-75964235D01*
X101023773Y-75970196D01*
X100999504Y-75973796D01*
X100975000Y-75975000D01*
X100050000Y-75975000D01*
X100025496Y-75973796D01*
X100001227Y-75970196D01*
X99977429Y-75964235D01*
X99954329Y-75955970D01*
X99932151Y-75945480D01*
X99911107Y-75932867D01*
X99891402Y-75918253D01*
X99873223Y-75901777D01*
X99856747Y-75883598D01*
X99842133Y-75863893D01*
X99829520Y-75842849D01*
X99819030Y-75820671D01*
X99810765Y-75797571D01*
X99804804Y-75773773D01*
X99801204Y-75749504D01*
X99800000Y-75725000D01*
X99800000Y-74475000D01*
X99801204Y-74450496D01*
X99804804Y-74426227D01*
X99810765Y-74402429D01*
X99819030Y-74379329D01*
X99829520Y-74357151D01*
X99842133Y-74336107D01*
X99856747Y-74316402D01*
X99873223Y-74298223D01*
X99891402Y-74281747D01*
X99911107Y-74267133D01*
X99932151Y-74254520D01*
X99954329Y-74244030D01*
X99977429Y-74235765D01*
X100001227Y-74229804D01*
X100025496Y-74226204D01*
X100050000Y-74225000D01*
X100975000Y-74225000D01*
X100999504Y-74226204D01*
X100999504Y-74226204D01*
G37*
D11*
X100512500Y-75100000D03*
G04 #@! TD*
D10*
G04 #@! TO.C,R2*
G36*
X94349504Y-70826204D02*
X94373773Y-70829804D01*
X94397571Y-70835765D01*
X94420671Y-70844030D01*
X94442849Y-70854520D01*
X94463893Y-70867133D01*
X94483598Y-70881747D01*
X94501777Y-70898223D01*
X94518253Y-70916402D01*
X94532867Y-70936107D01*
X94545480Y-70957151D01*
X94555970Y-70979329D01*
X94564235Y-71002429D01*
X94570196Y-71026227D01*
X94573796Y-71050496D01*
X94575000Y-71075000D01*
X94575000Y-72325000D01*
X94573796Y-72349504D01*
X94570196Y-72373773D01*
X94564235Y-72397571D01*
X94555970Y-72420671D01*
X94545480Y-72442849D01*
X94532867Y-72463893D01*
X94518253Y-72483598D01*
X94501777Y-72501777D01*
X94483598Y-72518253D01*
X94463893Y-72532867D01*
X94442849Y-72545480D01*
X94420671Y-72555970D01*
X94397571Y-72564235D01*
X94373773Y-72570196D01*
X94349504Y-72573796D01*
X94325000Y-72575000D01*
X93400000Y-72575000D01*
X93375496Y-72573796D01*
X93351227Y-72570196D01*
X93327429Y-72564235D01*
X93304329Y-72555970D01*
X93282151Y-72545480D01*
X93261107Y-72532867D01*
X93241402Y-72518253D01*
X93223223Y-72501777D01*
X93206747Y-72483598D01*
X93192133Y-72463893D01*
X93179520Y-72442849D01*
X93169030Y-72420671D01*
X93160765Y-72397571D01*
X93154804Y-72373773D01*
X93151204Y-72349504D01*
X93150000Y-72325000D01*
X93150000Y-71075000D01*
X93151204Y-71050496D01*
X93154804Y-71026227D01*
X93160765Y-71002429D01*
X93169030Y-70979329D01*
X93179520Y-70957151D01*
X93192133Y-70936107D01*
X93206747Y-70916402D01*
X93223223Y-70898223D01*
X93241402Y-70881747D01*
X93261107Y-70867133D01*
X93282151Y-70854520D01*
X93304329Y-70844030D01*
X93327429Y-70835765D01*
X93351227Y-70829804D01*
X93375496Y-70826204D01*
X93400000Y-70825000D01*
X94325000Y-70825000D01*
X94349504Y-70826204D01*
X94349504Y-70826204D01*
G37*
D11*
X93862500Y-71700000D03*
D10*
G36*
X97324504Y-70826204D02*
X97348773Y-70829804D01*
X97372571Y-70835765D01*
X97395671Y-70844030D01*
X97417849Y-70854520D01*
X97438893Y-70867133D01*
X97458598Y-70881747D01*
X97476777Y-70898223D01*
X97493253Y-70916402D01*
X97507867Y-70936107D01*
X97520480Y-70957151D01*
X97530970Y-70979329D01*
X97539235Y-71002429D01*
X97545196Y-71026227D01*
X97548796Y-71050496D01*
X97550000Y-71075000D01*
X97550000Y-72325000D01*
X97548796Y-72349504D01*
X97545196Y-72373773D01*
X97539235Y-72397571D01*
X97530970Y-72420671D01*
X97520480Y-72442849D01*
X97507867Y-72463893D01*
X97493253Y-72483598D01*
X97476777Y-72501777D01*
X97458598Y-72518253D01*
X97438893Y-72532867D01*
X97417849Y-72545480D01*
X97395671Y-72555970D01*
X97372571Y-72564235D01*
X97348773Y-72570196D01*
X97324504Y-72573796D01*
X97300000Y-72575000D01*
X96375000Y-72575000D01*
X96350496Y-72573796D01*
X96326227Y-72570196D01*
X96302429Y-72564235D01*
X96279329Y-72555970D01*
X96257151Y-72545480D01*
X96236107Y-72532867D01*
X96216402Y-72518253D01*
X96198223Y-72501777D01*
X96181747Y-72483598D01*
X96167133Y-72463893D01*
X96154520Y-72442849D01*
X96144030Y-72420671D01*
X96135765Y-72397571D01*
X96129804Y-72373773D01*
X96126204Y-72349504D01*
X96125000Y-72325000D01*
X96125000Y-71075000D01*
X96126204Y-71050496D01*
X96129804Y-71026227D01*
X96135765Y-71002429D01*
X96144030Y-70979329D01*
X96154520Y-70957151D01*
X96167133Y-70936107D01*
X96181747Y-70916402D01*
X96198223Y-70898223D01*
X96216402Y-70881747D01*
X96236107Y-70867133D01*
X96257151Y-70854520D01*
X96279329Y-70844030D01*
X96302429Y-70835765D01*
X96326227Y-70829804D01*
X96350496Y-70826204D01*
X96375000Y-70825000D01*
X97300000Y-70825000D01*
X97324504Y-70826204D01*
X97324504Y-70826204D01*
G37*
D11*
X96837500Y-71700000D03*
G04 #@! TD*
D10*
G04 #@! TO.C,C2*
G36*
X65274504Y-58976204D02*
X65298773Y-58979804D01*
X65322571Y-58985765D01*
X65345671Y-58994030D01*
X65367849Y-59004520D01*
X65388893Y-59017133D01*
X65408598Y-59031747D01*
X65426777Y-59048223D01*
X65443253Y-59066402D01*
X65457867Y-59086107D01*
X65470480Y-59107151D01*
X65480970Y-59129329D01*
X65489235Y-59152429D01*
X65495196Y-59176227D01*
X65498796Y-59200496D01*
X65500000Y-59225000D01*
X65500000Y-60475000D01*
X65498796Y-60499504D01*
X65495196Y-60523773D01*
X65489235Y-60547571D01*
X65480970Y-60570671D01*
X65470480Y-60592849D01*
X65457867Y-60613893D01*
X65443253Y-60633598D01*
X65426777Y-60651777D01*
X65408598Y-60668253D01*
X65388893Y-60682867D01*
X65367849Y-60695480D01*
X65345671Y-60705970D01*
X65322571Y-60714235D01*
X65298773Y-60720196D01*
X65274504Y-60723796D01*
X65250000Y-60725000D01*
X64325000Y-60725000D01*
X64300496Y-60723796D01*
X64276227Y-60720196D01*
X64252429Y-60714235D01*
X64229329Y-60705970D01*
X64207151Y-60695480D01*
X64186107Y-60682867D01*
X64166402Y-60668253D01*
X64148223Y-60651777D01*
X64131747Y-60633598D01*
X64117133Y-60613893D01*
X64104520Y-60592849D01*
X64094030Y-60570671D01*
X64085765Y-60547571D01*
X64079804Y-60523773D01*
X64076204Y-60499504D01*
X64075000Y-60475000D01*
X64075000Y-59225000D01*
X64076204Y-59200496D01*
X64079804Y-59176227D01*
X64085765Y-59152429D01*
X64094030Y-59129329D01*
X64104520Y-59107151D01*
X64117133Y-59086107D01*
X64131747Y-59066402D01*
X64148223Y-59048223D01*
X64166402Y-59031747D01*
X64186107Y-59017133D01*
X64207151Y-59004520D01*
X64229329Y-58994030D01*
X64252429Y-58985765D01*
X64276227Y-58979804D01*
X64300496Y-58976204D01*
X64325000Y-58975000D01*
X65250000Y-58975000D01*
X65274504Y-58976204D01*
X65274504Y-58976204D01*
G37*
D11*
X64787500Y-59850000D03*
D10*
G36*
X62299504Y-58976204D02*
X62323773Y-58979804D01*
X62347571Y-58985765D01*
X62370671Y-58994030D01*
X62392849Y-59004520D01*
X62413893Y-59017133D01*
X62433598Y-59031747D01*
X62451777Y-59048223D01*
X62468253Y-59066402D01*
X62482867Y-59086107D01*
X62495480Y-59107151D01*
X62505970Y-59129329D01*
X62514235Y-59152429D01*
X62520196Y-59176227D01*
X62523796Y-59200496D01*
X62525000Y-59225000D01*
X62525000Y-60475000D01*
X62523796Y-60499504D01*
X62520196Y-60523773D01*
X62514235Y-60547571D01*
X62505970Y-60570671D01*
X62495480Y-60592849D01*
X62482867Y-60613893D01*
X62468253Y-60633598D01*
X62451777Y-60651777D01*
X62433598Y-60668253D01*
X62413893Y-60682867D01*
X62392849Y-60695480D01*
X62370671Y-60705970D01*
X62347571Y-60714235D01*
X62323773Y-60720196D01*
X62299504Y-60723796D01*
X62275000Y-60725000D01*
X61350000Y-60725000D01*
X61325496Y-60723796D01*
X61301227Y-60720196D01*
X61277429Y-60714235D01*
X61254329Y-60705970D01*
X61232151Y-60695480D01*
X61211107Y-60682867D01*
X61191402Y-60668253D01*
X61173223Y-60651777D01*
X61156747Y-60633598D01*
X61142133Y-60613893D01*
X61129520Y-60592849D01*
X61119030Y-60570671D01*
X61110765Y-60547571D01*
X61104804Y-60523773D01*
X61101204Y-60499504D01*
X61100000Y-60475000D01*
X61100000Y-59225000D01*
X61101204Y-59200496D01*
X61104804Y-59176227D01*
X61110765Y-59152429D01*
X61119030Y-59129329D01*
X61129520Y-59107151D01*
X61142133Y-59086107D01*
X61156747Y-59066402D01*
X61173223Y-59048223D01*
X61191402Y-59031747D01*
X61211107Y-59017133D01*
X61232151Y-59004520D01*
X61254329Y-58994030D01*
X61277429Y-58985765D01*
X61301227Y-58979804D01*
X61325496Y-58976204D01*
X61350000Y-58975000D01*
X62275000Y-58975000D01*
X62299504Y-58976204D01*
X62299504Y-58976204D01*
G37*
D11*
X61812500Y-59850000D03*
G04 #@! TD*
D10*
G04 #@! TO.C,C3*
G36*
X56999504Y-58976204D02*
X57023773Y-58979804D01*
X57047571Y-58985765D01*
X57070671Y-58994030D01*
X57092849Y-59004520D01*
X57113893Y-59017133D01*
X57133598Y-59031747D01*
X57151777Y-59048223D01*
X57168253Y-59066402D01*
X57182867Y-59086107D01*
X57195480Y-59107151D01*
X57205970Y-59129329D01*
X57214235Y-59152429D01*
X57220196Y-59176227D01*
X57223796Y-59200496D01*
X57225000Y-59225000D01*
X57225000Y-60475000D01*
X57223796Y-60499504D01*
X57220196Y-60523773D01*
X57214235Y-60547571D01*
X57205970Y-60570671D01*
X57195480Y-60592849D01*
X57182867Y-60613893D01*
X57168253Y-60633598D01*
X57151777Y-60651777D01*
X57133598Y-60668253D01*
X57113893Y-60682867D01*
X57092849Y-60695480D01*
X57070671Y-60705970D01*
X57047571Y-60714235D01*
X57023773Y-60720196D01*
X56999504Y-60723796D01*
X56975000Y-60725000D01*
X56050000Y-60725000D01*
X56025496Y-60723796D01*
X56001227Y-60720196D01*
X55977429Y-60714235D01*
X55954329Y-60705970D01*
X55932151Y-60695480D01*
X55911107Y-60682867D01*
X55891402Y-60668253D01*
X55873223Y-60651777D01*
X55856747Y-60633598D01*
X55842133Y-60613893D01*
X55829520Y-60592849D01*
X55819030Y-60570671D01*
X55810765Y-60547571D01*
X55804804Y-60523773D01*
X55801204Y-60499504D01*
X55800000Y-60475000D01*
X55800000Y-59225000D01*
X55801204Y-59200496D01*
X55804804Y-59176227D01*
X55810765Y-59152429D01*
X55819030Y-59129329D01*
X55829520Y-59107151D01*
X55842133Y-59086107D01*
X55856747Y-59066402D01*
X55873223Y-59048223D01*
X55891402Y-59031747D01*
X55911107Y-59017133D01*
X55932151Y-59004520D01*
X55954329Y-58994030D01*
X55977429Y-58985765D01*
X56001227Y-58979804D01*
X56025496Y-58976204D01*
X56050000Y-58975000D01*
X56975000Y-58975000D01*
X56999504Y-58976204D01*
X56999504Y-58976204D01*
G37*
D11*
X56512500Y-59850000D03*
D10*
G36*
X59974504Y-58976204D02*
X59998773Y-58979804D01*
X60022571Y-58985765D01*
X60045671Y-58994030D01*
X60067849Y-59004520D01*
X60088893Y-59017133D01*
X60108598Y-59031747D01*
X60126777Y-59048223D01*
X60143253Y-59066402D01*
X60157867Y-59086107D01*
X60170480Y-59107151D01*
X60180970Y-59129329D01*
X60189235Y-59152429D01*
X60195196Y-59176227D01*
X60198796Y-59200496D01*
X60200000Y-59225000D01*
X60200000Y-60475000D01*
X60198796Y-60499504D01*
X60195196Y-60523773D01*
X60189235Y-60547571D01*
X60180970Y-60570671D01*
X60170480Y-60592849D01*
X60157867Y-60613893D01*
X60143253Y-60633598D01*
X60126777Y-60651777D01*
X60108598Y-60668253D01*
X60088893Y-60682867D01*
X60067849Y-60695480D01*
X60045671Y-60705970D01*
X60022571Y-60714235D01*
X59998773Y-60720196D01*
X59974504Y-60723796D01*
X59950000Y-60725000D01*
X59025000Y-60725000D01*
X59000496Y-60723796D01*
X58976227Y-60720196D01*
X58952429Y-60714235D01*
X58929329Y-60705970D01*
X58907151Y-60695480D01*
X58886107Y-60682867D01*
X58866402Y-60668253D01*
X58848223Y-60651777D01*
X58831747Y-60633598D01*
X58817133Y-60613893D01*
X58804520Y-60592849D01*
X58794030Y-60570671D01*
X58785765Y-60547571D01*
X58779804Y-60523773D01*
X58776204Y-60499504D01*
X58775000Y-60475000D01*
X58775000Y-59225000D01*
X58776204Y-59200496D01*
X58779804Y-59176227D01*
X58785765Y-59152429D01*
X58794030Y-59129329D01*
X58804520Y-59107151D01*
X58817133Y-59086107D01*
X58831747Y-59066402D01*
X58848223Y-59048223D01*
X58866402Y-59031747D01*
X58886107Y-59017133D01*
X58907151Y-59004520D01*
X58929329Y-58994030D01*
X58952429Y-58985765D01*
X58976227Y-58979804D01*
X59000496Y-58976204D01*
X59025000Y-58975000D01*
X59950000Y-58975000D01*
X59974504Y-58976204D01*
X59974504Y-58976204D01*
G37*
D11*
X59487500Y-59850000D03*
G04 #@! TD*
D10*
G04 #@! TO.C,C4*
G36*
X59974504Y-61476204D02*
X59998773Y-61479804D01*
X60022571Y-61485765D01*
X60045671Y-61494030D01*
X60067849Y-61504520D01*
X60088893Y-61517133D01*
X60108598Y-61531747D01*
X60126777Y-61548223D01*
X60143253Y-61566402D01*
X60157867Y-61586107D01*
X60170480Y-61607151D01*
X60180970Y-61629329D01*
X60189235Y-61652429D01*
X60195196Y-61676227D01*
X60198796Y-61700496D01*
X60200000Y-61725000D01*
X60200000Y-62975000D01*
X60198796Y-62999504D01*
X60195196Y-63023773D01*
X60189235Y-63047571D01*
X60180970Y-63070671D01*
X60170480Y-63092849D01*
X60157867Y-63113893D01*
X60143253Y-63133598D01*
X60126777Y-63151777D01*
X60108598Y-63168253D01*
X60088893Y-63182867D01*
X60067849Y-63195480D01*
X60045671Y-63205970D01*
X60022571Y-63214235D01*
X59998773Y-63220196D01*
X59974504Y-63223796D01*
X59950000Y-63225000D01*
X59025000Y-63225000D01*
X59000496Y-63223796D01*
X58976227Y-63220196D01*
X58952429Y-63214235D01*
X58929329Y-63205970D01*
X58907151Y-63195480D01*
X58886107Y-63182867D01*
X58866402Y-63168253D01*
X58848223Y-63151777D01*
X58831747Y-63133598D01*
X58817133Y-63113893D01*
X58804520Y-63092849D01*
X58794030Y-63070671D01*
X58785765Y-63047571D01*
X58779804Y-63023773D01*
X58776204Y-62999504D01*
X58775000Y-62975000D01*
X58775000Y-61725000D01*
X58776204Y-61700496D01*
X58779804Y-61676227D01*
X58785765Y-61652429D01*
X58794030Y-61629329D01*
X58804520Y-61607151D01*
X58817133Y-61586107D01*
X58831747Y-61566402D01*
X58848223Y-61548223D01*
X58866402Y-61531747D01*
X58886107Y-61517133D01*
X58907151Y-61504520D01*
X58929329Y-61494030D01*
X58952429Y-61485765D01*
X58976227Y-61479804D01*
X59000496Y-61476204D01*
X59025000Y-61475000D01*
X59950000Y-61475000D01*
X59974504Y-61476204D01*
X59974504Y-61476204D01*
G37*
D11*
X59487500Y-62350000D03*
D10*
G36*
X56999504Y-61476204D02*
X57023773Y-61479804D01*
X57047571Y-61485765D01*
X57070671Y-61494030D01*
X57092849Y-61504520D01*
X57113893Y-61517133D01*
X57133598Y-61531747D01*
X57151777Y-61548223D01*
X57168253Y-61566402D01*
X57182867Y-61586107D01*
X57195480Y-61607151D01*
X57205970Y-61629329D01*
X57214235Y-61652429D01*
X57220196Y-61676227D01*
X57223796Y-61700496D01*
X57225000Y-61725000D01*
X57225000Y-62975000D01*
X57223796Y-62999504D01*
X57220196Y-63023773D01*
X57214235Y-63047571D01*
X57205970Y-63070671D01*
X57195480Y-63092849D01*
X57182867Y-63113893D01*
X57168253Y-63133598D01*
X57151777Y-63151777D01*
X57133598Y-63168253D01*
X57113893Y-63182867D01*
X57092849Y-63195480D01*
X57070671Y-63205970D01*
X57047571Y-63214235D01*
X57023773Y-63220196D01*
X56999504Y-63223796D01*
X56975000Y-63225000D01*
X56050000Y-63225000D01*
X56025496Y-63223796D01*
X56001227Y-63220196D01*
X55977429Y-63214235D01*
X55954329Y-63205970D01*
X55932151Y-63195480D01*
X55911107Y-63182867D01*
X55891402Y-63168253D01*
X55873223Y-63151777D01*
X55856747Y-63133598D01*
X55842133Y-63113893D01*
X55829520Y-63092849D01*
X55819030Y-63070671D01*
X55810765Y-63047571D01*
X55804804Y-63023773D01*
X55801204Y-62999504D01*
X55800000Y-62975000D01*
X55800000Y-61725000D01*
X55801204Y-61700496D01*
X55804804Y-61676227D01*
X55810765Y-61652429D01*
X55819030Y-61629329D01*
X55829520Y-61607151D01*
X55842133Y-61586107D01*
X55856747Y-61566402D01*
X55873223Y-61548223D01*
X55891402Y-61531747D01*
X55911107Y-61517133D01*
X55932151Y-61504520D01*
X55954329Y-61494030D01*
X55977429Y-61485765D01*
X56001227Y-61479804D01*
X56025496Y-61476204D01*
X56050000Y-61475000D01*
X56975000Y-61475000D01*
X56999504Y-61476204D01*
X56999504Y-61476204D01*
G37*
D11*
X56512500Y-62350000D03*
G04 #@! TD*
D10*
G04 #@! TO.C,R3*
G36*
X100999504Y-70926204D02*
X101023773Y-70929804D01*
X101047571Y-70935765D01*
X101070671Y-70944030D01*
X101092849Y-70954520D01*
X101113893Y-70967133D01*
X101133598Y-70981747D01*
X101151777Y-70998223D01*
X101168253Y-71016402D01*
X101182867Y-71036107D01*
X101195480Y-71057151D01*
X101205970Y-71079329D01*
X101214235Y-71102429D01*
X101220196Y-71126227D01*
X101223796Y-71150496D01*
X101225000Y-71175000D01*
X101225000Y-72425000D01*
X101223796Y-72449504D01*
X101220196Y-72473773D01*
X101214235Y-72497571D01*
X101205970Y-72520671D01*
X101195480Y-72542849D01*
X101182867Y-72563893D01*
X101168253Y-72583598D01*
X101151777Y-72601777D01*
X101133598Y-72618253D01*
X101113893Y-72632867D01*
X101092849Y-72645480D01*
X101070671Y-72655970D01*
X101047571Y-72664235D01*
X101023773Y-72670196D01*
X100999504Y-72673796D01*
X100975000Y-72675000D01*
X100050000Y-72675000D01*
X100025496Y-72673796D01*
X100001227Y-72670196D01*
X99977429Y-72664235D01*
X99954329Y-72655970D01*
X99932151Y-72645480D01*
X99911107Y-72632867D01*
X99891402Y-72618253D01*
X99873223Y-72601777D01*
X99856747Y-72583598D01*
X99842133Y-72563893D01*
X99829520Y-72542849D01*
X99819030Y-72520671D01*
X99810765Y-72497571D01*
X99804804Y-72473773D01*
X99801204Y-72449504D01*
X99800000Y-72425000D01*
X99800000Y-71175000D01*
X99801204Y-71150496D01*
X99804804Y-71126227D01*
X99810765Y-71102429D01*
X99819030Y-71079329D01*
X99829520Y-71057151D01*
X99842133Y-71036107D01*
X99856747Y-71016402D01*
X99873223Y-70998223D01*
X99891402Y-70981747D01*
X99911107Y-70967133D01*
X99932151Y-70954520D01*
X99954329Y-70944030D01*
X99977429Y-70935765D01*
X100001227Y-70929804D01*
X100025496Y-70926204D01*
X100050000Y-70925000D01*
X100975000Y-70925000D01*
X100999504Y-70926204D01*
X100999504Y-70926204D01*
G37*
D11*
X100512500Y-71800000D03*
D10*
G36*
X103974504Y-70926204D02*
X103998773Y-70929804D01*
X104022571Y-70935765D01*
X104045671Y-70944030D01*
X104067849Y-70954520D01*
X104088893Y-70967133D01*
X104108598Y-70981747D01*
X104126777Y-70998223D01*
X104143253Y-71016402D01*
X104157867Y-71036107D01*
X104170480Y-71057151D01*
X104180970Y-71079329D01*
X104189235Y-71102429D01*
X104195196Y-71126227D01*
X104198796Y-71150496D01*
X104200000Y-71175000D01*
X104200000Y-72425000D01*
X104198796Y-72449504D01*
X104195196Y-72473773D01*
X104189235Y-72497571D01*
X104180970Y-72520671D01*
X104170480Y-72542849D01*
X104157867Y-72563893D01*
X104143253Y-72583598D01*
X104126777Y-72601777D01*
X104108598Y-72618253D01*
X104088893Y-72632867D01*
X104067849Y-72645480D01*
X104045671Y-72655970D01*
X104022571Y-72664235D01*
X103998773Y-72670196D01*
X103974504Y-72673796D01*
X103950000Y-72675000D01*
X103025000Y-72675000D01*
X103000496Y-72673796D01*
X102976227Y-72670196D01*
X102952429Y-72664235D01*
X102929329Y-72655970D01*
X102907151Y-72645480D01*
X102886107Y-72632867D01*
X102866402Y-72618253D01*
X102848223Y-72601777D01*
X102831747Y-72583598D01*
X102817133Y-72563893D01*
X102804520Y-72542849D01*
X102794030Y-72520671D01*
X102785765Y-72497571D01*
X102779804Y-72473773D01*
X102776204Y-72449504D01*
X102775000Y-72425000D01*
X102775000Y-71175000D01*
X102776204Y-71150496D01*
X102779804Y-71126227D01*
X102785765Y-71102429D01*
X102794030Y-71079329D01*
X102804520Y-71057151D01*
X102817133Y-71036107D01*
X102831747Y-71016402D01*
X102848223Y-70998223D01*
X102866402Y-70981747D01*
X102886107Y-70967133D01*
X102907151Y-70954520D01*
X102929329Y-70944030D01*
X102952429Y-70935765D01*
X102976227Y-70929804D01*
X103000496Y-70926204D01*
X103025000Y-70925000D01*
X103950000Y-70925000D01*
X103974504Y-70926204D01*
X103974504Y-70926204D01*
G37*
D11*
X103487500Y-71800000D03*
G04 #@! TD*
D10*
G04 #@! TO.C,R4*
G36*
X70699504Y-61326204D02*
X70723773Y-61329804D01*
X70747571Y-61335765D01*
X70770671Y-61344030D01*
X70792849Y-61354520D01*
X70813893Y-61367133D01*
X70833598Y-61381747D01*
X70851777Y-61398223D01*
X70868253Y-61416402D01*
X70882867Y-61436107D01*
X70895480Y-61457151D01*
X70905970Y-61479329D01*
X70914235Y-61502429D01*
X70920196Y-61526227D01*
X70923796Y-61550496D01*
X70925000Y-61575000D01*
X70925000Y-62500000D01*
X70923796Y-62524504D01*
X70920196Y-62548773D01*
X70914235Y-62572571D01*
X70905970Y-62595671D01*
X70895480Y-62617849D01*
X70882867Y-62638893D01*
X70868253Y-62658598D01*
X70851777Y-62676777D01*
X70833598Y-62693253D01*
X70813893Y-62707867D01*
X70792849Y-62720480D01*
X70770671Y-62730970D01*
X70747571Y-62739235D01*
X70723773Y-62745196D01*
X70699504Y-62748796D01*
X70675000Y-62750000D01*
X69425000Y-62750000D01*
X69400496Y-62748796D01*
X69376227Y-62745196D01*
X69352429Y-62739235D01*
X69329329Y-62730970D01*
X69307151Y-62720480D01*
X69286107Y-62707867D01*
X69266402Y-62693253D01*
X69248223Y-62676777D01*
X69231747Y-62658598D01*
X69217133Y-62638893D01*
X69204520Y-62617849D01*
X69194030Y-62595671D01*
X69185765Y-62572571D01*
X69179804Y-62548773D01*
X69176204Y-62524504D01*
X69175000Y-62500000D01*
X69175000Y-61575000D01*
X69176204Y-61550496D01*
X69179804Y-61526227D01*
X69185765Y-61502429D01*
X69194030Y-61479329D01*
X69204520Y-61457151D01*
X69217133Y-61436107D01*
X69231747Y-61416402D01*
X69248223Y-61398223D01*
X69266402Y-61381747D01*
X69286107Y-61367133D01*
X69307151Y-61354520D01*
X69329329Y-61344030D01*
X69352429Y-61335765D01*
X69376227Y-61329804D01*
X69400496Y-61326204D01*
X69425000Y-61325000D01*
X70675000Y-61325000D01*
X70699504Y-61326204D01*
X70699504Y-61326204D01*
G37*
D11*
X70050000Y-62037500D03*
D10*
G36*
X70699504Y-58351204D02*
X70723773Y-58354804D01*
X70747571Y-58360765D01*
X70770671Y-58369030D01*
X70792849Y-58379520D01*
X70813893Y-58392133D01*
X70833598Y-58406747D01*
X70851777Y-58423223D01*
X70868253Y-58441402D01*
X70882867Y-58461107D01*
X70895480Y-58482151D01*
X70905970Y-58504329D01*
X70914235Y-58527429D01*
X70920196Y-58551227D01*
X70923796Y-58575496D01*
X70925000Y-58600000D01*
X70925000Y-59525000D01*
X70923796Y-59549504D01*
X70920196Y-59573773D01*
X70914235Y-59597571D01*
X70905970Y-59620671D01*
X70895480Y-59642849D01*
X70882867Y-59663893D01*
X70868253Y-59683598D01*
X70851777Y-59701777D01*
X70833598Y-59718253D01*
X70813893Y-59732867D01*
X70792849Y-59745480D01*
X70770671Y-59755970D01*
X70747571Y-59764235D01*
X70723773Y-59770196D01*
X70699504Y-59773796D01*
X70675000Y-59775000D01*
X69425000Y-59775000D01*
X69400496Y-59773796D01*
X69376227Y-59770196D01*
X69352429Y-59764235D01*
X69329329Y-59755970D01*
X69307151Y-59745480D01*
X69286107Y-59732867D01*
X69266402Y-59718253D01*
X69248223Y-59701777D01*
X69231747Y-59683598D01*
X69217133Y-59663893D01*
X69204520Y-59642849D01*
X69194030Y-59620671D01*
X69185765Y-59597571D01*
X69179804Y-59573773D01*
X69176204Y-59549504D01*
X69175000Y-59525000D01*
X69175000Y-58600000D01*
X69176204Y-58575496D01*
X69179804Y-58551227D01*
X69185765Y-58527429D01*
X69194030Y-58504329D01*
X69204520Y-58482151D01*
X69217133Y-58461107D01*
X69231747Y-58441402D01*
X69248223Y-58423223D01*
X69266402Y-58406747D01*
X69286107Y-58392133D01*
X69307151Y-58379520D01*
X69329329Y-58369030D01*
X69352429Y-58360765D01*
X69376227Y-58354804D01*
X69400496Y-58351204D01*
X69425000Y-58350000D01*
X70675000Y-58350000D01*
X70699504Y-58351204D01*
X70699504Y-58351204D01*
G37*
D11*
X70050000Y-59062500D03*
G04 #@! TD*
D10*
G04 #@! TO.C,C5*
G36*
X109549504Y-58801204D02*
X109573773Y-58804804D01*
X109597571Y-58810765D01*
X109620671Y-58819030D01*
X109642849Y-58829520D01*
X109663893Y-58842133D01*
X109683598Y-58856747D01*
X109701777Y-58873223D01*
X109718253Y-58891402D01*
X109732867Y-58911107D01*
X109745480Y-58932151D01*
X109755970Y-58954329D01*
X109764235Y-58977429D01*
X109770196Y-59001227D01*
X109773796Y-59025496D01*
X109775000Y-59050000D01*
X109775000Y-59975000D01*
X109773796Y-59999504D01*
X109770196Y-60023773D01*
X109764235Y-60047571D01*
X109755970Y-60070671D01*
X109745480Y-60092849D01*
X109732867Y-60113893D01*
X109718253Y-60133598D01*
X109701777Y-60151777D01*
X109683598Y-60168253D01*
X109663893Y-60182867D01*
X109642849Y-60195480D01*
X109620671Y-60205970D01*
X109597571Y-60214235D01*
X109573773Y-60220196D01*
X109549504Y-60223796D01*
X109525000Y-60225000D01*
X108275000Y-60225000D01*
X108250496Y-60223796D01*
X108226227Y-60220196D01*
X108202429Y-60214235D01*
X108179329Y-60205970D01*
X108157151Y-60195480D01*
X108136107Y-60182867D01*
X108116402Y-60168253D01*
X108098223Y-60151777D01*
X108081747Y-60133598D01*
X108067133Y-60113893D01*
X108054520Y-60092849D01*
X108044030Y-60070671D01*
X108035765Y-60047571D01*
X108029804Y-60023773D01*
X108026204Y-59999504D01*
X108025000Y-59975000D01*
X108025000Y-59050000D01*
X108026204Y-59025496D01*
X108029804Y-59001227D01*
X108035765Y-58977429D01*
X108044030Y-58954329D01*
X108054520Y-58932151D01*
X108067133Y-58911107D01*
X108081747Y-58891402D01*
X108098223Y-58873223D01*
X108116402Y-58856747D01*
X108136107Y-58842133D01*
X108157151Y-58829520D01*
X108179329Y-58819030D01*
X108202429Y-58810765D01*
X108226227Y-58804804D01*
X108250496Y-58801204D01*
X108275000Y-58800000D01*
X109525000Y-58800000D01*
X109549504Y-58801204D01*
X109549504Y-58801204D01*
G37*
D11*
X108900000Y-59512500D03*
D10*
G36*
X109549504Y-61776204D02*
X109573773Y-61779804D01*
X109597571Y-61785765D01*
X109620671Y-61794030D01*
X109642849Y-61804520D01*
X109663893Y-61817133D01*
X109683598Y-61831747D01*
X109701777Y-61848223D01*
X109718253Y-61866402D01*
X109732867Y-61886107D01*
X109745480Y-61907151D01*
X109755970Y-61929329D01*
X109764235Y-61952429D01*
X109770196Y-61976227D01*
X109773796Y-62000496D01*
X109775000Y-62025000D01*
X109775000Y-62950000D01*
X109773796Y-62974504D01*
X109770196Y-62998773D01*
X109764235Y-63022571D01*
X109755970Y-63045671D01*
X109745480Y-63067849D01*
X109732867Y-63088893D01*
X109718253Y-63108598D01*
X109701777Y-63126777D01*
X109683598Y-63143253D01*
X109663893Y-63157867D01*
X109642849Y-63170480D01*
X109620671Y-63180970D01*
X109597571Y-63189235D01*
X109573773Y-63195196D01*
X109549504Y-63198796D01*
X109525000Y-63200000D01*
X108275000Y-63200000D01*
X108250496Y-63198796D01*
X108226227Y-63195196D01*
X108202429Y-63189235D01*
X108179329Y-63180970D01*
X108157151Y-63170480D01*
X108136107Y-63157867D01*
X108116402Y-63143253D01*
X108098223Y-63126777D01*
X108081747Y-63108598D01*
X108067133Y-63088893D01*
X108054520Y-63067849D01*
X108044030Y-63045671D01*
X108035765Y-63022571D01*
X108029804Y-62998773D01*
X108026204Y-62974504D01*
X108025000Y-62950000D01*
X108025000Y-62025000D01*
X108026204Y-62000496D01*
X108029804Y-61976227D01*
X108035765Y-61952429D01*
X108044030Y-61929329D01*
X108054520Y-61907151D01*
X108067133Y-61886107D01*
X108081747Y-61866402D01*
X108098223Y-61848223D01*
X108116402Y-61831747D01*
X108136107Y-61817133D01*
X108157151Y-61804520D01*
X108179329Y-61794030D01*
X108202429Y-61785765D01*
X108226227Y-61779804D01*
X108250496Y-61776204D01*
X108275000Y-61775000D01*
X109525000Y-61775000D01*
X109549504Y-61776204D01*
X109549504Y-61776204D01*
G37*
D11*
X108900000Y-62487500D03*
G04 #@! TD*
D10*
G04 #@! TO.C,C6*
G36*
X113224504Y-69376204D02*
X113248773Y-69379804D01*
X113272571Y-69385765D01*
X113295671Y-69394030D01*
X113317849Y-69404520D01*
X113338893Y-69417133D01*
X113358598Y-69431747D01*
X113376777Y-69448223D01*
X113393253Y-69466402D01*
X113407867Y-69486107D01*
X113420480Y-69507151D01*
X113430970Y-69529329D01*
X113439235Y-69552429D01*
X113445196Y-69576227D01*
X113448796Y-69600496D01*
X113450000Y-69625000D01*
X113450000Y-70875000D01*
X113448796Y-70899504D01*
X113445196Y-70923773D01*
X113439235Y-70947571D01*
X113430970Y-70970671D01*
X113420480Y-70992849D01*
X113407867Y-71013893D01*
X113393253Y-71033598D01*
X113376777Y-71051777D01*
X113358598Y-71068253D01*
X113338893Y-71082867D01*
X113317849Y-71095480D01*
X113295671Y-71105970D01*
X113272571Y-71114235D01*
X113248773Y-71120196D01*
X113224504Y-71123796D01*
X113200000Y-71125000D01*
X112275000Y-71125000D01*
X112250496Y-71123796D01*
X112226227Y-71120196D01*
X112202429Y-71114235D01*
X112179329Y-71105970D01*
X112157151Y-71095480D01*
X112136107Y-71082867D01*
X112116402Y-71068253D01*
X112098223Y-71051777D01*
X112081747Y-71033598D01*
X112067133Y-71013893D01*
X112054520Y-70992849D01*
X112044030Y-70970671D01*
X112035765Y-70947571D01*
X112029804Y-70923773D01*
X112026204Y-70899504D01*
X112025000Y-70875000D01*
X112025000Y-69625000D01*
X112026204Y-69600496D01*
X112029804Y-69576227D01*
X112035765Y-69552429D01*
X112044030Y-69529329D01*
X112054520Y-69507151D01*
X112067133Y-69486107D01*
X112081747Y-69466402D01*
X112098223Y-69448223D01*
X112116402Y-69431747D01*
X112136107Y-69417133D01*
X112157151Y-69404520D01*
X112179329Y-69394030D01*
X112202429Y-69385765D01*
X112226227Y-69379804D01*
X112250496Y-69376204D01*
X112275000Y-69375000D01*
X113200000Y-69375000D01*
X113224504Y-69376204D01*
X113224504Y-69376204D01*
G37*
D11*
X112737500Y-70250000D03*
D10*
G36*
X110249504Y-69376204D02*
X110273773Y-69379804D01*
X110297571Y-69385765D01*
X110320671Y-69394030D01*
X110342849Y-69404520D01*
X110363893Y-69417133D01*
X110383598Y-69431747D01*
X110401777Y-69448223D01*
X110418253Y-69466402D01*
X110432867Y-69486107D01*
X110445480Y-69507151D01*
X110455970Y-69529329D01*
X110464235Y-69552429D01*
X110470196Y-69576227D01*
X110473796Y-69600496D01*
X110475000Y-69625000D01*
X110475000Y-70875000D01*
X110473796Y-70899504D01*
X110470196Y-70923773D01*
X110464235Y-70947571D01*
X110455970Y-70970671D01*
X110445480Y-70992849D01*
X110432867Y-71013893D01*
X110418253Y-71033598D01*
X110401777Y-71051777D01*
X110383598Y-71068253D01*
X110363893Y-71082867D01*
X110342849Y-71095480D01*
X110320671Y-71105970D01*
X110297571Y-71114235D01*
X110273773Y-71120196D01*
X110249504Y-71123796D01*
X110225000Y-71125000D01*
X109300000Y-71125000D01*
X109275496Y-71123796D01*
X109251227Y-71120196D01*
X109227429Y-71114235D01*
X109204329Y-71105970D01*
X109182151Y-71095480D01*
X109161107Y-71082867D01*
X109141402Y-71068253D01*
X109123223Y-71051777D01*
X109106747Y-71033598D01*
X109092133Y-71013893D01*
X109079520Y-70992849D01*
X109069030Y-70970671D01*
X109060765Y-70947571D01*
X109054804Y-70923773D01*
X109051204Y-70899504D01*
X109050000Y-70875000D01*
X109050000Y-69625000D01*
X109051204Y-69600496D01*
X109054804Y-69576227D01*
X109060765Y-69552429D01*
X109069030Y-69529329D01*
X109079520Y-69507151D01*
X109092133Y-69486107D01*
X109106747Y-69466402D01*
X109123223Y-69448223D01*
X109141402Y-69431747D01*
X109161107Y-69417133D01*
X109182151Y-69404520D01*
X109204329Y-69394030D01*
X109227429Y-69385765D01*
X109251227Y-69379804D01*
X109275496Y-69376204D01*
X109300000Y-69375000D01*
X110225000Y-69375000D01*
X110249504Y-69376204D01*
X110249504Y-69376204D01*
G37*
D11*
X109762500Y-70250000D03*
G04 #@! TD*
D10*
G04 #@! TO.C,R6*
G36*
X106074504Y-61976204D02*
X106098773Y-61979804D01*
X106122571Y-61985765D01*
X106145671Y-61994030D01*
X106167849Y-62004520D01*
X106188893Y-62017133D01*
X106208598Y-62031747D01*
X106226777Y-62048223D01*
X106243253Y-62066402D01*
X106257867Y-62086107D01*
X106270480Y-62107151D01*
X106280970Y-62129329D01*
X106289235Y-62152429D01*
X106295196Y-62176227D01*
X106298796Y-62200496D01*
X106300000Y-62225000D01*
X106300000Y-63475000D01*
X106298796Y-63499504D01*
X106295196Y-63523773D01*
X106289235Y-63547571D01*
X106280970Y-63570671D01*
X106270480Y-63592849D01*
X106257867Y-63613893D01*
X106243253Y-63633598D01*
X106226777Y-63651777D01*
X106208598Y-63668253D01*
X106188893Y-63682867D01*
X106167849Y-63695480D01*
X106145671Y-63705970D01*
X106122571Y-63714235D01*
X106098773Y-63720196D01*
X106074504Y-63723796D01*
X106050000Y-63725000D01*
X105125000Y-63725000D01*
X105100496Y-63723796D01*
X105076227Y-63720196D01*
X105052429Y-63714235D01*
X105029329Y-63705970D01*
X105007151Y-63695480D01*
X104986107Y-63682867D01*
X104966402Y-63668253D01*
X104948223Y-63651777D01*
X104931747Y-63633598D01*
X104917133Y-63613893D01*
X104904520Y-63592849D01*
X104894030Y-63570671D01*
X104885765Y-63547571D01*
X104879804Y-63523773D01*
X104876204Y-63499504D01*
X104875000Y-63475000D01*
X104875000Y-62225000D01*
X104876204Y-62200496D01*
X104879804Y-62176227D01*
X104885765Y-62152429D01*
X104894030Y-62129329D01*
X104904520Y-62107151D01*
X104917133Y-62086107D01*
X104931747Y-62066402D01*
X104948223Y-62048223D01*
X104966402Y-62031747D01*
X104986107Y-62017133D01*
X105007151Y-62004520D01*
X105029329Y-61994030D01*
X105052429Y-61985765D01*
X105076227Y-61979804D01*
X105100496Y-61976204D01*
X105125000Y-61975000D01*
X106050000Y-61975000D01*
X106074504Y-61976204D01*
X106074504Y-61976204D01*
G37*
D11*
X105587500Y-62850000D03*
D10*
G36*
X103099504Y-61976204D02*
X103123773Y-61979804D01*
X103147571Y-61985765D01*
X103170671Y-61994030D01*
X103192849Y-62004520D01*
X103213893Y-62017133D01*
X103233598Y-62031747D01*
X103251777Y-62048223D01*
X103268253Y-62066402D01*
X103282867Y-62086107D01*
X103295480Y-62107151D01*
X103305970Y-62129329D01*
X103314235Y-62152429D01*
X103320196Y-62176227D01*
X103323796Y-62200496D01*
X103325000Y-62225000D01*
X103325000Y-63475000D01*
X103323796Y-63499504D01*
X103320196Y-63523773D01*
X103314235Y-63547571D01*
X103305970Y-63570671D01*
X103295480Y-63592849D01*
X103282867Y-63613893D01*
X103268253Y-63633598D01*
X103251777Y-63651777D01*
X103233598Y-63668253D01*
X103213893Y-63682867D01*
X103192849Y-63695480D01*
X103170671Y-63705970D01*
X103147571Y-63714235D01*
X103123773Y-63720196D01*
X103099504Y-63723796D01*
X103075000Y-63725000D01*
X102150000Y-63725000D01*
X102125496Y-63723796D01*
X102101227Y-63720196D01*
X102077429Y-63714235D01*
X102054329Y-63705970D01*
X102032151Y-63695480D01*
X102011107Y-63682867D01*
X101991402Y-63668253D01*
X101973223Y-63651777D01*
X101956747Y-63633598D01*
X101942133Y-63613893D01*
X101929520Y-63592849D01*
X101919030Y-63570671D01*
X101910765Y-63547571D01*
X101904804Y-63523773D01*
X101901204Y-63499504D01*
X101900000Y-63475000D01*
X101900000Y-62225000D01*
X101901204Y-62200496D01*
X101904804Y-62176227D01*
X101910765Y-62152429D01*
X101919030Y-62129329D01*
X101929520Y-62107151D01*
X101942133Y-62086107D01*
X101956747Y-62066402D01*
X101973223Y-62048223D01*
X101991402Y-62031747D01*
X102011107Y-62017133D01*
X102032151Y-62004520D01*
X102054329Y-61994030D01*
X102077429Y-61985765D01*
X102101227Y-61979804D01*
X102125496Y-61976204D01*
X102150000Y-61975000D01*
X103075000Y-61975000D01*
X103099504Y-61976204D01*
X103099504Y-61976204D01*
G37*
D11*
X102612500Y-62850000D03*
G04 #@! TD*
D16*
G04 #@! TO.C,U1*
X52650000Y-71950000D03*
X52650000Y-71150000D03*
X52650000Y-70350000D03*
X52650000Y-69550000D03*
X52650000Y-68750000D03*
X52650000Y-67950000D03*
X52650000Y-67150000D03*
X52650000Y-66350000D03*
D17*
X54100000Y-64900000D03*
X54900000Y-64900000D03*
X55700000Y-64900000D03*
X56500000Y-64900000D03*
X57300000Y-64900000D03*
X58100000Y-64900000D03*
X58900000Y-64900000D03*
X59700000Y-64900000D03*
D16*
X61150000Y-66350000D03*
X61150000Y-67150000D03*
X61150000Y-67950000D03*
X61150000Y-68750000D03*
X61150000Y-69550000D03*
X61150000Y-70350000D03*
X61150000Y-71150000D03*
X61150000Y-71950000D03*
D17*
X59700000Y-73400000D03*
X58900000Y-73400000D03*
X58100000Y-73400000D03*
X57300000Y-73400000D03*
X56500000Y-73400000D03*
X55700000Y-73400000D03*
X54900000Y-73400000D03*
X54100000Y-73400000D03*
G04 #@! TD*
D10*
G04 #@! TO.C,U6*
G36*
X91482351Y-69125361D02*
X91489632Y-69126441D01*
X91496771Y-69128229D01*
X91503701Y-69130709D01*
X91510355Y-69133856D01*
X91516668Y-69137640D01*
X91522579Y-69142024D01*
X91528033Y-69146967D01*
X91532976Y-69152421D01*
X91537360Y-69158332D01*
X91541144Y-69164645D01*
X91544291Y-69171299D01*
X91546771Y-69178229D01*
X91548559Y-69185368D01*
X91549639Y-69192649D01*
X91550000Y-69200000D01*
X91550000Y-69900000D01*
X91549639Y-69907351D01*
X91548559Y-69914632D01*
X91546771Y-69921771D01*
X91544291Y-69928701D01*
X91541144Y-69935355D01*
X91537360Y-69941668D01*
X91532976Y-69947579D01*
X91528033Y-69953033D01*
X91522579Y-69957976D01*
X91516668Y-69962360D01*
X91510355Y-69966144D01*
X91503701Y-69969291D01*
X91496771Y-69971771D01*
X91489632Y-69973559D01*
X91482351Y-69974639D01*
X91475000Y-69975000D01*
X91325000Y-69975000D01*
X91317649Y-69974639D01*
X91310368Y-69973559D01*
X91303229Y-69971771D01*
X91296299Y-69969291D01*
X91289645Y-69966144D01*
X91283332Y-69962360D01*
X91277421Y-69957976D01*
X91271967Y-69953033D01*
X91267024Y-69947579D01*
X91262640Y-69941668D01*
X91258856Y-69935355D01*
X91255709Y-69928701D01*
X91253229Y-69921771D01*
X91251441Y-69914632D01*
X91250361Y-69907351D01*
X91250000Y-69900000D01*
X91250000Y-69200000D01*
X91250361Y-69192649D01*
X91251441Y-69185368D01*
X91253229Y-69178229D01*
X91255709Y-69171299D01*
X91258856Y-69164645D01*
X91262640Y-69158332D01*
X91267024Y-69152421D01*
X91271967Y-69146967D01*
X91277421Y-69142024D01*
X91283332Y-69137640D01*
X91289645Y-69133856D01*
X91296299Y-69130709D01*
X91303229Y-69128229D01*
X91310368Y-69126441D01*
X91317649Y-69125361D01*
X91325000Y-69125000D01*
X91475000Y-69125000D01*
X91482351Y-69125361D01*
X91482351Y-69125361D01*
G37*
D18*
X91400000Y-69550000D03*
D10*
G36*
X90982351Y-69125361D02*
X90989632Y-69126441D01*
X90996771Y-69128229D01*
X91003701Y-69130709D01*
X91010355Y-69133856D01*
X91016668Y-69137640D01*
X91022579Y-69142024D01*
X91028033Y-69146967D01*
X91032976Y-69152421D01*
X91037360Y-69158332D01*
X91041144Y-69164645D01*
X91044291Y-69171299D01*
X91046771Y-69178229D01*
X91048559Y-69185368D01*
X91049639Y-69192649D01*
X91050000Y-69200000D01*
X91050000Y-69900000D01*
X91049639Y-69907351D01*
X91048559Y-69914632D01*
X91046771Y-69921771D01*
X91044291Y-69928701D01*
X91041144Y-69935355D01*
X91037360Y-69941668D01*
X91032976Y-69947579D01*
X91028033Y-69953033D01*
X91022579Y-69957976D01*
X91016668Y-69962360D01*
X91010355Y-69966144D01*
X91003701Y-69969291D01*
X90996771Y-69971771D01*
X90989632Y-69973559D01*
X90982351Y-69974639D01*
X90975000Y-69975000D01*
X90825000Y-69975000D01*
X90817649Y-69974639D01*
X90810368Y-69973559D01*
X90803229Y-69971771D01*
X90796299Y-69969291D01*
X90789645Y-69966144D01*
X90783332Y-69962360D01*
X90777421Y-69957976D01*
X90771967Y-69953033D01*
X90767024Y-69947579D01*
X90762640Y-69941668D01*
X90758856Y-69935355D01*
X90755709Y-69928701D01*
X90753229Y-69921771D01*
X90751441Y-69914632D01*
X90750361Y-69907351D01*
X90750000Y-69900000D01*
X90750000Y-69200000D01*
X90750361Y-69192649D01*
X90751441Y-69185368D01*
X90753229Y-69178229D01*
X90755709Y-69171299D01*
X90758856Y-69164645D01*
X90762640Y-69158332D01*
X90767024Y-69152421D01*
X90771967Y-69146967D01*
X90777421Y-69142024D01*
X90783332Y-69137640D01*
X90789645Y-69133856D01*
X90796299Y-69130709D01*
X90803229Y-69128229D01*
X90810368Y-69126441D01*
X90817649Y-69125361D01*
X90825000Y-69125000D01*
X90975000Y-69125000D01*
X90982351Y-69125361D01*
X90982351Y-69125361D01*
G37*
D18*
X90900000Y-69550000D03*
D10*
G36*
X90482351Y-69125361D02*
X90489632Y-69126441D01*
X90496771Y-69128229D01*
X90503701Y-69130709D01*
X90510355Y-69133856D01*
X90516668Y-69137640D01*
X90522579Y-69142024D01*
X90528033Y-69146967D01*
X90532976Y-69152421D01*
X90537360Y-69158332D01*
X90541144Y-69164645D01*
X90544291Y-69171299D01*
X90546771Y-69178229D01*
X90548559Y-69185368D01*
X90549639Y-69192649D01*
X90550000Y-69200000D01*
X90550000Y-69900000D01*
X90549639Y-69907351D01*
X90548559Y-69914632D01*
X90546771Y-69921771D01*
X90544291Y-69928701D01*
X90541144Y-69935355D01*
X90537360Y-69941668D01*
X90532976Y-69947579D01*
X90528033Y-69953033D01*
X90522579Y-69957976D01*
X90516668Y-69962360D01*
X90510355Y-69966144D01*
X90503701Y-69969291D01*
X90496771Y-69971771D01*
X90489632Y-69973559D01*
X90482351Y-69974639D01*
X90475000Y-69975000D01*
X90325000Y-69975000D01*
X90317649Y-69974639D01*
X90310368Y-69973559D01*
X90303229Y-69971771D01*
X90296299Y-69969291D01*
X90289645Y-69966144D01*
X90283332Y-69962360D01*
X90277421Y-69957976D01*
X90271967Y-69953033D01*
X90267024Y-69947579D01*
X90262640Y-69941668D01*
X90258856Y-69935355D01*
X90255709Y-69928701D01*
X90253229Y-69921771D01*
X90251441Y-69914632D01*
X90250361Y-69907351D01*
X90250000Y-69900000D01*
X90250000Y-69200000D01*
X90250361Y-69192649D01*
X90251441Y-69185368D01*
X90253229Y-69178229D01*
X90255709Y-69171299D01*
X90258856Y-69164645D01*
X90262640Y-69158332D01*
X90267024Y-69152421D01*
X90271967Y-69146967D01*
X90277421Y-69142024D01*
X90283332Y-69137640D01*
X90289645Y-69133856D01*
X90296299Y-69130709D01*
X90303229Y-69128229D01*
X90310368Y-69126441D01*
X90317649Y-69125361D01*
X90325000Y-69125000D01*
X90475000Y-69125000D01*
X90482351Y-69125361D01*
X90482351Y-69125361D01*
G37*
D18*
X90400000Y-69550000D03*
D10*
G36*
X89982351Y-69125361D02*
X89989632Y-69126441D01*
X89996771Y-69128229D01*
X90003701Y-69130709D01*
X90010355Y-69133856D01*
X90016668Y-69137640D01*
X90022579Y-69142024D01*
X90028033Y-69146967D01*
X90032976Y-69152421D01*
X90037360Y-69158332D01*
X90041144Y-69164645D01*
X90044291Y-69171299D01*
X90046771Y-69178229D01*
X90048559Y-69185368D01*
X90049639Y-69192649D01*
X90050000Y-69200000D01*
X90050000Y-69900000D01*
X90049639Y-69907351D01*
X90048559Y-69914632D01*
X90046771Y-69921771D01*
X90044291Y-69928701D01*
X90041144Y-69935355D01*
X90037360Y-69941668D01*
X90032976Y-69947579D01*
X90028033Y-69953033D01*
X90022579Y-69957976D01*
X90016668Y-69962360D01*
X90010355Y-69966144D01*
X90003701Y-69969291D01*
X89996771Y-69971771D01*
X89989632Y-69973559D01*
X89982351Y-69974639D01*
X89975000Y-69975000D01*
X89825000Y-69975000D01*
X89817649Y-69974639D01*
X89810368Y-69973559D01*
X89803229Y-69971771D01*
X89796299Y-69969291D01*
X89789645Y-69966144D01*
X89783332Y-69962360D01*
X89777421Y-69957976D01*
X89771967Y-69953033D01*
X89767024Y-69947579D01*
X89762640Y-69941668D01*
X89758856Y-69935355D01*
X89755709Y-69928701D01*
X89753229Y-69921771D01*
X89751441Y-69914632D01*
X89750361Y-69907351D01*
X89750000Y-69900000D01*
X89750000Y-69200000D01*
X89750361Y-69192649D01*
X89751441Y-69185368D01*
X89753229Y-69178229D01*
X89755709Y-69171299D01*
X89758856Y-69164645D01*
X89762640Y-69158332D01*
X89767024Y-69152421D01*
X89771967Y-69146967D01*
X89777421Y-69142024D01*
X89783332Y-69137640D01*
X89789645Y-69133856D01*
X89796299Y-69130709D01*
X89803229Y-69128229D01*
X89810368Y-69126441D01*
X89817649Y-69125361D01*
X89825000Y-69125000D01*
X89975000Y-69125000D01*
X89982351Y-69125361D01*
X89982351Y-69125361D01*
G37*
D18*
X89900000Y-69550000D03*
D10*
G36*
X89482351Y-69125361D02*
X89489632Y-69126441D01*
X89496771Y-69128229D01*
X89503701Y-69130709D01*
X89510355Y-69133856D01*
X89516668Y-69137640D01*
X89522579Y-69142024D01*
X89528033Y-69146967D01*
X89532976Y-69152421D01*
X89537360Y-69158332D01*
X89541144Y-69164645D01*
X89544291Y-69171299D01*
X89546771Y-69178229D01*
X89548559Y-69185368D01*
X89549639Y-69192649D01*
X89550000Y-69200000D01*
X89550000Y-69900000D01*
X89549639Y-69907351D01*
X89548559Y-69914632D01*
X89546771Y-69921771D01*
X89544291Y-69928701D01*
X89541144Y-69935355D01*
X89537360Y-69941668D01*
X89532976Y-69947579D01*
X89528033Y-69953033D01*
X89522579Y-69957976D01*
X89516668Y-69962360D01*
X89510355Y-69966144D01*
X89503701Y-69969291D01*
X89496771Y-69971771D01*
X89489632Y-69973559D01*
X89482351Y-69974639D01*
X89475000Y-69975000D01*
X89325000Y-69975000D01*
X89317649Y-69974639D01*
X89310368Y-69973559D01*
X89303229Y-69971771D01*
X89296299Y-69969291D01*
X89289645Y-69966144D01*
X89283332Y-69962360D01*
X89277421Y-69957976D01*
X89271967Y-69953033D01*
X89267024Y-69947579D01*
X89262640Y-69941668D01*
X89258856Y-69935355D01*
X89255709Y-69928701D01*
X89253229Y-69921771D01*
X89251441Y-69914632D01*
X89250361Y-69907351D01*
X89250000Y-69900000D01*
X89250000Y-69200000D01*
X89250361Y-69192649D01*
X89251441Y-69185368D01*
X89253229Y-69178229D01*
X89255709Y-69171299D01*
X89258856Y-69164645D01*
X89262640Y-69158332D01*
X89267024Y-69152421D01*
X89271967Y-69146967D01*
X89277421Y-69142024D01*
X89283332Y-69137640D01*
X89289645Y-69133856D01*
X89296299Y-69130709D01*
X89303229Y-69128229D01*
X89310368Y-69126441D01*
X89317649Y-69125361D01*
X89325000Y-69125000D01*
X89475000Y-69125000D01*
X89482351Y-69125361D01*
X89482351Y-69125361D01*
G37*
D18*
X89400000Y-69550000D03*
D10*
G36*
X88982351Y-69125361D02*
X88989632Y-69126441D01*
X88996771Y-69128229D01*
X89003701Y-69130709D01*
X89010355Y-69133856D01*
X89016668Y-69137640D01*
X89022579Y-69142024D01*
X89028033Y-69146967D01*
X89032976Y-69152421D01*
X89037360Y-69158332D01*
X89041144Y-69164645D01*
X89044291Y-69171299D01*
X89046771Y-69178229D01*
X89048559Y-69185368D01*
X89049639Y-69192649D01*
X89050000Y-69200000D01*
X89050000Y-69900000D01*
X89049639Y-69907351D01*
X89048559Y-69914632D01*
X89046771Y-69921771D01*
X89044291Y-69928701D01*
X89041144Y-69935355D01*
X89037360Y-69941668D01*
X89032976Y-69947579D01*
X89028033Y-69953033D01*
X89022579Y-69957976D01*
X89016668Y-69962360D01*
X89010355Y-69966144D01*
X89003701Y-69969291D01*
X88996771Y-69971771D01*
X88989632Y-69973559D01*
X88982351Y-69974639D01*
X88975000Y-69975000D01*
X88825000Y-69975000D01*
X88817649Y-69974639D01*
X88810368Y-69973559D01*
X88803229Y-69971771D01*
X88796299Y-69969291D01*
X88789645Y-69966144D01*
X88783332Y-69962360D01*
X88777421Y-69957976D01*
X88771967Y-69953033D01*
X88767024Y-69947579D01*
X88762640Y-69941668D01*
X88758856Y-69935355D01*
X88755709Y-69928701D01*
X88753229Y-69921771D01*
X88751441Y-69914632D01*
X88750361Y-69907351D01*
X88750000Y-69900000D01*
X88750000Y-69200000D01*
X88750361Y-69192649D01*
X88751441Y-69185368D01*
X88753229Y-69178229D01*
X88755709Y-69171299D01*
X88758856Y-69164645D01*
X88762640Y-69158332D01*
X88767024Y-69152421D01*
X88771967Y-69146967D01*
X88777421Y-69142024D01*
X88783332Y-69137640D01*
X88789645Y-69133856D01*
X88796299Y-69130709D01*
X88803229Y-69128229D01*
X88810368Y-69126441D01*
X88817649Y-69125361D01*
X88825000Y-69125000D01*
X88975000Y-69125000D01*
X88982351Y-69125361D01*
X88982351Y-69125361D01*
G37*
D18*
X88900000Y-69550000D03*
D10*
G36*
X88557351Y-68700361D02*
X88564632Y-68701441D01*
X88571771Y-68703229D01*
X88578701Y-68705709D01*
X88585355Y-68708856D01*
X88591668Y-68712640D01*
X88597579Y-68717024D01*
X88603033Y-68721967D01*
X88607976Y-68727421D01*
X88612360Y-68733332D01*
X88616144Y-68739645D01*
X88619291Y-68746299D01*
X88621771Y-68753229D01*
X88623559Y-68760368D01*
X88624639Y-68767649D01*
X88625000Y-68775000D01*
X88625000Y-68925000D01*
X88624639Y-68932351D01*
X88623559Y-68939632D01*
X88621771Y-68946771D01*
X88619291Y-68953701D01*
X88616144Y-68960355D01*
X88612360Y-68966668D01*
X88607976Y-68972579D01*
X88603033Y-68978033D01*
X88597579Y-68982976D01*
X88591668Y-68987360D01*
X88585355Y-68991144D01*
X88578701Y-68994291D01*
X88571771Y-68996771D01*
X88564632Y-68998559D01*
X88557351Y-68999639D01*
X88550000Y-69000000D01*
X87850000Y-69000000D01*
X87842649Y-68999639D01*
X87835368Y-68998559D01*
X87828229Y-68996771D01*
X87821299Y-68994291D01*
X87814645Y-68991144D01*
X87808332Y-68987360D01*
X87802421Y-68982976D01*
X87796967Y-68978033D01*
X87792024Y-68972579D01*
X87787640Y-68966668D01*
X87783856Y-68960355D01*
X87780709Y-68953701D01*
X87778229Y-68946771D01*
X87776441Y-68939632D01*
X87775361Y-68932351D01*
X87775000Y-68925000D01*
X87775000Y-68775000D01*
X87775361Y-68767649D01*
X87776441Y-68760368D01*
X87778229Y-68753229D01*
X87780709Y-68746299D01*
X87783856Y-68739645D01*
X87787640Y-68733332D01*
X87792024Y-68727421D01*
X87796967Y-68721967D01*
X87802421Y-68717024D01*
X87808332Y-68712640D01*
X87814645Y-68708856D01*
X87821299Y-68705709D01*
X87828229Y-68703229D01*
X87835368Y-68701441D01*
X87842649Y-68700361D01*
X87850000Y-68700000D01*
X88550000Y-68700000D01*
X88557351Y-68700361D01*
X88557351Y-68700361D01*
G37*
D18*
X88200000Y-68850000D03*
D10*
G36*
X88557351Y-68200361D02*
X88564632Y-68201441D01*
X88571771Y-68203229D01*
X88578701Y-68205709D01*
X88585355Y-68208856D01*
X88591668Y-68212640D01*
X88597579Y-68217024D01*
X88603033Y-68221967D01*
X88607976Y-68227421D01*
X88612360Y-68233332D01*
X88616144Y-68239645D01*
X88619291Y-68246299D01*
X88621771Y-68253229D01*
X88623559Y-68260368D01*
X88624639Y-68267649D01*
X88625000Y-68275000D01*
X88625000Y-68425000D01*
X88624639Y-68432351D01*
X88623559Y-68439632D01*
X88621771Y-68446771D01*
X88619291Y-68453701D01*
X88616144Y-68460355D01*
X88612360Y-68466668D01*
X88607976Y-68472579D01*
X88603033Y-68478033D01*
X88597579Y-68482976D01*
X88591668Y-68487360D01*
X88585355Y-68491144D01*
X88578701Y-68494291D01*
X88571771Y-68496771D01*
X88564632Y-68498559D01*
X88557351Y-68499639D01*
X88550000Y-68500000D01*
X87850000Y-68500000D01*
X87842649Y-68499639D01*
X87835368Y-68498559D01*
X87828229Y-68496771D01*
X87821299Y-68494291D01*
X87814645Y-68491144D01*
X87808332Y-68487360D01*
X87802421Y-68482976D01*
X87796967Y-68478033D01*
X87792024Y-68472579D01*
X87787640Y-68466668D01*
X87783856Y-68460355D01*
X87780709Y-68453701D01*
X87778229Y-68446771D01*
X87776441Y-68439632D01*
X87775361Y-68432351D01*
X87775000Y-68425000D01*
X87775000Y-68275000D01*
X87775361Y-68267649D01*
X87776441Y-68260368D01*
X87778229Y-68253229D01*
X87780709Y-68246299D01*
X87783856Y-68239645D01*
X87787640Y-68233332D01*
X87792024Y-68227421D01*
X87796967Y-68221967D01*
X87802421Y-68217024D01*
X87808332Y-68212640D01*
X87814645Y-68208856D01*
X87821299Y-68205709D01*
X87828229Y-68203229D01*
X87835368Y-68201441D01*
X87842649Y-68200361D01*
X87850000Y-68200000D01*
X88550000Y-68200000D01*
X88557351Y-68200361D01*
X88557351Y-68200361D01*
G37*
D18*
X88200000Y-68350000D03*
D10*
G36*
X88557351Y-67700361D02*
X88564632Y-67701441D01*
X88571771Y-67703229D01*
X88578701Y-67705709D01*
X88585355Y-67708856D01*
X88591668Y-67712640D01*
X88597579Y-67717024D01*
X88603033Y-67721967D01*
X88607976Y-67727421D01*
X88612360Y-67733332D01*
X88616144Y-67739645D01*
X88619291Y-67746299D01*
X88621771Y-67753229D01*
X88623559Y-67760368D01*
X88624639Y-67767649D01*
X88625000Y-67775000D01*
X88625000Y-67925000D01*
X88624639Y-67932351D01*
X88623559Y-67939632D01*
X88621771Y-67946771D01*
X88619291Y-67953701D01*
X88616144Y-67960355D01*
X88612360Y-67966668D01*
X88607976Y-67972579D01*
X88603033Y-67978033D01*
X88597579Y-67982976D01*
X88591668Y-67987360D01*
X88585355Y-67991144D01*
X88578701Y-67994291D01*
X88571771Y-67996771D01*
X88564632Y-67998559D01*
X88557351Y-67999639D01*
X88550000Y-68000000D01*
X87850000Y-68000000D01*
X87842649Y-67999639D01*
X87835368Y-67998559D01*
X87828229Y-67996771D01*
X87821299Y-67994291D01*
X87814645Y-67991144D01*
X87808332Y-67987360D01*
X87802421Y-67982976D01*
X87796967Y-67978033D01*
X87792024Y-67972579D01*
X87787640Y-67966668D01*
X87783856Y-67960355D01*
X87780709Y-67953701D01*
X87778229Y-67946771D01*
X87776441Y-67939632D01*
X87775361Y-67932351D01*
X87775000Y-67925000D01*
X87775000Y-67775000D01*
X87775361Y-67767649D01*
X87776441Y-67760368D01*
X87778229Y-67753229D01*
X87780709Y-67746299D01*
X87783856Y-67739645D01*
X87787640Y-67733332D01*
X87792024Y-67727421D01*
X87796967Y-67721967D01*
X87802421Y-67717024D01*
X87808332Y-67712640D01*
X87814645Y-67708856D01*
X87821299Y-67705709D01*
X87828229Y-67703229D01*
X87835368Y-67701441D01*
X87842649Y-67700361D01*
X87850000Y-67700000D01*
X88550000Y-67700000D01*
X88557351Y-67700361D01*
X88557351Y-67700361D01*
G37*
D18*
X88200000Y-67850000D03*
D10*
G36*
X88557351Y-67200361D02*
X88564632Y-67201441D01*
X88571771Y-67203229D01*
X88578701Y-67205709D01*
X88585355Y-67208856D01*
X88591668Y-67212640D01*
X88597579Y-67217024D01*
X88603033Y-67221967D01*
X88607976Y-67227421D01*
X88612360Y-67233332D01*
X88616144Y-67239645D01*
X88619291Y-67246299D01*
X88621771Y-67253229D01*
X88623559Y-67260368D01*
X88624639Y-67267649D01*
X88625000Y-67275000D01*
X88625000Y-67425000D01*
X88624639Y-67432351D01*
X88623559Y-67439632D01*
X88621771Y-67446771D01*
X88619291Y-67453701D01*
X88616144Y-67460355D01*
X88612360Y-67466668D01*
X88607976Y-67472579D01*
X88603033Y-67478033D01*
X88597579Y-67482976D01*
X88591668Y-67487360D01*
X88585355Y-67491144D01*
X88578701Y-67494291D01*
X88571771Y-67496771D01*
X88564632Y-67498559D01*
X88557351Y-67499639D01*
X88550000Y-67500000D01*
X87850000Y-67500000D01*
X87842649Y-67499639D01*
X87835368Y-67498559D01*
X87828229Y-67496771D01*
X87821299Y-67494291D01*
X87814645Y-67491144D01*
X87808332Y-67487360D01*
X87802421Y-67482976D01*
X87796967Y-67478033D01*
X87792024Y-67472579D01*
X87787640Y-67466668D01*
X87783856Y-67460355D01*
X87780709Y-67453701D01*
X87778229Y-67446771D01*
X87776441Y-67439632D01*
X87775361Y-67432351D01*
X87775000Y-67425000D01*
X87775000Y-67275000D01*
X87775361Y-67267649D01*
X87776441Y-67260368D01*
X87778229Y-67253229D01*
X87780709Y-67246299D01*
X87783856Y-67239645D01*
X87787640Y-67233332D01*
X87792024Y-67227421D01*
X87796967Y-67221967D01*
X87802421Y-67217024D01*
X87808332Y-67212640D01*
X87814645Y-67208856D01*
X87821299Y-67205709D01*
X87828229Y-67203229D01*
X87835368Y-67201441D01*
X87842649Y-67200361D01*
X87850000Y-67200000D01*
X88550000Y-67200000D01*
X88557351Y-67200361D01*
X88557351Y-67200361D01*
G37*
D18*
X88200000Y-67350000D03*
D10*
G36*
X88557351Y-66700361D02*
X88564632Y-66701441D01*
X88571771Y-66703229D01*
X88578701Y-66705709D01*
X88585355Y-66708856D01*
X88591668Y-66712640D01*
X88597579Y-66717024D01*
X88603033Y-66721967D01*
X88607976Y-66727421D01*
X88612360Y-66733332D01*
X88616144Y-66739645D01*
X88619291Y-66746299D01*
X88621771Y-66753229D01*
X88623559Y-66760368D01*
X88624639Y-66767649D01*
X88625000Y-66775000D01*
X88625000Y-66925000D01*
X88624639Y-66932351D01*
X88623559Y-66939632D01*
X88621771Y-66946771D01*
X88619291Y-66953701D01*
X88616144Y-66960355D01*
X88612360Y-66966668D01*
X88607976Y-66972579D01*
X88603033Y-66978033D01*
X88597579Y-66982976D01*
X88591668Y-66987360D01*
X88585355Y-66991144D01*
X88578701Y-66994291D01*
X88571771Y-66996771D01*
X88564632Y-66998559D01*
X88557351Y-66999639D01*
X88550000Y-67000000D01*
X87850000Y-67000000D01*
X87842649Y-66999639D01*
X87835368Y-66998559D01*
X87828229Y-66996771D01*
X87821299Y-66994291D01*
X87814645Y-66991144D01*
X87808332Y-66987360D01*
X87802421Y-66982976D01*
X87796967Y-66978033D01*
X87792024Y-66972579D01*
X87787640Y-66966668D01*
X87783856Y-66960355D01*
X87780709Y-66953701D01*
X87778229Y-66946771D01*
X87776441Y-66939632D01*
X87775361Y-66932351D01*
X87775000Y-66925000D01*
X87775000Y-66775000D01*
X87775361Y-66767649D01*
X87776441Y-66760368D01*
X87778229Y-66753229D01*
X87780709Y-66746299D01*
X87783856Y-66739645D01*
X87787640Y-66733332D01*
X87792024Y-66727421D01*
X87796967Y-66721967D01*
X87802421Y-66717024D01*
X87808332Y-66712640D01*
X87814645Y-66708856D01*
X87821299Y-66705709D01*
X87828229Y-66703229D01*
X87835368Y-66701441D01*
X87842649Y-66700361D01*
X87850000Y-66700000D01*
X88550000Y-66700000D01*
X88557351Y-66700361D01*
X88557351Y-66700361D01*
G37*
D18*
X88200000Y-66850000D03*
D10*
G36*
X88557351Y-66200361D02*
X88564632Y-66201441D01*
X88571771Y-66203229D01*
X88578701Y-66205709D01*
X88585355Y-66208856D01*
X88591668Y-66212640D01*
X88597579Y-66217024D01*
X88603033Y-66221967D01*
X88607976Y-66227421D01*
X88612360Y-66233332D01*
X88616144Y-66239645D01*
X88619291Y-66246299D01*
X88621771Y-66253229D01*
X88623559Y-66260368D01*
X88624639Y-66267649D01*
X88625000Y-66275000D01*
X88625000Y-66425000D01*
X88624639Y-66432351D01*
X88623559Y-66439632D01*
X88621771Y-66446771D01*
X88619291Y-66453701D01*
X88616144Y-66460355D01*
X88612360Y-66466668D01*
X88607976Y-66472579D01*
X88603033Y-66478033D01*
X88597579Y-66482976D01*
X88591668Y-66487360D01*
X88585355Y-66491144D01*
X88578701Y-66494291D01*
X88571771Y-66496771D01*
X88564632Y-66498559D01*
X88557351Y-66499639D01*
X88550000Y-66500000D01*
X87850000Y-66500000D01*
X87842649Y-66499639D01*
X87835368Y-66498559D01*
X87828229Y-66496771D01*
X87821299Y-66494291D01*
X87814645Y-66491144D01*
X87808332Y-66487360D01*
X87802421Y-66482976D01*
X87796967Y-66478033D01*
X87792024Y-66472579D01*
X87787640Y-66466668D01*
X87783856Y-66460355D01*
X87780709Y-66453701D01*
X87778229Y-66446771D01*
X87776441Y-66439632D01*
X87775361Y-66432351D01*
X87775000Y-66425000D01*
X87775000Y-66275000D01*
X87775361Y-66267649D01*
X87776441Y-66260368D01*
X87778229Y-66253229D01*
X87780709Y-66246299D01*
X87783856Y-66239645D01*
X87787640Y-66233332D01*
X87792024Y-66227421D01*
X87796967Y-66221967D01*
X87802421Y-66217024D01*
X87808332Y-66212640D01*
X87814645Y-66208856D01*
X87821299Y-66205709D01*
X87828229Y-66203229D01*
X87835368Y-66201441D01*
X87842649Y-66200361D01*
X87850000Y-66200000D01*
X88550000Y-66200000D01*
X88557351Y-66200361D01*
X88557351Y-66200361D01*
G37*
D18*
X88200000Y-66350000D03*
D10*
G36*
X88982351Y-65225361D02*
X88989632Y-65226441D01*
X88996771Y-65228229D01*
X89003701Y-65230709D01*
X89010355Y-65233856D01*
X89016668Y-65237640D01*
X89022579Y-65242024D01*
X89028033Y-65246967D01*
X89032976Y-65252421D01*
X89037360Y-65258332D01*
X89041144Y-65264645D01*
X89044291Y-65271299D01*
X89046771Y-65278229D01*
X89048559Y-65285368D01*
X89049639Y-65292649D01*
X89050000Y-65300000D01*
X89050000Y-66000000D01*
X89049639Y-66007351D01*
X89048559Y-66014632D01*
X89046771Y-66021771D01*
X89044291Y-66028701D01*
X89041144Y-66035355D01*
X89037360Y-66041668D01*
X89032976Y-66047579D01*
X89028033Y-66053033D01*
X89022579Y-66057976D01*
X89016668Y-66062360D01*
X89010355Y-66066144D01*
X89003701Y-66069291D01*
X88996771Y-66071771D01*
X88989632Y-66073559D01*
X88982351Y-66074639D01*
X88975000Y-66075000D01*
X88825000Y-66075000D01*
X88817649Y-66074639D01*
X88810368Y-66073559D01*
X88803229Y-66071771D01*
X88796299Y-66069291D01*
X88789645Y-66066144D01*
X88783332Y-66062360D01*
X88777421Y-66057976D01*
X88771967Y-66053033D01*
X88767024Y-66047579D01*
X88762640Y-66041668D01*
X88758856Y-66035355D01*
X88755709Y-66028701D01*
X88753229Y-66021771D01*
X88751441Y-66014632D01*
X88750361Y-66007351D01*
X88750000Y-66000000D01*
X88750000Y-65300000D01*
X88750361Y-65292649D01*
X88751441Y-65285368D01*
X88753229Y-65278229D01*
X88755709Y-65271299D01*
X88758856Y-65264645D01*
X88762640Y-65258332D01*
X88767024Y-65252421D01*
X88771967Y-65246967D01*
X88777421Y-65242024D01*
X88783332Y-65237640D01*
X88789645Y-65233856D01*
X88796299Y-65230709D01*
X88803229Y-65228229D01*
X88810368Y-65226441D01*
X88817649Y-65225361D01*
X88825000Y-65225000D01*
X88975000Y-65225000D01*
X88982351Y-65225361D01*
X88982351Y-65225361D01*
G37*
D18*
X88900000Y-65650000D03*
D10*
G36*
X89482351Y-65225361D02*
X89489632Y-65226441D01*
X89496771Y-65228229D01*
X89503701Y-65230709D01*
X89510355Y-65233856D01*
X89516668Y-65237640D01*
X89522579Y-65242024D01*
X89528033Y-65246967D01*
X89532976Y-65252421D01*
X89537360Y-65258332D01*
X89541144Y-65264645D01*
X89544291Y-65271299D01*
X89546771Y-65278229D01*
X89548559Y-65285368D01*
X89549639Y-65292649D01*
X89550000Y-65300000D01*
X89550000Y-66000000D01*
X89549639Y-66007351D01*
X89548559Y-66014632D01*
X89546771Y-66021771D01*
X89544291Y-66028701D01*
X89541144Y-66035355D01*
X89537360Y-66041668D01*
X89532976Y-66047579D01*
X89528033Y-66053033D01*
X89522579Y-66057976D01*
X89516668Y-66062360D01*
X89510355Y-66066144D01*
X89503701Y-66069291D01*
X89496771Y-66071771D01*
X89489632Y-66073559D01*
X89482351Y-66074639D01*
X89475000Y-66075000D01*
X89325000Y-66075000D01*
X89317649Y-66074639D01*
X89310368Y-66073559D01*
X89303229Y-66071771D01*
X89296299Y-66069291D01*
X89289645Y-66066144D01*
X89283332Y-66062360D01*
X89277421Y-66057976D01*
X89271967Y-66053033D01*
X89267024Y-66047579D01*
X89262640Y-66041668D01*
X89258856Y-66035355D01*
X89255709Y-66028701D01*
X89253229Y-66021771D01*
X89251441Y-66014632D01*
X89250361Y-66007351D01*
X89250000Y-66000000D01*
X89250000Y-65300000D01*
X89250361Y-65292649D01*
X89251441Y-65285368D01*
X89253229Y-65278229D01*
X89255709Y-65271299D01*
X89258856Y-65264645D01*
X89262640Y-65258332D01*
X89267024Y-65252421D01*
X89271967Y-65246967D01*
X89277421Y-65242024D01*
X89283332Y-65237640D01*
X89289645Y-65233856D01*
X89296299Y-65230709D01*
X89303229Y-65228229D01*
X89310368Y-65226441D01*
X89317649Y-65225361D01*
X89325000Y-65225000D01*
X89475000Y-65225000D01*
X89482351Y-65225361D01*
X89482351Y-65225361D01*
G37*
D18*
X89400000Y-65650000D03*
D10*
G36*
X89982351Y-65225361D02*
X89989632Y-65226441D01*
X89996771Y-65228229D01*
X90003701Y-65230709D01*
X90010355Y-65233856D01*
X90016668Y-65237640D01*
X90022579Y-65242024D01*
X90028033Y-65246967D01*
X90032976Y-65252421D01*
X90037360Y-65258332D01*
X90041144Y-65264645D01*
X90044291Y-65271299D01*
X90046771Y-65278229D01*
X90048559Y-65285368D01*
X90049639Y-65292649D01*
X90050000Y-65300000D01*
X90050000Y-66000000D01*
X90049639Y-66007351D01*
X90048559Y-66014632D01*
X90046771Y-66021771D01*
X90044291Y-66028701D01*
X90041144Y-66035355D01*
X90037360Y-66041668D01*
X90032976Y-66047579D01*
X90028033Y-66053033D01*
X90022579Y-66057976D01*
X90016668Y-66062360D01*
X90010355Y-66066144D01*
X90003701Y-66069291D01*
X89996771Y-66071771D01*
X89989632Y-66073559D01*
X89982351Y-66074639D01*
X89975000Y-66075000D01*
X89825000Y-66075000D01*
X89817649Y-66074639D01*
X89810368Y-66073559D01*
X89803229Y-66071771D01*
X89796299Y-66069291D01*
X89789645Y-66066144D01*
X89783332Y-66062360D01*
X89777421Y-66057976D01*
X89771967Y-66053033D01*
X89767024Y-66047579D01*
X89762640Y-66041668D01*
X89758856Y-66035355D01*
X89755709Y-66028701D01*
X89753229Y-66021771D01*
X89751441Y-66014632D01*
X89750361Y-66007351D01*
X89750000Y-66000000D01*
X89750000Y-65300000D01*
X89750361Y-65292649D01*
X89751441Y-65285368D01*
X89753229Y-65278229D01*
X89755709Y-65271299D01*
X89758856Y-65264645D01*
X89762640Y-65258332D01*
X89767024Y-65252421D01*
X89771967Y-65246967D01*
X89777421Y-65242024D01*
X89783332Y-65237640D01*
X89789645Y-65233856D01*
X89796299Y-65230709D01*
X89803229Y-65228229D01*
X89810368Y-65226441D01*
X89817649Y-65225361D01*
X89825000Y-65225000D01*
X89975000Y-65225000D01*
X89982351Y-65225361D01*
X89982351Y-65225361D01*
G37*
D18*
X89900000Y-65650000D03*
D10*
G36*
X90482351Y-65225361D02*
X90489632Y-65226441D01*
X90496771Y-65228229D01*
X90503701Y-65230709D01*
X90510355Y-65233856D01*
X90516668Y-65237640D01*
X90522579Y-65242024D01*
X90528033Y-65246967D01*
X90532976Y-65252421D01*
X90537360Y-65258332D01*
X90541144Y-65264645D01*
X90544291Y-65271299D01*
X90546771Y-65278229D01*
X90548559Y-65285368D01*
X90549639Y-65292649D01*
X90550000Y-65300000D01*
X90550000Y-66000000D01*
X90549639Y-66007351D01*
X90548559Y-66014632D01*
X90546771Y-66021771D01*
X90544291Y-66028701D01*
X90541144Y-66035355D01*
X90537360Y-66041668D01*
X90532976Y-66047579D01*
X90528033Y-66053033D01*
X90522579Y-66057976D01*
X90516668Y-66062360D01*
X90510355Y-66066144D01*
X90503701Y-66069291D01*
X90496771Y-66071771D01*
X90489632Y-66073559D01*
X90482351Y-66074639D01*
X90475000Y-66075000D01*
X90325000Y-66075000D01*
X90317649Y-66074639D01*
X90310368Y-66073559D01*
X90303229Y-66071771D01*
X90296299Y-66069291D01*
X90289645Y-66066144D01*
X90283332Y-66062360D01*
X90277421Y-66057976D01*
X90271967Y-66053033D01*
X90267024Y-66047579D01*
X90262640Y-66041668D01*
X90258856Y-66035355D01*
X90255709Y-66028701D01*
X90253229Y-66021771D01*
X90251441Y-66014632D01*
X90250361Y-66007351D01*
X90250000Y-66000000D01*
X90250000Y-65300000D01*
X90250361Y-65292649D01*
X90251441Y-65285368D01*
X90253229Y-65278229D01*
X90255709Y-65271299D01*
X90258856Y-65264645D01*
X90262640Y-65258332D01*
X90267024Y-65252421D01*
X90271967Y-65246967D01*
X90277421Y-65242024D01*
X90283332Y-65237640D01*
X90289645Y-65233856D01*
X90296299Y-65230709D01*
X90303229Y-65228229D01*
X90310368Y-65226441D01*
X90317649Y-65225361D01*
X90325000Y-65225000D01*
X90475000Y-65225000D01*
X90482351Y-65225361D01*
X90482351Y-65225361D01*
G37*
D18*
X90400000Y-65650000D03*
D10*
G36*
X90982351Y-65225361D02*
X90989632Y-65226441D01*
X90996771Y-65228229D01*
X91003701Y-65230709D01*
X91010355Y-65233856D01*
X91016668Y-65237640D01*
X91022579Y-65242024D01*
X91028033Y-65246967D01*
X91032976Y-65252421D01*
X91037360Y-65258332D01*
X91041144Y-65264645D01*
X91044291Y-65271299D01*
X91046771Y-65278229D01*
X91048559Y-65285368D01*
X91049639Y-65292649D01*
X91050000Y-65300000D01*
X91050000Y-66000000D01*
X91049639Y-66007351D01*
X91048559Y-66014632D01*
X91046771Y-66021771D01*
X91044291Y-66028701D01*
X91041144Y-66035355D01*
X91037360Y-66041668D01*
X91032976Y-66047579D01*
X91028033Y-66053033D01*
X91022579Y-66057976D01*
X91016668Y-66062360D01*
X91010355Y-66066144D01*
X91003701Y-66069291D01*
X90996771Y-66071771D01*
X90989632Y-66073559D01*
X90982351Y-66074639D01*
X90975000Y-66075000D01*
X90825000Y-66075000D01*
X90817649Y-66074639D01*
X90810368Y-66073559D01*
X90803229Y-66071771D01*
X90796299Y-66069291D01*
X90789645Y-66066144D01*
X90783332Y-66062360D01*
X90777421Y-66057976D01*
X90771967Y-66053033D01*
X90767024Y-66047579D01*
X90762640Y-66041668D01*
X90758856Y-66035355D01*
X90755709Y-66028701D01*
X90753229Y-66021771D01*
X90751441Y-66014632D01*
X90750361Y-66007351D01*
X90750000Y-66000000D01*
X90750000Y-65300000D01*
X90750361Y-65292649D01*
X90751441Y-65285368D01*
X90753229Y-65278229D01*
X90755709Y-65271299D01*
X90758856Y-65264645D01*
X90762640Y-65258332D01*
X90767024Y-65252421D01*
X90771967Y-65246967D01*
X90777421Y-65242024D01*
X90783332Y-65237640D01*
X90789645Y-65233856D01*
X90796299Y-65230709D01*
X90803229Y-65228229D01*
X90810368Y-65226441D01*
X90817649Y-65225361D01*
X90825000Y-65225000D01*
X90975000Y-65225000D01*
X90982351Y-65225361D01*
X90982351Y-65225361D01*
G37*
D18*
X90900000Y-65650000D03*
D10*
G36*
X91482351Y-65225361D02*
X91489632Y-65226441D01*
X91496771Y-65228229D01*
X91503701Y-65230709D01*
X91510355Y-65233856D01*
X91516668Y-65237640D01*
X91522579Y-65242024D01*
X91528033Y-65246967D01*
X91532976Y-65252421D01*
X91537360Y-65258332D01*
X91541144Y-65264645D01*
X91544291Y-65271299D01*
X91546771Y-65278229D01*
X91548559Y-65285368D01*
X91549639Y-65292649D01*
X91550000Y-65300000D01*
X91550000Y-66000000D01*
X91549639Y-66007351D01*
X91548559Y-66014632D01*
X91546771Y-66021771D01*
X91544291Y-66028701D01*
X91541144Y-66035355D01*
X91537360Y-66041668D01*
X91532976Y-66047579D01*
X91528033Y-66053033D01*
X91522579Y-66057976D01*
X91516668Y-66062360D01*
X91510355Y-66066144D01*
X91503701Y-66069291D01*
X91496771Y-66071771D01*
X91489632Y-66073559D01*
X91482351Y-66074639D01*
X91475000Y-66075000D01*
X91325000Y-66075000D01*
X91317649Y-66074639D01*
X91310368Y-66073559D01*
X91303229Y-66071771D01*
X91296299Y-66069291D01*
X91289645Y-66066144D01*
X91283332Y-66062360D01*
X91277421Y-66057976D01*
X91271967Y-66053033D01*
X91267024Y-66047579D01*
X91262640Y-66041668D01*
X91258856Y-66035355D01*
X91255709Y-66028701D01*
X91253229Y-66021771D01*
X91251441Y-66014632D01*
X91250361Y-66007351D01*
X91250000Y-66000000D01*
X91250000Y-65300000D01*
X91250361Y-65292649D01*
X91251441Y-65285368D01*
X91253229Y-65278229D01*
X91255709Y-65271299D01*
X91258856Y-65264645D01*
X91262640Y-65258332D01*
X91267024Y-65252421D01*
X91271967Y-65246967D01*
X91277421Y-65242024D01*
X91283332Y-65237640D01*
X91289645Y-65233856D01*
X91296299Y-65230709D01*
X91303229Y-65228229D01*
X91310368Y-65226441D01*
X91317649Y-65225361D01*
X91325000Y-65225000D01*
X91475000Y-65225000D01*
X91482351Y-65225361D01*
X91482351Y-65225361D01*
G37*
D18*
X91400000Y-65650000D03*
D10*
G36*
X92457351Y-66200361D02*
X92464632Y-66201441D01*
X92471771Y-66203229D01*
X92478701Y-66205709D01*
X92485355Y-66208856D01*
X92491668Y-66212640D01*
X92497579Y-66217024D01*
X92503033Y-66221967D01*
X92507976Y-66227421D01*
X92512360Y-66233332D01*
X92516144Y-66239645D01*
X92519291Y-66246299D01*
X92521771Y-66253229D01*
X92523559Y-66260368D01*
X92524639Y-66267649D01*
X92525000Y-66275000D01*
X92525000Y-66425000D01*
X92524639Y-66432351D01*
X92523559Y-66439632D01*
X92521771Y-66446771D01*
X92519291Y-66453701D01*
X92516144Y-66460355D01*
X92512360Y-66466668D01*
X92507976Y-66472579D01*
X92503033Y-66478033D01*
X92497579Y-66482976D01*
X92491668Y-66487360D01*
X92485355Y-66491144D01*
X92478701Y-66494291D01*
X92471771Y-66496771D01*
X92464632Y-66498559D01*
X92457351Y-66499639D01*
X92450000Y-66500000D01*
X91750000Y-66500000D01*
X91742649Y-66499639D01*
X91735368Y-66498559D01*
X91728229Y-66496771D01*
X91721299Y-66494291D01*
X91714645Y-66491144D01*
X91708332Y-66487360D01*
X91702421Y-66482976D01*
X91696967Y-66478033D01*
X91692024Y-66472579D01*
X91687640Y-66466668D01*
X91683856Y-66460355D01*
X91680709Y-66453701D01*
X91678229Y-66446771D01*
X91676441Y-66439632D01*
X91675361Y-66432351D01*
X91675000Y-66425000D01*
X91675000Y-66275000D01*
X91675361Y-66267649D01*
X91676441Y-66260368D01*
X91678229Y-66253229D01*
X91680709Y-66246299D01*
X91683856Y-66239645D01*
X91687640Y-66233332D01*
X91692024Y-66227421D01*
X91696967Y-66221967D01*
X91702421Y-66217024D01*
X91708332Y-66212640D01*
X91714645Y-66208856D01*
X91721299Y-66205709D01*
X91728229Y-66203229D01*
X91735368Y-66201441D01*
X91742649Y-66200361D01*
X91750000Y-66200000D01*
X92450000Y-66200000D01*
X92457351Y-66200361D01*
X92457351Y-66200361D01*
G37*
D18*
X92100000Y-66350000D03*
D10*
G36*
X92457351Y-66700361D02*
X92464632Y-66701441D01*
X92471771Y-66703229D01*
X92478701Y-66705709D01*
X92485355Y-66708856D01*
X92491668Y-66712640D01*
X92497579Y-66717024D01*
X92503033Y-66721967D01*
X92507976Y-66727421D01*
X92512360Y-66733332D01*
X92516144Y-66739645D01*
X92519291Y-66746299D01*
X92521771Y-66753229D01*
X92523559Y-66760368D01*
X92524639Y-66767649D01*
X92525000Y-66775000D01*
X92525000Y-66925000D01*
X92524639Y-66932351D01*
X92523559Y-66939632D01*
X92521771Y-66946771D01*
X92519291Y-66953701D01*
X92516144Y-66960355D01*
X92512360Y-66966668D01*
X92507976Y-66972579D01*
X92503033Y-66978033D01*
X92497579Y-66982976D01*
X92491668Y-66987360D01*
X92485355Y-66991144D01*
X92478701Y-66994291D01*
X92471771Y-66996771D01*
X92464632Y-66998559D01*
X92457351Y-66999639D01*
X92450000Y-67000000D01*
X91750000Y-67000000D01*
X91742649Y-66999639D01*
X91735368Y-66998559D01*
X91728229Y-66996771D01*
X91721299Y-66994291D01*
X91714645Y-66991144D01*
X91708332Y-66987360D01*
X91702421Y-66982976D01*
X91696967Y-66978033D01*
X91692024Y-66972579D01*
X91687640Y-66966668D01*
X91683856Y-66960355D01*
X91680709Y-66953701D01*
X91678229Y-66946771D01*
X91676441Y-66939632D01*
X91675361Y-66932351D01*
X91675000Y-66925000D01*
X91675000Y-66775000D01*
X91675361Y-66767649D01*
X91676441Y-66760368D01*
X91678229Y-66753229D01*
X91680709Y-66746299D01*
X91683856Y-66739645D01*
X91687640Y-66733332D01*
X91692024Y-66727421D01*
X91696967Y-66721967D01*
X91702421Y-66717024D01*
X91708332Y-66712640D01*
X91714645Y-66708856D01*
X91721299Y-66705709D01*
X91728229Y-66703229D01*
X91735368Y-66701441D01*
X91742649Y-66700361D01*
X91750000Y-66700000D01*
X92450000Y-66700000D01*
X92457351Y-66700361D01*
X92457351Y-66700361D01*
G37*
D18*
X92100000Y-66850000D03*
D10*
G36*
X92457351Y-67200361D02*
X92464632Y-67201441D01*
X92471771Y-67203229D01*
X92478701Y-67205709D01*
X92485355Y-67208856D01*
X92491668Y-67212640D01*
X92497579Y-67217024D01*
X92503033Y-67221967D01*
X92507976Y-67227421D01*
X92512360Y-67233332D01*
X92516144Y-67239645D01*
X92519291Y-67246299D01*
X92521771Y-67253229D01*
X92523559Y-67260368D01*
X92524639Y-67267649D01*
X92525000Y-67275000D01*
X92525000Y-67425000D01*
X92524639Y-67432351D01*
X92523559Y-67439632D01*
X92521771Y-67446771D01*
X92519291Y-67453701D01*
X92516144Y-67460355D01*
X92512360Y-67466668D01*
X92507976Y-67472579D01*
X92503033Y-67478033D01*
X92497579Y-67482976D01*
X92491668Y-67487360D01*
X92485355Y-67491144D01*
X92478701Y-67494291D01*
X92471771Y-67496771D01*
X92464632Y-67498559D01*
X92457351Y-67499639D01*
X92450000Y-67500000D01*
X91750000Y-67500000D01*
X91742649Y-67499639D01*
X91735368Y-67498559D01*
X91728229Y-67496771D01*
X91721299Y-67494291D01*
X91714645Y-67491144D01*
X91708332Y-67487360D01*
X91702421Y-67482976D01*
X91696967Y-67478033D01*
X91692024Y-67472579D01*
X91687640Y-67466668D01*
X91683856Y-67460355D01*
X91680709Y-67453701D01*
X91678229Y-67446771D01*
X91676441Y-67439632D01*
X91675361Y-67432351D01*
X91675000Y-67425000D01*
X91675000Y-67275000D01*
X91675361Y-67267649D01*
X91676441Y-67260368D01*
X91678229Y-67253229D01*
X91680709Y-67246299D01*
X91683856Y-67239645D01*
X91687640Y-67233332D01*
X91692024Y-67227421D01*
X91696967Y-67221967D01*
X91702421Y-67217024D01*
X91708332Y-67212640D01*
X91714645Y-67208856D01*
X91721299Y-67205709D01*
X91728229Y-67203229D01*
X91735368Y-67201441D01*
X91742649Y-67200361D01*
X91750000Y-67200000D01*
X92450000Y-67200000D01*
X92457351Y-67200361D01*
X92457351Y-67200361D01*
G37*
D18*
X92100000Y-67350000D03*
D10*
G36*
X92457351Y-67700361D02*
X92464632Y-67701441D01*
X92471771Y-67703229D01*
X92478701Y-67705709D01*
X92485355Y-67708856D01*
X92491668Y-67712640D01*
X92497579Y-67717024D01*
X92503033Y-67721967D01*
X92507976Y-67727421D01*
X92512360Y-67733332D01*
X92516144Y-67739645D01*
X92519291Y-67746299D01*
X92521771Y-67753229D01*
X92523559Y-67760368D01*
X92524639Y-67767649D01*
X92525000Y-67775000D01*
X92525000Y-67925000D01*
X92524639Y-67932351D01*
X92523559Y-67939632D01*
X92521771Y-67946771D01*
X92519291Y-67953701D01*
X92516144Y-67960355D01*
X92512360Y-67966668D01*
X92507976Y-67972579D01*
X92503033Y-67978033D01*
X92497579Y-67982976D01*
X92491668Y-67987360D01*
X92485355Y-67991144D01*
X92478701Y-67994291D01*
X92471771Y-67996771D01*
X92464632Y-67998559D01*
X92457351Y-67999639D01*
X92450000Y-68000000D01*
X91750000Y-68000000D01*
X91742649Y-67999639D01*
X91735368Y-67998559D01*
X91728229Y-67996771D01*
X91721299Y-67994291D01*
X91714645Y-67991144D01*
X91708332Y-67987360D01*
X91702421Y-67982976D01*
X91696967Y-67978033D01*
X91692024Y-67972579D01*
X91687640Y-67966668D01*
X91683856Y-67960355D01*
X91680709Y-67953701D01*
X91678229Y-67946771D01*
X91676441Y-67939632D01*
X91675361Y-67932351D01*
X91675000Y-67925000D01*
X91675000Y-67775000D01*
X91675361Y-67767649D01*
X91676441Y-67760368D01*
X91678229Y-67753229D01*
X91680709Y-67746299D01*
X91683856Y-67739645D01*
X91687640Y-67733332D01*
X91692024Y-67727421D01*
X91696967Y-67721967D01*
X91702421Y-67717024D01*
X91708332Y-67712640D01*
X91714645Y-67708856D01*
X91721299Y-67705709D01*
X91728229Y-67703229D01*
X91735368Y-67701441D01*
X91742649Y-67700361D01*
X91750000Y-67700000D01*
X92450000Y-67700000D01*
X92457351Y-67700361D01*
X92457351Y-67700361D01*
G37*
D18*
X92100000Y-67850000D03*
D10*
G36*
X92457351Y-68200361D02*
X92464632Y-68201441D01*
X92471771Y-68203229D01*
X92478701Y-68205709D01*
X92485355Y-68208856D01*
X92491668Y-68212640D01*
X92497579Y-68217024D01*
X92503033Y-68221967D01*
X92507976Y-68227421D01*
X92512360Y-68233332D01*
X92516144Y-68239645D01*
X92519291Y-68246299D01*
X92521771Y-68253229D01*
X92523559Y-68260368D01*
X92524639Y-68267649D01*
X92525000Y-68275000D01*
X92525000Y-68425000D01*
X92524639Y-68432351D01*
X92523559Y-68439632D01*
X92521771Y-68446771D01*
X92519291Y-68453701D01*
X92516144Y-68460355D01*
X92512360Y-68466668D01*
X92507976Y-68472579D01*
X92503033Y-68478033D01*
X92497579Y-68482976D01*
X92491668Y-68487360D01*
X92485355Y-68491144D01*
X92478701Y-68494291D01*
X92471771Y-68496771D01*
X92464632Y-68498559D01*
X92457351Y-68499639D01*
X92450000Y-68500000D01*
X91750000Y-68500000D01*
X91742649Y-68499639D01*
X91735368Y-68498559D01*
X91728229Y-68496771D01*
X91721299Y-68494291D01*
X91714645Y-68491144D01*
X91708332Y-68487360D01*
X91702421Y-68482976D01*
X91696967Y-68478033D01*
X91692024Y-68472579D01*
X91687640Y-68466668D01*
X91683856Y-68460355D01*
X91680709Y-68453701D01*
X91678229Y-68446771D01*
X91676441Y-68439632D01*
X91675361Y-68432351D01*
X91675000Y-68425000D01*
X91675000Y-68275000D01*
X91675361Y-68267649D01*
X91676441Y-68260368D01*
X91678229Y-68253229D01*
X91680709Y-68246299D01*
X91683856Y-68239645D01*
X91687640Y-68233332D01*
X91692024Y-68227421D01*
X91696967Y-68221967D01*
X91702421Y-68217024D01*
X91708332Y-68212640D01*
X91714645Y-68208856D01*
X91721299Y-68205709D01*
X91728229Y-68203229D01*
X91735368Y-68201441D01*
X91742649Y-68200361D01*
X91750000Y-68200000D01*
X92450000Y-68200000D01*
X92457351Y-68200361D01*
X92457351Y-68200361D01*
G37*
D18*
X92100000Y-68350000D03*
D10*
G36*
X92457351Y-68700361D02*
X92464632Y-68701441D01*
X92471771Y-68703229D01*
X92478701Y-68705709D01*
X92485355Y-68708856D01*
X92491668Y-68712640D01*
X92497579Y-68717024D01*
X92503033Y-68721967D01*
X92507976Y-68727421D01*
X92512360Y-68733332D01*
X92516144Y-68739645D01*
X92519291Y-68746299D01*
X92521771Y-68753229D01*
X92523559Y-68760368D01*
X92524639Y-68767649D01*
X92525000Y-68775000D01*
X92525000Y-68925000D01*
X92524639Y-68932351D01*
X92523559Y-68939632D01*
X92521771Y-68946771D01*
X92519291Y-68953701D01*
X92516144Y-68960355D01*
X92512360Y-68966668D01*
X92507976Y-68972579D01*
X92503033Y-68978033D01*
X92497579Y-68982976D01*
X92491668Y-68987360D01*
X92485355Y-68991144D01*
X92478701Y-68994291D01*
X92471771Y-68996771D01*
X92464632Y-68998559D01*
X92457351Y-68999639D01*
X92450000Y-69000000D01*
X91750000Y-69000000D01*
X91742649Y-68999639D01*
X91735368Y-68998559D01*
X91728229Y-68996771D01*
X91721299Y-68994291D01*
X91714645Y-68991144D01*
X91708332Y-68987360D01*
X91702421Y-68982976D01*
X91696967Y-68978033D01*
X91692024Y-68972579D01*
X91687640Y-68966668D01*
X91683856Y-68960355D01*
X91680709Y-68953701D01*
X91678229Y-68946771D01*
X91676441Y-68939632D01*
X91675361Y-68932351D01*
X91675000Y-68925000D01*
X91675000Y-68775000D01*
X91675361Y-68767649D01*
X91676441Y-68760368D01*
X91678229Y-68753229D01*
X91680709Y-68746299D01*
X91683856Y-68739645D01*
X91687640Y-68733332D01*
X91692024Y-68727421D01*
X91696967Y-68721967D01*
X91702421Y-68717024D01*
X91708332Y-68712640D01*
X91714645Y-68708856D01*
X91721299Y-68705709D01*
X91728229Y-68703229D01*
X91735368Y-68701441D01*
X91742649Y-68700361D01*
X91750000Y-68700000D01*
X92450000Y-68700000D01*
X92457351Y-68700361D01*
X92457351Y-68700361D01*
G37*
D18*
X92100000Y-68850000D03*
G04 #@! TD*
D10*
G04 #@! TO.C,R5*
G36*
X71824504Y-66726204D02*
X71848773Y-66729804D01*
X71872571Y-66735765D01*
X71895671Y-66744030D01*
X71917849Y-66754520D01*
X71938893Y-66767133D01*
X71958598Y-66781747D01*
X71976777Y-66798223D01*
X71993253Y-66816402D01*
X72007867Y-66836107D01*
X72020480Y-66857151D01*
X72030970Y-66879329D01*
X72039235Y-66902429D01*
X72045196Y-66926227D01*
X72048796Y-66950496D01*
X72050000Y-66975000D01*
X72050000Y-68225000D01*
X72048796Y-68249504D01*
X72045196Y-68273773D01*
X72039235Y-68297571D01*
X72030970Y-68320671D01*
X72020480Y-68342849D01*
X72007867Y-68363893D01*
X71993253Y-68383598D01*
X71976777Y-68401777D01*
X71958598Y-68418253D01*
X71938893Y-68432867D01*
X71917849Y-68445480D01*
X71895671Y-68455970D01*
X71872571Y-68464235D01*
X71848773Y-68470196D01*
X71824504Y-68473796D01*
X71800000Y-68475000D01*
X70875000Y-68475000D01*
X70850496Y-68473796D01*
X70826227Y-68470196D01*
X70802429Y-68464235D01*
X70779329Y-68455970D01*
X70757151Y-68445480D01*
X70736107Y-68432867D01*
X70716402Y-68418253D01*
X70698223Y-68401777D01*
X70681747Y-68383598D01*
X70667133Y-68363893D01*
X70654520Y-68342849D01*
X70644030Y-68320671D01*
X70635765Y-68297571D01*
X70629804Y-68273773D01*
X70626204Y-68249504D01*
X70625000Y-68225000D01*
X70625000Y-66975000D01*
X70626204Y-66950496D01*
X70629804Y-66926227D01*
X70635765Y-66902429D01*
X70644030Y-66879329D01*
X70654520Y-66857151D01*
X70667133Y-66836107D01*
X70681747Y-66816402D01*
X70698223Y-66798223D01*
X70716402Y-66781747D01*
X70736107Y-66767133D01*
X70757151Y-66754520D01*
X70779329Y-66744030D01*
X70802429Y-66735765D01*
X70826227Y-66729804D01*
X70850496Y-66726204D01*
X70875000Y-66725000D01*
X71800000Y-66725000D01*
X71824504Y-66726204D01*
X71824504Y-66726204D01*
G37*
D11*
X71337500Y-67600000D03*
D10*
G36*
X68849504Y-66726204D02*
X68873773Y-66729804D01*
X68897571Y-66735765D01*
X68920671Y-66744030D01*
X68942849Y-66754520D01*
X68963893Y-66767133D01*
X68983598Y-66781747D01*
X69001777Y-66798223D01*
X69018253Y-66816402D01*
X69032867Y-66836107D01*
X69045480Y-66857151D01*
X69055970Y-66879329D01*
X69064235Y-66902429D01*
X69070196Y-66926227D01*
X69073796Y-66950496D01*
X69075000Y-66975000D01*
X69075000Y-68225000D01*
X69073796Y-68249504D01*
X69070196Y-68273773D01*
X69064235Y-68297571D01*
X69055970Y-68320671D01*
X69045480Y-68342849D01*
X69032867Y-68363893D01*
X69018253Y-68383598D01*
X69001777Y-68401777D01*
X68983598Y-68418253D01*
X68963893Y-68432867D01*
X68942849Y-68445480D01*
X68920671Y-68455970D01*
X68897571Y-68464235D01*
X68873773Y-68470196D01*
X68849504Y-68473796D01*
X68825000Y-68475000D01*
X67900000Y-68475000D01*
X67875496Y-68473796D01*
X67851227Y-68470196D01*
X67827429Y-68464235D01*
X67804329Y-68455970D01*
X67782151Y-68445480D01*
X67761107Y-68432867D01*
X67741402Y-68418253D01*
X67723223Y-68401777D01*
X67706747Y-68383598D01*
X67692133Y-68363893D01*
X67679520Y-68342849D01*
X67669030Y-68320671D01*
X67660765Y-68297571D01*
X67654804Y-68273773D01*
X67651204Y-68249504D01*
X67650000Y-68225000D01*
X67650000Y-66975000D01*
X67651204Y-66950496D01*
X67654804Y-66926227D01*
X67660765Y-66902429D01*
X67669030Y-66879329D01*
X67679520Y-66857151D01*
X67692133Y-66836107D01*
X67706747Y-66816402D01*
X67723223Y-66798223D01*
X67741402Y-66781747D01*
X67761107Y-66767133D01*
X67782151Y-66754520D01*
X67804329Y-66744030D01*
X67827429Y-66735765D01*
X67851227Y-66729804D01*
X67875496Y-66726204D01*
X67900000Y-66725000D01*
X68825000Y-66725000D01*
X68849504Y-66726204D01*
X68849504Y-66726204D01*
G37*
D11*
X68362500Y-67600000D03*
G04 #@! TD*
D13*
G04 #@! TO.C,U2*
X103000000Y-65250000D03*
X103000000Y-66200000D03*
X103000000Y-67150000D03*
X100800000Y-67150000D03*
X100800000Y-65250000D03*
G04 #@! TD*
D10*
G04 #@! TO.C,U5*
G36*
X82732351Y-66775361D02*
X82739632Y-66776441D01*
X82746771Y-66778229D01*
X82753701Y-66780709D01*
X82760355Y-66783856D01*
X82766668Y-66787640D01*
X82772579Y-66792024D01*
X82778033Y-66796967D01*
X82782976Y-66802421D01*
X82787360Y-66808332D01*
X82791144Y-66814645D01*
X82794291Y-66821299D01*
X82796771Y-66828229D01*
X82798559Y-66835368D01*
X82799639Y-66842649D01*
X82800000Y-66850000D01*
X82800000Y-67550000D01*
X82799639Y-67557351D01*
X82798559Y-67564632D01*
X82796771Y-67571771D01*
X82794291Y-67578701D01*
X82791144Y-67585355D01*
X82787360Y-67591668D01*
X82782976Y-67597579D01*
X82778033Y-67603033D01*
X82772579Y-67607976D01*
X82766668Y-67612360D01*
X82760355Y-67616144D01*
X82753701Y-67619291D01*
X82746771Y-67621771D01*
X82739632Y-67623559D01*
X82732351Y-67624639D01*
X82725000Y-67625000D01*
X82575000Y-67625000D01*
X82567649Y-67624639D01*
X82560368Y-67623559D01*
X82553229Y-67621771D01*
X82546299Y-67619291D01*
X82539645Y-67616144D01*
X82533332Y-67612360D01*
X82527421Y-67607976D01*
X82521967Y-67603033D01*
X82517024Y-67597579D01*
X82512640Y-67591668D01*
X82508856Y-67585355D01*
X82505709Y-67578701D01*
X82503229Y-67571771D01*
X82501441Y-67564632D01*
X82500361Y-67557351D01*
X82500000Y-67550000D01*
X82500000Y-66850000D01*
X82500361Y-66842649D01*
X82501441Y-66835368D01*
X82503229Y-66828229D01*
X82505709Y-66821299D01*
X82508856Y-66814645D01*
X82512640Y-66808332D01*
X82517024Y-66802421D01*
X82521967Y-66796967D01*
X82527421Y-66792024D01*
X82533332Y-66787640D01*
X82539645Y-66783856D01*
X82546299Y-66780709D01*
X82553229Y-66778229D01*
X82560368Y-66776441D01*
X82567649Y-66775361D01*
X82575000Y-66775000D01*
X82725000Y-66775000D01*
X82732351Y-66775361D01*
X82732351Y-66775361D01*
G37*
D18*
X82650000Y-67200000D03*
D10*
G36*
X82232351Y-66775361D02*
X82239632Y-66776441D01*
X82246771Y-66778229D01*
X82253701Y-66780709D01*
X82260355Y-66783856D01*
X82266668Y-66787640D01*
X82272579Y-66792024D01*
X82278033Y-66796967D01*
X82282976Y-66802421D01*
X82287360Y-66808332D01*
X82291144Y-66814645D01*
X82294291Y-66821299D01*
X82296771Y-66828229D01*
X82298559Y-66835368D01*
X82299639Y-66842649D01*
X82300000Y-66850000D01*
X82300000Y-67550000D01*
X82299639Y-67557351D01*
X82298559Y-67564632D01*
X82296771Y-67571771D01*
X82294291Y-67578701D01*
X82291144Y-67585355D01*
X82287360Y-67591668D01*
X82282976Y-67597579D01*
X82278033Y-67603033D01*
X82272579Y-67607976D01*
X82266668Y-67612360D01*
X82260355Y-67616144D01*
X82253701Y-67619291D01*
X82246771Y-67621771D01*
X82239632Y-67623559D01*
X82232351Y-67624639D01*
X82225000Y-67625000D01*
X82075000Y-67625000D01*
X82067649Y-67624639D01*
X82060368Y-67623559D01*
X82053229Y-67621771D01*
X82046299Y-67619291D01*
X82039645Y-67616144D01*
X82033332Y-67612360D01*
X82027421Y-67607976D01*
X82021967Y-67603033D01*
X82017024Y-67597579D01*
X82012640Y-67591668D01*
X82008856Y-67585355D01*
X82005709Y-67578701D01*
X82003229Y-67571771D01*
X82001441Y-67564632D01*
X82000361Y-67557351D01*
X82000000Y-67550000D01*
X82000000Y-66850000D01*
X82000361Y-66842649D01*
X82001441Y-66835368D01*
X82003229Y-66828229D01*
X82005709Y-66821299D01*
X82008856Y-66814645D01*
X82012640Y-66808332D01*
X82017024Y-66802421D01*
X82021967Y-66796967D01*
X82027421Y-66792024D01*
X82033332Y-66787640D01*
X82039645Y-66783856D01*
X82046299Y-66780709D01*
X82053229Y-66778229D01*
X82060368Y-66776441D01*
X82067649Y-66775361D01*
X82075000Y-66775000D01*
X82225000Y-66775000D01*
X82232351Y-66775361D01*
X82232351Y-66775361D01*
G37*
D18*
X82150000Y-67200000D03*
D10*
G36*
X81732351Y-66775361D02*
X81739632Y-66776441D01*
X81746771Y-66778229D01*
X81753701Y-66780709D01*
X81760355Y-66783856D01*
X81766668Y-66787640D01*
X81772579Y-66792024D01*
X81778033Y-66796967D01*
X81782976Y-66802421D01*
X81787360Y-66808332D01*
X81791144Y-66814645D01*
X81794291Y-66821299D01*
X81796771Y-66828229D01*
X81798559Y-66835368D01*
X81799639Y-66842649D01*
X81800000Y-66850000D01*
X81800000Y-67550000D01*
X81799639Y-67557351D01*
X81798559Y-67564632D01*
X81796771Y-67571771D01*
X81794291Y-67578701D01*
X81791144Y-67585355D01*
X81787360Y-67591668D01*
X81782976Y-67597579D01*
X81778033Y-67603033D01*
X81772579Y-67607976D01*
X81766668Y-67612360D01*
X81760355Y-67616144D01*
X81753701Y-67619291D01*
X81746771Y-67621771D01*
X81739632Y-67623559D01*
X81732351Y-67624639D01*
X81725000Y-67625000D01*
X81575000Y-67625000D01*
X81567649Y-67624639D01*
X81560368Y-67623559D01*
X81553229Y-67621771D01*
X81546299Y-67619291D01*
X81539645Y-67616144D01*
X81533332Y-67612360D01*
X81527421Y-67607976D01*
X81521967Y-67603033D01*
X81517024Y-67597579D01*
X81512640Y-67591668D01*
X81508856Y-67585355D01*
X81505709Y-67578701D01*
X81503229Y-67571771D01*
X81501441Y-67564632D01*
X81500361Y-67557351D01*
X81500000Y-67550000D01*
X81500000Y-66850000D01*
X81500361Y-66842649D01*
X81501441Y-66835368D01*
X81503229Y-66828229D01*
X81505709Y-66821299D01*
X81508856Y-66814645D01*
X81512640Y-66808332D01*
X81517024Y-66802421D01*
X81521967Y-66796967D01*
X81527421Y-66792024D01*
X81533332Y-66787640D01*
X81539645Y-66783856D01*
X81546299Y-66780709D01*
X81553229Y-66778229D01*
X81560368Y-66776441D01*
X81567649Y-66775361D01*
X81575000Y-66775000D01*
X81725000Y-66775000D01*
X81732351Y-66775361D01*
X81732351Y-66775361D01*
G37*
D18*
X81650000Y-67200000D03*
D10*
G36*
X81232351Y-66775361D02*
X81239632Y-66776441D01*
X81246771Y-66778229D01*
X81253701Y-66780709D01*
X81260355Y-66783856D01*
X81266668Y-66787640D01*
X81272579Y-66792024D01*
X81278033Y-66796967D01*
X81282976Y-66802421D01*
X81287360Y-66808332D01*
X81291144Y-66814645D01*
X81294291Y-66821299D01*
X81296771Y-66828229D01*
X81298559Y-66835368D01*
X81299639Y-66842649D01*
X81300000Y-66850000D01*
X81300000Y-67550000D01*
X81299639Y-67557351D01*
X81298559Y-67564632D01*
X81296771Y-67571771D01*
X81294291Y-67578701D01*
X81291144Y-67585355D01*
X81287360Y-67591668D01*
X81282976Y-67597579D01*
X81278033Y-67603033D01*
X81272579Y-67607976D01*
X81266668Y-67612360D01*
X81260355Y-67616144D01*
X81253701Y-67619291D01*
X81246771Y-67621771D01*
X81239632Y-67623559D01*
X81232351Y-67624639D01*
X81225000Y-67625000D01*
X81075000Y-67625000D01*
X81067649Y-67624639D01*
X81060368Y-67623559D01*
X81053229Y-67621771D01*
X81046299Y-67619291D01*
X81039645Y-67616144D01*
X81033332Y-67612360D01*
X81027421Y-67607976D01*
X81021967Y-67603033D01*
X81017024Y-67597579D01*
X81012640Y-67591668D01*
X81008856Y-67585355D01*
X81005709Y-67578701D01*
X81003229Y-67571771D01*
X81001441Y-67564632D01*
X81000361Y-67557351D01*
X81000000Y-67550000D01*
X81000000Y-66850000D01*
X81000361Y-66842649D01*
X81001441Y-66835368D01*
X81003229Y-66828229D01*
X81005709Y-66821299D01*
X81008856Y-66814645D01*
X81012640Y-66808332D01*
X81017024Y-66802421D01*
X81021967Y-66796967D01*
X81027421Y-66792024D01*
X81033332Y-66787640D01*
X81039645Y-66783856D01*
X81046299Y-66780709D01*
X81053229Y-66778229D01*
X81060368Y-66776441D01*
X81067649Y-66775361D01*
X81075000Y-66775000D01*
X81225000Y-66775000D01*
X81232351Y-66775361D01*
X81232351Y-66775361D01*
G37*
D18*
X81150000Y-67200000D03*
D10*
G36*
X80732351Y-66775361D02*
X80739632Y-66776441D01*
X80746771Y-66778229D01*
X80753701Y-66780709D01*
X80760355Y-66783856D01*
X80766668Y-66787640D01*
X80772579Y-66792024D01*
X80778033Y-66796967D01*
X80782976Y-66802421D01*
X80787360Y-66808332D01*
X80791144Y-66814645D01*
X80794291Y-66821299D01*
X80796771Y-66828229D01*
X80798559Y-66835368D01*
X80799639Y-66842649D01*
X80800000Y-66850000D01*
X80800000Y-67550000D01*
X80799639Y-67557351D01*
X80798559Y-67564632D01*
X80796771Y-67571771D01*
X80794291Y-67578701D01*
X80791144Y-67585355D01*
X80787360Y-67591668D01*
X80782976Y-67597579D01*
X80778033Y-67603033D01*
X80772579Y-67607976D01*
X80766668Y-67612360D01*
X80760355Y-67616144D01*
X80753701Y-67619291D01*
X80746771Y-67621771D01*
X80739632Y-67623559D01*
X80732351Y-67624639D01*
X80725000Y-67625000D01*
X80575000Y-67625000D01*
X80567649Y-67624639D01*
X80560368Y-67623559D01*
X80553229Y-67621771D01*
X80546299Y-67619291D01*
X80539645Y-67616144D01*
X80533332Y-67612360D01*
X80527421Y-67607976D01*
X80521967Y-67603033D01*
X80517024Y-67597579D01*
X80512640Y-67591668D01*
X80508856Y-67585355D01*
X80505709Y-67578701D01*
X80503229Y-67571771D01*
X80501441Y-67564632D01*
X80500361Y-67557351D01*
X80500000Y-67550000D01*
X80500000Y-66850000D01*
X80500361Y-66842649D01*
X80501441Y-66835368D01*
X80503229Y-66828229D01*
X80505709Y-66821299D01*
X80508856Y-66814645D01*
X80512640Y-66808332D01*
X80517024Y-66802421D01*
X80521967Y-66796967D01*
X80527421Y-66792024D01*
X80533332Y-66787640D01*
X80539645Y-66783856D01*
X80546299Y-66780709D01*
X80553229Y-66778229D01*
X80560368Y-66776441D01*
X80567649Y-66775361D01*
X80575000Y-66775000D01*
X80725000Y-66775000D01*
X80732351Y-66775361D01*
X80732351Y-66775361D01*
G37*
D18*
X80650000Y-67200000D03*
D10*
G36*
X80232351Y-66775361D02*
X80239632Y-66776441D01*
X80246771Y-66778229D01*
X80253701Y-66780709D01*
X80260355Y-66783856D01*
X80266668Y-66787640D01*
X80272579Y-66792024D01*
X80278033Y-66796967D01*
X80282976Y-66802421D01*
X80287360Y-66808332D01*
X80291144Y-66814645D01*
X80294291Y-66821299D01*
X80296771Y-66828229D01*
X80298559Y-66835368D01*
X80299639Y-66842649D01*
X80300000Y-66850000D01*
X80300000Y-67550000D01*
X80299639Y-67557351D01*
X80298559Y-67564632D01*
X80296771Y-67571771D01*
X80294291Y-67578701D01*
X80291144Y-67585355D01*
X80287360Y-67591668D01*
X80282976Y-67597579D01*
X80278033Y-67603033D01*
X80272579Y-67607976D01*
X80266668Y-67612360D01*
X80260355Y-67616144D01*
X80253701Y-67619291D01*
X80246771Y-67621771D01*
X80239632Y-67623559D01*
X80232351Y-67624639D01*
X80225000Y-67625000D01*
X80075000Y-67625000D01*
X80067649Y-67624639D01*
X80060368Y-67623559D01*
X80053229Y-67621771D01*
X80046299Y-67619291D01*
X80039645Y-67616144D01*
X80033332Y-67612360D01*
X80027421Y-67607976D01*
X80021967Y-67603033D01*
X80017024Y-67597579D01*
X80012640Y-67591668D01*
X80008856Y-67585355D01*
X80005709Y-67578701D01*
X80003229Y-67571771D01*
X80001441Y-67564632D01*
X80000361Y-67557351D01*
X80000000Y-67550000D01*
X80000000Y-66850000D01*
X80000361Y-66842649D01*
X80001441Y-66835368D01*
X80003229Y-66828229D01*
X80005709Y-66821299D01*
X80008856Y-66814645D01*
X80012640Y-66808332D01*
X80017024Y-66802421D01*
X80021967Y-66796967D01*
X80027421Y-66792024D01*
X80033332Y-66787640D01*
X80039645Y-66783856D01*
X80046299Y-66780709D01*
X80053229Y-66778229D01*
X80060368Y-66776441D01*
X80067649Y-66775361D01*
X80075000Y-66775000D01*
X80225000Y-66775000D01*
X80232351Y-66775361D01*
X80232351Y-66775361D01*
G37*
D18*
X80150000Y-67200000D03*
D10*
G36*
X79807351Y-66350361D02*
X79814632Y-66351441D01*
X79821771Y-66353229D01*
X79828701Y-66355709D01*
X79835355Y-66358856D01*
X79841668Y-66362640D01*
X79847579Y-66367024D01*
X79853033Y-66371967D01*
X79857976Y-66377421D01*
X79862360Y-66383332D01*
X79866144Y-66389645D01*
X79869291Y-66396299D01*
X79871771Y-66403229D01*
X79873559Y-66410368D01*
X79874639Y-66417649D01*
X79875000Y-66425000D01*
X79875000Y-66575000D01*
X79874639Y-66582351D01*
X79873559Y-66589632D01*
X79871771Y-66596771D01*
X79869291Y-66603701D01*
X79866144Y-66610355D01*
X79862360Y-66616668D01*
X79857976Y-66622579D01*
X79853033Y-66628033D01*
X79847579Y-66632976D01*
X79841668Y-66637360D01*
X79835355Y-66641144D01*
X79828701Y-66644291D01*
X79821771Y-66646771D01*
X79814632Y-66648559D01*
X79807351Y-66649639D01*
X79800000Y-66650000D01*
X79100000Y-66650000D01*
X79092649Y-66649639D01*
X79085368Y-66648559D01*
X79078229Y-66646771D01*
X79071299Y-66644291D01*
X79064645Y-66641144D01*
X79058332Y-66637360D01*
X79052421Y-66632976D01*
X79046967Y-66628033D01*
X79042024Y-66622579D01*
X79037640Y-66616668D01*
X79033856Y-66610355D01*
X79030709Y-66603701D01*
X79028229Y-66596771D01*
X79026441Y-66589632D01*
X79025361Y-66582351D01*
X79025000Y-66575000D01*
X79025000Y-66425000D01*
X79025361Y-66417649D01*
X79026441Y-66410368D01*
X79028229Y-66403229D01*
X79030709Y-66396299D01*
X79033856Y-66389645D01*
X79037640Y-66383332D01*
X79042024Y-66377421D01*
X79046967Y-66371967D01*
X79052421Y-66367024D01*
X79058332Y-66362640D01*
X79064645Y-66358856D01*
X79071299Y-66355709D01*
X79078229Y-66353229D01*
X79085368Y-66351441D01*
X79092649Y-66350361D01*
X79100000Y-66350000D01*
X79800000Y-66350000D01*
X79807351Y-66350361D01*
X79807351Y-66350361D01*
G37*
D18*
X79450000Y-66500000D03*
D10*
G36*
X79807351Y-65850361D02*
X79814632Y-65851441D01*
X79821771Y-65853229D01*
X79828701Y-65855709D01*
X79835355Y-65858856D01*
X79841668Y-65862640D01*
X79847579Y-65867024D01*
X79853033Y-65871967D01*
X79857976Y-65877421D01*
X79862360Y-65883332D01*
X79866144Y-65889645D01*
X79869291Y-65896299D01*
X79871771Y-65903229D01*
X79873559Y-65910368D01*
X79874639Y-65917649D01*
X79875000Y-65925000D01*
X79875000Y-66075000D01*
X79874639Y-66082351D01*
X79873559Y-66089632D01*
X79871771Y-66096771D01*
X79869291Y-66103701D01*
X79866144Y-66110355D01*
X79862360Y-66116668D01*
X79857976Y-66122579D01*
X79853033Y-66128033D01*
X79847579Y-66132976D01*
X79841668Y-66137360D01*
X79835355Y-66141144D01*
X79828701Y-66144291D01*
X79821771Y-66146771D01*
X79814632Y-66148559D01*
X79807351Y-66149639D01*
X79800000Y-66150000D01*
X79100000Y-66150000D01*
X79092649Y-66149639D01*
X79085368Y-66148559D01*
X79078229Y-66146771D01*
X79071299Y-66144291D01*
X79064645Y-66141144D01*
X79058332Y-66137360D01*
X79052421Y-66132976D01*
X79046967Y-66128033D01*
X79042024Y-66122579D01*
X79037640Y-66116668D01*
X79033856Y-66110355D01*
X79030709Y-66103701D01*
X79028229Y-66096771D01*
X79026441Y-66089632D01*
X79025361Y-66082351D01*
X79025000Y-66075000D01*
X79025000Y-65925000D01*
X79025361Y-65917649D01*
X79026441Y-65910368D01*
X79028229Y-65903229D01*
X79030709Y-65896299D01*
X79033856Y-65889645D01*
X79037640Y-65883332D01*
X79042024Y-65877421D01*
X79046967Y-65871967D01*
X79052421Y-65867024D01*
X79058332Y-65862640D01*
X79064645Y-65858856D01*
X79071299Y-65855709D01*
X79078229Y-65853229D01*
X79085368Y-65851441D01*
X79092649Y-65850361D01*
X79100000Y-65850000D01*
X79800000Y-65850000D01*
X79807351Y-65850361D01*
X79807351Y-65850361D01*
G37*
D18*
X79450000Y-66000000D03*
D10*
G36*
X79807351Y-65350361D02*
X79814632Y-65351441D01*
X79821771Y-65353229D01*
X79828701Y-65355709D01*
X79835355Y-65358856D01*
X79841668Y-65362640D01*
X79847579Y-65367024D01*
X79853033Y-65371967D01*
X79857976Y-65377421D01*
X79862360Y-65383332D01*
X79866144Y-65389645D01*
X79869291Y-65396299D01*
X79871771Y-65403229D01*
X79873559Y-65410368D01*
X79874639Y-65417649D01*
X79875000Y-65425000D01*
X79875000Y-65575000D01*
X79874639Y-65582351D01*
X79873559Y-65589632D01*
X79871771Y-65596771D01*
X79869291Y-65603701D01*
X79866144Y-65610355D01*
X79862360Y-65616668D01*
X79857976Y-65622579D01*
X79853033Y-65628033D01*
X79847579Y-65632976D01*
X79841668Y-65637360D01*
X79835355Y-65641144D01*
X79828701Y-65644291D01*
X79821771Y-65646771D01*
X79814632Y-65648559D01*
X79807351Y-65649639D01*
X79800000Y-65650000D01*
X79100000Y-65650000D01*
X79092649Y-65649639D01*
X79085368Y-65648559D01*
X79078229Y-65646771D01*
X79071299Y-65644291D01*
X79064645Y-65641144D01*
X79058332Y-65637360D01*
X79052421Y-65632976D01*
X79046967Y-65628033D01*
X79042024Y-65622579D01*
X79037640Y-65616668D01*
X79033856Y-65610355D01*
X79030709Y-65603701D01*
X79028229Y-65596771D01*
X79026441Y-65589632D01*
X79025361Y-65582351D01*
X79025000Y-65575000D01*
X79025000Y-65425000D01*
X79025361Y-65417649D01*
X79026441Y-65410368D01*
X79028229Y-65403229D01*
X79030709Y-65396299D01*
X79033856Y-65389645D01*
X79037640Y-65383332D01*
X79042024Y-65377421D01*
X79046967Y-65371967D01*
X79052421Y-65367024D01*
X79058332Y-65362640D01*
X79064645Y-65358856D01*
X79071299Y-65355709D01*
X79078229Y-65353229D01*
X79085368Y-65351441D01*
X79092649Y-65350361D01*
X79100000Y-65350000D01*
X79800000Y-65350000D01*
X79807351Y-65350361D01*
X79807351Y-65350361D01*
G37*
D18*
X79450000Y-65500000D03*
D10*
G36*
X79807351Y-64850361D02*
X79814632Y-64851441D01*
X79821771Y-64853229D01*
X79828701Y-64855709D01*
X79835355Y-64858856D01*
X79841668Y-64862640D01*
X79847579Y-64867024D01*
X79853033Y-64871967D01*
X79857976Y-64877421D01*
X79862360Y-64883332D01*
X79866144Y-64889645D01*
X79869291Y-64896299D01*
X79871771Y-64903229D01*
X79873559Y-64910368D01*
X79874639Y-64917649D01*
X79875000Y-64925000D01*
X79875000Y-65075000D01*
X79874639Y-65082351D01*
X79873559Y-65089632D01*
X79871771Y-65096771D01*
X79869291Y-65103701D01*
X79866144Y-65110355D01*
X79862360Y-65116668D01*
X79857976Y-65122579D01*
X79853033Y-65128033D01*
X79847579Y-65132976D01*
X79841668Y-65137360D01*
X79835355Y-65141144D01*
X79828701Y-65144291D01*
X79821771Y-65146771D01*
X79814632Y-65148559D01*
X79807351Y-65149639D01*
X79800000Y-65150000D01*
X79100000Y-65150000D01*
X79092649Y-65149639D01*
X79085368Y-65148559D01*
X79078229Y-65146771D01*
X79071299Y-65144291D01*
X79064645Y-65141144D01*
X79058332Y-65137360D01*
X79052421Y-65132976D01*
X79046967Y-65128033D01*
X79042024Y-65122579D01*
X79037640Y-65116668D01*
X79033856Y-65110355D01*
X79030709Y-65103701D01*
X79028229Y-65096771D01*
X79026441Y-65089632D01*
X79025361Y-65082351D01*
X79025000Y-65075000D01*
X79025000Y-64925000D01*
X79025361Y-64917649D01*
X79026441Y-64910368D01*
X79028229Y-64903229D01*
X79030709Y-64896299D01*
X79033856Y-64889645D01*
X79037640Y-64883332D01*
X79042024Y-64877421D01*
X79046967Y-64871967D01*
X79052421Y-64867024D01*
X79058332Y-64862640D01*
X79064645Y-64858856D01*
X79071299Y-64855709D01*
X79078229Y-64853229D01*
X79085368Y-64851441D01*
X79092649Y-64850361D01*
X79100000Y-64850000D01*
X79800000Y-64850000D01*
X79807351Y-64850361D01*
X79807351Y-64850361D01*
G37*
D18*
X79450000Y-65000000D03*
D10*
G36*
X79807351Y-64350361D02*
X79814632Y-64351441D01*
X79821771Y-64353229D01*
X79828701Y-64355709D01*
X79835355Y-64358856D01*
X79841668Y-64362640D01*
X79847579Y-64367024D01*
X79853033Y-64371967D01*
X79857976Y-64377421D01*
X79862360Y-64383332D01*
X79866144Y-64389645D01*
X79869291Y-64396299D01*
X79871771Y-64403229D01*
X79873559Y-64410368D01*
X79874639Y-64417649D01*
X79875000Y-64425000D01*
X79875000Y-64575000D01*
X79874639Y-64582351D01*
X79873559Y-64589632D01*
X79871771Y-64596771D01*
X79869291Y-64603701D01*
X79866144Y-64610355D01*
X79862360Y-64616668D01*
X79857976Y-64622579D01*
X79853033Y-64628033D01*
X79847579Y-64632976D01*
X79841668Y-64637360D01*
X79835355Y-64641144D01*
X79828701Y-64644291D01*
X79821771Y-64646771D01*
X79814632Y-64648559D01*
X79807351Y-64649639D01*
X79800000Y-64650000D01*
X79100000Y-64650000D01*
X79092649Y-64649639D01*
X79085368Y-64648559D01*
X79078229Y-64646771D01*
X79071299Y-64644291D01*
X79064645Y-64641144D01*
X79058332Y-64637360D01*
X79052421Y-64632976D01*
X79046967Y-64628033D01*
X79042024Y-64622579D01*
X79037640Y-64616668D01*
X79033856Y-64610355D01*
X79030709Y-64603701D01*
X79028229Y-64596771D01*
X79026441Y-64589632D01*
X79025361Y-64582351D01*
X79025000Y-64575000D01*
X79025000Y-64425000D01*
X79025361Y-64417649D01*
X79026441Y-64410368D01*
X79028229Y-64403229D01*
X79030709Y-64396299D01*
X79033856Y-64389645D01*
X79037640Y-64383332D01*
X79042024Y-64377421D01*
X79046967Y-64371967D01*
X79052421Y-64367024D01*
X79058332Y-64362640D01*
X79064645Y-64358856D01*
X79071299Y-64355709D01*
X79078229Y-64353229D01*
X79085368Y-64351441D01*
X79092649Y-64350361D01*
X79100000Y-64350000D01*
X79800000Y-64350000D01*
X79807351Y-64350361D01*
X79807351Y-64350361D01*
G37*
D18*
X79450000Y-64500000D03*
D10*
G36*
X79807351Y-63850361D02*
X79814632Y-63851441D01*
X79821771Y-63853229D01*
X79828701Y-63855709D01*
X79835355Y-63858856D01*
X79841668Y-63862640D01*
X79847579Y-63867024D01*
X79853033Y-63871967D01*
X79857976Y-63877421D01*
X79862360Y-63883332D01*
X79866144Y-63889645D01*
X79869291Y-63896299D01*
X79871771Y-63903229D01*
X79873559Y-63910368D01*
X79874639Y-63917649D01*
X79875000Y-63925000D01*
X79875000Y-64075000D01*
X79874639Y-64082351D01*
X79873559Y-64089632D01*
X79871771Y-64096771D01*
X79869291Y-64103701D01*
X79866144Y-64110355D01*
X79862360Y-64116668D01*
X79857976Y-64122579D01*
X79853033Y-64128033D01*
X79847579Y-64132976D01*
X79841668Y-64137360D01*
X79835355Y-64141144D01*
X79828701Y-64144291D01*
X79821771Y-64146771D01*
X79814632Y-64148559D01*
X79807351Y-64149639D01*
X79800000Y-64150000D01*
X79100000Y-64150000D01*
X79092649Y-64149639D01*
X79085368Y-64148559D01*
X79078229Y-64146771D01*
X79071299Y-64144291D01*
X79064645Y-64141144D01*
X79058332Y-64137360D01*
X79052421Y-64132976D01*
X79046967Y-64128033D01*
X79042024Y-64122579D01*
X79037640Y-64116668D01*
X79033856Y-64110355D01*
X79030709Y-64103701D01*
X79028229Y-64096771D01*
X79026441Y-64089632D01*
X79025361Y-64082351D01*
X79025000Y-64075000D01*
X79025000Y-63925000D01*
X79025361Y-63917649D01*
X79026441Y-63910368D01*
X79028229Y-63903229D01*
X79030709Y-63896299D01*
X79033856Y-63889645D01*
X79037640Y-63883332D01*
X79042024Y-63877421D01*
X79046967Y-63871967D01*
X79052421Y-63867024D01*
X79058332Y-63862640D01*
X79064645Y-63858856D01*
X79071299Y-63855709D01*
X79078229Y-63853229D01*
X79085368Y-63851441D01*
X79092649Y-63850361D01*
X79100000Y-63850000D01*
X79800000Y-63850000D01*
X79807351Y-63850361D01*
X79807351Y-63850361D01*
G37*
D18*
X79450000Y-64000000D03*
D10*
G36*
X80232351Y-62875361D02*
X80239632Y-62876441D01*
X80246771Y-62878229D01*
X80253701Y-62880709D01*
X80260355Y-62883856D01*
X80266668Y-62887640D01*
X80272579Y-62892024D01*
X80278033Y-62896967D01*
X80282976Y-62902421D01*
X80287360Y-62908332D01*
X80291144Y-62914645D01*
X80294291Y-62921299D01*
X80296771Y-62928229D01*
X80298559Y-62935368D01*
X80299639Y-62942649D01*
X80300000Y-62950000D01*
X80300000Y-63650000D01*
X80299639Y-63657351D01*
X80298559Y-63664632D01*
X80296771Y-63671771D01*
X80294291Y-63678701D01*
X80291144Y-63685355D01*
X80287360Y-63691668D01*
X80282976Y-63697579D01*
X80278033Y-63703033D01*
X80272579Y-63707976D01*
X80266668Y-63712360D01*
X80260355Y-63716144D01*
X80253701Y-63719291D01*
X80246771Y-63721771D01*
X80239632Y-63723559D01*
X80232351Y-63724639D01*
X80225000Y-63725000D01*
X80075000Y-63725000D01*
X80067649Y-63724639D01*
X80060368Y-63723559D01*
X80053229Y-63721771D01*
X80046299Y-63719291D01*
X80039645Y-63716144D01*
X80033332Y-63712360D01*
X80027421Y-63707976D01*
X80021967Y-63703033D01*
X80017024Y-63697579D01*
X80012640Y-63691668D01*
X80008856Y-63685355D01*
X80005709Y-63678701D01*
X80003229Y-63671771D01*
X80001441Y-63664632D01*
X80000361Y-63657351D01*
X80000000Y-63650000D01*
X80000000Y-62950000D01*
X80000361Y-62942649D01*
X80001441Y-62935368D01*
X80003229Y-62928229D01*
X80005709Y-62921299D01*
X80008856Y-62914645D01*
X80012640Y-62908332D01*
X80017024Y-62902421D01*
X80021967Y-62896967D01*
X80027421Y-62892024D01*
X80033332Y-62887640D01*
X80039645Y-62883856D01*
X80046299Y-62880709D01*
X80053229Y-62878229D01*
X80060368Y-62876441D01*
X80067649Y-62875361D01*
X80075000Y-62875000D01*
X80225000Y-62875000D01*
X80232351Y-62875361D01*
X80232351Y-62875361D01*
G37*
D18*
X80150000Y-63300000D03*
D10*
G36*
X80732351Y-62875361D02*
X80739632Y-62876441D01*
X80746771Y-62878229D01*
X80753701Y-62880709D01*
X80760355Y-62883856D01*
X80766668Y-62887640D01*
X80772579Y-62892024D01*
X80778033Y-62896967D01*
X80782976Y-62902421D01*
X80787360Y-62908332D01*
X80791144Y-62914645D01*
X80794291Y-62921299D01*
X80796771Y-62928229D01*
X80798559Y-62935368D01*
X80799639Y-62942649D01*
X80800000Y-62950000D01*
X80800000Y-63650000D01*
X80799639Y-63657351D01*
X80798559Y-63664632D01*
X80796771Y-63671771D01*
X80794291Y-63678701D01*
X80791144Y-63685355D01*
X80787360Y-63691668D01*
X80782976Y-63697579D01*
X80778033Y-63703033D01*
X80772579Y-63707976D01*
X80766668Y-63712360D01*
X80760355Y-63716144D01*
X80753701Y-63719291D01*
X80746771Y-63721771D01*
X80739632Y-63723559D01*
X80732351Y-63724639D01*
X80725000Y-63725000D01*
X80575000Y-63725000D01*
X80567649Y-63724639D01*
X80560368Y-63723559D01*
X80553229Y-63721771D01*
X80546299Y-63719291D01*
X80539645Y-63716144D01*
X80533332Y-63712360D01*
X80527421Y-63707976D01*
X80521967Y-63703033D01*
X80517024Y-63697579D01*
X80512640Y-63691668D01*
X80508856Y-63685355D01*
X80505709Y-63678701D01*
X80503229Y-63671771D01*
X80501441Y-63664632D01*
X80500361Y-63657351D01*
X80500000Y-63650000D01*
X80500000Y-62950000D01*
X80500361Y-62942649D01*
X80501441Y-62935368D01*
X80503229Y-62928229D01*
X80505709Y-62921299D01*
X80508856Y-62914645D01*
X80512640Y-62908332D01*
X80517024Y-62902421D01*
X80521967Y-62896967D01*
X80527421Y-62892024D01*
X80533332Y-62887640D01*
X80539645Y-62883856D01*
X80546299Y-62880709D01*
X80553229Y-62878229D01*
X80560368Y-62876441D01*
X80567649Y-62875361D01*
X80575000Y-62875000D01*
X80725000Y-62875000D01*
X80732351Y-62875361D01*
X80732351Y-62875361D01*
G37*
D18*
X80650000Y-63300000D03*
D10*
G36*
X81232351Y-62875361D02*
X81239632Y-62876441D01*
X81246771Y-62878229D01*
X81253701Y-62880709D01*
X81260355Y-62883856D01*
X81266668Y-62887640D01*
X81272579Y-62892024D01*
X81278033Y-62896967D01*
X81282976Y-62902421D01*
X81287360Y-62908332D01*
X81291144Y-62914645D01*
X81294291Y-62921299D01*
X81296771Y-62928229D01*
X81298559Y-62935368D01*
X81299639Y-62942649D01*
X81300000Y-62950000D01*
X81300000Y-63650000D01*
X81299639Y-63657351D01*
X81298559Y-63664632D01*
X81296771Y-63671771D01*
X81294291Y-63678701D01*
X81291144Y-63685355D01*
X81287360Y-63691668D01*
X81282976Y-63697579D01*
X81278033Y-63703033D01*
X81272579Y-63707976D01*
X81266668Y-63712360D01*
X81260355Y-63716144D01*
X81253701Y-63719291D01*
X81246771Y-63721771D01*
X81239632Y-63723559D01*
X81232351Y-63724639D01*
X81225000Y-63725000D01*
X81075000Y-63725000D01*
X81067649Y-63724639D01*
X81060368Y-63723559D01*
X81053229Y-63721771D01*
X81046299Y-63719291D01*
X81039645Y-63716144D01*
X81033332Y-63712360D01*
X81027421Y-63707976D01*
X81021967Y-63703033D01*
X81017024Y-63697579D01*
X81012640Y-63691668D01*
X81008856Y-63685355D01*
X81005709Y-63678701D01*
X81003229Y-63671771D01*
X81001441Y-63664632D01*
X81000361Y-63657351D01*
X81000000Y-63650000D01*
X81000000Y-62950000D01*
X81000361Y-62942649D01*
X81001441Y-62935368D01*
X81003229Y-62928229D01*
X81005709Y-62921299D01*
X81008856Y-62914645D01*
X81012640Y-62908332D01*
X81017024Y-62902421D01*
X81021967Y-62896967D01*
X81027421Y-62892024D01*
X81033332Y-62887640D01*
X81039645Y-62883856D01*
X81046299Y-62880709D01*
X81053229Y-62878229D01*
X81060368Y-62876441D01*
X81067649Y-62875361D01*
X81075000Y-62875000D01*
X81225000Y-62875000D01*
X81232351Y-62875361D01*
X81232351Y-62875361D01*
G37*
D18*
X81150000Y-63300000D03*
D10*
G36*
X81732351Y-62875361D02*
X81739632Y-62876441D01*
X81746771Y-62878229D01*
X81753701Y-62880709D01*
X81760355Y-62883856D01*
X81766668Y-62887640D01*
X81772579Y-62892024D01*
X81778033Y-62896967D01*
X81782976Y-62902421D01*
X81787360Y-62908332D01*
X81791144Y-62914645D01*
X81794291Y-62921299D01*
X81796771Y-62928229D01*
X81798559Y-62935368D01*
X81799639Y-62942649D01*
X81800000Y-62950000D01*
X81800000Y-63650000D01*
X81799639Y-63657351D01*
X81798559Y-63664632D01*
X81796771Y-63671771D01*
X81794291Y-63678701D01*
X81791144Y-63685355D01*
X81787360Y-63691668D01*
X81782976Y-63697579D01*
X81778033Y-63703033D01*
X81772579Y-63707976D01*
X81766668Y-63712360D01*
X81760355Y-63716144D01*
X81753701Y-63719291D01*
X81746771Y-63721771D01*
X81739632Y-63723559D01*
X81732351Y-63724639D01*
X81725000Y-63725000D01*
X81575000Y-63725000D01*
X81567649Y-63724639D01*
X81560368Y-63723559D01*
X81553229Y-63721771D01*
X81546299Y-63719291D01*
X81539645Y-63716144D01*
X81533332Y-63712360D01*
X81527421Y-63707976D01*
X81521967Y-63703033D01*
X81517024Y-63697579D01*
X81512640Y-63691668D01*
X81508856Y-63685355D01*
X81505709Y-63678701D01*
X81503229Y-63671771D01*
X81501441Y-63664632D01*
X81500361Y-63657351D01*
X81500000Y-63650000D01*
X81500000Y-62950000D01*
X81500361Y-62942649D01*
X81501441Y-62935368D01*
X81503229Y-62928229D01*
X81505709Y-62921299D01*
X81508856Y-62914645D01*
X81512640Y-62908332D01*
X81517024Y-62902421D01*
X81521967Y-62896967D01*
X81527421Y-62892024D01*
X81533332Y-62887640D01*
X81539645Y-62883856D01*
X81546299Y-62880709D01*
X81553229Y-62878229D01*
X81560368Y-62876441D01*
X81567649Y-62875361D01*
X81575000Y-62875000D01*
X81725000Y-62875000D01*
X81732351Y-62875361D01*
X81732351Y-62875361D01*
G37*
D18*
X81650000Y-63300000D03*
D10*
G36*
X82232351Y-62875361D02*
X82239632Y-62876441D01*
X82246771Y-62878229D01*
X82253701Y-62880709D01*
X82260355Y-62883856D01*
X82266668Y-62887640D01*
X82272579Y-62892024D01*
X82278033Y-62896967D01*
X82282976Y-62902421D01*
X82287360Y-62908332D01*
X82291144Y-62914645D01*
X82294291Y-62921299D01*
X82296771Y-62928229D01*
X82298559Y-62935368D01*
X82299639Y-62942649D01*
X82300000Y-62950000D01*
X82300000Y-63650000D01*
X82299639Y-63657351D01*
X82298559Y-63664632D01*
X82296771Y-63671771D01*
X82294291Y-63678701D01*
X82291144Y-63685355D01*
X82287360Y-63691668D01*
X82282976Y-63697579D01*
X82278033Y-63703033D01*
X82272579Y-63707976D01*
X82266668Y-63712360D01*
X82260355Y-63716144D01*
X82253701Y-63719291D01*
X82246771Y-63721771D01*
X82239632Y-63723559D01*
X82232351Y-63724639D01*
X82225000Y-63725000D01*
X82075000Y-63725000D01*
X82067649Y-63724639D01*
X82060368Y-63723559D01*
X82053229Y-63721771D01*
X82046299Y-63719291D01*
X82039645Y-63716144D01*
X82033332Y-63712360D01*
X82027421Y-63707976D01*
X82021967Y-63703033D01*
X82017024Y-63697579D01*
X82012640Y-63691668D01*
X82008856Y-63685355D01*
X82005709Y-63678701D01*
X82003229Y-63671771D01*
X82001441Y-63664632D01*
X82000361Y-63657351D01*
X82000000Y-63650000D01*
X82000000Y-62950000D01*
X82000361Y-62942649D01*
X82001441Y-62935368D01*
X82003229Y-62928229D01*
X82005709Y-62921299D01*
X82008856Y-62914645D01*
X82012640Y-62908332D01*
X82017024Y-62902421D01*
X82021967Y-62896967D01*
X82027421Y-62892024D01*
X82033332Y-62887640D01*
X82039645Y-62883856D01*
X82046299Y-62880709D01*
X82053229Y-62878229D01*
X82060368Y-62876441D01*
X82067649Y-62875361D01*
X82075000Y-62875000D01*
X82225000Y-62875000D01*
X82232351Y-62875361D01*
X82232351Y-62875361D01*
G37*
D18*
X82150000Y-63300000D03*
D10*
G36*
X82732351Y-62875361D02*
X82739632Y-62876441D01*
X82746771Y-62878229D01*
X82753701Y-62880709D01*
X82760355Y-62883856D01*
X82766668Y-62887640D01*
X82772579Y-62892024D01*
X82778033Y-62896967D01*
X82782976Y-62902421D01*
X82787360Y-62908332D01*
X82791144Y-62914645D01*
X82794291Y-62921299D01*
X82796771Y-62928229D01*
X82798559Y-62935368D01*
X82799639Y-62942649D01*
X82800000Y-62950000D01*
X82800000Y-63650000D01*
X82799639Y-63657351D01*
X82798559Y-63664632D01*
X82796771Y-63671771D01*
X82794291Y-63678701D01*
X82791144Y-63685355D01*
X82787360Y-63691668D01*
X82782976Y-63697579D01*
X82778033Y-63703033D01*
X82772579Y-63707976D01*
X82766668Y-63712360D01*
X82760355Y-63716144D01*
X82753701Y-63719291D01*
X82746771Y-63721771D01*
X82739632Y-63723559D01*
X82732351Y-63724639D01*
X82725000Y-63725000D01*
X82575000Y-63725000D01*
X82567649Y-63724639D01*
X82560368Y-63723559D01*
X82553229Y-63721771D01*
X82546299Y-63719291D01*
X82539645Y-63716144D01*
X82533332Y-63712360D01*
X82527421Y-63707976D01*
X82521967Y-63703033D01*
X82517024Y-63697579D01*
X82512640Y-63691668D01*
X82508856Y-63685355D01*
X82505709Y-63678701D01*
X82503229Y-63671771D01*
X82501441Y-63664632D01*
X82500361Y-63657351D01*
X82500000Y-63650000D01*
X82500000Y-62950000D01*
X82500361Y-62942649D01*
X82501441Y-62935368D01*
X82503229Y-62928229D01*
X82505709Y-62921299D01*
X82508856Y-62914645D01*
X82512640Y-62908332D01*
X82517024Y-62902421D01*
X82521967Y-62896967D01*
X82527421Y-62892024D01*
X82533332Y-62887640D01*
X82539645Y-62883856D01*
X82546299Y-62880709D01*
X82553229Y-62878229D01*
X82560368Y-62876441D01*
X82567649Y-62875361D01*
X82575000Y-62875000D01*
X82725000Y-62875000D01*
X82732351Y-62875361D01*
X82732351Y-62875361D01*
G37*
D18*
X82650000Y-63300000D03*
D10*
G36*
X83707351Y-63850361D02*
X83714632Y-63851441D01*
X83721771Y-63853229D01*
X83728701Y-63855709D01*
X83735355Y-63858856D01*
X83741668Y-63862640D01*
X83747579Y-63867024D01*
X83753033Y-63871967D01*
X83757976Y-63877421D01*
X83762360Y-63883332D01*
X83766144Y-63889645D01*
X83769291Y-63896299D01*
X83771771Y-63903229D01*
X83773559Y-63910368D01*
X83774639Y-63917649D01*
X83775000Y-63925000D01*
X83775000Y-64075000D01*
X83774639Y-64082351D01*
X83773559Y-64089632D01*
X83771771Y-64096771D01*
X83769291Y-64103701D01*
X83766144Y-64110355D01*
X83762360Y-64116668D01*
X83757976Y-64122579D01*
X83753033Y-64128033D01*
X83747579Y-64132976D01*
X83741668Y-64137360D01*
X83735355Y-64141144D01*
X83728701Y-64144291D01*
X83721771Y-64146771D01*
X83714632Y-64148559D01*
X83707351Y-64149639D01*
X83700000Y-64150000D01*
X83000000Y-64150000D01*
X82992649Y-64149639D01*
X82985368Y-64148559D01*
X82978229Y-64146771D01*
X82971299Y-64144291D01*
X82964645Y-64141144D01*
X82958332Y-64137360D01*
X82952421Y-64132976D01*
X82946967Y-64128033D01*
X82942024Y-64122579D01*
X82937640Y-64116668D01*
X82933856Y-64110355D01*
X82930709Y-64103701D01*
X82928229Y-64096771D01*
X82926441Y-64089632D01*
X82925361Y-64082351D01*
X82925000Y-64075000D01*
X82925000Y-63925000D01*
X82925361Y-63917649D01*
X82926441Y-63910368D01*
X82928229Y-63903229D01*
X82930709Y-63896299D01*
X82933856Y-63889645D01*
X82937640Y-63883332D01*
X82942024Y-63877421D01*
X82946967Y-63871967D01*
X82952421Y-63867024D01*
X82958332Y-63862640D01*
X82964645Y-63858856D01*
X82971299Y-63855709D01*
X82978229Y-63853229D01*
X82985368Y-63851441D01*
X82992649Y-63850361D01*
X83000000Y-63850000D01*
X83700000Y-63850000D01*
X83707351Y-63850361D01*
X83707351Y-63850361D01*
G37*
D18*
X83350000Y-64000000D03*
D10*
G36*
X83707351Y-64350361D02*
X83714632Y-64351441D01*
X83721771Y-64353229D01*
X83728701Y-64355709D01*
X83735355Y-64358856D01*
X83741668Y-64362640D01*
X83747579Y-64367024D01*
X83753033Y-64371967D01*
X83757976Y-64377421D01*
X83762360Y-64383332D01*
X83766144Y-64389645D01*
X83769291Y-64396299D01*
X83771771Y-64403229D01*
X83773559Y-64410368D01*
X83774639Y-64417649D01*
X83775000Y-64425000D01*
X83775000Y-64575000D01*
X83774639Y-64582351D01*
X83773559Y-64589632D01*
X83771771Y-64596771D01*
X83769291Y-64603701D01*
X83766144Y-64610355D01*
X83762360Y-64616668D01*
X83757976Y-64622579D01*
X83753033Y-64628033D01*
X83747579Y-64632976D01*
X83741668Y-64637360D01*
X83735355Y-64641144D01*
X83728701Y-64644291D01*
X83721771Y-64646771D01*
X83714632Y-64648559D01*
X83707351Y-64649639D01*
X83700000Y-64650000D01*
X83000000Y-64650000D01*
X82992649Y-64649639D01*
X82985368Y-64648559D01*
X82978229Y-64646771D01*
X82971299Y-64644291D01*
X82964645Y-64641144D01*
X82958332Y-64637360D01*
X82952421Y-64632976D01*
X82946967Y-64628033D01*
X82942024Y-64622579D01*
X82937640Y-64616668D01*
X82933856Y-64610355D01*
X82930709Y-64603701D01*
X82928229Y-64596771D01*
X82926441Y-64589632D01*
X82925361Y-64582351D01*
X82925000Y-64575000D01*
X82925000Y-64425000D01*
X82925361Y-64417649D01*
X82926441Y-64410368D01*
X82928229Y-64403229D01*
X82930709Y-64396299D01*
X82933856Y-64389645D01*
X82937640Y-64383332D01*
X82942024Y-64377421D01*
X82946967Y-64371967D01*
X82952421Y-64367024D01*
X82958332Y-64362640D01*
X82964645Y-64358856D01*
X82971299Y-64355709D01*
X82978229Y-64353229D01*
X82985368Y-64351441D01*
X82992649Y-64350361D01*
X83000000Y-64350000D01*
X83700000Y-64350000D01*
X83707351Y-64350361D01*
X83707351Y-64350361D01*
G37*
D18*
X83350000Y-64500000D03*
D10*
G36*
X83707351Y-64850361D02*
X83714632Y-64851441D01*
X83721771Y-64853229D01*
X83728701Y-64855709D01*
X83735355Y-64858856D01*
X83741668Y-64862640D01*
X83747579Y-64867024D01*
X83753033Y-64871967D01*
X83757976Y-64877421D01*
X83762360Y-64883332D01*
X83766144Y-64889645D01*
X83769291Y-64896299D01*
X83771771Y-64903229D01*
X83773559Y-64910368D01*
X83774639Y-64917649D01*
X83775000Y-64925000D01*
X83775000Y-65075000D01*
X83774639Y-65082351D01*
X83773559Y-65089632D01*
X83771771Y-65096771D01*
X83769291Y-65103701D01*
X83766144Y-65110355D01*
X83762360Y-65116668D01*
X83757976Y-65122579D01*
X83753033Y-65128033D01*
X83747579Y-65132976D01*
X83741668Y-65137360D01*
X83735355Y-65141144D01*
X83728701Y-65144291D01*
X83721771Y-65146771D01*
X83714632Y-65148559D01*
X83707351Y-65149639D01*
X83700000Y-65150000D01*
X83000000Y-65150000D01*
X82992649Y-65149639D01*
X82985368Y-65148559D01*
X82978229Y-65146771D01*
X82971299Y-65144291D01*
X82964645Y-65141144D01*
X82958332Y-65137360D01*
X82952421Y-65132976D01*
X82946967Y-65128033D01*
X82942024Y-65122579D01*
X82937640Y-65116668D01*
X82933856Y-65110355D01*
X82930709Y-65103701D01*
X82928229Y-65096771D01*
X82926441Y-65089632D01*
X82925361Y-65082351D01*
X82925000Y-65075000D01*
X82925000Y-64925000D01*
X82925361Y-64917649D01*
X82926441Y-64910368D01*
X82928229Y-64903229D01*
X82930709Y-64896299D01*
X82933856Y-64889645D01*
X82937640Y-64883332D01*
X82942024Y-64877421D01*
X82946967Y-64871967D01*
X82952421Y-64867024D01*
X82958332Y-64862640D01*
X82964645Y-64858856D01*
X82971299Y-64855709D01*
X82978229Y-64853229D01*
X82985368Y-64851441D01*
X82992649Y-64850361D01*
X83000000Y-64850000D01*
X83700000Y-64850000D01*
X83707351Y-64850361D01*
X83707351Y-64850361D01*
G37*
D18*
X83350000Y-65000000D03*
D10*
G36*
X83707351Y-65350361D02*
X83714632Y-65351441D01*
X83721771Y-65353229D01*
X83728701Y-65355709D01*
X83735355Y-65358856D01*
X83741668Y-65362640D01*
X83747579Y-65367024D01*
X83753033Y-65371967D01*
X83757976Y-65377421D01*
X83762360Y-65383332D01*
X83766144Y-65389645D01*
X83769291Y-65396299D01*
X83771771Y-65403229D01*
X83773559Y-65410368D01*
X83774639Y-65417649D01*
X83775000Y-65425000D01*
X83775000Y-65575000D01*
X83774639Y-65582351D01*
X83773559Y-65589632D01*
X83771771Y-65596771D01*
X83769291Y-65603701D01*
X83766144Y-65610355D01*
X83762360Y-65616668D01*
X83757976Y-65622579D01*
X83753033Y-65628033D01*
X83747579Y-65632976D01*
X83741668Y-65637360D01*
X83735355Y-65641144D01*
X83728701Y-65644291D01*
X83721771Y-65646771D01*
X83714632Y-65648559D01*
X83707351Y-65649639D01*
X83700000Y-65650000D01*
X83000000Y-65650000D01*
X82992649Y-65649639D01*
X82985368Y-65648559D01*
X82978229Y-65646771D01*
X82971299Y-65644291D01*
X82964645Y-65641144D01*
X82958332Y-65637360D01*
X82952421Y-65632976D01*
X82946967Y-65628033D01*
X82942024Y-65622579D01*
X82937640Y-65616668D01*
X82933856Y-65610355D01*
X82930709Y-65603701D01*
X82928229Y-65596771D01*
X82926441Y-65589632D01*
X82925361Y-65582351D01*
X82925000Y-65575000D01*
X82925000Y-65425000D01*
X82925361Y-65417649D01*
X82926441Y-65410368D01*
X82928229Y-65403229D01*
X82930709Y-65396299D01*
X82933856Y-65389645D01*
X82937640Y-65383332D01*
X82942024Y-65377421D01*
X82946967Y-65371967D01*
X82952421Y-65367024D01*
X82958332Y-65362640D01*
X82964645Y-65358856D01*
X82971299Y-65355709D01*
X82978229Y-65353229D01*
X82985368Y-65351441D01*
X82992649Y-65350361D01*
X83000000Y-65350000D01*
X83700000Y-65350000D01*
X83707351Y-65350361D01*
X83707351Y-65350361D01*
G37*
D18*
X83350000Y-65500000D03*
D10*
G36*
X83707351Y-65850361D02*
X83714632Y-65851441D01*
X83721771Y-65853229D01*
X83728701Y-65855709D01*
X83735355Y-65858856D01*
X83741668Y-65862640D01*
X83747579Y-65867024D01*
X83753033Y-65871967D01*
X83757976Y-65877421D01*
X83762360Y-65883332D01*
X83766144Y-65889645D01*
X83769291Y-65896299D01*
X83771771Y-65903229D01*
X83773559Y-65910368D01*
X83774639Y-65917649D01*
X83775000Y-65925000D01*
X83775000Y-66075000D01*
X83774639Y-66082351D01*
X83773559Y-66089632D01*
X83771771Y-66096771D01*
X83769291Y-66103701D01*
X83766144Y-66110355D01*
X83762360Y-66116668D01*
X83757976Y-66122579D01*
X83753033Y-66128033D01*
X83747579Y-66132976D01*
X83741668Y-66137360D01*
X83735355Y-66141144D01*
X83728701Y-66144291D01*
X83721771Y-66146771D01*
X83714632Y-66148559D01*
X83707351Y-66149639D01*
X83700000Y-66150000D01*
X83000000Y-66150000D01*
X82992649Y-66149639D01*
X82985368Y-66148559D01*
X82978229Y-66146771D01*
X82971299Y-66144291D01*
X82964645Y-66141144D01*
X82958332Y-66137360D01*
X82952421Y-66132976D01*
X82946967Y-66128033D01*
X82942024Y-66122579D01*
X82937640Y-66116668D01*
X82933856Y-66110355D01*
X82930709Y-66103701D01*
X82928229Y-66096771D01*
X82926441Y-66089632D01*
X82925361Y-66082351D01*
X82925000Y-66075000D01*
X82925000Y-65925000D01*
X82925361Y-65917649D01*
X82926441Y-65910368D01*
X82928229Y-65903229D01*
X82930709Y-65896299D01*
X82933856Y-65889645D01*
X82937640Y-65883332D01*
X82942024Y-65877421D01*
X82946967Y-65871967D01*
X82952421Y-65867024D01*
X82958332Y-65862640D01*
X82964645Y-65858856D01*
X82971299Y-65855709D01*
X82978229Y-65853229D01*
X82985368Y-65851441D01*
X82992649Y-65850361D01*
X83000000Y-65850000D01*
X83700000Y-65850000D01*
X83707351Y-65850361D01*
X83707351Y-65850361D01*
G37*
D18*
X83350000Y-66000000D03*
D10*
G36*
X83707351Y-66350361D02*
X83714632Y-66351441D01*
X83721771Y-66353229D01*
X83728701Y-66355709D01*
X83735355Y-66358856D01*
X83741668Y-66362640D01*
X83747579Y-66367024D01*
X83753033Y-66371967D01*
X83757976Y-66377421D01*
X83762360Y-66383332D01*
X83766144Y-66389645D01*
X83769291Y-66396299D01*
X83771771Y-66403229D01*
X83773559Y-66410368D01*
X83774639Y-66417649D01*
X83775000Y-66425000D01*
X83775000Y-66575000D01*
X83774639Y-66582351D01*
X83773559Y-66589632D01*
X83771771Y-66596771D01*
X83769291Y-66603701D01*
X83766144Y-66610355D01*
X83762360Y-66616668D01*
X83757976Y-66622579D01*
X83753033Y-66628033D01*
X83747579Y-66632976D01*
X83741668Y-66637360D01*
X83735355Y-66641144D01*
X83728701Y-66644291D01*
X83721771Y-66646771D01*
X83714632Y-66648559D01*
X83707351Y-66649639D01*
X83700000Y-66650000D01*
X83000000Y-66650000D01*
X82992649Y-66649639D01*
X82985368Y-66648559D01*
X82978229Y-66646771D01*
X82971299Y-66644291D01*
X82964645Y-66641144D01*
X82958332Y-66637360D01*
X82952421Y-66632976D01*
X82946967Y-66628033D01*
X82942024Y-66622579D01*
X82937640Y-66616668D01*
X82933856Y-66610355D01*
X82930709Y-66603701D01*
X82928229Y-66596771D01*
X82926441Y-66589632D01*
X82925361Y-66582351D01*
X82925000Y-66575000D01*
X82925000Y-66425000D01*
X82925361Y-66417649D01*
X82926441Y-66410368D01*
X82928229Y-66403229D01*
X82930709Y-66396299D01*
X82933856Y-66389645D01*
X82937640Y-66383332D01*
X82942024Y-66377421D01*
X82946967Y-66371967D01*
X82952421Y-66367024D01*
X82958332Y-66362640D01*
X82964645Y-66358856D01*
X82971299Y-66355709D01*
X82978229Y-66353229D01*
X82985368Y-66351441D01*
X82992649Y-66350361D01*
X83000000Y-66350000D01*
X83700000Y-66350000D01*
X83707351Y-66350361D01*
X83707351Y-66350361D01*
G37*
D18*
X83350000Y-66500000D03*
G04 #@! TD*
D10*
G04 #@! TO.C,C8*
G36*
X92049504Y-58601204D02*
X92073773Y-58604804D01*
X92097571Y-58610765D01*
X92120671Y-58619030D01*
X92142849Y-58629520D01*
X92163893Y-58642133D01*
X92183598Y-58656747D01*
X92201777Y-58673223D01*
X92218253Y-58691402D01*
X92232867Y-58711107D01*
X92245480Y-58732151D01*
X92255970Y-58754329D01*
X92264235Y-58777429D01*
X92270196Y-58801227D01*
X92273796Y-58825496D01*
X92275000Y-58850000D01*
X92275000Y-59775000D01*
X92273796Y-59799504D01*
X92270196Y-59823773D01*
X92264235Y-59847571D01*
X92255970Y-59870671D01*
X92245480Y-59892849D01*
X92232867Y-59913893D01*
X92218253Y-59933598D01*
X92201777Y-59951777D01*
X92183598Y-59968253D01*
X92163893Y-59982867D01*
X92142849Y-59995480D01*
X92120671Y-60005970D01*
X92097571Y-60014235D01*
X92073773Y-60020196D01*
X92049504Y-60023796D01*
X92025000Y-60025000D01*
X90775000Y-60025000D01*
X90750496Y-60023796D01*
X90726227Y-60020196D01*
X90702429Y-60014235D01*
X90679329Y-60005970D01*
X90657151Y-59995480D01*
X90636107Y-59982867D01*
X90616402Y-59968253D01*
X90598223Y-59951777D01*
X90581747Y-59933598D01*
X90567133Y-59913893D01*
X90554520Y-59892849D01*
X90544030Y-59870671D01*
X90535765Y-59847571D01*
X90529804Y-59823773D01*
X90526204Y-59799504D01*
X90525000Y-59775000D01*
X90525000Y-58850000D01*
X90526204Y-58825496D01*
X90529804Y-58801227D01*
X90535765Y-58777429D01*
X90544030Y-58754329D01*
X90554520Y-58732151D01*
X90567133Y-58711107D01*
X90581747Y-58691402D01*
X90598223Y-58673223D01*
X90616402Y-58656747D01*
X90636107Y-58642133D01*
X90657151Y-58629520D01*
X90679329Y-58619030D01*
X90702429Y-58610765D01*
X90726227Y-58604804D01*
X90750496Y-58601204D01*
X90775000Y-58600000D01*
X92025000Y-58600000D01*
X92049504Y-58601204D01*
X92049504Y-58601204D01*
G37*
D11*
X91400000Y-59312500D03*
D10*
G36*
X92049504Y-61576204D02*
X92073773Y-61579804D01*
X92097571Y-61585765D01*
X92120671Y-61594030D01*
X92142849Y-61604520D01*
X92163893Y-61617133D01*
X92183598Y-61631747D01*
X92201777Y-61648223D01*
X92218253Y-61666402D01*
X92232867Y-61686107D01*
X92245480Y-61707151D01*
X92255970Y-61729329D01*
X92264235Y-61752429D01*
X92270196Y-61776227D01*
X92273796Y-61800496D01*
X92275000Y-61825000D01*
X92275000Y-62750000D01*
X92273796Y-62774504D01*
X92270196Y-62798773D01*
X92264235Y-62822571D01*
X92255970Y-62845671D01*
X92245480Y-62867849D01*
X92232867Y-62888893D01*
X92218253Y-62908598D01*
X92201777Y-62926777D01*
X92183598Y-62943253D01*
X92163893Y-62957867D01*
X92142849Y-62970480D01*
X92120671Y-62980970D01*
X92097571Y-62989235D01*
X92073773Y-62995196D01*
X92049504Y-62998796D01*
X92025000Y-63000000D01*
X90775000Y-63000000D01*
X90750496Y-62998796D01*
X90726227Y-62995196D01*
X90702429Y-62989235D01*
X90679329Y-62980970D01*
X90657151Y-62970480D01*
X90636107Y-62957867D01*
X90616402Y-62943253D01*
X90598223Y-62926777D01*
X90581747Y-62908598D01*
X90567133Y-62888893D01*
X90554520Y-62867849D01*
X90544030Y-62845671D01*
X90535765Y-62822571D01*
X90529804Y-62798773D01*
X90526204Y-62774504D01*
X90525000Y-62750000D01*
X90525000Y-61825000D01*
X90526204Y-61800496D01*
X90529804Y-61776227D01*
X90535765Y-61752429D01*
X90544030Y-61729329D01*
X90554520Y-61707151D01*
X90567133Y-61686107D01*
X90581747Y-61666402D01*
X90598223Y-61648223D01*
X90616402Y-61631747D01*
X90636107Y-61617133D01*
X90657151Y-61604520D01*
X90679329Y-61594030D01*
X90702429Y-61585765D01*
X90726227Y-61579804D01*
X90750496Y-61576204D01*
X90775000Y-61575000D01*
X92025000Y-61575000D01*
X92049504Y-61576204D01*
X92049504Y-61576204D01*
G37*
D11*
X91400000Y-62287500D03*
G04 #@! TD*
D10*
G04 #@! TO.C,C9*
G36*
X75699504Y-58401204D02*
X75723773Y-58404804D01*
X75747571Y-58410765D01*
X75770671Y-58419030D01*
X75792849Y-58429520D01*
X75813893Y-58442133D01*
X75833598Y-58456747D01*
X75851777Y-58473223D01*
X75868253Y-58491402D01*
X75882867Y-58511107D01*
X75895480Y-58532151D01*
X75905970Y-58554329D01*
X75914235Y-58577429D01*
X75920196Y-58601227D01*
X75923796Y-58625496D01*
X75925000Y-58650000D01*
X75925000Y-59575000D01*
X75923796Y-59599504D01*
X75920196Y-59623773D01*
X75914235Y-59647571D01*
X75905970Y-59670671D01*
X75895480Y-59692849D01*
X75882867Y-59713893D01*
X75868253Y-59733598D01*
X75851777Y-59751777D01*
X75833598Y-59768253D01*
X75813893Y-59782867D01*
X75792849Y-59795480D01*
X75770671Y-59805970D01*
X75747571Y-59814235D01*
X75723773Y-59820196D01*
X75699504Y-59823796D01*
X75675000Y-59825000D01*
X74425000Y-59825000D01*
X74400496Y-59823796D01*
X74376227Y-59820196D01*
X74352429Y-59814235D01*
X74329329Y-59805970D01*
X74307151Y-59795480D01*
X74286107Y-59782867D01*
X74266402Y-59768253D01*
X74248223Y-59751777D01*
X74231747Y-59733598D01*
X74217133Y-59713893D01*
X74204520Y-59692849D01*
X74194030Y-59670671D01*
X74185765Y-59647571D01*
X74179804Y-59623773D01*
X74176204Y-59599504D01*
X74175000Y-59575000D01*
X74175000Y-58650000D01*
X74176204Y-58625496D01*
X74179804Y-58601227D01*
X74185765Y-58577429D01*
X74194030Y-58554329D01*
X74204520Y-58532151D01*
X74217133Y-58511107D01*
X74231747Y-58491402D01*
X74248223Y-58473223D01*
X74266402Y-58456747D01*
X74286107Y-58442133D01*
X74307151Y-58429520D01*
X74329329Y-58419030D01*
X74352429Y-58410765D01*
X74376227Y-58404804D01*
X74400496Y-58401204D01*
X74425000Y-58400000D01*
X75675000Y-58400000D01*
X75699504Y-58401204D01*
X75699504Y-58401204D01*
G37*
D11*
X75050000Y-59112500D03*
D10*
G36*
X75699504Y-61376204D02*
X75723773Y-61379804D01*
X75747571Y-61385765D01*
X75770671Y-61394030D01*
X75792849Y-61404520D01*
X75813893Y-61417133D01*
X75833598Y-61431747D01*
X75851777Y-61448223D01*
X75868253Y-61466402D01*
X75882867Y-61486107D01*
X75895480Y-61507151D01*
X75905970Y-61529329D01*
X75914235Y-61552429D01*
X75920196Y-61576227D01*
X75923796Y-61600496D01*
X75925000Y-61625000D01*
X75925000Y-62550000D01*
X75923796Y-62574504D01*
X75920196Y-62598773D01*
X75914235Y-62622571D01*
X75905970Y-62645671D01*
X75895480Y-62667849D01*
X75882867Y-62688893D01*
X75868253Y-62708598D01*
X75851777Y-62726777D01*
X75833598Y-62743253D01*
X75813893Y-62757867D01*
X75792849Y-62770480D01*
X75770671Y-62780970D01*
X75747571Y-62789235D01*
X75723773Y-62795196D01*
X75699504Y-62798796D01*
X75675000Y-62800000D01*
X74425000Y-62800000D01*
X74400496Y-62798796D01*
X74376227Y-62795196D01*
X74352429Y-62789235D01*
X74329329Y-62780970D01*
X74307151Y-62770480D01*
X74286107Y-62757867D01*
X74266402Y-62743253D01*
X74248223Y-62726777D01*
X74231747Y-62708598D01*
X74217133Y-62688893D01*
X74204520Y-62667849D01*
X74194030Y-62645671D01*
X74185765Y-62622571D01*
X74179804Y-62598773D01*
X74176204Y-62574504D01*
X74175000Y-62550000D01*
X74175000Y-61625000D01*
X74176204Y-61600496D01*
X74179804Y-61576227D01*
X74185765Y-61552429D01*
X74194030Y-61529329D01*
X74204520Y-61507151D01*
X74217133Y-61486107D01*
X74231747Y-61466402D01*
X74248223Y-61448223D01*
X74266402Y-61431747D01*
X74286107Y-61417133D01*
X74307151Y-61404520D01*
X74329329Y-61394030D01*
X74352429Y-61385765D01*
X74376227Y-61379804D01*
X74400496Y-61376204D01*
X74425000Y-61375000D01*
X75675000Y-61375000D01*
X75699504Y-61376204D01*
X75699504Y-61376204D01*
G37*
D11*
X75050000Y-62087500D03*
G04 #@! TD*
D10*
G04 #@! TO.C,C10*
G36*
X73149504Y-61326204D02*
X73173773Y-61329804D01*
X73197571Y-61335765D01*
X73220671Y-61344030D01*
X73242849Y-61354520D01*
X73263893Y-61367133D01*
X73283598Y-61381747D01*
X73301777Y-61398223D01*
X73318253Y-61416402D01*
X73332867Y-61436107D01*
X73345480Y-61457151D01*
X73355970Y-61479329D01*
X73364235Y-61502429D01*
X73370196Y-61526227D01*
X73373796Y-61550496D01*
X73375000Y-61575000D01*
X73375000Y-62500000D01*
X73373796Y-62524504D01*
X73370196Y-62548773D01*
X73364235Y-62572571D01*
X73355970Y-62595671D01*
X73345480Y-62617849D01*
X73332867Y-62638893D01*
X73318253Y-62658598D01*
X73301777Y-62676777D01*
X73283598Y-62693253D01*
X73263893Y-62707867D01*
X73242849Y-62720480D01*
X73220671Y-62730970D01*
X73197571Y-62739235D01*
X73173773Y-62745196D01*
X73149504Y-62748796D01*
X73125000Y-62750000D01*
X71875000Y-62750000D01*
X71850496Y-62748796D01*
X71826227Y-62745196D01*
X71802429Y-62739235D01*
X71779329Y-62730970D01*
X71757151Y-62720480D01*
X71736107Y-62707867D01*
X71716402Y-62693253D01*
X71698223Y-62676777D01*
X71681747Y-62658598D01*
X71667133Y-62638893D01*
X71654520Y-62617849D01*
X71644030Y-62595671D01*
X71635765Y-62572571D01*
X71629804Y-62548773D01*
X71626204Y-62524504D01*
X71625000Y-62500000D01*
X71625000Y-61575000D01*
X71626204Y-61550496D01*
X71629804Y-61526227D01*
X71635765Y-61502429D01*
X71644030Y-61479329D01*
X71654520Y-61457151D01*
X71667133Y-61436107D01*
X71681747Y-61416402D01*
X71698223Y-61398223D01*
X71716402Y-61381747D01*
X71736107Y-61367133D01*
X71757151Y-61354520D01*
X71779329Y-61344030D01*
X71802429Y-61335765D01*
X71826227Y-61329804D01*
X71850496Y-61326204D01*
X71875000Y-61325000D01*
X73125000Y-61325000D01*
X73149504Y-61326204D01*
X73149504Y-61326204D01*
G37*
D11*
X72500000Y-62037500D03*
D10*
G36*
X73149504Y-58351204D02*
X73173773Y-58354804D01*
X73197571Y-58360765D01*
X73220671Y-58369030D01*
X73242849Y-58379520D01*
X73263893Y-58392133D01*
X73283598Y-58406747D01*
X73301777Y-58423223D01*
X73318253Y-58441402D01*
X73332867Y-58461107D01*
X73345480Y-58482151D01*
X73355970Y-58504329D01*
X73364235Y-58527429D01*
X73370196Y-58551227D01*
X73373796Y-58575496D01*
X73375000Y-58600000D01*
X73375000Y-59525000D01*
X73373796Y-59549504D01*
X73370196Y-59573773D01*
X73364235Y-59597571D01*
X73355970Y-59620671D01*
X73345480Y-59642849D01*
X73332867Y-59663893D01*
X73318253Y-59683598D01*
X73301777Y-59701777D01*
X73283598Y-59718253D01*
X73263893Y-59732867D01*
X73242849Y-59745480D01*
X73220671Y-59755970D01*
X73197571Y-59764235D01*
X73173773Y-59770196D01*
X73149504Y-59773796D01*
X73125000Y-59775000D01*
X71875000Y-59775000D01*
X71850496Y-59773796D01*
X71826227Y-59770196D01*
X71802429Y-59764235D01*
X71779329Y-59755970D01*
X71757151Y-59745480D01*
X71736107Y-59732867D01*
X71716402Y-59718253D01*
X71698223Y-59701777D01*
X71681747Y-59683598D01*
X71667133Y-59663893D01*
X71654520Y-59642849D01*
X71644030Y-59620671D01*
X71635765Y-59597571D01*
X71629804Y-59573773D01*
X71626204Y-59549504D01*
X71625000Y-59525000D01*
X71625000Y-58600000D01*
X71626204Y-58575496D01*
X71629804Y-58551227D01*
X71635765Y-58527429D01*
X71644030Y-58504329D01*
X71654520Y-58482151D01*
X71667133Y-58461107D01*
X71681747Y-58441402D01*
X71698223Y-58423223D01*
X71716402Y-58406747D01*
X71736107Y-58392133D01*
X71757151Y-58379520D01*
X71779329Y-58369030D01*
X71802429Y-58360765D01*
X71826227Y-58354804D01*
X71850496Y-58351204D01*
X71875000Y-58350000D01*
X73125000Y-58350000D01*
X73149504Y-58351204D01*
X73149504Y-58351204D01*
G37*
D11*
X72500000Y-59062500D03*
G04 #@! TD*
D10*
G04 #@! TO.C,C11*
G36*
X89749504Y-61576204D02*
X89773773Y-61579804D01*
X89797571Y-61585765D01*
X89820671Y-61594030D01*
X89842849Y-61604520D01*
X89863893Y-61617133D01*
X89883598Y-61631747D01*
X89901777Y-61648223D01*
X89918253Y-61666402D01*
X89932867Y-61686107D01*
X89945480Y-61707151D01*
X89955970Y-61729329D01*
X89964235Y-61752429D01*
X89970196Y-61776227D01*
X89973796Y-61800496D01*
X89975000Y-61825000D01*
X89975000Y-62750000D01*
X89973796Y-62774504D01*
X89970196Y-62798773D01*
X89964235Y-62822571D01*
X89955970Y-62845671D01*
X89945480Y-62867849D01*
X89932867Y-62888893D01*
X89918253Y-62908598D01*
X89901777Y-62926777D01*
X89883598Y-62943253D01*
X89863893Y-62957867D01*
X89842849Y-62970480D01*
X89820671Y-62980970D01*
X89797571Y-62989235D01*
X89773773Y-62995196D01*
X89749504Y-62998796D01*
X89725000Y-63000000D01*
X88475000Y-63000000D01*
X88450496Y-62998796D01*
X88426227Y-62995196D01*
X88402429Y-62989235D01*
X88379329Y-62980970D01*
X88357151Y-62970480D01*
X88336107Y-62957867D01*
X88316402Y-62943253D01*
X88298223Y-62926777D01*
X88281747Y-62908598D01*
X88267133Y-62888893D01*
X88254520Y-62867849D01*
X88244030Y-62845671D01*
X88235765Y-62822571D01*
X88229804Y-62798773D01*
X88226204Y-62774504D01*
X88225000Y-62750000D01*
X88225000Y-61825000D01*
X88226204Y-61800496D01*
X88229804Y-61776227D01*
X88235765Y-61752429D01*
X88244030Y-61729329D01*
X88254520Y-61707151D01*
X88267133Y-61686107D01*
X88281747Y-61666402D01*
X88298223Y-61648223D01*
X88316402Y-61631747D01*
X88336107Y-61617133D01*
X88357151Y-61604520D01*
X88379329Y-61594030D01*
X88402429Y-61585765D01*
X88426227Y-61579804D01*
X88450496Y-61576204D01*
X88475000Y-61575000D01*
X89725000Y-61575000D01*
X89749504Y-61576204D01*
X89749504Y-61576204D01*
G37*
D11*
X89100000Y-62287500D03*
D10*
G36*
X89749504Y-58601204D02*
X89773773Y-58604804D01*
X89797571Y-58610765D01*
X89820671Y-58619030D01*
X89842849Y-58629520D01*
X89863893Y-58642133D01*
X89883598Y-58656747D01*
X89901777Y-58673223D01*
X89918253Y-58691402D01*
X89932867Y-58711107D01*
X89945480Y-58732151D01*
X89955970Y-58754329D01*
X89964235Y-58777429D01*
X89970196Y-58801227D01*
X89973796Y-58825496D01*
X89975000Y-58850000D01*
X89975000Y-59775000D01*
X89973796Y-59799504D01*
X89970196Y-59823773D01*
X89964235Y-59847571D01*
X89955970Y-59870671D01*
X89945480Y-59892849D01*
X89932867Y-59913893D01*
X89918253Y-59933598D01*
X89901777Y-59951777D01*
X89883598Y-59968253D01*
X89863893Y-59982867D01*
X89842849Y-59995480D01*
X89820671Y-60005970D01*
X89797571Y-60014235D01*
X89773773Y-60020196D01*
X89749504Y-60023796D01*
X89725000Y-60025000D01*
X88475000Y-60025000D01*
X88450496Y-60023796D01*
X88426227Y-60020196D01*
X88402429Y-60014235D01*
X88379329Y-60005970D01*
X88357151Y-59995480D01*
X88336107Y-59982867D01*
X88316402Y-59968253D01*
X88298223Y-59951777D01*
X88281747Y-59933598D01*
X88267133Y-59913893D01*
X88254520Y-59892849D01*
X88244030Y-59870671D01*
X88235765Y-59847571D01*
X88229804Y-59823773D01*
X88226204Y-59799504D01*
X88225000Y-59775000D01*
X88225000Y-58850000D01*
X88226204Y-58825496D01*
X88229804Y-58801227D01*
X88235765Y-58777429D01*
X88244030Y-58754329D01*
X88254520Y-58732151D01*
X88267133Y-58711107D01*
X88281747Y-58691402D01*
X88298223Y-58673223D01*
X88316402Y-58656747D01*
X88336107Y-58642133D01*
X88357151Y-58629520D01*
X88379329Y-58619030D01*
X88402429Y-58610765D01*
X88426227Y-58604804D01*
X88450496Y-58601204D01*
X88475000Y-58600000D01*
X89725000Y-58600000D01*
X89749504Y-58601204D01*
X89749504Y-58601204D01*
G37*
D11*
X89100000Y-59312500D03*
G04 #@! TD*
D10*
G04 #@! TO.C,C12*
G36*
X94349504Y-61526204D02*
X94373773Y-61529804D01*
X94397571Y-61535765D01*
X94420671Y-61544030D01*
X94442849Y-61554520D01*
X94463893Y-61567133D01*
X94483598Y-61581747D01*
X94501777Y-61598223D01*
X94518253Y-61616402D01*
X94532867Y-61636107D01*
X94545480Y-61657151D01*
X94555970Y-61679329D01*
X94564235Y-61702429D01*
X94570196Y-61726227D01*
X94573796Y-61750496D01*
X94575000Y-61775000D01*
X94575000Y-62700000D01*
X94573796Y-62724504D01*
X94570196Y-62748773D01*
X94564235Y-62772571D01*
X94555970Y-62795671D01*
X94545480Y-62817849D01*
X94532867Y-62838893D01*
X94518253Y-62858598D01*
X94501777Y-62876777D01*
X94483598Y-62893253D01*
X94463893Y-62907867D01*
X94442849Y-62920480D01*
X94420671Y-62930970D01*
X94397571Y-62939235D01*
X94373773Y-62945196D01*
X94349504Y-62948796D01*
X94325000Y-62950000D01*
X93075000Y-62950000D01*
X93050496Y-62948796D01*
X93026227Y-62945196D01*
X93002429Y-62939235D01*
X92979329Y-62930970D01*
X92957151Y-62920480D01*
X92936107Y-62907867D01*
X92916402Y-62893253D01*
X92898223Y-62876777D01*
X92881747Y-62858598D01*
X92867133Y-62838893D01*
X92854520Y-62817849D01*
X92844030Y-62795671D01*
X92835765Y-62772571D01*
X92829804Y-62748773D01*
X92826204Y-62724504D01*
X92825000Y-62700000D01*
X92825000Y-61775000D01*
X92826204Y-61750496D01*
X92829804Y-61726227D01*
X92835765Y-61702429D01*
X92844030Y-61679329D01*
X92854520Y-61657151D01*
X92867133Y-61636107D01*
X92881747Y-61616402D01*
X92898223Y-61598223D01*
X92916402Y-61581747D01*
X92936107Y-61567133D01*
X92957151Y-61554520D01*
X92979329Y-61544030D01*
X93002429Y-61535765D01*
X93026227Y-61529804D01*
X93050496Y-61526204D01*
X93075000Y-61525000D01*
X94325000Y-61525000D01*
X94349504Y-61526204D01*
X94349504Y-61526204D01*
G37*
D11*
X93700000Y-62237500D03*
D10*
G36*
X94349504Y-58551204D02*
X94373773Y-58554804D01*
X94397571Y-58560765D01*
X94420671Y-58569030D01*
X94442849Y-58579520D01*
X94463893Y-58592133D01*
X94483598Y-58606747D01*
X94501777Y-58623223D01*
X94518253Y-58641402D01*
X94532867Y-58661107D01*
X94545480Y-58682151D01*
X94555970Y-58704329D01*
X94564235Y-58727429D01*
X94570196Y-58751227D01*
X94573796Y-58775496D01*
X94575000Y-58800000D01*
X94575000Y-59725000D01*
X94573796Y-59749504D01*
X94570196Y-59773773D01*
X94564235Y-59797571D01*
X94555970Y-59820671D01*
X94545480Y-59842849D01*
X94532867Y-59863893D01*
X94518253Y-59883598D01*
X94501777Y-59901777D01*
X94483598Y-59918253D01*
X94463893Y-59932867D01*
X94442849Y-59945480D01*
X94420671Y-59955970D01*
X94397571Y-59964235D01*
X94373773Y-59970196D01*
X94349504Y-59973796D01*
X94325000Y-59975000D01*
X93075000Y-59975000D01*
X93050496Y-59973796D01*
X93026227Y-59970196D01*
X93002429Y-59964235D01*
X92979329Y-59955970D01*
X92957151Y-59945480D01*
X92936107Y-59932867D01*
X92916402Y-59918253D01*
X92898223Y-59901777D01*
X92881747Y-59883598D01*
X92867133Y-59863893D01*
X92854520Y-59842849D01*
X92844030Y-59820671D01*
X92835765Y-59797571D01*
X92829804Y-59773773D01*
X92826204Y-59749504D01*
X92825000Y-59725000D01*
X92825000Y-58800000D01*
X92826204Y-58775496D01*
X92829804Y-58751227D01*
X92835765Y-58727429D01*
X92844030Y-58704329D01*
X92854520Y-58682151D01*
X92867133Y-58661107D01*
X92881747Y-58641402D01*
X92898223Y-58623223D01*
X92916402Y-58606747D01*
X92936107Y-58592133D01*
X92957151Y-58579520D01*
X92979329Y-58569030D01*
X93002429Y-58560765D01*
X93026227Y-58554804D01*
X93050496Y-58551204D01*
X93075000Y-58550000D01*
X94325000Y-58550000D01*
X94349504Y-58551204D01*
X94349504Y-58551204D01*
G37*
D11*
X93700000Y-59262500D03*
G04 #@! TD*
D10*
G04 #@! TO.C,C13*
G36*
X96949504Y-64576204D02*
X96973773Y-64579804D01*
X96997571Y-64585765D01*
X97020671Y-64594030D01*
X97042849Y-64604520D01*
X97063893Y-64617133D01*
X97083598Y-64631747D01*
X97101777Y-64648223D01*
X97118253Y-64666402D01*
X97132867Y-64686107D01*
X97145480Y-64707151D01*
X97155970Y-64729329D01*
X97164235Y-64752429D01*
X97170196Y-64776227D01*
X97173796Y-64800496D01*
X97175000Y-64825000D01*
X97175000Y-65750000D01*
X97173796Y-65774504D01*
X97170196Y-65798773D01*
X97164235Y-65822571D01*
X97155970Y-65845671D01*
X97145480Y-65867849D01*
X97132867Y-65888893D01*
X97118253Y-65908598D01*
X97101777Y-65926777D01*
X97083598Y-65943253D01*
X97063893Y-65957867D01*
X97042849Y-65970480D01*
X97020671Y-65980970D01*
X96997571Y-65989235D01*
X96973773Y-65995196D01*
X96949504Y-65998796D01*
X96925000Y-66000000D01*
X95675000Y-66000000D01*
X95650496Y-65998796D01*
X95626227Y-65995196D01*
X95602429Y-65989235D01*
X95579329Y-65980970D01*
X95557151Y-65970480D01*
X95536107Y-65957867D01*
X95516402Y-65943253D01*
X95498223Y-65926777D01*
X95481747Y-65908598D01*
X95467133Y-65888893D01*
X95454520Y-65867849D01*
X95444030Y-65845671D01*
X95435765Y-65822571D01*
X95429804Y-65798773D01*
X95426204Y-65774504D01*
X95425000Y-65750000D01*
X95425000Y-64825000D01*
X95426204Y-64800496D01*
X95429804Y-64776227D01*
X95435765Y-64752429D01*
X95444030Y-64729329D01*
X95454520Y-64707151D01*
X95467133Y-64686107D01*
X95481747Y-64666402D01*
X95498223Y-64648223D01*
X95516402Y-64631747D01*
X95536107Y-64617133D01*
X95557151Y-64604520D01*
X95579329Y-64594030D01*
X95602429Y-64585765D01*
X95626227Y-64579804D01*
X95650496Y-64576204D01*
X95675000Y-64575000D01*
X96925000Y-64575000D01*
X96949504Y-64576204D01*
X96949504Y-64576204D01*
G37*
D11*
X96300000Y-65287500D03*
D10*
G36*
X96949504Y-61601204D02*
X96973773Y-61604804D01*
X96997571Y-61610765D01*
X97020671Y-61619030D01*
X97042849Y-61629520D01*
X97063893Y-61642133D01*
X97083598Y-61656747D01*
X97101777Y-61673223D01*
X97118253Y-61691402D01*
X97132867Y-61711107D01*
X97145480Y-61732151D01*
X97155970Y-61754329D01*
X97164235Y-61777429D01*
X97170196Y-61801227D01*
X97173796Y-61825496D01*
X97175000Y-61850000D01*
X97175000Y-62775000D01*
X97173796Y-62799504D01*
X97170196Y-62823773D01*
X97164235Y-62847571D01*
X97155970Y-62870671D01*
X97145480Y-62892849D01*
X97132867Y-62913893D01*
X97118253Y-62933598D01*
X97101777Y-62951777D01*
X97083598Y-62968253D01*
X97063893Y-62982867D01*
X97042849Y-62995480D01*
X97020671Y-63005970D01*
X96997571Y-63014235D01*
X96973773Y-63020196D01*
X96949504Y-63023796D01*
X96925000Y-63025000D01*
X95675000Y-63025000D01*
X95650496Y-63023796D01*
X95626227Y-63020196D01*
X95602429Y-63014235D01*
X95579329Y-63005970D01*
X95557151Y-62995480D01*
X95536107Y-62982867D01*
X95516402Y-62968253D01*
X95498223Y-62951777D01*
X95481747Y-62933598D01*
X95467133Y-62913893D01*
X95454520Y-62892849D01*
X95444030Y-62870671D01*
X95435765Y-62847571D01*
X95429804Y-62823773D01*
X95426204Y-62799504D01*
X95425000Y-62775000D01*
X95425000Y-61850000D01*
X95426204Y-61825496D01*
X95429804Y-61801227D01*
X95435765Y-61777429D01*
X95444030Y-61754329D01*
X95454520Y-61732151D01*
X95467133Y-61711107D01*
X95481747Y-61691402D01*
X95498223Y-61673223D01*
X95516402Y-61656747D01*
X95536107Y-61642133D01*
X95557151Y-61629520D01*
X95579329Y-61619030D01*
X95602429Y-61610765D01*
X95626227Y-61604804D01*
X95650496Y-61601204D01*
X95675000Y-61600000D01*
X96925000Y-61600000D01*
X96949504Y-61601204D01*
X96949504Y-61601204D01*
G37*
D11*
X96300000Y-62312500D03*
G04 #@! TD*
D10*
G04 #@! TO.C,C14*
G36*
X87349504Y-58601204D02*
X87373773Y-58604804D01*
X87397571Y-58610765D01*
X87420671Y-58619030D01*
X87442849Y-58629520D01*
X87463893Y-58642133D01*
X87483598Y-58656747D01*
X87501777Y-58673223D01*
X87518253Y-58691402D01*
X87532867Y-58711107D01*
X87545480Y-58732151D01*
X87555970Y-58754329D01*
X87564235Y-58777429D01*
X87570196Y-58801227D01*
X87573796Y-58825496D01*
X87575000Y-58850000D01*
X87575000Y-59775000D01*
X87573796Y-59799504D01*
X87570196Y-59823773D01*
X87564235Y-59847571D01*
X87555970Y-59870671D01*
X87545480Y-59892849D01*
X87532867Y-59913893D01*
X87518253Y-59933598D01*
X87501777Y-59951777D01*
X87483598Y-59968253D01*
X87463893Y-59982867D01*
X87442849Y-59995480D01*
X87420671Y-60005970D01*
X87397571Y-60014235D01*
X87373773Y-60020196D01*
X87349504Y-60023796D01*
X87325000Y-60025000D01*
X86075000Y-60025000D01*
X86050496Y-60023796D01*
X86026227Y-60020196D01*
X86002429Y-60014235D01*
X85979329Y-60005970D01*
X85957151Y-59995480D01*
X85936107Y-59982867D01*
X85916402Y-59968253D01*
X85898223Y-59951777D01*
X85881747Y-59933598D01*
X85867133Y-59913893D01*
X85854520Y-59892849D01*
X85844030Y-59870671D01*
X85835765Y-59847571D01*
X85829804Y-59823773D01*
X85826204Y-59799504D01*
X85825000Y-59775000D01*
X85825000Y-58850000D01*
X85826204Y-58825496D01*
X85829804Y-58801227D01*
X85835765Y-58777429D01*
X85844030Y-58754329D01*
X85854520Y-58732151D01*
X85867133Y-58711107D01*
X85881747Y-58691402D01*
X85898223Y-58673223D01*
X85916402Y-58656747D01*
X85936107Y-58642133D01*
X85957151Y-58629520D01*
X85979329Y-58619030D01*
X86002429Y-58610765D01*
X86026227Y-58604804D01*
X86050496Y-58601204D01*
X86075000Y-58600000D01*
X87325000Y-58600000D01*
X87349504Y-58601204D01*
X87349504Y-58601204D01*
G37*
D11*
X86700000Y-59312500D03*
D10*
G36*
X87349504Y-61576204D02*
X87373773Y-61579804D01*
X87397571Y-61585765D01*
X87420671Y-61594030D01*
X87442849Y-61604520D01*
X87463893Y-61617133D01*
X87483598Y-61631747D01*
X87501777Y-61648223D01*
X87518253Y-61666402D01*
X87532867Y-61686107D01*
X87545480Y-61707151D01*
X87555970Y-61729329D01*
X87564235Y-61752429D01*
X87570196Y-61776227D01*
X87573796Y-61800496D01*
X87575000Y-61825000D01*
X87575000Y-62750000D01*
X87573796Y-62774504D01*
X87570196Y-62798773D01*
X87564235Y-62822571D01*
X87555970Y-62845671D01*
X87545480Y-62867849D01*
X87532867Y-62888893D01*
X87518253Y-62908598D01*
X87501777Y-62926777D01*
X87483598Y-62943253D01*
X87463893Y-62957867D01*
X87442849Y-62970480D01*
X87420671Y-62980970D01*
X87397571Y-62989235D01*
X87373773Y-62995196D01*
X87349504Y-62998796D01*
X87325000Y-63000000D01*
X86075000Y-63000000D01*
X86050496Y-62998796D01*
X86026227Y-62995196D01*
X86002429Y-62989235D01*
X85979329Y-62980970D01*
X85957151Y-62970480D01*
X85936107Y-62957867D01*
X85916402Y-62943253D01*
X85898223Y-62926777D01*
X85881747Y-62908598D01*
X85867133Y-62888893D01*
X85854520Y-62867849D01*
X85844030Y-62845671D01*
X85835765Y-62822571D01*
X85829804Y-62798773D01*
X85826204Y-62774504D01*
X85825000Y-62750000D01*
X85825000Y-61825000D01*
X85826204Y-61800496D01*
X85829804Y-61776227D01*
X85835765Y-61752429D01*
X85844030Y-61729329D01*
X85854520Y-61707151D01*
X85867133Y-61686107D01*
X85881747Y-61666402D01*
X85898223Y-61648223D01*
X85916402Y-61631747D01*
X85936107Y-61617133D01*
X85957151Y-61604520D01*
X85979329Y-61594030D01*
X86002429Y-61585765D01*
X86026227Y-61579804D01*
X86050496Y-61576204D01*
X86075000Y-61575000D01*
X87325000Y-61575000D01*
X87349504Y-61576204D01*
X87349504Y-61576204D01*
G37*
D11*
X86700000Y-62287500D03*
G04 #@! TD*
D10*
G04 #@! TO.C,R7*
G36*
X68849504Y-64026204D02*
X68873773Y-64029804D01*
X68897571Y-64035765D01*
X68920671Y-64044030D01*
X68942849Y-64054520D01*
X68963893Y-64067133D01*
X68983598Y-64081747D01*
X69001777Y-64098223D01*
X69018253Y-64116402D01*
X69032867Y-64136107D01*
X69045480Y-64157151D01*
X69055970Y-64179329D01*
X69064235Y-64202429D01*
X69070196Y-64226227D01*
X69073796Y-64250496D01*
X69075000Y-64275000D01*
X69075000Y-65525000D01*
X69073796Y-65549504D01*
X69070196Y-65573773D01*
X69064235Y-65597571D01*
X69055970Y-65620671D01*
X69045480Y-65642849D01*
X69032867Y-65663893D01*
X69018253Y-65683598D01*
X69001777Y-65701777D01*
X68983598Y-65718253D01*
X68963893Y-65732867D01*
X68942849Y-65745480D01*
X68920671Y-65755970D01*
X68897571Y-65764235D01*
X68873773Y-65770196D01*
X68849504Y-65773796D01*
X68825000Y-65775000D01*
X67900000Y-65775000D01*
X67875496Y-65773796D01*
X67851227Y-65770196D01*
X67827429Y-65764235D01*
X67804329Y-65755970D01*
X67782151Y-65745480D01*
X67761107Y-65732867D01*
X67741402Y-65718253D01*
X67723223Y-65701777D01*
X67706747Y-65683598D01*
X67692133Y-65663893D01*
X67679520Y-65642849D01*
X67669030Y-65620671D01*
X67660765Y-65597571D01*
X67654804Y-65573773D01*
X67651204Y-65549504D01*
X67650000Y-65525000D01*
X67650000Y-64275000D01*
X67651204Y-64250496D01*
X67654804Y-64226227D01*
X67660765Y-64202429D01*
X67669030Y-64179329D01*
X67679520Y-64157151D01*
X67692133Y-64136107D01*
X67706747Y-64116402D01*
X67723223Y-64098223D01*
X67741402Y-64081747D01*
X67761107Y-64067133D01*
X67782151Y-64054520D01*
X67804329Y-64044030D01*
X67827429Y-64035765D01*
X67851227Y-64029804D01*
X67875496Y-64026204D01*
X67900000Y-64025000D01*
X68825000Y-64025000D01*
X68849504Y-64026204D01*
X68849504Y-64026204D01*
G37*
D11*
X68362500Y-64900000D03*
D10*
G36*
X71824504Y-64026204D02*
X71848773Y-64029804D01*
X71872571Y-64035765D01*
X71895671Y-64044030D01*
X71917849Y-64054520D01*
X71938893Y-64067133D01*
X71958598Y-64081747D01*
X71976777Y-64098223D01*
X71993253Y-64116402D01*
X72007867Y-64136107D01*
X72020480Y-64157151D01*
X72030970Y-64179329D01*
X72039235Y-64202429D01*
X72045196Y-64226227D01*
X72048796Y-64250496D01*
X72050000Y-64275000D01*
X72050000Y-65525000D01*
X72048796Y-65549504D01*
X72045196Y-65573773D01*
X72039235Y-65597571D01*
X72030970Y-65620671D01*
X72020480Y-65642849D01*
X72007867Y-65663893D01*
X71993253Y-65683598D01*
X71976777Y-65701777D01*
X71958598Y-65718253D01*
X71938893Y-65732867D01*
X71917849Y-65745480D01*
X71895671Y-65755970D01*
X71872571Y-65764235D01*
X71848773Y-65770196D01*
X71824504Y-65773796D01*
X71800000Y-65775000D01*
X70875000Y-65775000D01*
X70850496Y-65773796D01*
X70826227Y-65770196D01*
X70802429Y-65764235D01*
X70779329Y-65755970D01*
X70757151Y-65745480D01*
X70736107Y-65732867D01*
X70716402Y-65718253D01*
X70698223Y-65701777D01*
X70681747Y-65683598D01*
X70667133Y-65663893D01*
X70654520Y-65642849D01*
X70644030Y-65620671D01*
X70635765Y-65597571D01*
X70629804Y-65573773D01*
X70626204Y-65549504D01*
X70625000Y-65525000D01*
X70625000Y-64275000D01*
X70626204Y-64250496D01*
X70629804Y-64226227D01*
X70635765Y-64202429D01*
X70644030Y-64179329D01*
X70654520Y-64157151D01*
X70667133Y-64136107D01*
X70681747Y-64116402D01*
X70698223Y-64098223D01*
X70716402Y-64081747D01*
X70736107Y-64067133D01*
X70757151Y-64054520D01*
X70779329Y-64044030D01*
X70802429Y-64035765D01*
X70826227Y-64029804D01*
X70850496Y-64026204D01*
X70875000Y-64025000D01*
X71800000Y-64025000D01*
X71824504Y-64026204D01*
X71824504Y-64026204D01*
G37*
D11*
X71337500Y-64900000D03*
G04 #@! TD*
D10*
G04 #@! TO.C,R8*
G36*
X62299504Y-61476204D02*
X62323773Y-61479804D01*
X62347571Y-61485765D01*
X62370671Y-61494030D01*
X62392849Y-61504520D01*
X62413893Y-61517133D01*
X62433598Y-61531747D01*
X62451777Y-61548223D01*
X62468253Y-61566402D01*
X62482867Y-61586107D01*
X62495480Y-61607151D01*
X62505970Y-61629329D01*
X62514235Y-61652429D01*
X62520196Y-61676227D01*
X62523796Y-61700496D01*
X62525000Y-61725000D01*
X62525000Y-62975000D01*
X62523796Y-62999504D01*
X62520196Y-63023773D01*
X62514235Y-63047571D01*
X62505970Y-63070671D01*
X62495480Y-63092849D01*
X62482867Y-63113893D01*
X62468253Y-63133598D01*
X62451777Y-63151777D01*
X62433598Y-63168253D01*
X62413893Y-63182867D01*
X62392849Y-63195480D01*
X62370671Y-63205970D01*
X62347571Y-63214235D01*
X62323773Y-63220196D01*
X62299504Y-63223796D01*
X62275000Y-63225000D01*
X61350000Y-63225000D01*
X61325496Y-63223796D01*
X61301227Y-63220196D01*
X61277429Y-63214235D01*
X61254329Y-63205970D01*
X61232151Y-63195480D01*
X61211107Y-63182867D01*
X61191402Y-63168253D01*
X61173223Y-63151777D01*
X61156747Y-63133598D01*
X61142133Y-63113893D01*
X61129520Y-63092849D01*
X61119030Y-63070671D01*
X61110765Y-63047571D01*
X61104804Y-63023773D01*
X61101204Y-62999504D01*
X61100000Y-62975000D01*
X61100000Y-61725000D01*
X61101204Y-61700496D01*
X61104804Y-61676227D01*
X61110765Y-61652429D01*
X61119030Y-61629329D01*
X61129520Y-61607151D01*
X61142133Y-61586107D01*
X61156747Y-61566402D01*
X61173223Y-61548223D01*
X61191402Y-61531747D01*
X61211107Y-61517133D01*
X61232151Y-61504520D01*
X61254329Y-61494030D01*
X61277429Y-61485765D01*
X61301227Y-61479804D01*
X61325496Y-61476204D01*
X61350000Y-61475000D01*
X62275000Y-61475000D01*
X62299504Y-61476204D01*
X62299504Y-61476204D01*
G37*
D11*
X61812500Y-62350000D03*
D10*
G36*
X65274504Y-61476204D02*
X65298773Y-61479804D01*
X65322571Y-61485765D01*
X65345671Y-61494030D01*
X65367849Y-61504520D01*
X65388893Y-61517133D01*
X65408598Y-61531747D01*
X65426777Y-61548223D01*
X65443253Y-61566402D01*
X65457867Y-61586107D01*
X65470480Y-61607151D01*
X65480970Y-61629329D01*
X65489235Y-61652429D01*
X65495196Y-61676227D01*
X65498796Y-61700496D01*
X65500000Y-61725000D01*
X65500000Y-62975000D01*
X65498796Y-62999504D01*
X65495196Y-63023773D01*
X65489235Y-63047571D01*
X65480970Y-63070671D01*
X65470480Y-63092849D01*
X65457867Y-63113893D01*
X65443253Y-63133598D01*
X65426777Y-63151777D01*
X65408598Y-63168253D01*
X65388893Y-63182867D01*
X65367849Y-63195480D01*
X65345671Y-63205970D01*
X65322571Y-63214235D01*
X65298773Y-63220196D01*
X65274504Y-63223796D01*
X65250000Y-63225000D01*
X64325000Y-63225000D01*
X64300496Y-63223796D01*
X64276227Y-63220196D01*
X64252429Y-63214235D01*
X64229329Y-63205970D01*
X64207151Y-63195480D01*
X64186107Y-63182867D01*
X64166402Y-63168253D01*
X64148223Y-63151777D01*
X64131747Y-63133598D01*
X64117133Y-63113893D01*
X64104520Y-63092849D01*
X64094030Y-63070671D01*
X64085765Y-63047571D01*
X64079804Y-63023773D01*
X64076204Y-62999504D01*
X64075000Y-62975000D01*
X64075000Y-61725000D01*
X64076204Y-61700496D01*
X64079804Y-61676227D01*
X64085765Y-61652429D01*
X64094030Y-61629329D01*
X64104520Y-61607151D01*
X64117133Y-61586107D01*
X64131747Y-61566402D01*
X64148223Y-61548223D01*
X64166402Y-61531747D01*
X64186107Y-61517133D01*
X64207151Y-61504520D01*
X64229329Y-61494030D01*
X64252429Y-61485765D01*
X64276227Y-61479804D01*
X64300496Y-61476204D01*
X64325000Y-61475000D01*
X65250000Y-61475000D01*
X65274504Y-61476204D01*
X65274504Y-61476204D01*
G37*
D11*
X64787500Y-62350000D03*
G04 #@! TD*
M02*
