G04 #@! TF.FileFunction,Legend,Top*
%FSLAX46Y46*%
G04 Gerber Fmt 4.6, Leading zero omitted, Abs format (unit mm)*
G04 Created by KiCad (PCBNEW 4.0.5+dfsg1-4) date Sat Feb  3 00:51:27 2018*
%MOMM*%
%LPD*%
G01*
G04 APERTURE LIST*
%ADD10C,0.100000*%
%ADD11C,0.200000*%
%ADD12C,0.150000*%
G04 APERTURE END LIST*
D10*
D11*
X119380000Y-119380000D02*
X119380000Y-106680000D01*
X138430000Y-119380000D02*
X119380000Y-119380000D01*
X138430000Y-106680000D02*
X138430000Y-119380000D01*
D12*
X125097540Y-75946520D02*
X125097540Y-77343520D01*
X125097540Y-71501520D02*
X125097540Y-69977520D01*
X125859540Y-71882520D02*
X124335540Y-71882520D01*
X125859540Y-71628520D02*
X124335540Y-71628520D01*
X125097540Y-71374520D02*
X124335540Y-71374520D01*
X124335540Y-71374520D02*
X124335540Y-75946520D01*
X124335540Y-75946520D02*
X125859540Y-75946520D01*
X125859540Y-75946520D02*
X125859540Y-71374520D01*
X125859540Y-71374520D02*
X125097540Y-71374520D01*
X120012460Y-71373480D02*
X120012460Y-69976480D01*
X120012460Y-75818480D02*
X120012460Y-77342480D01*
X119250460Y-75437480D02*
X120774460Y-75437480D01*
X119250460Y-75691480D02*
X120774460Y-75691480D01*
X120012460Y-75945480D02*
X120774460Y-75945480D01*
X120774460Y-75945480D02*
X120774460Y-71373480D01*
X120774460Y-71373480D02*
X119250460Y-71373480D01*
X119250460Y-71373480D02*
X119250460Y-75945480D01*
X119250460Y-75945480D02*
X120012460Y-75945480D01*
X127632460Y-71373480D02*
X127632460Y-69976480D01*
X127632460Y-75818480D02*
X127632460Y-77342480D01*
X126870460Y-75437480D02*
X128394460Y-75437480D01*
X126870460Y-75691480D02*
X128394460Y-75691480D01*
X127632460Y-75945480D02*
X128394460Y-75945480D01*
X128394460Y-75945480D02*
X128394460Y-71373480D01*
X128394460Y-71373480D02*
X126870460Y-71373480D01*
X126870460Y-71373480D02*
X126870460Y-75945480D01*
X126870460Y-75945480D02*
X127632460Y-75945480D01*
X122552460Y-71373480D02*
X122552460Y-69976480D01*
X122552460Y-75818480D02*
X122552460Y-77342480D01*
X121790460Y-75437480D02*
X123314460Y-75437480D01*
X121790460Y-75691480D02*
X123314460Y-75691480D01*
X122552460Y-75945480D02*
X123314460Y-75945480D01*
X123314460Y-75945480D02*
X123314460Y-71373480D01*
X123314460Y-71373480D02*
X121790460Y-71373480D01*
X121790460Y-71373480D02*
X121790460Y-75945480D01*
X121790460Y-75945480D02*
X122552460Y-75945480D01*
X166370000Y-80010000D02*
X166370000Y-64770000D01*
X161290000Y-67310000D02*
X161290000Y-80010000D01*
X166370000Y-80010000D02*
X161290000Y-80010000D01*
X166370000Y-64770000D02*
X163830000Y-64770000D01*
X162560000Y-64490000D02*
X161010000Y-64490000D01*
X163830000Y-64770000D02*
X163830000Y-67310000D01*
X163830000Y-67310000D02*
X161290000Y-67310000D01*
X161010000Y-64490000D02*
X161010000Y-66040000D01*
X161290000Y-105410000D02*
X148590000Y-105410000D01*
X148590000Y-105410000D02*
X148590000Y-102870000D01*
X148590000Y-102870000D02*
X161290000Y-102870000D01*
X164110000Y-105690000D02*
X162560000Y-105690000D01*
X161290000Y-105410000D02*
X161290000Y-102870000D01*
X162560000Y-102590000D02*
X164110000Y-102590000D01*
X164110000Y-102590000D02*
X164110000Y-105690000D01*
X139954000Y-77470000D02*
X139954000Y-72390000D01*
X139954000Y-72390000D02*
X137414000Y-72390000D01*
X137414000Y-72390000D02*
X137414000Y-77470000D01*
X137134000Y-80290000D02*
X137134000Y-78740000D01*
X137414000Y-77470000D02*
X139954000Y-77470000D01*
X140234000Y-78740000D02*
X140234000Y-80290000D01*
X140234000Y-80290000D02*
X137134000Y-80290000D01*
X124460000Y-64770000D02*
X127000000Y-64770000D01*
X121640000Y-64490000D02*
X123190000Y-64490000D01*
X124460000Y-64770000D02*
X124460000Y-67310000D01*
X123190000Y-67590000D02*
X121640000Y-67590000D01*
X121640000Y-67590000D02*
X121640000Y-64490000D01*
X124460000Y-67310000D02*
X127000000Y-67310000D01*
X127000000Y-67310000D02*
X127000000Y-64770000D01*
X135890000Y-66548000D02*
X133350000Y-66548000D01*
X138710000Y-66828000D02*
X137160000Y-66828000D01*
X135890000Y-66548000D02*
X135890000Y-64008000D01*
X137160000Y-63728000D02*
X138710000Y-63728000D01*
X138710000Y-63728000D02*
X138710000Y-66828000D01*
X135890000Y-64008000D02*
X133350000Y-64008000D01*
X133350000Y-64008000D02*
X133350000Y-66548000D01*
X132715000Y-76200000D02*
X132715000Y-71120000D01*
X132715000Y-71120000D02*
X135255000Y-71120000D01*
X135255000Y-71120000D02*
X135255000Y-76200000D01*
X135255000Y-76200000D02*
X132715000Y-76200000D01*
X133985000Y-76200000D02*
X133985000Y-77470000D01*
X133985000Y-71120000D02*
X133985000Y-69850000D01*
X130175000Y-76200000D02*
X130175000Y-71120000D01*
X130175000Y-71120000D02*
X132715000Y-71120000D01*
X132715000Y-71120000D02*
X132715000Y-76200000D01*
X132715000Y-76200000D02*
X130175000Y-76200000D01*
X131445000Y-76200000D02*
X131445000Y-77470000D01*
X131445000Y-71120000D02*
X131445000Y-69850000D01*
X153670000Y-107950000D02*
X161290000Y-107950000D01*
X153670000Y-110490000D02*
X161290000Y-110490000D01*
X150850000Y-110770000D02*
X152400000Y-110770000D01*
X161290000Y-107950000D02*
X161290000Y-110490000D01*
X153670000Y-110490000D02*
X153670000Y-107950000D01*
X152400000Y-107670000D02*
X150850000Y-107670000D01*
X150850000Y-107670000D02*
X150850000Y-110770000D01*
X135890000Y-110490000D02*
X128270000Y-110490000D01*
X135890000Y-107950000D02*
X128270000Y-107950000D01*
X138710000Y-107670000D02*
X137160000Y-107670000D01*
X128270000Y-110490000D02*
X128270000Y-107950000D01*
X135890000Y-107950000D02*
X135890000Y-110490000D01*
X137160000Y-110770000D02*
X138710000Y-110770000D01*
X138710000Y-110770000D02*
X138710000Y-107670000D01*
X124880714Y-74846667D02*
X125547381Y-74846667D01*
X124499762Y-75013334D02*
X125214048Y-75180001D01*
X125214048Y-74746667D01*
X125547381Y-74113334D02*
X125547381Y-74513334D01*
X125547381Y-74313334D02*
X124547381Y-74313334D01*
X124690238Y-74380000D01*
X124785476Y-74446667D01*
X124833095Y-74513334D01*
X124880714Y-73513333D02*
X125547381Y-73513333D01*
X124499762Y-73680000D02*
X125214048Y-73846667D01*
X125214048Y-73413333D01*
X124975952Y-73046666D02*
X124928333Y-73113333D01*
X124880714Y-73146666D01*
X124785476Y-73180000D01*
X124737857Y-73180000D01*
X124642619Y-73146666D01*
X124595000Y-73113333D01*
X124547381Y-73046666D01*
X124547381Y-72913333D01*
X124595000Y-72846666D01*
X124642619Y-72813333D01*
X124737857Y-72780000D01*
X124785476Y-72780000D01*
X124880714Y-72813333D01*
X124928333Y-72846666D01*
X124975952Y-72913333D01*
X124975952Y-73046666D01*
X125023571Y-73113333D01*
X125071190Y-73146666D01*
X125166429Y-73180000D01*
X125356905Y-73180000D01*
X125452143Y-73146666D01*
X125499762Y-73113333D01*
X125547381Y-73046666D01*
X125547381Y-72913333D01*
X125499762Y-72846666D01*
X125452143Y-72813333D01*
X125356905Y-72780000D01*
X125166429Y-72780000D01*
X125071190Y-72813333D01*
X125023571Y-72846666D01*
X124975952Y-72913333D01*
X119943571Y-74623333D02*
X119991190Y-74523333D01*
X120038810Y-74490000D01*
X120134048Y-74456666D01*
X120276905Y-74456666D01*
X120372143Y-74490000D01*
X120419762Y-74523333D01*
X120467381Y-74590000D01*
X120467381Y-74856666D01*
X119467381Y-74856666D01*
X119467381Y-74623333D01*
X119515000Y-74556666D01*
X119562619Y-74523333D01*
X119657857Y-74490000D01*
X119753095Y-74490000D01*
X119848333Y-74523333D01*
X119895952Y-74556666D01*
X119943571Y-74623333D01*
X119943571Y-74856666D01*
X120181667Y-74190000D02*
X120181667Y-73856666D01*
X120467381Y-74256666D02*
X119467381Y-74023333D01*
X120467381Y-73790000D01*
X119467381Y-73656666D02*
X119467381Y-73256666D01*
X120467381Y-73456666D02*
X119467381Y-73456666D01*
X119895952Y-72923333D02*
X119848333Y-72990000D01*
X119800714Y-73023333D01*
X119705476Y-73056667D01*
X119657857Y-73056667D01*
X119562619Y-73023333D01*
X119515000Y-72990000D01*
X119467381Y-72923333D01*
X119467381Y-72790000D01*
X119515000Y-72723333D01*
X119562619Y-72690000D01*
X119657857Y-72656667D01*
X119705476Y-72656667D01*
X119800714Y-72690000D01*
X119848333Y-72723333D01*
X119895952Y-72790000D01*
X119895952Y-72923333D01*
X119943571Y-72990000D01*
X119991190Y-73023333D01*
X120086429Y-73056667D01*
X120276905Y-73056667D01*
X120372143Y-73023333D01*
X120419762Y-72990000D01*
X120467381Y-72923333D01*
X120467381Y-72790000D01*
X120419762Y-72723333D01*
X120372143Y-72690000D01*
X120276905Y-72656667D01*
X120086429Y-72656667D01*
X119991190Y-72690000D01*
X119943571Y-72723333D01*
X119895952Y-72790000D01*
X119467381Y-72023333D02*
X119467381Y-72356666D01*
X119943571Y-72390000D01*
X119895952Y-72356666D01*
X119848333Y-72290000D01*
X119848333Y-72123333D01*
X119895952Y-72056666D01*
X119943571Y-72023333D01*
X120038810Y-71990000D01*
X120276905Y-71990000D01*
X120372143Y-72023333D01*
X120419762Y-72056666D01*
X120467381Y-72123333D01*
X120467381Y-72290000D01*
X120419762Y-72356666D01*
X120372143Y-72390000D01*
X127563571Y-74523333D02*
X127611190Y-74423333D01*
X127658810Y-74390000D01*
X127754048Y-74356666D01*
X127896905Y-74356666D01*
X127992143Y-74390000D01*
X128039762Y-74423333D01*
X128087381Y-74490000D01*
X128087381Y-74756666D01*
X127087381Y-74756666D01*
X127087381Y-74523333D01*
X127135000Y-74456666D01*
X127182619Y-74423333D01*
X127277857Y-74390000D01*
X127373095Y-74390000D01*
X127468333Y-74423333D01*
X127515952Y-74456666D01*
X127563571Y-74523333D01*
X127563571Y-74756666D01*
X127801667Y-74090000D02*
X127801667Y-73756666D01*
X128087381Y-74156666D02*
X127087381Y-73923333D01*
X128087381Y-73690000D01*
X127087381Y-73556666D02*
X127087381Y-73156666D01*
X128087381Y-73356666D02*
X127087381Y-73356666D01*
X127515952Y-72823333D02*
X127468333Y-72890000D01*
X127420714Y-72923333D01*
X127325476Y-72956667D01*
X127277857Y-72956667D01*
X127182619Y-72923333D01*
X127135000Y-72890000D01*
X127087381Y-72823333D01*
X127087381Y-72690000D01*
X127135000Y-72623333D01*
X127182619Y-72590000D01*
X127277857Y-72556667D01*
X127325476Y-72556667D01*
X127420714Y-72590000D01*
X127468333Y-72623333D01*
X127515952Y-72690000D01*
X127515952Y-72823333D01*
X127563571Y-72890000D01*
X127611190Y-72923333D01*
X127706429Y-72956667D01*
X127896905Y-72956667D01*
X127992143Y-72923333D01*
X128039762Y-72890000D01*
X128087381Y-72823333D01*
X128087381Y-72690000D01*
X128039762Y-72623333D01*
X127992143Y-72590000D01*
X127896905Y-72556667D01*
X127706429Y-72556667D01*
X127611190Y-72590000D01*
X127563571Y-72623333D01*
X127515952Y-72690000D01*
X127087381Y-71923333D02*
X127087381Y-72256666D01*
X127563571Y-72290000D01*
X127515952Y-72256666D01*
X127468333Y-72190000D01*
X127468333Y-72023333D01*
X127515952Y-71956666D01*
X127563571Y-71923333D01*
X127658810Y-71890000D01*
X127896905Y-71890000D01*
X127992143Y-71923333D01*
X128039762Y-71956666D01*
X128087381Y-72023333D01*
X128087381Y-72190000D01*
X128039762Y-72256666D01*
X127992143Y-72290000D01*
X122483571Y-74523333D02*
X122531190Y-74423333D01*
X122578810Y-74390000D01*
X122674048Y-74356666D01*
X122816905Y-74356666D01*
X122912143Y-74390000D01*
X122959762Y-74423333D01*
X123007381Y-74490000D01*
X123007381Y-74756666D01*
X122007381Y-74756666D01*
X122007381Y-74523333D01*
X122055000Y-74456666D01*
X122102619Y-74423333D01*
X122197857Y-74390000D01*
X122293095Y-74390000D01*
X122388333Y-74423333D01*
X122435952Y-74456666D01*
X122483571Y-74523333D01*
X122483571Y-74756666D01*
X122721667Y-74090000D02*
X122721667Y-73756666D01*
X123007381Y-74156666D02*
X122007381Y-73923333D01*
X123007381Y-73690000D01*
X122007381Y-73556666D02*
X122007381Y-73156666D01*
X123007381Y-73356666D02*
X122007381Y-73356666D01*
X122435952Y-72823333D02*
X122388333Y-72890000D01*
X122340714Y-72923333D01*
X122245476Y-72956667D01*
X122197857Y-72956667D01*
X122102619Y-72923333D01*
X122055000Y-72890000D01*
X122007381Y-72823333D01*
X122007381Y-72690000D01*
X122055000Y-72623333D01*
X122102619Y-72590000D01*
X122197857Y-72556667D01*
X122245476Y-72556667D01*
X122340714Y-72590000D01*
X122388333Y-72623333D01*
X122435952Y-72690000D01*
X122435952Y-72823333D01*
X122483571Y-72890000D01*
X122531190Y-72923333D01*
X122626429Y-72956667D01*
X122816905Y-72956667D01*
X122912143Y-72923333D01*
X122959762Y-72890000D01*
X123007381Y-72823333D01*
X123007381Y-72690000D01*
X122959762Y-72623333D01*
X122912143Y-72590000D01*
X122816905Y-72556667D01*
X122626429Y-72556667D01*
X122531190Y-72590000D01*
X122483571Y-72623333D01*
X122435952Y-72690000D01*
X122007381Y-71923333D02*
X122007381Y-72256666D01*
X122483571Y-72290000D01*
X122435952Y-72256666D01*
X122388333Y-72190000D01*
X122388333Y-72023333D01*
X122435952Y-71956666D01*
X122483571Y-71923333D01*
X122578810Y-71890000D01*
X122816905Y-71890000D01*
X122912143Y-71923333D01*
X122959762Y-71956666D01*
X123007381Y-72023333D01*
X123007381Y-72190000D01*
X122959762Y-72256666D01*
X122912143Y-72290000D01*
X133770714Y-73890000D02*
X134437381Y-73890000D01*
X133389762Y-74056667D02*
X134104048Y-74223334D01*
X134104048Y-73790000D01*
X134437381Y-73523333D02*
X133437381Y-73523333D01*
X134437381Y-73123333D02*
X133865952Y-73423333D01*
X133437381Y-73123333D02*
X134008810Y-73523333D01*
X133437381Y-72890000D02*
X133437381Y-72423333D01*
X134437381Y-72723333D01*
X130992619Y-74556667D02*
X130945000Y-74523333D01*
X130897381Y-74456667D01*
X130897381Y-74290000D01*
X130945000Y-74223333D01*
X130992619Y-74190000D01*
X131087857Y-74156667D01*
X131183095Y-74156667D01*
X131325952Y-74190000D01*
X131897381Y-74590000D01*
X131897381Y-74156667D01*
X130897381Y-73923333D02*
X130897381Y-73456666D01*
X131897381Y-73756666D01*
X130897381Y-73056666D02*
X130897381Y-72989999D01*
X130945000Y-72923333D01*
X130992619Y-72889999D01*
X131087857Y-72856666D01*
X131278333Y-72823333D01*
X131516429Y-72823333D01*
X131706905Y-72856666D01*
X131802143Y-72889999D01*
X131849762Y-72923333D01*
X131897381Y-72989999D01*
X131897381Y-73056666D01*
X131849762Y-73123333D01*
X131802143Y-73156666D01*
X131706905Y-73189999D01*
X131516429Y-73223333D01*
X131278333Y-73223333D01*
X131087857Y-73189999D01*
X130992619Y-73156666D01*
X130945000Y-73123333D01*
X130897381Y-73056666D01*
X131897381Y-72123332D02*
X131421190Y-72356666D01*
X131897381Y-72523332D02*
X130897381Y-72523332D01*
X130897381Y-72256666D01*
X130945000Y-72189999D01*
X130992619Y-72156666D01*
X131087857Y-72123332D01*
X131230714Y-72123332D01*
X131325952Y-72156666D01*
X131373571Y-72189999D01*
X131421190Y-72256666D01*
X131421190Y-72523332D01*
M02*
