M48
;DRILL file {KiCad (5.0.1)-4} date 21/02/2019 10:43:41
;FORMAT={-:-/ absolute / inch / decimal}
FMAT,2
INCH,TZ
T1C0.0130
T2C0.0200
T3C0.0390
T4C0.0394
T5C0.0512
T6C0.1063
%
G90
G05
M72
T1
X2.0236Y-2.8327
X2.0551Y-2.5315
X2.0728Y-2.4567
X2.126Y-2.8012
X2.1319Y-2.8406
X2.1358Y-2.4843
X2.194Y-2.7992
X2.2165Y-2.8327
X2.252Y-3.002
X2.2677Y-2.6161
X2.2776Y-2.7047
X2.3189Y-2.6024
X2.3287Y-2.2933
X2.3484Y-2.8091
X2.381Y-2.5107
X2.3957Y-2.5709
X2.4331Y-2.9154
X2.437Y-2.9508
X2.4505Y-2.5593
X2.4744Y-2.5846
X2.4941Y-2.4783
X2.502Y-2.5236
X2.5101Y-2.8406
X2.5256Y-2.9508
X2.5315Y-2.2657
X2.5335Y-2.8839
X2.5394Y-3.002
X2.5827Y-2.561
X2.6153Y-2.7953
X2.6319Y-2.6752
X2.6594Y-2.3189
X2.752Y-2.6634
X2.811Y-2.4961
X2.906Y-2.4941
X3.0492Y-2.5098
X3.0669Y-2.5846
X3.0709Y-2.685
X3.122Y-2.2185
X3.1949Y-2.4173
X3.2539Y-2.439
X3.2815Y-2.3878
X3.3307Y-2.6437
X3.3563Y-2.6772
X3.4055Y-2.5197
X3.4331Y-2.5807
X3.5984Y-2.5374
X3.6791Y-2.7146
X3.6929Y-2.5118
X3.729Y-2.6877
X3.8091Y-2.3957
X3.8661Y-2.3898
X4.0256Y-2.3937
X4.2106Y-2.4764
X4.2657Y-2.5236
X4.311Y-2.5591
T2
X2.0037Y-2.7362
X2.0276Y-2.4213
X2.2087Y-2.2539
X2.2126Y-2.0079
X2.3327Y-2.7067
X2.5886Y-2.7441
X2.6791Y-2.1142
X2.872Y-2.5571
X3.1201Y-2.3735
X3.3701Y-2.3996
X3.4252Y-2.1142
X3.8174Y-2.6496
X3.8209Y-2.9783
X3.8622Y-2.0591
X3.9134Y-2.6102
X4.0531Y-2.7185
X4.0846Y-2.1929
X4.1457Y-2.7598
X4.4114Y-2.4488
T3
X4.0244Y-2.0945
X4.2016Y-2.0945
T4
X4.2169Y-2.878
X4.3169Y-2.878
X4.1299Y-2.2854
X4.0555Y-3.0709
X4.1555Y-3.0709
X2.2756Y-3.0728
X2.3756Y-3.0728
X2.4756Y-3.0728
X2.5756Y-3.0728
X3.376Y-3.0728
X3.476Y-3.0728
X3.576Y-3.0728
X3.676Y-3.0728
X3.776Y-3.0728
X3.876Y-3.0728
T5
X3.9752Y-2.1925
X4.2512Y-2.1925
T6
X4.3701Y-2.1063
X2.0866Y-3.0118
X4.3701Y-3.0118
X2.0866Y-2.1063
T0
M30
