G04 #@! TF.FileFunction,Soldermask,Top*
%FSLAX46Y46*%
G04 Gerber Fmt 4.6, Leading zero omitted, Abs format (unit mm)*
G04 Created by KiCad (PCBNEW 4.0.5+dfsg1-4) date Fri Mar 16 22:59:51 2018*
%MOMM*%
%LPD*%
G01*
G04 APERTURE LIST*
%ADD10C,0.100000*%
%ADD11C,2.099260*%
%ADD12R,2.099260X2.099260*%
%ADD13R,2.127200X2.127200*%
%ADD14O,2.127200X2.127200*%
%ADD15R,2.432000X2.127200*%
%ADD16O,2.432000X2.127200*%
%ADD17R,2.432000X2.432000*%
%ADD18O,2.432000X2.432000*%
%ADD19R,2.127200X2.432000*%
%ADD20O,2.127200X2.432000*%
%ADD21C,2.398980*%
%ADD22R,2.635200X2.635200*%
%ADD23C,3.100000*%
G04 APERTURE END LIST*
D10*
D11*
X125097540Y-78740520D03*
D12*
X125097540Y-68580520D03*
D11*
X120012460Y-68579480D03*
D12*
X120012460Y-78739480D03*
D11*
X127632460Y-68579480D03*
D12*
X127632460Y-78739480D03*
D11*
X122552460Y-68579480D03*
D12*
X122552460Y-78739480D03*
D13*
X163830000Y-66040000D03*
D14*
X166370000Y-66040000D03*
X163830000Y-68580000D03*
X166370000Y-68580000D03*
X163830000Y-71120000D03*
X166370000Y-71120000D03*
X163830000Y-73660000D03*
X166370000Y-73660000D03*
X163830000Y-76200000D03*
X166370000Y-76200000D03*
X163830000Y-78740000D03*
X166370000Y-78740000D03*
D15*
X136525000Y-73660000D03*
D16*
X136525000Y-76200000D03*
X136525000Y-78740000D03*
D17*
X123444000Y-65024000D03*
D18*
X125984000Y-65024000D03*
D17*
X133858000Y-65024000D03*
D18*
X131318000Y-65024000D03*
D19*
X151130000Y-109220000D03*
D20*
X153670000Y-109220000D03*
X156210000Y-109220000D03*
X158750000Y-109220000D03*
D19*
X121285000Y-122555000D03*
D20*
X123825000Y-122555000D03*
X126365000Y-122555000D03*
X128905000Y-122555000D03*
D21*
X133350000Y-78740000D03*
X133350000Y-71120000D03*
X130810000Y-78740000D03*
X130810000Y-71120000D03*
D22*
X166370000Y-109220000D03*
D23*
X116840000Y-68580000D03*
X116840000Y-110236000D03*
X172720000Y-110236000D03*
X172720000Y-68580000D03*
M02*
