G04 #@! TF.FileFunction,Legend,Bot*
%FSLAX46Y46*%
G04 Gerber Fmt 4.6, Leading zero omitted, Abs format (unit mm)*
G04 Created by KiCad (PCBNEW 4.0.5+dfsg1-4) date Tue Feb 13 00:54:17 2018*
%MOMM*%
%LPD*%
G01*
G04 APERTURE LIST*
%ADD10C,0.100000*%
%ADD11C,0.250000*%
%ADD12C,0.200000*%
G04 APERTURE END LIST*
D10*
D11*
X168901905Y-101417381D02*
X168901905Y-100417381D01*
X168330476Y-101417381D01*
X168330476Y-100417381D01*
X167949524Y-100417381D02*
X167282857Y-101417381D01*
X167282857Y-100417381D02*
X167949524Y-101417381D01*
X166901905Y-101417381D02*
X166901905Y-100417381D01*
X166520952Y-100417381D01*
X166425714Y-100465000D01*
X166378095Y-100512619D01*
X166330476Y-100607857D01*
X166330476Y-100750714D01*
X166378095Y-100845952D01*
X166425714Y-100893571D01*
X166520952Y-100941190D01*
X166901905Y-100941190D01*
X169219285Y-105545000D02*
X169314523Y-105497381D01*
X169457380Y-105497381D01*
X169600238Y-105545000D01*
X169695476Y-105640238D01*
X169743095Y-105735476D01*
X169790714Y-105925952D01*
X169790714Y-106068810D01*
X169743095Y-106259286D01*
X169695476Y-106354524D01*
X169600238Y-106449762D01*
X169457380Y-106497381D01*
X169362142Y-106497381D01*
X169219285Y-106449762D01*
X169171666Y-106402143D01*
X169171666Y-106068810D01*
X169362142Y-106068810D01*
X168552619Y-106021190D02*
X168552619Y-106497381D01*
X168885952Y-105497381D02*
X168552619Y-106021190D01*
X168219285Y-105497381D01*
X167885952Y-106116429D02*
X167124047Y-106116429D01*
X166171666Y-105497381D02*
X166647857Y-105497381D01*
X166695476Y-105973571D01*
X166647857Y-105925952D01*
X166552619Y-105878333D01*
X166314523Y-105878333D01*
X166219285Y-105925952D01*
X166171666Y-105973571D01*
X166124047Y-106068810D01*
X166124047Y-106306905D01*
X166171666Y-106402143D01*
X166219285Y-106449762D01*
X166314523Y-106497381D01*
X166552619Y-106497381D01*
X166647857Y-106449762D01*
X166695476Y-106402143D01*
X165743095Y-105592619D02*
X165695476Y-105545000D01*
X165600238Y-105497381D01*
X165362142Y-105497381D01*
X165266904Y-105545000D01*
X165219285Y-105592619D01*
X165171666Y-105687857D01*
X165171666Y-105783095D01*
X165219285Y-105925952D01*
X165790714Y-106497381D01*
X165171666Y-106497381D01*
X164219285Y-106497381D02*
X164790714Y-106497381D01*
X164505000Y-106497381D02*
X164505000Y-105497381D01*
X164600238Y-105640238D01*
X164695476Y-105735476D01*
X164790714Y-105783095D01*
D12*
X168910000Y-101600000D02*
X140970000Y-101600000D01*
X140970000Y-120650000D02*
X168910000Y-120650000D01*
X140970000Y-101600000D02*
X140970000Y-120650000D01*
X168910000Y-101600000D02*
X168910000Y-120650000D01*
X149225000Y-119380000D02*
X149225000Y-106680000D01*
X169545000Y-119380000D02*
X149225000Y-119380000D01*
X169545000Y-106680000D02*
X169545000Y-119380000D01*
X149225000Y-106680000D02*
X169545000Y-106680000D01*
M02*
