G04 #@! TF.GenerationSoftware,KiCad,Pcbnew,(5.0.1)-4*
G04 #@! TF.CreationDate,2019-07-27T10:37:25+01:00*
G04 #@! TF.ProjectId,Bell-Boy,42656C6C2D426F792E6B696361645F70,rev?*
G04 #@! TF.SameCoordinates,Original*
G04 #@! TF.FileFunction,Paste,Bot*
G04 #@! TF.FilePolarity,Positive*
%FSLAX46Y46*%
G04 Gerber Fmt 4.6, Leading zero omitted, Abs format (unit mm)*
G04 Created by KiCad (PCBNEW (5.0.1)-4) date 27/07/2019 10:37:25*
%MOMM*%
%LPD*%
G01*
G04 APERTURE LIST*
%ADD10C,0.100000*%
%ADD11C,1.425000*%
%ADD12R,1.000000X3.000000*%
%ADD13R,1.060000X0.650000*%
%ADD14R,0.800000X0.900000*%
%ADD15R,0.650000X1.060000*%
%ADD16R,1.200000X0.600000*%
%ADD17R,0.600000X1.200000*%
%ADD18C,0.300000*%
G04 APERTURE END LIST*
D10*
G04 #@! TO.C,C7*
G36*
X78099504Y-58401204D02*
X78123773Y-58404804D01*
X78147571Y-58410765D01*
X78170671Y-58419030D01*
X78192849Y-58429520D01*
X78213893Y-58442133D01*
X78233598Y-58456747D01*
X78251777Y-58473223D01*
X78268253Y-58491402D01*
X78282867Y-58511107D01*
X78295480Y-58532151D01*
X78305970Y-58554329D01*
X78314235Y-58577429D01*
X78320196Y-58601227D01*
X78323796Y-58625496D01*
X78325000Y-58650000D01*
X78325000Y-59575000D01*
X78323796Y-59599504D01*
X78320196Y-59623773D01*
X78314235Y-59647571D01*
X78305970Y-59670671D01*
X78295480Y-59692849D01*
X78282867Y-59713893D01*
X78268253Y-59733598D01*
X78251777Y-59751777D01*
X78233598Y-59768253D01*
X78213893Y-59782867D01*
X78192849Y-59795480D01*
X78170671Y-59805970D01*
X78147571Y-59814235D01*
X78123773Y-59820196D01*
X78099504Y-59823796D01*
X78075000Y-59825000D01*
X76825000Y-59825000D01*
X76800496Y-59823796D01*
X76776227Y-59820196D01*
X76752429Y-59814235D01*
X76729329Y-59805970D01*
X76707151Y-59795480D01*
X76686107Y-59782867D01*
X76666402Y-59768253D01*
X76648223Y-59751777D01*
X76631747Y-59733598D01*
X76617133Y-59713893D01*
X76604520Y-59692849D01*
X76594030Y-59670671D01*
X76585765Y-59647571D01*
X76579804Y-59623773D01*
X76576204Y-59599504D01*
X76575000Y-59575000D01*
X76575000Y-58650000D01*
X76576204Y-58625496D01*
X76579804Y-58601227D01*
X76585765Y-58577429D01*
X76594030Y-58554329D01*
X76604520Y-58532151D01*
X76617133Y-58511107D01*
X76631747Y-58491402D01*
X76648223Y-58473223D01*
X76666402Y-58456747D01*
X76686107Y-58442133D01*
X76707151Y-58429520D01*
X76729329Y-58419030D01*
X76752429Y-58410765D01*
X76776227Y-58404804D01*
X76800496Y-58401204D01*
X76825000Y-58400000D01*
X78075000Y-58400000D01*
X78099504Y-58401204D01*
X78099504Y-58401204D01*
G37*
D11*
X77450000Y-59112500D03*
D10*
G36*
X78099504Y-61376204D02*
X78123773Y-61379804D01*
X78147571Y-61385765D01*
X78170671Y-61394030D01*
X78192849Y-61404520D01*
X78213893Y-61417133D01*
X78233598Y-61431747D01*
X78251777Y-61448223D01*
X78268253Y-61466402D01*
X78282867Y-61486107D01*
X78295480Y-61507151D01*
X78305970Y-61529329D01*
X78314235Y-61552429D01*
X78320196Y-61576227D01*
X78323796Y-61600496D01*
X78325000Y-61625000D01*
X78325000Y-62550000D01*
X78323796Y-62574504D01*
X78320196Y-62598773D01*
X78314235Y-62622571D01*
X78305970Y-62645671D01*
X78295480Y-62667849D01*
X78282867Y-62688893D01*
X78268253Y-62708598D01*
X78251777Y-62726777D01*
X78233598Y-62743253D01*
X78213893Y-62757867D01*
X78192849Y-62770480D01*
X78170671Y-62780970D01*
X78147571Y-62789235D01*
X78123773Y-62795196D01*
X78099504Y-62798796D01*
X78075000Y-62800000D01*
X76825000Y-62800000D01*
X76800496Y-62798796D01*
X76776227Y-62795196D01*
X76752429Y-62789235D01*
X76729329Y-62780970D01*
X76707151Y-62770480D01*
X76686107Y-62757867D01*
X76666402Y-62743253D01*
X76648223Y-62726777D01*
X76631747Y-62708598D01*
X76617133Y-62688893D01*
X76604520Y-62667849D01*
X76594030Y-62645671D01*
X76585765Y-62622571D01*
X76579804Y-62598773D01*
X76576204Y-62574504D01*
X76575000Y-62550000D01*
X76575000Y-61625000D01*
X76576204Y-61600496D01*
X76579804Y-61576227D01*
X76585765Y-61552429D01*
X76594030Y-61529329D01*
X76604520Y-61507151D01*
X76617133Y-61486107D01*
X76631747Y-61466402D01*
X76648223Y-61448223D01*
X76666402Y-61431747D01*
X76686107Y-61417133D01*
X76707151Y-61404520D01*
X76729329Y-61394030D01*
X76752429Y-61385765D01*
X76776227Y-61379804D01*
X76800496Y-61376204D01*
X76825000Y-61375000D01*
X78075000Y-61375000D01*
X78099504Y-61376204D01*
X78099504Y-61376204D01*
G37*
D11*
X77450000Y-62087500D03*
G04 #@! TD*
D12*
G04 #@! TO.C,J4*
X57900000Y-56220000D03*
X57900000Y-51180000D03*
X60440000Y-56220000D03*
X60440000Y-51180000D03*
X62980000Y-56220000D03*
X62980000Y-51180000D03*
X65520000Y-56220000D03*
X65520000Y-51180000D03*
X68060000Y-56220000D03*
X68060000Y-51180000D03*
X70600000Y-56220000D03*
X70600000Y-51180000D03*
X73140000Y-56220000D03*
X73140000Y-51180000D03*
X75680000Y-56220000D03*
X75680000Y-51180000D03*
X78220000Y-56220000D03*
X78220000Y-51180000D03*
X80760000Y-56220000D03*
X80760000Y-51180000D03*
X83300000Y-56220000D03*
X83300000Y-51180000D03*
X85840000Y-56220000D03*
X85840000Y-51180000D03*
X88380000Y-56220000D03*
X88380000Y-51180000D03*
X90920000Y-56220000D03*
X90920000Y-51180000D03*
X93460000Y-56220000D03*
X93460000Y-51180000D03*
X96000000Y-56220000D03*
X96000000Y-51180000D03*
G04 #@! TD*
D13*
G04 #@! TO.C,U4*
X108000000Y-67150000D03*
X108000000Y-65250000D03*
X105800000Y-65250000D03*
X105800000Y-66200000D03*
X105800000Y-67150000D03*
G04 #@! TD*
D14*
G04 #@! TO.C,D1*
X52100000Y-58500000D03*
X54000000Y-58500000D03*
X53050000Y-60500000D03*
G04 #@! TD*
D15*
G04 #@! TO.C,U3*
X110850000Y-64950000D03*
X111800000Y-64950000D03*
X112750000Y-64950000D03*
X112750000Y-67150000D03*
X110850000Y-67150000D03*
G04 #@! TD*
D10*
G04 #@! TO.C,C1*
G36*
X73999504Y-66776204D02*
X74023773Y-66779804D01*
X74047571Y-66785765D01*
X74070671Y-66794030D01*
X74092849Y-66804520D01*
X74113893Y-66817133D01*
X74133598Y-66831747D01*
X74151777Y-66848223D01*
X74168253Y-66866402D01*
X74182867Y-66886107D01*
X74195480Y-66907151D01*
X74205970Y-66929329D01*
X74214235Y-66952429D01*
X74220196Y-66976227D01*
X74223796Y-67000496D01*
X74225000Y-67025000D01*
X74225000Y-68275000D01*
X74223796Y-68299504D01*
X74220196Y-68323773D01*
X74214235Y-68347571D01*
X74205970Y-68370671D01*
X74195480Y-68392849D01*
X74182867Y-68413893D01*
X74168253Y-68433598D01*
X74151777Y-68451777D01*
X74133598Y-68468253D01*
X74113893Y-68482867D01*
X74092849Y-68495480D01*
X74070671Y-68505970D01*
X74047571Y-68514235D01*
X74023773Y-68520196D01*
X73999504Y-68523796D01*
X73975000Y-68525000D01*
X73050000Y-68525000D01*
X73025496Y-68523796D01*
X73001227Y-68520196D01*
X72977429Y-68514235D01*
X72954329Y-68505970D01*
X72932151Y-68495480D01*
X72911107Y-68482867D01*
X72891402Y-68468253D01*
X72873223Y-68451777D01*
X72856747Y-68433598D01*
X72842133Y-68413893D01*
X72829520Y-68392849D01*
X72819030Y-68370671D01*
X72810765Y-68347571D01*
X72804804Y-68323773D01*
X72801204Y-68299504D01*
X72800000Y-68275000D01*
X72800000Y-67025000D01*
X72801204Y-67000496D01*
X72804804Y-66976227D01*
X72810765Y-66952429D01*
X72819030Y-66929329D01*
X72829520Y-66907151D01*
X72842133Y-66886107D01*
X72856747Y-66866402D01*
X72873223Y-66848223D01*
X72891402Y-66831747D01*
X72911107Y-66817133D01*
X72932151Y-66804520D01*
X72954329Y-66794030D01*
X72977429Y-66785765D01*
X73001227Y-66779804D01*
X73025496Y-66776204D01*
X73050000Y-66775000D01*
X73975000Y-66775000D01*
X73999504Y-66776204D01*
X73999504Y-66776204D01*
G37*
D11*
X73512500Y-67650000D03*
D10*
G36*
X76974504Y-66776204D02*
X76998773Y-66779804D01*
X77022571Y-66785765D01*
X77045671Y-66794030D01*
X77067849Y-66804520D01*
X77088893Y-66817133D01*
X77108598Y-66831747D01*
X77126777Y-66848223D01*
X77143253Y-66866402D01*
X77157867Y-66886107D01*
X77170480Y-66907151D01*
X77180970Y-66929329D01*
X77189235Y-66952429D01*
X77195196Y-66976227D01*
X77198796Y-67000496D01*
X77200000Y-67025000D01*
X77200000Y-68275000D01*
X77198796Y-68299504D01*
X77195196Y-68323773D01*
X77189235Y-68347571D01*
X77180970Y-68370671D01*
X77170480Y-68392849D01*
X77157867Y-68413893D01*
X77143253Y-68433598D01*
X77126777Y-68451777D01*
X77108598Y-68468253D01*
X77088893Y-68482867D01*
X77067849Y-68495480D01*
X77045671Y-68505970D01*
X77022571Y-68514235D01*
X76998773Y-68520196D01*
X76974504Y-68523796D01*
X76950000Y-68525000D01*
X76025000Y-68525000D01*
X76000496Y-68523796D01*
X75976227Y-68520196D01*
X75952429Y-68514235D01*
X75929329Y-68505970D01*
X75907151Y-68495480D01*
X75886107Y-68482867D01*
X75866402Y-68468253D01*
X75848223Y-68451777D01*
X75831747Y-68433598D01*
X75817133Y-68413893D01*
X75804520Y-68392849D01*
X75794030Y-68370671D01*
X75785765Y-68347571D01*
X75779804Y-68323773D01*
X75776204Y-68299504D01*
X75775000Y-68275000D01*
X75775000Y-67025000D01*
X75776204Y-67000496D01*
X75779804Y-66976227D01*
X75785765Y-66952429D01*
X75794030Y-66929329D01*
X75804520Y-66907151D01*
X75817133Y-66886107D01*
X75831747Y-66866402D01*
X75848223Y-66848223D01*
X75866402Y-66831747D01*
X75886107Y-66817133D01*
X75907151Y-66804520D01*
X75929329Y-66794030D01*
X75952429Y-66785765D01*
X75976227Y-66779804D01*
X76000496Y-66776204D01*
X76025000Y-66775000D01*
X76950000Y-66775000D01*
X76974504Y-66776204D01*
X76974504Y-66776204D01*
G37*
D11*
X76487500Y-67650000D03*
G04 #@! TD*
D10*
G04 #@! TO.C,R1*
G36*
X103974504Y-74226204D02*
X103998773Y-74229804D01*
X104022571Y-74235765D01*
X104045671Y-74244030D01*
X104067849Y-74254520D01*
X104088893Y-74267133D01*
X104108598Y-74281747D01*
X104126777Y-74298223D01*
X104143253Y-74316402D01*
X104157867Y-74336107D01*
X104170480Y-74357151D01*
X104180970Y-74379329D01*
X104189235Y-74402429D01*
X104195196Y-74426227D01*
X104198796Y-74450496D01*
X104200000Y-74475000D01*
X104200000Y-75725000D01*
X104198796Y-75749504D01*
X104195196Y-75773773D01*
X104189235Y-75797571D01*
X104180970Y-75820671D01*
X104170480Y-75842849D01*
X104157867Y-75863893D01*
X104143253Y-75883598D01*
X104126777Y-75901777D01*
X104108598Y-75918253D01*
X104088893Y-75932867D01*
X104067849Y-75945480D01*
X104045671Y-75955970D01*
X104022571Y-75964235D01*
X103998773Y-75970196D01*
X103974504Y-75973796D01*
X103950000Y-75975000D01*
X103025000Y-75975000D01*
X103000496Y-75973796D01*
X102976227Y-75970196D01*
X102952429Y-75964235D01*
X102929329Y-75955970D01*
X102907151Y-75945480D01*
X102886107Y-75932867D01*
X102866402Y-75918253D01*
X102848223Y-75901777D01*
X102831747Y-75883598D01*
X102817133Y-75863893D01*
X102804520Y-75842849D01*
X102794030Y-75820671D01*
X102785765Y-75797571D01*
X102779804Y-75773773D01*
X102776204Y-75749504D01*
X102775000Y-75725000D01*
X102775000Y-74475000D01*
X102776204Y-74450496D01*
X102779804Y-74426227D01*
X102785765Y-74402429D01*
X102794030Y-74379329D01*
X102804520Y-74357151D01*
X102817133Y-74336107D01*
X102831747Y-74316402D01*
X102848223Y-74298223D01*
X102866402Y-74281747D01*
X102886107Y-74267133D01*
X102907151Y-74254520D01*
X102929329Y-74244030D01*
X102952429Y-74235765D01*
X102976227Y-74229804D01*
X103000496Y-74226204D01*
X103025000Y-74225000D01*
X103950000Y-74225000D01*
X103974504Y-74226204D01*
X103974504Y-74226204D01*
G37*
D11*
X103487500Y-75100000D03*
D10*
G36*
X100999504Y-74226204D02*
X101023773Y-74229804D01*
X101047571Y-74235765D01*
X101070671Y-74244030D01*
X101092849Y-74254520D01*
X101113893Y-74267133D01*
X101133598Y-74281747D01*
X101151777Y-74298223D01*
X101168253Y-74316402D01*
X101182867Y-74336107D01*
X101195480Y-74357151D01*
X101205970Y-74379329D01*
X101214235Y-74402429D01*
X101220196Y-74426227D01*
X101223796Y-74450496D01*
X101225000Y-74475000D01*
X101225000Y-75725000D01*
X101223796Y-75749504D01*
X101220196Y-75773773D01*
X101214235Y-75797571D01*
X101205970Y-75820671D01*
X101195480Y-75842849D01*
X101182867Y-75863893D01*
X101168253Y-75883598D01*
X101151777Y-75901777D01*
X101133598Y-75918253D01*
X101113893Y-75932867D01*
X101092849Y-75945480D01*
X101070671Y-75955970D01*
X101047571Y-75964235D01*
X101023773Y-75970196D01*
X100999504Y-75973796D01*
X100975000Y-75975000D01*
X100050000Y-75975000D01*
X100025496Y-75973796D01*
X100001227Y-75970196D01*
X99977429Y-75964235D01*
X99954329Y-75955970D01*
X99932151Y-75945480D01*
X99911107Y-75932867D01*
X99891402Y-75918253D01*
X99873223Y-75901777D01*
X99856747Y-75883598D01*
X99842133Y-75863893D01*
X99829520Y-75842849D01*
X99819030Y-75820671D01*
X99810765Y-75797571D01*
X99804804Y-75773773D01*
X99801204Y-75749504D01*
X99800000Y-75725000D01*
X99800000Y-74475000D01*
X99801204Y-74450496D01*
X99804804Y-74426227D01*
X99810765Y-74402429D01*
X99819030Y-74379329D01*
X99829520Y-74357151D01*
X99842133Y-74336107D01*
X99856747Y-74316402D01*
X99873223Y-74298223D01*
X99891402Y-74281747D01*
X99911107Y-74267133D01*
X99932151Y-74254520D01*
X99954329Y-74244030D01*
X99977429Y-74235765D01*
X100001227Y-74229804D01*
X100025496Y-74226204D01*
X100050000Y-74225000D01*
X100975000Y-74225000D01*
X100999504Y-74226204D01*
X100999504Y-74226204D01*
G37*
D11*
X100512500Y-75100000D03*
G04 #@! TD*
D10*
G04 #@! TO.C,R2*
G36*
X91049504Y-58651204D02*
X91073773Y-58654804D01*
X91097571Y-58660765D01*
X91120671Y-58669030D01*
X91142849Y-58679520D01*
X91163893Y-58692133D01*
X91183598Y-58706747D01*
X91201777Y-58723223D01*
X91218253Y-58741402D01*
X91232867Y-58761107D01*
X91245480Y-58782151D01*
X91255970Y-58804329D01*
X91264235Y-58827429D01*
X91270196Y-58851227D01*
X91273796Y-58875496D01*
X91275000Y-58900000D01*
X91275000Y-59825000D01*
X91273796Y-59849504D01*
X91270196Y-59873773D01*
X91264235Y-59897571D01*
X91255970Y-59920671D01*
X91245480Y-59942849D01*
X91232867Y-59963893D01*
X91218253Y-59983598D01*
X91201777Y-60001777D01*
X91183598Y-60018253D01*
X91163893Y-60032867D01*
X91142849Y-60045480D01*
X91120671Y-60055970D01*
X91097571Y-60064235D01*
X91073773Y-60070196D01*
X91049504Y-60073796D01*
X91025000Y-60075000D01*
X89775000Y-60075000D01*
X89750496Y-60073796D01*
X89726227Y-60070196D01*
X89702429Y-60064235D01*
X89679329Y-60055970D01*
X89657151Y-60045480D01*
X89636107Y-60032867D01*
X89616402Y-60018253D01*
X89598223Y-60001777D01*
X89581747Y-59983598D01*
X89567133Y-59963893D01*
X89554520Y-59942849D01*
X89544030Y-59920671D01*
X89535765Y-59897571D01*
X89529804Y-59873773D01*
X89526204Y-59849504D01*
X89525000Y-59825000D01*
X89525000Y-58900000D01*
X89526204Y-58875496D01*
X89529804Y-58851227D01*
X89535765Y-58827429D01*
X89544030Y-58804329D01*
X89554520Y-58782151D01*
X89567133Y-58761107D01*
X89581747Y-58741402D01*
X89598223Y-58723223D01*
X89616402Y-58706747D01*
X89636107Y-58692133D01*
X89657151Y-58679520D01*
X89679329Y-58669030D01*
X89702429Y-58660765D01*
X89726227Y-58654804D01*
X89750496Y-58651204D01*
X89775000Y-58650000D01*
X91025000Y-58650000D01*
X91049504Y-58651204D01*
X91049504Y-58651204D01*
G37*
D11*
X90400000Y-59362500D03*
D10*
G36*
X91049504Y-61626204D02*
X91073773Y-61629804D01*
X91097571Y-61635765D01*
X91120671Y-61644030D01*
X91142849Y-61654520D01*
X91163893Y-61667133D01*
X91183598Y-61681747D01*
X91201777Y-61698223D01*
X91218253Y-61716402D01*
X91232867Y-61736107D01*
X91245480Y-61757151D01*
X91255970Y-61779329D01*
X91264235Y-61802429D01*
X91270196Y-61826227D01*
X91273796Y-61850496D01*
X91275000Y-61875000D01*
X91275000Y-62800000D01*
X91273796Y-62824504D01*
X91270196Y-62848773D01*
X91264235Y-62872571D01*
X91255970Y-62895671D01*
X91245480Y-62917849D01*
X91232867Y-62938893D01*
X91218253Y-62958598D01*
X91201777Y-62976777D01*
X91183598Y-62993253D01*
X91163893Y-63007867D01*
X91142849Y-63020480D01*
X91120671Y-63030970D01*
X91097571Y-63039235D01*
X91073773Y-63045196D01*
X91049504Y-63048796D01*
X91025000Y-63050000D01*
X89775000Y-63050000D01*
X89750496Y-63048796D01*
X89726227Y-63045196D01*
X89702429Y-63039235D01*
X89679329Y-63030970D01*
X89657151Y-63020480D01*
X89636107Y-63007867D01*
X89616402Y-62993253D01*
X89598223Y-62976777D01*
X89581747Y-62958598D01*
X89567133Y-62938893D01*
X89554520Y-62917849D01*
X89544030Y-62895671D01*
X89535765Y-62872571D01*
X89529804Y-62848773D01*
X89526204Y-62824504D01*
X89525000Y-62800000D01*
X89525000Y-61875000D01*
X89526204Y-61850496D01*
X89529804Y-61826227D01*
X89535765Y-61802429D01*
X89544030Y-61779329D01*
X89554520Y-61757151D01*
X89567133Y-61736107D01*
X89581747Y-61716402D01*
X89598223Y-61698223D01*
X89616402Y-61681747D01*
X89636107Y-61667133D01*
X89657151Y-61654520D01*
X89679329Y-61644030D01*
X89702429Y-61635765D01*
X89726227Y-61629804D01*
X89750496Y-61626204D01*
X89775000Y-61625000D01*
X91025000Y-61625000D01*
X91049504Y-61626204D01*
X91049504Y-61626204D01*
G37*
D11*
X90400000Y-62337500D03*
G04 #@! TD*
D10*
G04 #@! TO.C,C2*
G36*
X65274504Y-58976204D02*
X65298773Y-58979804D01*
X65322571Y-58985765D01*
X65345671Y-58994030D01*
X65367849Y-59004520D01*
X65388893Y-59017133D01*
X65408598Y-59031747D01*
X65426777Y-59048223D01*
X65443253Y-59066402D01*
X65457867Y-59086107D01*
X65470480Y-59107151D01*
X65480970Y-59129329D01*
X65489235Y-59152429D01*
X65495196Y-59176227D01*
X65498796Y-59200496D01*
X65500000Y-59225000D01*
X65500000Y-60475000D01*
X65498796Y-60499504D01*
X65495196Y-60523773D01*
X65489235Y-60547571D01*
X65480970Y-60570671D01*
X65470480Y-60592849D01*
X65457867Y-60613893D01*
X65443253Y-60633598D01*
X65426777Y-60651777D01*
X65408598Y-60668253D01*
X65388893Y-60682867D01*
X65367849Y-60695480D01*
X65345671Y-60705970D01*
X65322571Y-60714235D01*
X65298773Y-60720196D01*
X65274504Y-60723796D01*
X65250000Y-60725000D01*
X64325000Y-60725000D01*
X64300496Y-60723796D01*
X64276227Y-60720196D01*
X64252429Y-60714235D01*
X64229329Y-60705970D01*
X64207151Y-60695480D01*
X64186107Y-60682867D01*
X64166402Y-60668253D01*
X64148223Y-60651777D01*
X64131747Y-60633598D01*
X64117133Y-60613893D01*
X64104520Y-60592849D01*
X64094030Y-60570671D01*
X64085765Y-60547571D01*
X64079804Y-60523773D01*
X64076204Y-60499504D01*
X64075000Y-60475000D01*
X64075000Y-59225000D01*
X64076204Y-59200496D01*
X64079804Y-59176227D01*
X64085765Y-59152429D01*
X64094030Y-59129329D01*
X64104520Y-59107151D01*
X64117133Y-59086107D01*
X64131747Y-59066402D01*
X64148223Y-59048223D01*
X64166402Y-59031747D01*
X64186107Y-59017133D01*
X64207151Y-59004520D01*
X64229329Y-58994030D01*
X64252429Y-58985765D01*
X64276227Y-58979804D01*
X64300496Y-58976204D01*
X64325000Y-58975000D01*
X65250000Y-58975000D01*
X65274504Y-58976204D01*
X65274504Y-58976204D01*
G37*
D11*
X64787500Y-59850000D03*
D10*
G36*
X62299504Y-58976204D02*
X62323773Y-58979804D01*
X62347571Y-58985765D01*
X62370671Y-58994030D01*
X62392849Y-59004520D01*
X62413893Y-59017133D01*
X62433598Y-59031747D01*
X62451777Y-59048223D01*
X62468253Y-59066402D01*
X62482867Y-59086107D01*
X62495480Y-59107151D01*
X62505970Y-59129329D01*
X62514235Y-59152429D01*
X62520196Y-59176227D01*
X62523796Y-59200496D01*
X62525000Y-59225000D01*
X62525000Y-60475000D01*
X62523796Y-60499504D01*
X62520196Y-60523773D01*
X62514235Y-60547571D01*
X62505970Y-60570671D01*
X62495480Y-60592849D01*
X62482867Y-60613893D01*
X62468253Y-60633598D01*
X62451777Y-60651777D01*
X62433598Y-60668253D01*
X62413893Y-60682867D01*
X62392849Y-60695480D01*
X62370671Y-60705970D01*
X62347571Y-60714235D01*
X62323773Y-60720196D01*
X62299504Y-60723796D01*
X62275000Y-60725000D01*
X61350000Y-60725000D01*
X61325496Y-60723796D01*
X61301227Y-60720196D01*
X61277429Y-60714235D01*
X61254329Y-60705970D01*
X61232151Y-60695480D01*
X61211107Y-60682867D01*
X61191402Y-60668253D01*
X61173223Y-60651777D01*
X61156747Y-60633598D01*
X61142133Y-60613893D01*
X61129520Y-60592849D01*
X61119030Y-60570671D01*
X61110765Y-60547571D01*
X61104804Y-60523773D01*
X61101204Y-60499504D01*
X61100000Y-60475000D01*
X61100000Y-59225000D01*
X61101204Y-59200496D01*
X61104804Y-59176227D01*
X61110765Y-59152429D01*
X61119030Y-59129329D01*
X61129520Y-59107151D01*
X61142133Y-59086107D01*
X61156747Y-59066402D01*
X61173223Y-59048223D01*
X61191402Y-59031747D01*
X61211107Y-59017133D01*
X61232151Y-59004520D01*
X61254329Y-58994030D01*
X61277429Y-58985765D01*
X61301227Y-58979804D01*
X61325496Y-58976204D01*
X61350000Y-58975000D01*
X62275000Y-58975000D01*
X62299504Y-58976204D01*
X62299504Y-58976204D01*
G37*
D11*
X61812500Y-59850000D03*
G04 #@! TD*
D10*
G04 #@! TO.C,C3*
G36*
X56999504Y-58976204D02*
X57023773Y-58979804D01*
X57047571Y-58985765D01*
X57070671Y-58994030D01*
X57092849Y-59004520D01*
X57113893Y-59017133D01*
X57133598Y-59031747D01*
X57151777Y-59048223D01*
X57168253Y-59066402D01*
X57182867Y-59086107D01*
X57195480Y-59107151D01*
X57205970Y-59129329D01*
X57214235Y-59152429D01*
X57220196Y-59176227D01*
X57223796Y-59200496D01*
X57225000Y-59225000D01*
X57225000Y-60475000D01*
X57223796Y-60499504D01*
X57220196Y-60523773D01*
X57214235Y-60547571D01*
X57205970Y-60570671D01*
X57195480Y-60592849D01*
X57182867Y-60613893D01*
X57168253Y-60633598D01*
X57151777Y-60651777D01*
X57133598Y-60668253D01*
X57113893Y-60682867D01*
X57092849Y-60695480D01*
X57070671Y-60705970D01*
X57047571Y-60714235D01*
X57023773Y-60720196D01*
X56999504Y-60723796D01*
X56975000Y-60725000D01*
X56050000Y-60725000D01*
X56025496Y-60723796D01*
X56001227Y-60720196D01*
X55977429Y-60714235D01*
X55954329Y-60705970D01*
X55932151Y-60695480D01*
X55911107Y-60682867D01*
X55891402Y-60668253D01*
X55873223Y-60651777D01*
X55856747Y-60633598D01*
X55842133Y-60613893D01*
X55829520Y-60592849D01*
X55819030Y-60570671D01*
X55810765Y-60547571D01*
X55804804Y-60523773D01*
X55801204Y-60499504D01*
X55800000Y-60475000D01*
X55800000Y-59225000D01*
X55801204Y-59200496D01*
X55804804Y-59176227D01*
X55810765Y-59152429D01*
X55819030Y-59129329D01*
X55829520Y-59107151D01*
X55842133Y-59086107D01*
X55856747Y-59066402D01*
X55873223Y-59048223D01*
X55891402Y-59031747D01*
X55911107Y-59017133D01*
X55932151Y-59004520D01*
X55954329Y-58994030D01*
X55977429Y-58985765D01*
X56001227Y-58979804D01*
X56025496Y-58976204D01*
X56050000Y-58975000D01*
X56975000Y-58975000D01*
X56999504Y-58976204D01*
X56999504Y-58976204D01*
G37*
D11*
X56512500Y-59850000D03*
D10*
G36*
X59974504Y-58976204D02*
X59998773Y-58979804D01*
X60022571Y-58985765D01*
X60045671Y-58994030D01*
X60067849Y-59004520D01*
X60088893Y-59017133D01*
X60108598Y-59031747D01*
X60126777Y-59048223D01*
X60143253Y-59066402D01*
X60157867Y-59086107D01*
X60170480Y-59107151D01*
X60180970Y-59129329D01*
X60189235Y-59152429D01*
X60195196Y-59176227D01*
X60198796Y-59200496D01*
X60200000Y-59225000D01*
X60200000Y-60475000D01*
X60198796Y-60499504D01*
X60195196Y-60523773D01*
X60189235Y-60547571D01*
X60180970Y-60570671D01*
X60170480Y-60592849D01*
X60157867Y-60613893D01*
X60143253Y-60633598D01*
X60126777Y-60651777D01*
X60108598Y-60668253D01*
X60088893Y-60682867D01*
X60067849Y-60695480D01*
X60045671Y-60705970D01*
X60022571Y-60714235D01*
X59998773Y-60720196D01*
X59974504Y-60723796D01*
X59950000Y-60725000D01*
X59025000Y-60725000D01*
X59000496Y-60723796D01*
X58976227Y-60720196D01*
X58952429Y-60714235D01*
X58929329Y-60705970D01*
X58907151Y-60695480D01*
X58886107Y-60682867D01*
X58866402Y-60668253D01*
X58848223Y-60651777D01*
X58831747Y-60633598D01*
X58817133Y-60613893D01*
X58804520Y-60592849D01*
X58794030Y-60570671D01*
X58785765Y-60547571D01*
X58779804Y-60523773D01*
X58776204Y-60499504D01*
X58775000Y-60475000D01*
X58775000Y-59225000D01*
X58776204Y-59200496D01*
X58779804Y-59176227D01*
X58785765Y-59152429D01*
X58794030Y-59129329D01*
X58804520Y-59107151D01*
X58817133Y-59086107D01*
X58831747Y-59066402D01*
X58848223Y-59048223D01*
X58866402Y-59031747D01*
X58886107Y-59017133D01*
X58907151Y-59004520D01*
X58929329Y-58994030D01*
X58952429Y-58985765D01*
X58976227Y-58979804D01*
X59000496Y-58976204D01*
X59025000Y-58975000D01*
X59950000Y-58975000D01*
X59974504Y-58976204D01*
X59974504Y-58976204D01*
G37*
D11*
X59487500Y-59850000D03*
G04 #@! TD*
D10*
G04 #@! TO.C,C4*
G36*
X59974504Y-61476204D02*
X59998773Y-61479804D01*
X60022571Y-61485765D01*
X60045671Y-61494030D01*
X60067849Y-61504520D01*
X60088893Y-61517133D01*
X60108598Y-61531747D01*
X60126777Y-61548223D01*
X60143253Y-61566402D01*
X60157867Y-61586107D01*
X60170480Y-61607151D01*
X60180970Y-61629329D01*
X60189235Y-61652429D01*
X60195196Y-61676227D01*
X60198796Y-61700496D01*
X60200000Y-61725000D01*
X60200000Y-62975000D01*
X60198796Y-62999504D01*
X60195196Y-63023773D01*
X60189235Y-63047571D01*
X60180970Y-63070671D01*
X60170480Y-63092849D01*
X60157867Y-63113893D01*
X60143253Y-63133598D01*
X60126777Y-63151777D01*
X60108598Y-63168253D01*
X60088893Y-63182867D01*
X60067849Y-63195480D01*
X60045671Y-63205970D01*
X60022571Y-63214235D01*
X59998773Y-63220196D01*
X59974504Y-63223796D01*
X59950000Y-63225000D01*
X59025000Y-63225000D01*
X59000496Y-63223796D01*
X58976227Y-63220196D01*
X58952429Y-63214235D01*
X58929329Y-63205970D01*
X58907151Y-63195480D01*
X58886107Y-63182867D01*
X58866402Y-63168253D01*
X58848223Y-63151777D01*
X58831747Y-63133598D01*
X58817133Y-63113893D01*
X58804520Y-63092849D01*
X58794030Y-63070671D01*
X58785765Y-63047571D01*
X58779804Y-63023773D01*
X58776204Y-62999504D01*
X58775000Y-62975000D01*
X58775000Y-61725000D01*
X58776204Y-61700496D01*
X58779804Y-61676227D01*
X58785765Y-61652429D01*
X58794030Y-61629329D01*
X58804520Y-61607151D01*
X58817133Y-61586107D01*
X58831747Y-61566402D01*
X58848223Y-61548223D01*
X58866402Y-61531747D01*
X58886107Y-61517133D01*
X58907151Y-61504520D01*
X58929329Y-61494030D01*
X58952429Y-61485765D01*
X58976227Y-61479804D01*
X59000496Y-61476204D01*
X59025000Y-61475000D01*
X59950000Y-61475000D01*
X59974504Y-61476204D01*
X59974504Y-61476204D01*
G37*
D11*
X59487500Y-62350000D03*
D10*
G36*
X56999504Y-61476204D02*
X57023773Y-61479804D01*
X57047571Y-61485765D01*
X57070671Y-61494030D01*
X57092849Y-61504520D01*
X57113893Y-61517133D01*
X57133598Y-61531747D01*
X57151777Y-61548223D01*
X57168253Y-61566402D01*
X57182867Y-61586107D01*
X57195480Y-61607151D01*
X57205970Y-61629329D01*
X57214235Y-61652429D01*
X57220196Y-61676227D01*
X57223796Y-61700496D01*
X57225000Y-61725000D01*
X57225000Y-62975000D01*
X57223796Y-62999504D01*
X57220196Y-63023773D01*
X57214235Y-63047571D01*
X57205970Y-63070671D01*
X57195480Y-63092849D01*
X57182867Y-63113893D01*
X57168253Y-63133598D01*
X57151777Y-63151777D01*
X57133598Y-63168253D01*
X57113893Y-63182867D01*
X57092849Y-63195480D01*
X57070671Y-63205970D01*
X57047571Y-63214235D01*
X57023773Y-63220196D01*
X56999504Y-63223796D01*
X56975000Y-63225000D01*
X56050000Y-63225000D01*
X56025496Y-63223796D01*
X56001227Y-63220196D01*
X55977429Y-63214235D01*
X55954329Y-63205970D01*
X55932151Y-63195480D01*
X55911107Y-63182867D01*
X55891402Y-63168253D01*
X55873223Y-63151777D01*
X55856747Y-63133598D01*
X55842133Y-63113893D01*
X55829520Y-63092849D01*
X55819030Y-63070671D01*
X55810765Y-63047571D01*
X55804804Y-63023773D01*
X55801204Y-62999504D01*
X55800000Y-62975000D01*
X55800000Y-61725000D01*
X55801204Y-61700496D01*
X55804804Y-61676227D01*
X55810765Y-61652429D01*
X55819030Y-61629329D01*
X55829520Y-61607151D01*
X55842133Y-61586107D01*
X55856747Y-61566402D01*
X55873223Y-61548223D01*
X55891402Y-61531747D01*
X55911107Y-61517133D01*
X55932151Y-61504520D01*
X55954329Y-61494030D01*
X55977429Y-61485765D01*
X56001227Y-61479804D01*
X56025496Y-61476204D01*
X56050000Y-61475000D01*
X56975000Y-61475000D01*
X56999504Y-61476204D01*
X56999504Y-61476204D01*
G37*
D11*
X56512500Y-62350000D03*
G04 #@! TD*
D10*
G04 #@! TO.C,R3*
G36*
X101234504Y-69230204D02*
X101258773Y-69233804D01*
X101282571Y-69239765D01*
X101305671Y-69248030D01*
X101327849Y-69258520D01*
X101348893Y-69271133D01*
X101368598Y-69285747D01*
X101386777Y-69302223D01*
X101403253Y-69320402D01*
X101417867Y-69340107D01*
X101430480Y-69361151D01*
X101440970Y-69383329D01*
X101449235Y-69406429D01*
X101455196Y-69430227D01*
X101458796Y-69454496D01*
X101460000Y-69479000D01*
X101460000Y-70729000D01*
X101458796Y-70753504D01*
X101455196Y-70777773D01*
X101449235Y-70801571D01*
X101440970Y-70824671D01*
X101430480Y-70846849D01*
X101417867Y-70867893D01*
X101403253Y-70887598D01*
X101386777Y-70905777D01*
X101368598Y-70922253D01*
X101348893Y-70936867D01*
X101327849Y-70949480D01*
X101305671Y-70959970D01*
X101282571Y-70968235D01*
X101258773Y-70974196D01*
X101234504Y-70977796D01*
X101210000Y-70979000D01*
X100285000Y-70979000D01*
X100260496Y-70977796D01*
X100236227Y-70974196D01*
X100212429Y-70968235D01*
X100189329Y-70959970D01*
X100167151Y-70949480D01*
X100146107Y-70936867D01*
X100126402Y-70922253D01*
X100108223Y-70905777D01*
X100091747Y-70887598D01*
X100077133Y-70867893D01*
X100064520Y-70846849D01*
X100054030Y-70824671D01*
X100045765Y-70801571D01*
X100039804Y-70777773D01*
X100036204Y-70753504D01*
X100035000Y-70729000D01*
X100035000Y-69479000D01*
X100036204Y-69454496D01*
X100039804Y-69430227D01*
X100045765Y-69406429D01*
X100054030Y-69383329D01*
X100064520Y-69361151D01*
X100077133Y-69340107D01*
X100091747Y-69320402D01*
X100108223Y-69302223D01*
X100126402Y-69285747D01*
X100146107Y-69271133D01*
X100167151Y-69258520D01*
X100189329Y-69248030D01*
X100212429Y-69239765D01*
X100236227Y-69233804D01*
X100260496Y-69230204D01*
X100285000Y-69229000D01*
X101210000Y-69229000D01*
X101234504Y-69230204D01*
X101234504Y-69230204D01*
G37*
D11*
X100747500Y-70104000D03*
D10*
G36*
X104209504Y-69230204D02*
X104233773Y-69233804D01*
X104257571Y-69239765D01*
X104280671Y-69248030D01*
X104302849Y-69258520D01*
X104323893Y-69271133D01*
X104343598Y-69285747D01*
X104361777Y-69302223D01*
X104378253Y-69320402D01*
X104392867Y-69340107D01*
X104405480Y-69361151D01*
X104415970Y-69383329D01*
X104424235Y-69406429D01*
X104430196Y-69430227D01*
X104433796Y-69454496D01*
X104435000Y-69479000D01*
X104435000Y-70729000D01*
X104433796Y-70753504D01*
X104430196Y-70777773D01*
X104424235Y-70801571D01*
X104415970Y-70824671D01*
X104405480Y-70846849D01*
X104392867Y-70867893D01*
X104378253Y-70887598D01*
X104361777Y-70905777D01*
X104343598Y-70922253D01*
X104323893Y-70936867D01*
X104302849Y-70949480D01*
X104280671Y-70959970D01*
X104257571Y-70968235D01*
X104233773Y-70974196D01*
X104209504Y-70977796D01*
X104185000Y-70979000D01*
X103260000Y-70979000D01*
X103235496Y-70977796D01*
X103211227Y-70974196D01*
X103187429Y-70968235D01*
X103164329Y-70959970D01*
X103142151Y-70949480D01*
X103121107Y-70936867D01*
X103101402Y-70922253D01*
X103083223Y-70905777D01*
X103066747Y-70887598D01*
X103052133Y-70867893D01*
X103039520Y-70846849D01*
X103029030Y-70824671D01*
X103020765Y-70801571D01*
X103014804Y-70777773D01*
X103011204Y-70753504D01*
X103010000Y-70729000D01*
X103010000Y-69479000D01*
X103011204Y-69454496D01*
X103014804Y-69430227D01*
X103020765Y-69406429D01*
X103029030Y-69383329D01*
X103039520Y-69361151D01*
X103052133Y-69340107D01*
X103066747Y-69320402D01*
X103083223Y-69302223D01*
X103101402Y-69285747D01*
X103121107Y-69271133D01*
X103142151Y-69258520D01*
X103164329Y-69248030D01*
X103187429Y-69239765D01*
X103211227Y-69233804D01*
X103235496Y-69230204D01*
X103260000Y-69229000D01*
X104185000Y-69229000D01*
X104209504Y-69230204D01*
X104209504Y-69230204D01*
G37*
D11*
X103722500Y-70104000D03*
G04 #@! TD*
D10*
G04 #@! TO.C,R4*
G36*
X70699504Y-61326204D02*
X70723773Y-61329804D01*
X70747571Y-61335765D01*
X70770671Y-61344030D01*
X70792849Y-61354520D01*
X70813893Y-61367133D01*
X70833598Y-61381747D01*
X70851777Y-61398223D01*
X70868253Y-61416402D01*
X70882867Y-61436107D01*
X70895480Y-61457151D01*
X70905970Y-61479329D01*
X70914235Y-61502429D01*
X70920196Y-61526227D01*
X70923796Y-61550496D01*
X70925000Y-61575000D01*
X70925000Y-62500000D01*
X70923796Y-62524504D01*
X70920196Y-62548773D01*
X70914235Y-62572571D01*
X70905970Y-62595671D01*
X70895480Y-62617849D01*
X70882867Y-62638893D01*
X70868253Y-62658598D01*
X70851777Y-62676777D01*
X70833598Y-62693253D01*
X70813893Y-62707867D01*
X70792849Y-62720480D01*
X70770671Y-62730970D01*
X70747571Y-62739235D01*
X70723773Y-62745196D01*
X70699504Y-62748796D01*
X70675000Y-62750000D01*
X69425000Y-62750000D01*
X69400496Y-62748796D01*
X69376227Y-62745196D01*
X69352429Y-62739235D01*
X69329329Y-62730970D01*
X69307151Y-62720480D01*
X69286107Y-62707867D01*
X69266402Y-62693253D01*
X69248223Y-62676777D01*
X69231747Y-62658598D01*
X69217133Y-62638893D01*
X69204520Y-62617849D01*
X69194030Y-62595671D01*
X69185765Y-62572571D01*
X69179804Y-62548773D01*
X69176204Y-62524504D01*
X69175000Y-62500000D01*
X69175000Y-61575000D01*
X69176204Y-61550496D01*
X69179804Y-61526227D01*
X69185765Y-61502429D01*
X69194030Y-61479329D01*
X69204520Y-61457151D01*
X69217133Y-61436107D01*
X69231747Y-61416402D01*
X69248223Y-61398223D01*
X69266402Y-61381747D01*
X69286107Y-61367133D01*
X69307151Y-61354520D01*
X69329329Y-61344030D01*
X69352429Y-61335765D01*
X69376227Y-61329804D01*
X69400496Y-61326204D01*
X69425000Y-61325000D01*
X70675000Y-61325000D01*
X70699504Y-61326204D01*
X70699504Y-61326204D01*
G37*
D11*
X70050000Y-62037500D03*
D10*
G36*
X70699504Y-58351204D02*
X70723773Y-58354804D01*
X70747571Y-58360765D01*
X70770671Y-58369030D01*
X70792849Y-58379520D01*
X70813893Y-58392133D01*
X70833598Y-58406747D01*
X70851777Y-58423223D01*
X70868253Y-58441402D01*
X70882867Y-58461107D01*
X70895480Y-58482151D01*
X70905970Y-58504329D01*
X70914235Y-58527429D01*
X70920196Y-58551227D01*
X70923796Y-58575496D01*
X70925000Y-58600000D01*
X70925000Y-59525000D01*
X70923796Y-59549504D01*
X70920196Y-59573773D01*
X70914235Y-59597571D01*
X70905970Y-59620671D01*
X70895480Y-59642849D01*
X70882867Y-59663893D01*
X70868253Y-59683598D01*
X70851777Y-59701777D01*
X70833598Y-59718253D01*
X70813893Y-59732867D01*
X70792849Y-59745480D01*
X70770671Y-59755970D01*
X70747571Y-59764235D01*
X70723773Y-59770196D01*
X70699504Y-59773796D01*
X70675000Y-59775000D01*
X69425000Y-59775000D01*
X69400496Y-59773796D01*
X69376227Y-59770196D01*
X69352429Y-59764235D01*
X69329329Y-59755970D01*
X69307151Y-59745480D01*
X69286107Y-59732867D01*
X69266402Y-59718253D01*
X69248223Y-59701777D01*
X69231747Y-59683598D01*
X69217133Y-59663893D01*
X69204520Y-59642849D01*
X69194030Y-59620671D01*
X69185765Y-59597571D01*
X69179804Y-59573773D01*
X69176204Y-59549504D01*
X69175000Y-59525000D01*
X69175000Y-58600000D01*
X69176204Y-58575496D01*
X69179804Y-58551227D01*
X69185765Y-58527429D01*
X69194030Y-58504329D01*
X69204520Y-58482151D01*
X69217133Y-58461107D01*
X69231747Y-58441402D01*
X69248223Y-58423223D01*
X69266402Y-58406747D01*
X69286107Y-58392133D01*
X69307151Y-58379520D01*
X69329329Y-58369030D01*
X69352429Y-58360765D01*
X69376227Y-58354804D01*
X69400496Y-58351204D01*
X69425000Y-58350000D01*
X70675000Y-58350000D01*
X70699504Y-58351204D01*
X70699504Y-58351204D01*
G37*
D11*
X70050000Y-59062500D03*
G04 #@! TD*
D10*
G04 #@! TO.C,C5*
G36*
X109549504Y-58801204D02*
X109573773Y-58804804D01*
X109597571Y-58810765D01*
X109620671Y-58819030D01*
X109642849Y-58829520D01*
X109663893Y-58842133D01*
X109683598Y-58856747D01*
X109701777Y-58873223D01*
X109718253Y-58891402D01*
X109732867Y-58911107D01*
X109745480Y-58932151D01*
X109755970Y-58954329D01*
X109764235Y-58977429D01*
X109770196Y-59001227D01*
X109773796Y-59025496D01*
X109775000Y-59050000D01*
X109775000Y-59975000D01*
X109773796Y-59999504D01*
X109770196Y-60023773D01*
X109764235Y-60047571D01*
X109755970Y-60070671D01*
X109745480Y-60092849D01*
X109732867Y-60113893D01*
X109718253Y-60133598D01*
X109701777Y-60151777D01*
X109683598Y-60168253D01*
X109663893Y-60182867D01*
X109642849Y-60195480D01*
X109620671Y-60205970D01*
X109597571Y-60214235D01*
X109573773Y-60220196D01*
X109549504Y-60223796D01*
X109525000Y-60225000D01*
X108275000Y-60225000D01*
X108250496Y-60223796D01*
X108226227Y-60220196D01*
X108202429Y-60214235D01*
X108179329Y-60205970D01*
X108157151Y-60195480D01*
X108136107Y-60182867D01*
X108116402Y-60168253D01*
X108098223Y-60151777D01*
X108081747Y-60133598D01*
X108067133Y-60113893D01*
X108054520Y-60092849D01*
X108044030Y-60070671D01*
X108035765Y-60047571D01*
X108029804Y-60023773D01*
X108026204Y-59999504D01*
X108025000Y-59975000D01*
X108025000Y-59050000D01*
X108026204Y-59025496D01*
X108029804Y-59001227D01*
X108035765Y-58977429D01*
X108044030Y-58954329D01*
X108054520Y-58932151D01*
X108067133Y-58911107D01*
X108081747Y-58891402D01*
X108098223Y-58873223D01*
X108116402Y-58856747D01*
X108136107Y-58842133D01*
X108157151Y-58829520D01*
X108179329Y-58819030D01*
X108202429Y-58810765D01*
X108226227Y-58804804D01*
X108250496Y-58801204D01*
X108275000Y-58800000D01*
X109525000Y-58800000D01*
X109549504Y-58801204D01*
X109549504Y-58801204D01*
G37*
D11*
X108900000Y-59512500D03*
D10*
G36*
X109549504Y-61776204D02*
X109573773Y-61779804D01*
X109597571Y-61785765D01*
X109620671Y-61794030D01*
X109642849Y-61804520D01*
X109663893Y-61817133D01*
X109683598Y-61831747D01*
X109701777Y-61848223D01*
X109718253Y-61866402D01*
X109732867Y-61886107D01*
X109745480Y-61907151D01*
X109755970Y-61929329D01*
X109764235Y-61952429D01*
X109770196Y-61976227D01*
X109773796Y-62000496D01*
X109775000Y-62025000D01*
X109775000Y-62950000D01*
X109773796Y-62974504D01*
X109770196Y-62998773D01*
X109764235Y-63022571D01*
X109755970Y-63045671D01*
X109745480Y-63067849D01*
X109732867Y-63088893D01*
X109718253Y-63108598D01*
X109701777Y-63126777D01*
X109683598Y-63143253D01*
X109663893Y-63157867D01*
X109642849Y-63170480D01*
X109620671Y-63180970D01*
X109597571Y-63189235D01*
X109573773Y-63195196D01*
X109549504Y-63198796D01*
X109525000Y-63200000D01*
X108275000Y-63200000D01*
X108250496Y-63198796D01*
X108226227Y-63195196D01*
X108202429Y-63189235D01*
X108179329Y-63180970D01*
X108157151Y-63170480D01*
X108136107Y-63157867D01*
X108116402Y-63143253D01*
X108098223Y-63126777D01*
X108081747Y-63108598D01*
X108067133Y-63088893D01*
X108054520Y-63067849D01*
X108044030Y-63045671D01*
X108035765Y-63022571D01*
X108029804Y-62998773D01*
X108026204Y-62974504D01*
X108025000Y-62950000D01*
X108025000Y-62025000D01*
X108026204Y-62000496D01*
X108029804Y-61976227D01*
X108035765Y-61952429D01*
X108044030Y-61929329D01*
X108054520Y-61907151D01*
X108067133Y-61886107D01*
X108081747Y-61866402D01*
X108098223Y-61848223D01*
X108116402Y-61831747D01*
X108136107Y-61817133D01*
X108157151Y-61804520D01*
X108179329Y-61794030D01*
X108202429Y-61785765D01*
X108226227Y-61779804D01*
X108250496Y-61776204D01*
X108275000Y-61775000D01*
X109525000Y-61775000D01*
X109549504Y-61776204D01*
X109549504Y-61776204D01*
G37*
D11*
X108900000Y-62487500D03*
G04 #@! TD*
D10*
G04 #@! TO.C,C6*
G36*
X113224504Y-69376204D02*
X113248773Y-69379804D01*
X113272571Y-69385765D01*
X113295671Y-69394030D01*
X113317849Y-69404520D01*
X113338893Y-69417133D01*
X113358598Y-69431747D01*
X113376777Y-69448223D01*
X113393253Y-69466402D01*
X113407867Y-69486107D01*
X113420480Y-69507151D01*
X113430970Y-69529329D01*
X113439235Y-69552429D01*
X113445196Y-69576227D01*
X113448796Y-69600496D01*
X113450000Y-69625000D01*
X113450000Y-70875000D01*
X113448796Y-70899504D01*
X113445196Y-70923773D01*
X113439235Y-70947571D01*
X113430970Y-70970671D01*
X113420480Y-70992849D01*
X113407867Y-71013893D01*
X113393253Y-71033598D01*
X113376777Y-71051777D01*
X113358598Y-71068253D01*
X113338893Y-71082867D01*
X113317849Y-71095480D01*
X113295671Y-71105970D01*
X113272571Y-71114235D01*
X113248773Y-71120196D01*
X113224504Y-71123796D01*
X113200000Y-71125000D01*
X112275000Y-71125000D01*
X112250496Y-71123796D01*
X112226227Y-71120196D01*
X112202429Y-71114235D01*
X112179329Y-71105970D01*
X112157151Y-71095480D01*
X112136107Y-71082867D01*
X112116402Y-71068253D01*
X112098223Y-71051777D01*
X112081747Y-71033598D01*
X112067133Y-71013893D01*
X112054520Y-70992849D01*
X112044030Y-70970671D01*
X112035765Y-70947571D01*
X112029804Y-70923773D01*
X112026204Y-70899504D01*
X112025000Y-70875000D01*
X112025000Y-69625000D01*
X112026204Y-69600496D01*
X112029804Y-69576227D01*
X112035765Y-69552429D01*
X112044030Y-69529329D01*
X112054520Y-69507151D01*
X112067133Y-69486107D01*
X112081747Y-69466402D01*
X112098223Y-69448223D01*
X112116402Y-69431747D01*
X112136107Y-69417133D01*
X112157151Y-69404520D01*
X112179329Y-69394030D01*
X112202429Y-69385765D01*
X112226227Y-69379804D01*
X112250496Y-69376204D01*
X112275000Y-69375000D01*
X113200000Y-69375000D01*
X113224504Y-69376204D01*
X113224504Y-69376204D01*
G37*
D11*
X112737500Y-70250000D03*
D10*
G36*
X110249504Y-69376204D02*
X110273773Y-69379804D01*
X110297571Y-69385765D01*
X110320671Y-69394030D01*
X110342849Y-69404520D01*
X110363893Y-69417133D01*
X110383598Y-69431747D01*
X110401777Y-69448223D01*
X110418253Y-69466402D01*
X110432867Y-69486107D01*
X110445480Y-69507151D01*
X110455970Y-69529329D01*
X110464235Y-69552429D01*
X110470196Y-69576227D01*
X110473796Y-69600496D01*
X110475000Y-69625000D01*
X110475000Y-70875000D01*
X110473796Y-70899504D01*
X110470196Y-70923773D01*
X110464235Y-70947571D01*
X110455970Y-70970671D01*
X110445480Y-70992849D01*
X110432867Y-71013893D01*
X110418253Y-71033598D01*
X110401777Y-71051777D01*
X110383598Y-71068253D01*
X110363893Y-71082867D01*
X110342849Y-71095480D01*
X110320671Y-71105970D01*
X110297571Y-71114235D01*
X110273773Y-71120196D01*
X110249504Y-71123796D01*
X110225000Y-71125000D01*
X109300000Y-71125000D01*
X109275496Y-71123796D01*
X109251227Y-71120196D01*
X109227429Y-71114235D01*
X109204329Y-71105970D01*
X109182151Y-71095480D01*
X109161107Y-71082867D01*
X109141402Y-71068253D01*
X109123223Y-71051777D01*
X109106747Y-71033598D01*
X109092133Y-71013893D01*
X109079520Y-70992849D01*
X109069030Y-70970671D01*
X109060765Y-70947571D01*
X109054804Y-70923773D01*
X109051204Y-70899504D01*
X109050000Y-70875000D01*
X109050000Y-69625000D01*
X109051204Y-69600496D01*
X109054804Y-69576227D01*
X109060765Y-69552429D01*
X109069030Y-69529329D01*
X109079520Y-69507151D01*
X109092133Y-69486107D01*
X109106747Y-69466402D01*
X109123223Y-69448223D01*
X109141402Y-69431747D01*
X109161107Y-69417133D01*
X109182151Y-69404520D01*
X109204329Y-69394030D01*
X109227429Y-69385765D01*
X109251227Y-69379804D01*
X109275496Y-69376204D01*
X109300000Y-69375000D01*
X110225000Y-69375000D01*
X110249504Y-69376204D01*
X110249504Y-69376204D01*
G37*
D11*
X109762500Y-70250000D03*
G04 #@! TD*
D10*
G04 #@! TO.C,R6*
G36*
X106074504Y-61976204D02*
X106098773Y-61979804D01*
X106122571Y-61985765D01*
X106145671Y-61994030D01*
X106167849Y-62004520D01*
X106188893Y-62017133D01*
X106208598Y-62031747D01*
X106226777Y-62048223D01*
X106243253Y-62066402D01*
X106257867Y-62086107D01*
X106270480Y-62107151D01*
X106280970Y-62129329D01*
X106289235Y-62152429D01*
X106295196Y-62176227D01*
X106298796Y-62200496D01*
X106300000Y-62225000D01*
X106300000Y-63475000D01*
X106298796Y-63499504D01*
X106295196Y-63523773D01*
X106289235Y-63547571D01*
X106280970Y-63570671D01*
X106270480Y-63592849D01*
X106257867Y-63613893D01*
X106243253Y-63633598D01*
X106226777Y-63651777D01*
X106208598Y-63668253D01*
X106188893Y-63682867D01*
X106167849Y-63695480D01*
X106145671Y-63705970D01*
X106122571Y-63714235D01*
X106098773Y-63720196D01*
X106074504Y-63723796D01*
X106050000Y-63725000D01*
X105125000Y-63725000D01*
X105100496Y-63723796D01*
X105076227Y-63720196D01*
X105052429Y-63714235D01*
X105029329Y-63705970D01*
X105007151Y-63695480D01*
X104986107Y-63682867D01*
X104966402Y-63668253D01*
X104948223Y-63651777D01*
X104931747Y-63633598D01*
X104917133Y-63613893D01*
X104904520Y-63592849D01*
X104894030Y-63570671D01*
X104885765Y-63547571D01*
X104879804Y-63523773D01*
X104876204Y-63499504D01*
X104875000Y-63475000D01*
X104875000Y-62225000D01*
X104876204Y-62200496D01*
X104879804Y-62176227D01*
X104885765Y-62152429D01*
X104894030Y-62129329D01*
X104904520Y-62107151D01*
X104917133Y-62086107D01*
X104931747Y-62066402D01*
X104948223Y-62048223D01*
X104966402Y-62031747D01*
X104986107Y-62017133D01*
X105007151Y-62004520D01*
X105029329Y-61994030D01*
X105052429Y-61985765D01*
X105076227Y-61979804D01*
X105100496Y-61976204D01*
X105125000Y-61975000D01*
X106050000Y-61975000D01*
X106074504Y-61976204D01*
X106074504Y-61976204D01*
G37*
D11*
X105587500Y-62850000D03*
D10*
G36*
X103099504Y-61976204D02*
X103123773Y-61979804D01*
X103147571Y-61985765D01*
X103170671Y-61994030D01*
X103192849Y-62004520D01*
X103213893Y-62017133D01*
X103233598Y-62031747D01*
X103251777Y-62048223D01*
X103268253Y-62066402D01*
X103282867Y-62086107D01*
X103295480Y-62107151D01*
X103305970Y-62129329D01*
X103314235Y-62152429D01*
X103320196Y-62176227D01*
X103323796Y-62200496D01*
X103325000Y-62225000D01*
X103325000Y-63475000D01*
X103323796Y-63499504D01*
X103320196Y-63523773D01*
X103314235Y-63547571D01*
X103305970Y-63570671D01*
X103295480Y-63592849D01*
X103282867Y-63613893D01*
X103268253Y-63633598D01*
X103251777Y-63651777D01*
X103233598Y-63668253D01*
X103213893Y-63682867D01*
X103192849Y-63695480D01*
X103170671Y-63705970D01*
X103147571Y-63714235D01*
X103123773Y-63720196D01*
X103099504Y-63723796D01*
X103075000Y-63725000D01*
X102150000Y-63725000D01*
X102125496Y-63723796D01*
X102101227Y-63720196D01*
X102077429Y-63714235D01*
X102054329Y-63705970D01*
X102032151Y-63695480D01*
X102011107Y-63682867D01*
X101991402Y-63668253D01*
X101973223Y-63651777D01*
X101956747Y-63633598D01*
X101942133Y-63613893D01*
X101929520Y-63592849D01*
X101919030Y-63570671D01*
X101910765Y-63547571D01*
X101904804Y-63523773D01*
X101901204Y-63499504D01*
X101900000Y-63475000D01*
X101900000Y-62225000D01*
X101901204Y-62200496D01*
X101904804Y-62176227D01*
X101910765Y-62152429D01*
X101919030Y-62129329D01*
X101929520Y-62107151D01*
X101942133Y-62086107D01*
X101956747Y-62066402D01*
X101973223Y-62048223D01*
X101991402Y-62031747D01*
X102011107Y-62017133D01*
X102032151Y-62004520D01*
X102054329Y-61994030D01*
X102077429Y-61985765D01*
X102101227Y-61979804D01*
X102125496Y-61976204D01*
X102150000Y-61975000D01*
X103075000Y-61975000D01*
X103099504Y-61976204D01*
X103099504Y-61976204D01*
G37*
D11*
X102612500Y-62850000D03*
G04 #@! TD*
D16*
G04 #@! TO.C,U1*
X52650000Y-71950000D03*
X52650000Y-71150000D03*
X52650000Y-70350000D03*
X52650000Y-69550000D03*
X52650000Y-68750000D03*
X52650000Y-67950000D03*
X52650000Y-67150000D03*
X52650000Y-66350000D03*
D17*
X54100000Y-64900000D03*
X54900000Y-64900000D03*
X55700000Y-64900000D03*
X56500000Y-64900000D03*
X57300000Y-64900000D03*
X58100000Y-64900000D03*
X58900000Y-64900000D03*
X59700000Y-64900000D03*
D16*
X61150000Y-66350000D03*
X61150000Y-67150000D03*
X61150000Y-67950000D03*
X61150000Y-68750000D03*
X61150000Y-69550000D03*
X61150000Y-70350000D03*
X61150000Y-71150000D03*
X61150000Y-71950000D03*
D17*
X59700000Y-73400000D03*
X58900000Y-73400000D03*
X58100000Y-73400000D03*
X57300000Y-73400000D03*
X56500000Y-73400000D03*
X55700000Y-73400000D03*
X54900000Y-73400000D03*
X54100000Y-73400000D03*
G04 #@! TD*
D10*
G04 #@! TO.C,R5*
G36*
X71824504Y-66726204D02*
X71848773Y-66729804D01*
X71872571Y-66735765D01*
X71895671Y-66744030D01*
X71917849Y-66754520D01*
X71938893Y-66767133D01*
X71958598Y-66781747D01*
X71976777Y-66798223D01*
X71993253Y-66816402D01*
X72007867Y-66836107D01*
X72020480Y-66857151D01*
X72030970Y-66879329D01*
X72039235Y-66902429D01*
X72045196Y-66926227D01*
X72048796Y-66950496D01*
X72050000Y-66975000D01*
X72050000Y-68225000D01*
X72048796Y-68249504D01*
X72045196Y-68273773D01*
X72039235Y-68297571D01*
X72030970Y-68320671D01*
X72020480Y-68342849D01*
X72007867Y-68363893D01*
X71993253Y-68383598D01*
X71976777Y-68401777D01*
X71958598Y-68418253D01*
X71938893Y-68432867D01*
X71917849Y-68445480D01*
X71895671Y-68455970D01*
X71872571Y-68464235D01*
X71848773Y-68470196D01*
X71824504Y-68473796D01*
X71800000Y-68475000D01*
X70875000Y-68475000D01*
X70850496Y-68473796D01*
X70826227Y-68470196D01*
X70802429Y-68464235D01*
X70779329Y-68455970D01*
X70757151Y-68445480D01*
X70736107Y-68432867D01*
X70716402Y-68418253D01*
X70698223Y-68401777D01*
X70681747Y-68383598D01*
X70667133Y-68363893D01*
X70654520Y-68342849D01*
X70644030Y-68320671D01*
X70635765Y-68297571D01*
X70629804Y-68273773D01*
X70626204Y-68249504D01*
X70625000Y-68225000D01*
X70625000Y-66975000D01*
X70626204Y-66950496D01*
X70629804Y-66926227D01*
X70635765Y-66902429D01*
X70644030Y-66879329D01*
X70654520Y-66857151D01*
X70667133Y-66836107D01*
X70681747Y-66816402D01*
X70698223Y-66798223D01*
X70716402Y-66781747D01*
X70736107Y-66767133D01*
X70757151Y-66754520D01*
X70779329Y-66744030D01*
X70802429Y-66735765D01*
X70826227Y-66729804D01*
X70850496Y-66726204D01*
X70875000Y-66725000D01*
X71800000Y-66725000D01*
X71824504Y-66726204D01*
X71824504Y-66726204D01*
G37*
D11*
X71337500Y-67600000D03*
D10*
G36*
X68849504Y-66726204D02*
X68873773Y-66729804D01*
X68897571Y-66735765D01*
X68920671Y-66744030D01*
X68942849Y-66754520D01*
X68963893Y-66767133D01*
X68983598Y-66781747D01*
X69001777Y-66798223D01*
X69018253Y-66816402D01*
X69032867Y-66836107D01*
X69045480Y-66857151D01*
X69055970Y-66879329D01*
X69064235Y-66902429D01*
X69070196Y-66926227D01*
X69073796Y-66950496D01*
X69075000Y-66975000D01*
X69075000Y-68225000D01*
X69073796Y-68249504D01*
X69070196Y-68273773D01*
X69064235Y-68297571D01*
X69055970Y-68320671D01*
X69045480Y-68342849D01*
X69032867Y-68363893D01*
X69018253Y-68383598D01*
X69001777Y-68401777D01*
X68983598Y-68418253D01*
X68963893Y-68432867D01*
X68942849Y-68445480D01*
X68920671Y-68455970D01*
X68897571Y-68464235D01*
X68873773Y-68470196D01*
X68849504Y-68473796D01*
X68825000Y-68475000D01*
X67900000Y-68475000D01*
X67875496Y-68473796D01*
X67851227Y-68470196D01*
X67827429Y-68464235D01*
X67804329Y-68455970D01*
X67782151Y-68445480D01*
X67761107Y-68432867D01*
X67741402Y-68418253D01*
X67723223Y-68401777D01*
X67706747Y-68383598D01*
X67692133Y-68363893D01*
X67679520Y-68342849D01*
X67669030Y-68320671D01*
X67660765Y-68297571D01*
X67654804Y-68273773D01*
X67651204Y-68249504D01*
X67650000Y-68225000D01*
X67650000Y-66975000D01*
X67651204Y-66950496D01*
X67654804Y-66926227D01*
X67660765Y-66902429D01*
X67669030Y-66879329D01*
X67679520Y-66857151D01*
X67692133Y-66836107D01*
X67706747Y-66816402D01*
X67723223Y-66798223D01*
X67741402Y-66781747D01*
X67761107Y-66767133D01*
X67782151Y-66754520D01*
X67804329Y-66744030D01*
X67827429Y-66735765D01*
X67851227Y-66729804D01*
X67875496Y-66726204D01*
X67900000Y-66725000D01*
X68825000Y-66725000D01*
X68849504Y-66726204D01*
X68849504Y-66726204D01*
G37*
D11*
X68362500Y-67600000D03*
G04 #@! TD*
D13*
G04 #@! TO.C,U2*
X94150000Y-63350000D03*
X94150000Y-62400000D03*
X94150000Y-61450000D03*
X96350000Y-61450000D03*
X96350000Y-63350000D03*
G04 #@! TD*
D10*
G04 #@! TO.C,U5*
G36*
X82732351Y-66775361D02*
X82739632Y-66776441D01*
X82746771Y-66778229D01*
X82753701Y-66780709D01*
X82760355Y-66783856D01*
X82766668Y-66787640D01*
X82772579Y-66792024D01*
X82778033Y-66796967D01*
X82782976Y-66802421D01*
X82787360Y-66808332D01*
X82791144Y-66814645D01*
X82794291Y-66821299D01*
X82796771Y-66828229D01*
X82798559Y-66835368D01*
X82799639Y-66842649D01*
X82800000Y-66850000D01*
X82800000Y-67550000D01*
X82799639Y-67557351D01*
X82798559Y-67564632D01*
X82796771Y-67571771D01*
X82794291Y-67578701D01*
X82791144Y-67585355D01*
X82787360Y-67591668D01*
X82782976Y-67597579D01*
X82778033Y-67603033D01*
X82772579Y-67607976D01*
X82766668Y-67612360D01*
X82760355Y-67616144D01*
X82753701Y-67619291D01*
X82746771Y-67621771D01*
X82739632Y-67623559D01*
X82732351Y-67624639D01*
X82725000Y-67625000D01*
X82575000Y-67625000D01*
X82567649Y-67624639D01*
X82560368Y-67623559D01*
X82553229Y-67621771D01*
X82546299Y-67619291D01*
X82539645Y-67616144D01*
X82533332Y-67612360D01*
X82527421Y-67607976D01*
X82521967Y-67603033D01*
X82517024Y-67597579D01*
X82512640Y-67591668D01*
X82508856Y-67585355D01*
X82505709Y-67578701D01*
X82503229Y-67571771D01*
X82501441Y-67564632D01*
X82500361Y-67557351D01*
X82500000Y-67550000D01*
X82500000Y-66850000D01*
X82500361Y-66842649D01*
X82501441Y-66835368D01*
X82503229Y-66828229D01*
X82505709Y-66821299D01*
X82508856Y-66814645D01*
X82512640Y-66808332D01*
X82517024Y-66802421D01*
X82521967Y-66796967D01*
X82527421Y-66792024D01*
X82533332Y-66787640D01*
X82539645Y-66783856D01*
X82546299Y-66780709D01*
X82553229Y-66778229D01*
X82560368Y-66776441D01*
X82567649Y-66775361D01*
X82575000Y-66775000D01*
X82725000Y-66775000D01*
X82732351Y-66775361D01*
X82732351Y-66775361D01*
G37*
D18*
X82650000Y-67200000D03*
D10*
G36*
X82232351Y-66775361D02*
X82239632Y-66776441D01*
X82246771Y-66778229D01*
X82253701Y-66780709D01*
X82260355Y-66783856D01*
X82266668Y-66787640D01*
X82272579Y-66792024D01*
X82278033Y-66796967D01*
X82282976Y-66802421D01*
X82287360Y-66808332D01*
X82291144Y-66814645D01*
X82294291Y-66821299D01*
X82296771Y-66828229D01*
X82298559Y-66835368D01*
X82299639Y-66842649D01*
X82300000Y-66850000D01*
X82300000Y-67550000D01*
X82299639Y-67557351D01*
X82298559Y-67564632D01*
X82296771Y-67571771D01*
X82294291Y-67578701D01*
X82291144Y-67585355D01*
X82287360Y-67591668D01*
X82282976Y-67597579D01*
X82278033Y-67603033D01*
X82272579Y-67607976D01*
X82266668Y-67612360D01*
X82260355Y-67616144D01*
X82253701Y-67619291D01*
X82246771Y-67621771D01*
X82239632Y-67623559D01*
X82232351Y-67624639D01*
X82225000Y-67625000D01*
X82075000Y-67625000D01*
X82067649Y-67624639D01*
X82060368Y-67623559D01*
X82053229Y-67621771D01*
X82046299Y-67619291D01*
X82039645Y-67616144D01*
X82033332Y-67612360D01*
X82027421Y-67607976D01*
X82021967Y-67603033D01*
X82017024Y-67597579D01*
X82012640Y-67591668D01*
X82008856Y-67585355D01*
X82005709Y-67578701D01*
X82003229Y-67571771D01*
X82001441Y-67564632D01*
X82000361Y-67557351D01*
X82000000Y-67550000D01*
X82000000Y-66850000D01*
X82000361Y-66842649D01*
X82001441Y-66835368D01*
X82003229Y-66828229D01*
X82005709Y-66821299D01*
X82008856Y-66814645D01*
X82012640Y-66808332D01*
X82017024Y-66802421D01*
X82021967Y-66796967D01*
X82027421Y-66792024D01*
X82033332Y-66787640D01*
X82039645Y-66783856D01*
X82046299Y-66780709D01*
X82053229Y-66778229D01*
X82060368Y-66776441D01*
X82067649Y-66775361D01*
X82075000Y-66775000D01*
X82225000Y-66775000D01*
X82232351Y-66775361D01*
X82232351Y-66775361D01*
G37*
D18*
X82150000Y-67200000D03*
D10*
G36*
X81732351Y-66775361D02*
X81739632Y-66776441D01*
X81746771Y-66778229D01*
X81753701Y-66780709D01*
X81760355Y-66783856D01*
X81766668Y-66787640D01*
X81772579Y-66792024D01*
X81778033Y-66796967D01*
X81782976Y-66802421D01*
X81787360Y-66808332D01*
X81791144Y-66814645D01*
X81794291Y-66821299D01*
X81796771Y-66828229D01*
X81798559Y-66835368D01*
X81799639Y-66842649D01*
X81800000Y-66850000D01*
X81800000Y-67550000D01*
X81799639Y-67557351D01*
X81798559Y-67564632D01*
X81796771Y-67571771D01*
X81794291Y-67578701D01*
X81791144Y-67585355D01*
X81787360Y-67591668D01*
X81782976Y-67597579D01*
X81778033Y-67603033D01*
X81772579Y-67607976D01*
X81766668Y-67612360D01*
X81760355Y-67616144D01*
X81753701Y-67619291D01*
X81746771Y-67621771D01*
X81739632Y-67623559D01*
X81732351Y-67624639D01*
X81725000Y-67625000D01*
X81575000Y-67625000D01*
X81567649Y-67624639D01*
X81560368Y-67623559D01*
X81553229Y-67621771D01*
X81546299Y-67619291D01*
X81539645Y-67616144D01*
X81533332Y-67612360D01*
X81527421Y-67607976D01*
X81521967Y-67603033D01*
X81517024Y-67597579D01*
X81512640Y-67591668D01*
X81508856Y-67585355D01*
X81505709Y-67578701D01*
X81503229Y-67571771D01*
X81501441Y-67564632D01*
X81500361Y-67557351D01*
X81500000Y-67550000D01*
X81500000Y-66850000D01*
X81500361Y-66842649D01*
X81501441Y-66835368D01*
X81503229Y-66828229D01*
X81505709Y-66821299D01*
X81508856Y-66814645D01*
X81512640Y-66808332D01*
X81517024Y-66802421D01*
X81521967Y-66796967D01*
X81527421Y-66792024D01*
X81533332Y-66787640D01*
X81539645Y-66783856D01*
X81546299Y-66780709D01*
X81553229Y-66778229D01*
X81560368Y-66776441D01*
X81567649Y-66775361D01*
X81575000Y-66775000D01*
X81725000Y-66775000D01*
X81732351Y-66775361D01*
X81732351Y-66775361D01*
G37*
D18*
X81650000Y-67200000D03*
D10*
G36*
X81232351Y-66775361D02*
X81239632Y-66776441D01*
X81246771Y-66778229D01*
X81253701Y-66780709D01*
X81260355Y-66783856D01*
X81266668Y-66787640D01*
X81272579Y-66792024D01*
X81278033Y-66796967D01*
X81282976Y-66802421D01*
X81287360Y-66808332D01*
X81291144Y-66814645D01*
X81294291Y-66821299D01*
X81296771Y-66828229D01*
X81298559Y-66835368D01*
X81299639Y-66842649D01*
X81300000Y-66850000D01*
X81300000Y-67550000D01*
X81299639Y-67557351D01*
X81298559Y-67564632D01*
X81296771Y-67571771D01*
X81294291Y-67578701D01*
X81291144Y-67585355D01*
X81287360Y-67591668D01*
X81282976Y-67597579D01*
X81278033Y-67603033D01*
X81272579Y-67607976D01*
X81266668Y-67612360D01*
X81260355Y-67616144D01*
X81253701Y-67619291D01*
X81246771Y-67621771D01*
X81239632Y-67623559D01*
X81232351Y-67624639D01*
X81225000Y-67625000D01*
X81075000Y-67625000D01*
X81067649Y-67624639D01*
X81060368Y-67623559D01*
X81053229Y-67621771D01*
X81046299Y-67619291D01*
X81039645Y-67616144D01*
X81033332Y-67612360D01*
X81027421Y-67607976D01*
X81021967Y-67603033D01*
X81017024Y-67597579D01*
X81012640Y-67591668D01*
X81008856Y-67585355D01*
X81005709Y-67578701D01*
X81003229Y-67571771D01*
X81001441Y-67564632D01*
X81000361Y-67557351D01*
X81000000Y-67550000D01*
X81000000Y-66850000D01*
X81000361Y-66842649D01*
X81001441Y-66835368D01*
X81003229Y-66828229D01*
X81005709Y-66821299D01*
X81008856Y-66814645D01*
X81012640Y-66808332D01*
X81017024Y-66802421D01*
X81021967Y-66796967D01*
X81027421Y-66792024D01*
X81033332Y-66787640D01*
X81039645Y-66783856D01*
X81046299Y-66780709D01*
X81053229Y-66778229D01*
X81060368Y-66776441D01*
X81067649Y-66775361D01*
X81075000Y-66775000D01*
X81225000Y-66775000D01*
X81232351Y-66775361D01*
X81232351Y-66775361D01*
G37*
D18*
X81150000Y-67200000D03*
D10*
G36*
X80732351Y-66775361D02*
X80739632Y-66776441D01*
X80746771Y-66778229D01*
X80753701Y-66780709D01*
X80760355Y-66783856D01*
X80766668Y-66787640D01*
X80772579Y-66792024D01*
X80778033Y-66796967D01*
X80782976Y-66802421D01*
X80787360Y-66808332D01*
X80791144Y-66814645D01*
X80794291Y-66821299D01*
X80796771Y-66828229D01*
X80798559Y-66835368D01*
X80799639Y-66842649D01*
X80800000Y-66850000D01*
X80800000Y-67550000D01*
X80799639Y-67557351D01*
X80798559Y-67564632D01*
X80796771Y-67571771D01*
X80794291Y-67578701D01*
X80791144Y-67585355D01*
X80787360Y-67591668D01*
X80782976Y-67597579D01*
X80778033Y-67603033D01*
X80772579Y-67607976D01*
X80766668Y-67612360D01*
X80760355Y-67616144D01*
X80753701Y-67619291D01*
X80746771Y-67621771D01*
X80739632Y-67623559D01*
X80732351Y-67624639D01*
X80725000Y-67625000D01*
X80575000Y-67625000D01*
X80567649Y-67624639D01*
X80560368Y-67623559D01*
X80553229Y-67621771D01*
X80546299Y-67619291D01*
X80539645Y-67616144D01*
X80533332Y-67612360D01*
X80527421Y-67607976D01*
X80521967Y-67603033D01*
X80517024Y-67597579D01*
X80512640Y-67591668D01*
X80508856Y-67585355D01*
X80505709Y-67578701D01*
X80503229Y-67571771D01*
X80501441Y-67564632D01*
X80500361Y-67557351D01*
X80500000Y-67550000D01*
X80500000Y-66850000D01*
X80500361Y-66842649D01*
X80501441Y-66835368D01*
X80503229Y-66828229D01*
X80505709Y-66821299D01*
X80508856Y-66814645D01*
X80512640Y-66808332D01*
X80517024Y-66802421D01*
X80521967Y-66796967D01*
X80527421Y-66792024D01*
X80533332Y-66787640D01*
X80539645Y-66783856D01*
X80546299Y-66780709D01*
X80553229Y-66778229D01*
X80560368Y-66776441D01*
X80567649Y-66775361D01*
X80575000Y-66775000D01*
X80725000Y-66775000D01*
X80732351Y-66775361D01*
X80732351Y-66775361D01*
G37*
D18*
X80650000Y-67200000D03*
D10*
G36*
X80232351Y-66775361D02*
X80239632Y-66776441D01*
X80246771Y-66778229D01*
X80253701Y-66780709D01*
X80260355Y-66783856D01*
X80266668Y-66787640D01*
X80272579Y-66792024D01*
X80278033Y-66796967D01*
X80282976Y-66802421D01*
X80287360Y-66808332D01*
X80291144Y-66814645D01*
X80294291Y-66821299D01*
X80296771Y-66828229D01*
X80298559Y-66835368D01*
X80299639Y-66842649D01*
X80300000Y-66850000D01*
X80300000Y-67550000D01*
X80299639Y-67557351D01*
X80298559Y-67564632D01*
X80296771Y-67571771D01*
X80294291Y-67578701D01*
X80291144Y-67585355D01*
X80287360Y-67591668D01*
X80282976Y-67597579D01*
X80278033Y-67603033D01*
X80272579Y-67607976D01*
X80266668Y-67612360D01*
X80260355Y-67616144D01*
X80253701Y-67619291D01*
X80246771Y-67621771D01*
X80239632Y-67623559D01*
X80232351Y-67624639D01*
X80225000Y-67625000D01*
X80075000Y-67625000D01*
X80067649Y-67624639D01*
X80060368Y-67623559D01*
X80053229Y-67621771D01*
X80046299Y-67619291D01*
X80039645Y-67616144D01*
X80033332Y-67612360D01*
X80027421Y-67607976D01*
X80021967Y-67603033D01*
X80017024Y-67597579D01*
X80012640Y-67591668D01*
X80008856Y-67585355D01*
X80005709Y-67578701D01*
X80003229Y-67571771D01*
X80001441Y-67564632D01*
X80000361Y-67557351D01*
X80000000Y-67550000D01*
X80000000Y-66850000D01*
X80000361Y-66842649D01*
X80001441Y-66835368D01*
X80003229Y-66828229D01*
X80005709Y-66821299D01*
X80008856Y-66814645D01*
X80012640Y-66808332D01*
X80017024Y-66802421D01*
X80021967Y-66796967D01*
X80027421Y-66792024D01*
X80033332Y-66787640D01*
X80039645Y-66783856D01*
X80046299Y-66780709D01*
X80053229Y-66778229D01*
X80060368Y-66776441D01*
X80067649Y-66775361D01*
X80075000Y-66775000D01*
X80225000Y-66775000D01*
X80232351Y-66775361D01*
X80232351Y-66775361D01*
G37*
D18*
X80150000Y-67200000D03*
D10*
G36*
X79807351Y-66350361D02*
X79814632Y-66351441D01*
X79821771Y-66353229D01*
X79828701Y-66355709D01*
X79835355Y-66358856D01*
X79841668Y-66362640D01*
X79847579Y-66367024D01*
X79853033Y-66371967D01*
X79857976Y-66377421D01*
X79862360Y-66383332D01*
X79866144Y-66389645D01*
X79869291Y-66396299D01*
X79871771Y-66403229D01*
X79873559Y-66410368D01*
X79874639Y-66417649D01*
X79875000Y-66425000D01*
X79875000Y-66575000D01*
X79874639Y-66582351D01*
X79873559Y-66589632D01*
X79871771Y-66596771D01*
X79869291Y-66603701D01*
X79866144Y-66610355D01*
X79862360Y-66616668D01*
X79857976Y-66622579D01*
X79853033Y-66628033D01*
X79847579Y-66632976D01*
X79841668Y-66637360D01*
X79835355Y-66641144D01*
X79828701Y-66644291D01*
X79821771Y-66646771D01*
X79814632Y-66648559D01*
X79807351Y-66649639D01*
X79800000Y-66650000D01*
X79100000Y-66650000D01*
X79092649Y-66649639D01*
X79085368Y-66648559D01*
X79078229Y-66646771D01*
X79071299Y-66644291D01*
X79064645Y-66641144D01*
X79058332Y-66637360D01*
X79052421Y-66632976D01*
X79046967Y-66628033D01*
X79042024Y-66622579D01*
X79037640Y-66616668D01*
X79033856Y-66610355D01*
X79030709Y-66603701D01*
X79028229Y-66596771D01*
X79026441Y-66589632D01*
X79025361Y-66582351D01*
X79025000Y-66575000D01*
X79025000Y-66425000D01*
X79025361Y-66417649D01*
X79026441Y-66410368D01*
X79028229Y-66403229D01*
X79030709Y-66396299D01*
X79033856Y-66389645D01*
X79037640Y-66383332D01*
X79042024Y-66377421D01*
X79046967Y-66371967D01*
X79052421Y-66367024D01*
X79058332Y-66362640D01*
X79064645Y-66358856D01*
X79071299Y-66355709D01*
X79078229Y-66353229D01*
X79085368Y-66351441D01*
X79092649Y-66350361D01*
X79100000Y-66350000D01*
X79800000Y-66350000D01*
X79807351Y-66350361D01*
X79807351Y-66350361D01*
G37*
D18*
X79450000Y-66500000D03*
D10*
G36*
X79807351Y-65850361D02*
X79814632Y-65851441D01*
X79821771Y-65853229D01*
X79828701Y-65855709D01*
X79835355Y-65858856D01*
X79841668Y-65862640D01*
X79847579Y-65867024D01*
X79853033Y-65871967D01*
X79857976Y-65877421D01*
X79862360Y-65883332D01*
X79866144Y-65889645D01*
X79869291Y-65896299D01*
X79871771Y-65903229D01*
X79873559Y-65910368D01*
X79874639Y-65917649D01*
X79875000Y-65925000D01*
X79875000Y-66075000D01*
X79874639Y-66082351D01*
X79873559Y-66089632D01*
X79871771Y-66096771D01*
X79869291Y-66103701D01*
X79866144Y-66110355D01*
X79862360Y-66116668D01*
X79857976Y-66122579D01*
X79853033Y-66128033D01*
X79847579Y-66132976D01*
X79841668Y-66137360D01*
X79835355Y-66141144D01*
X79828701Y-66144291D01*
X79821771Y-66146771D01*
X79814632Y-66148559D01*
X79807351Y-66149639D01*
X79800000Y-66150000D01*
X79100000Y-66150000D01*
X79092649Y-66149639D01*
X79085368Y-66148559D01*
X79078229Y-66146771D01*
X79071299Y-66144291D01*
X79064645Y-66141144D01*
X79058332Y-66137360D01*
X79052421Y-66132976D01*
X79046967Y-66128033D01*
X79042024Y-66122579D01*
X79037640Y-66116668D01*
X79033856Y-66110355D01*
X79030709Y-66103701D01*
X79028229Y-66096771D01*
X79026441Y-66089632D01*
X79025361Y-66082351D01*
X79025000Y-66075000D01*
X79025000Y-65925000D01*
X79025361Y-65917649D01*
X79026441Y-65910368D01*
X79028229Y-65903229D01*
X79030709Y-65896299D01*
X79033856Y-65889645D01*
X79037640Y-65883332D01*
X79042024Y-65877421D01*
X79046967Y-65871967D01*
X79052421Y-65867024D01*
X79058332Y-65862640D01*
X79064645Y-65858856D01*
X79071299Y-65855709D01*
X79078229Y-65853229D01*
X79085368Y-65851441D01*
X79092649Y-65850361D01*
X79100000Y-65850000D01*
X79800000Y-65850000D01*
X79807351Y-65850361D01*
X79807351Y-65850361D01*
G37*
D18*
X79450000Y-66000000D03*
D10*
G36*
X79807351Y-65350361D02*
X79814632Y-65351441D01*
X79821771Y-65353229D01*
X79828701Y-65355709D01*
X79835355Y-65358856D01*
X79841668Y-65362640D01*
X79847579Y-65367024D01*
X79853033Y-65371967D01*
X79857976Y-65377421D01*
X79862360Y-65383332D01*
X79866144Y-65389645D01*
X79869291Y-65396299D01*
X79871771Y-65403229D01*
X79873559Y-65410368D01*
X79874639Y-65417649D01*
X79875000Y-65425000D01*
X79875000Y-65575000D01*
X79874639Y-65582351D01*
X79873559Y-65589632D01*
X79871771Y-65596771D01*
X79869291Y-65603701D01*
X79866144Y-65610355D01*
X79862360Y-65616668D01*
X79857976Y-65622579D01*
X79853033Y-65628033D01*
X79847579Y-65632976D01*
X79841668Y-65637360D01*
X79835355Y-65641144D01*
X79828701Y-65644291D01*
X79821771Y-65646771D01*
X79814632Y-65648559D01*
X79807351Y-65649639D01*
X79800000Y-65650000D01*
X79100000Y-65650000D01*
X79092649Y-65649639D01*
X79085368Y-65648559D01*
X79078229Y-65646771D01*
X79071299Y-65644291D01*
X79064645Y-65641144D01*
X79058332Y-65637360D01*
X79052421Y-65632976D01*
X79046967Y-65628033D01*
X79042024Y-65622579D01*
X79037640Y-65616668D01*
X79033856Y-65610355D01*
X79030709Y-65603701D01*
X79028229Y-65596771D01*
X79026441Y-65589632D01*
X79025361Y-65582351D01*
X79025000Y-65575000D01*
X79025000Y-65425000D01*
X79025361Y-65417649D01*
X79026441Y-65410368D01*
X79028229Y-65403229D01*
X79030709Y-65396299D01*
X79033856Y-65389645D01*
X79037640Y-65383332D01*
X79042024Y-65377421D01*
X79046967Y-65371967D01*
X79052421Y-65367024D01*
X79058332Y-65362640D01*
X79064645Y-65358856D01*
X79071299Y-65355709D01*
X79078229Y-65353229D01*
X79085368Y-65351441D01*
X79092649Y-65350361D01*
X79100000Y-65350000D01*
X79800000Y-65350000D01*
X79807351Y-65350361D01*
X79807351Y-65350361D01*
G37*
D18*
X79450000Y-65500000D03*
D10*
G36*
X79807351Y-64850361D02*
X79814632Y-64851441D01*
X79821771Y-64853229D01*
X79828701Y-64855709D01*
X79835355Y-64858856D01*
X79841668Y-64862640D01*
X79847579Y-64867024D01*
X79853033Y-64871967D01*
X79857976Y-64877421D01*
X79862360Y-64883332D01*
X79866144Y-64889645D01*
X79869291Y-64896299D01*
X79871771Y-64903229D01*
X79873559Y-64910368D01*
X79874639Y-64917649D01*
X79875000Y-64925000D01*
X79875000Y-65075000D01*
X79874639Y-65082351D01*
X79873559Y-65089632D01*
X79871771Y-65096771D01*
X79869291Y-65103701D01*
X79866144Y-65110355D01*
X79862360Y-65116668D01*
X79857976Y-65122579D01*
X79853033Y-65128033D01*
X79847579Y-65132976D01*
X79841668Y-65137360D01*
X79835355Y-65141144D01*
X79828701Y-65144291D01*
X79821771Y-65146771D01*
X79814632Y-65148559D01*
X79807351Y-65149639D01*
X79800000Y-65150000D01*
X79100000Y-65150000D01*
X79092649Y-65149639D01*
X79085368Y-65148559D01*
X79078229Y-65146771D01*
X79071299Y-65144291D01*
X79064645Y-65141144D01*
X79058332Y-65137360D01*
X79052421Y-65132976D01*
X79046967Y-65128033D01*
X79042024Y-65122579D01*
X79037640Y-65116668D01*
X79033856Y-65110355D01*
X79030709Y-65103701D01*
X79028229Y-65096771D01*
X79026441Y-65089632D01*
X79025361Y-65082351D01*
X79025000Y-65075000D01*
X79025000Y-64925000D01*
X79025361Y-64917649D01*
X79026441Y-64910368D01*
X79028229Y-64903229D01*
X79030709Y-64896299D01*
X79033856Y-64889645D01*
X79037640Y-64883332D01*
X79042024Y-64877421D01*
X79046967Y-64871967D01*
X79052421Y-64867024D01*
X79058332Y-64862640D01*
X79064645Y-64858856D01*
X79071299Y-64855709D01*
X79078229Y-64853229D01*
X79085368Y-64851441D01*
X79092649Y-64850361D01*
X79100000Y-64850000D01*
X79800000Y-64850000D01*
X79807351Y-64850361D01*
X79807351Y-64850361D01*
G37*
D18*
X79450000Y-65000000D03*
D10*
G36*
X79807351Y-64350361D02*
X79814632Y-64351441D01*
X79821771Y-64353229D01*
X79828701Y-64355709D01*
X79835355Y-64358856D01*
X79841668Y-64362640D01*
X79847579Y-64367024D01*
X79853033Y-64371967D01*
X79857976Y-64377421D01*
X79862360Y-64383332D01*
X79866144Y-64389645D01*
X79869291Y-64396299D01*
X79871771Y-64403229D01*
X79873559Y-64410368D01*
X79874639Y-64417649D01*
X79875000Y-64425000D01*
X79875000Y-64575000D01*
X79874639Y-64582351D01*
X79873559Y-64589632D01*
X79871771Y-64596771D01*
X79869291Y-64603701D01*
X79866144Y-64610355D01*
X79862360Y-64616668D01*
X79857976Y-64622579D01*
X79853033Y-64628033D01*
X79847579Y-64632976D01*
X79841668Y-64637360D01*
X79835355Y-64641144D01*
X79828701Y-64644291D01*
X79821771Y-64646771D01*
X79814632Y-64648559D01*
X79807351Y-64649639D01*
X79800000Y-64650000D01*
X79100000Y-64650000D01*
X79092649Y-64649639D01*
X79085368Y-64648559D01*
X79078229Y-64646771D01*
X79071299Y-64644291D01*
X79064645Y-64641144D01*
X79058332Y-64637360D01*
X79052421Y-64632976D01*
X79046967Y-64628033D01*
X79042024Y-64622579D01*
X79037640Y-64616668D01*
X79033856Y-64610355D01*
X79030709Y-64603701D01*
X79028229Y-64596771D01*
X79026441Y-64589632D01*
X79025361Y-64582351D01*
X79025000Y-64575000D01*
X79025000Y-64425000D01*
X79025361Y-64417649D01*
X79026441Y-64410368D01*
X79028229Y-64403229D01*
X79030709Y-64396299D01*
X79033856Y-64389645D01*
X79037640Y-64383332D01*
X79042024Y-64377421D01*
X79046967Y-64371967D01*
X79052421Y-64367024D01*
X79058332Y-64362640D01*
X79064645Y-64358856D01*
X79071299Y-64355709D01*
X79078229Y-64353229D01*
X79085368Y-64351441D01*
X79092649Y-64350361D01*
X79100000Y-64350000D01*
X79800000Y-64350000D01*
X79807351Y-64350361D01*
X79807351Y-64350361D01*
G37*
D18*
X79450000Y-64500000D03*
D10*
G36*
X79807351Y-63850361D02*
X79814632Y-63851441D01*
X79821771Y-63853229D01*
X79828701Y-63855709D01*
X79835355Y-63858856D01*
X79841668Y-63862640D01*
X79847579Y-63867024D01*
X79853033Y-63871967D01*
X79857976Y-63877421D01*
X79862360Y-63883332D01*
X79866144Y-63889645D01*
X79869291Y-63896299D01*
X79871771Y-63903229D01*
X79873559Y-63910368D01*
X79874639Y-63917649D01*
X79875000Y-63925000D01*
X79875000Y-64075000D01*
X79874639Y-64082351D01*
X79873559Y-64089632D01*
X79871771Y-64096771D01*
X79869291Y-64103701D01*
X79866144Y-64110355D01*
X79862360Y-64116668D01*
X79857976Y-64122579D01*
X79853033Y-64128033D01*
X79847579Y-64132976D01*
X79841668Y-64137360D01*
X79835355Y-64141144D01*
X79828701Y-64144291D01*
X79821771Y-64146771D01*
X79814632Y-64148559D01*
X79807351Y-64149639D01*
X79800000Y-64150000D01*
X79100000Y-64150000D01*
X79092649Y-64149639D01*
X79085368Y-64148559D01*
X79078229Y-64146771D01*
X79071299Y-64144291D01*
X79064645Y-64141144D01*
X79058332Y-64137360D01*
X79052421Y-64132976D01*
X79046967Y-64128033D01*
X79042024Y-64122579D01*
X79037640Y-64116668D01*
X79033856Y-64110355D01*
X79030709Y-64103701D01*
X79028229Y-64096771D01*
X79026441Y-64089632D01*
X79025361Y-64082351D01*
X79025000Y-64075000D01*
X79025000Y-63925000D01*
X79025361Y-63917649D01*
X79026441Y-63910368D01*
X79028229Y-63903229D01*
X79030709Y-63896299D01*
X79033856Y-63889645D01*
X79037640Y-63883332D01*
X79042024Y-63877421D01*
X79046967Y-63871967D01*
X79052421Y-63867024D01*
X79058332Y-63862640D01*
X79064645Y-63858856D01*
X79071299Y-63855709D01*
X79078229Y-63853229D01*
X79085368Y-63851441D01*
X79092649Y-63850361D01*
X79100000Y-63850000D01*
X79800000Y-63850000D01*
X79807351Y-63850361D01*
X79807351Y-63850361D01*
G37*
D18*
X79450000Y-64000000D03*
D10*
G36*
X80232351Y-62875361D02*
X80239632Y-62876441D01*
X80246771Y-62878229D01*
X80253701Y-62880709D01*
X80260355Y-62883856D01*
X80266668Y-62887640D01*
X80272579Y-62892024D01*
X80278033Y-62896967D01*
X80282976Y-62902421D01*
X80287360Y-62908332D01*
X80291144Y-62914645D01*
X80294291Y-62921299D01*
X80296771Y-62928229D01*
X80298559Y-62935368D01*
X80299639Y-62942649D01*
X80300000Y-62950000D01*
X80300000Y-63650000D01*
X80299639Y-63657351D01*
X80298559Y-63664632D01*
X80296771Y-63671771D01*
X80294291Y-63678701D01*
X80291144Y-63685355D01*
X80287360Y-63691668D01*
X80282976Y-63697579D01*
X80278033Y-63703033D01*
X80272579Y-63707976D01*
X80266668Y-63712360D01*
X80260355Y-63716144D01*
X80253701Y-63719291D01*
X80246771Y-63721771D01*
X80239632Y-63723559D01*
X80232351Y-63724639D01*
X80225000Y-63725000D01*
X80075000Y-63725000D01*
X80067649Y-63724639D01*
X80060368Y-63723559D01*
X80053229Y-63721771D01*
X80046299Y-63719291D01*
X80039645Y-63716144D01*
X80033332Y-63712360D01*
X80027421Y-63707976D01*
X80021967Y-63703033D01*
X80017024Y-63697579D01*
X80012640Y-63691668D01*
X80008856Y-63685355D01*
X80005709Y-63678701D01*
X80003229Y-63671771D01*
X80001441Y-63664632D01*
X80000361Y-63657351D01*
X80000000Y-63650000D01*
X80000000Y-62950000D01*
X80000361Y-62942649D01*
X80001441Y-62935368D01*
X80003229Y-62928229D01*
X80005709Y-62921299D01*
X80008856Y-62914645D01*
X80012640Y-62908332D01*
X80017024Y-62902421D01*
X80021967Y-62896967D01*
X80027421Y-62892024D01*
X80033332Y-62887640D01*
X80039645Y-62883856D01*
X80046299Y-62880709D01*
X80053229Y-62878229D01*
X80060368Y-62876441D01*
X80067649Y-62875361D01*
X80075000Y-62875000D01*
X80225000Y-62875000D01*
X80232351Y-62875361D01*
X80232351Y-62875361D01*
G37*
D18*
X80150000Y-63300000D03*
D10*
G36*
X80732351Y-62875361D02*
X80739632Y-62876441D01*
X80746771Y-62878229D01*
X80753701Y-62880709D01*
X80760355Y-62883856D01*
X80766668Y-62887640D01*
X80772579Y-62892024D01*
X80778033Y-62896967D01*
X80782976Y-62902421D01*
X80787360Y-62908332D01*
X80791144Y-62914645D01*
X80794291Y-62921299D01*
X80796771Y-62928229D01*
X80798559Y-62935368D01*
X80799639Y-62942649D01*
X80800000Y-62950000D01*
X80800000Y-63650000D01*
X80799639Y-63657351D01*
X80798559Y-63664632D01*
X80796771Y-63671771D01*
X80794291Y-63678701D01*
X80791144Y-63685355D01*
X80787360Y-63691668D01*
X80782976Y-63697579D01*
X80778033Y-63703033D01*
X80772579Y-63707976D01*
X80766668Y-63712360D01*
X80760355Y-63716144D01*
X80753701Y-63719291D01*
X80746771Y-63721771D01*
X80739632Y-63723559D01*
X80732351Y-63724639D01*
X80725000Y-63725000D01*
X80575000Y-63725000D01*
X80567649Y-63724639D01*
X80560368Y-63723559D01*
X80553229Y-63721771D01*
X80546299Y-63719291D01*
X80539645Y-63716144D01*
X80533332Y-63712360D01*
X80527421Y-63707976D01*
X80521967Y-63703033D01*
X80517024Y-63697579D01*
X80512640Y-63691668D01*
X80508856Y-63685355D01*
X80505709Y-63678701D01*
X80503229Y-63671771D01*
X80501441Y-63664632D01*
X80500361Y-63657351D01*
X80500000Y-63650000D01*
X80500000Y-62950000D01*
X80500361Y-62942649D01*
X80501441Y-62935368D01*
X80503229Y-62928229D01*
X80505709Y-62921299D01*
X80508856Y-62914645D01*
X80512640Y-62908332D01*
X80517024Y-62902421D01*
X80521967Y-62896967D01*
X80527421Y-62892024D01*
X80533332Y-62887640D01*
X80539645Y-62883856D01*
X80546299Y-62880709D01*
X80553229Y-62878229D01*
X80560368Y-62876441D01*
X80567649Y-62875361D01*
X80575000Y-62875000D01*
X80725000Y-62875000D01*
X80732351Y-62875361D01*
X80732351Y-62875361D01*
G37*
D18*
X80650000Y-63300000D03*
D10*
G36*
X81232351Y-62875361D02*
X81239632Y-62876441D01*
X81246771Y-62878229D01*
X81253701Y-62880709D01*
X81260355Y-62883856D01*
X81266668Y-62887640D01*
X81272579Y-62892024D01*
X81278033Y-62896967D01*
X81282976Y-62902421D01*
X81287360Y-62908332D01*
X81291144Y-62914645D01*
X81294291Y-62921299D01*
X81296771Y-62928229D01*
X81298559Y-62935368D01*
X81299639Y-62942649D01*
X81300000Y-62950000D01*
X81300000Y-63650000D01*
X81299639Y-63657351D01*
X81298559Y-63664632D01*
X81296771Y-63671771D01*
X81294291Y-63678701D01*
X81291144Y-63685355D01*
X81287360Y-63691668D01*
X81282976Y-63697579D01*
X81278033Y-63703033D01*
X81272579Y-63707976D01*
X81266668Y-63712360D01*
X81260355Y-63716144D01*
X81253701Y-63719291D01*
X81246771Y-63721771D01*
X81239632Y-63723559D01*
X81232351Y-63724639D01*
X81225000Y-63725000D01*
X81075000Y-63725000D01*
X81067649Y-63724639D01*
X81060368Y-63723559D01*
X81053229Y-63721771D01*
X81046299Y-63719291D01*
X81039645Y-63716144D01*
X81033332Y-63712360D01*
X81027421Y-63707976D01*
X81021967Y-63703033D01*
X81017024Y-63697579D01*
X81012640Y-63691668D01*
X81008856Y-63685355D01*
X81005709Y-63678701D01*
X81003229Y-63671771D01*
X81001441Y-63664632D01*
X81000361Y-63657351D01*
X81000000Y-63650000D01*
X81000000Y-62950000D01*
X81000361Y-62942649D01*
X81001441Y-62935368D01*
X81003229Y-62928229D01*
X81005709Y-62921299D01*
X81008856Y-62914645D01*
X81012640Y-62908332D01*
X81017024Y-62902421D01*
X81021967Y-62896967D01*
X81027421Y-62892024D01*
X81033332Y-62887640D01*
X81039645Y-62883856D01*
X81046299Y-62880709D01*
X81053229Y-62878229D01*
X81060368Y-62876441D01*
X81067649Y-62875361D01*
X81075000Y-62875000D01*
X81225000Y-62875000D01*
X81232351Y-62875361D01*
X81232351Y-62875361D01*
G37*
D18*
X81150000Y-63300000D03*
D10*
G36*
X81732351Y-62875361D02*
X81739632Y-62876441D01*
X81746771Y-62878229D01*
X81753701Y-62880709D01*
X81760355Y-62883856D01*
X81766668Y-62887640D01*
X81772579Y-62892024D01*
X81778033Y-62896967D01*
X81782976Y-62902421D01*
X81787360Y-62908332D01*
X81791144Y-62914645D01*
X81794291Y-62921299D01*
X81796771Y-62928229D01*
X81798559Y-62935368D01*
X81799639Y-62942649D01*
X81800000Y-62950000D01*
X81800000Y-63650000D01*
X81799639Y-63657351D01*
X81798559Y-63664632D01*
X81796771Y-63671771D01*
X81794291Y-63678701D01*
X81791144Y-63685355D01*
X81787360Y-63691668D01*
X81782976Y-63697579D01*
X81778033Y-63703033D01*
X81772579Y-63707976D01*
X81766668Y-63712360D01*
X81760355Y-63716144D01*
X81753701Y-63719291D01*
X81746771Y-63721771D01*
X81739632Y-63723559D01*
X81732351Y-63724639D01*
X81725000Y-63725000D01*
X81575000Y-63725000D01*
X81567649Y-63724639D01*
X81560368Y-63723559D01*
X81553229Y-63721771D01*
X81546299Y-63719291D01*
X81539645Y-63716144D01*
X81533332Y-63712360D01*
X81527421Y-63707976D01*
X81521967Y-63703033D01*
X81517024Y-63697579D01*
X81512640Y-63691668D01*
X81508856Y-63685355D01*
X81505709Y-63678701D01*
X81503229Y-63671771D01*
X81501441Y-63664632D01*
X81500361Y-63657351D01*
X81500000Y-63650000D01*
X81500000Y-62950000D01*
X81500361Y-62942649D01*
X81501441Y-62935368D01*
X81503229Y-62928229D01*
X81505709Y-62921299D01*
X81508856Y-62914645D01*
X81512640Y-62908332D01*
X81517024Y-62902421D01*
X81521967Y-62896967D01*
X81527421Y-62892024D01*
X81533332Y-62887640D01*
X81539645Y-62883856D01*
X81546299Y-62880709D01*
X81553229Y-62878229D01*
X81560368Y-62876441D01*
X81567649Y-62875361D01*
X81575000Y-62875000D01*
X81725000Y-62875000D01*
X81732351Y-62875361D01*
X81732351Y-62875361D01*
G37*
D18*
X81650000Y-63300000D03*
D10*
G36*
X82232351Y-62875361D02*
X82239632Y-62876441D01*
X82246771Y-62878229D01*
X82253701Y-62880709D01*
X82260355Y-62883856D01*
X82266668Y-62887640D01*
X82272579Y-62892024D01*
X82278033Y-62896967D01*
X82282976Y-62902421D01*
X82287360Y-62908332D01*
X82291144Y-62914645D01*
X82294291Y-62921299D01*
X82296771Y-62928229D01*
X82298559Y-62935368D01*
X82299639Y-62942649D01*
X82300000Y-62950000D01*
X82300000Y-63650000D01*
X82299639Y-63657351D01*
X82298559Y-63664632D01*
X82296771Y-63671771D01*
X82294291Y-63678701D01*
X82291144Y-63685355D01*
X82287360Y-63691668D01*
X82282976Y-63697579D01*
X82278033Y-63703033D01*
X82272579Y-63707976D01*
X82266668Y-63712360D01*
X82260355Y-63716144D01*
X82253701Y-63719291D01*
X82246771Y-63721771D01*
X82239632Y-63723559D01*
X82232351Y-63724639D01*
X82225000Y-63725000D01*
X82075000Y-63725000D01*
X82067649Y-63724639D01*
X82060368Y-63723559D01*
X82053229Y-63721771D01*
X82046299Y-63719291D01*
X82039645Y-63716144D01*
X82033332Y-63712360D01*
X82027421Y-63707976D01*
X82021967Y-63703033D01*
X82017024Y-63697579D01*
X82012640Y-63691668D01*
X82008856Y-63685355D01*
X82005709Y-63678701D01*
X82003229Y-63671771D01*
X82001441Y-63664632D01*
X82000361Y-63657351D01*
X82000000Y-63650000D01*
X82000000Y-62950000D01*
X82000361Y-62942649D01*
X82001441Y-62935368D01*
X82003229Y-62928229D01*
X82005709Y-62921299D01*
X82008856Y-62914645D01*
X82012640Y-62908332D01*
X82017024Y-62902421D01*
X82021967Y-62896967D01*
X82027421Y-62892024D01*
X82033332Y-62887640D01*
X82039645Y-62883856D01*
X82046299Y-62880709D01*
X82053229Y-62878229D01*
X82060368Y-62876441D01*
X82067649Y-62875361D01*
X82075000Y-62875000D01*
X82225000Y-62875000D01*
X82232351Y-62875361D01*
X82232351Y-62875361D01*
G37*
D18*
X82150000Y-63300000D03*
D10*
G36*
X82732351Y-62875361D02*
X82739632Y-62876441D01*
X82746771Y-62878229D01*
X82753701Y-62880709D01*
X82760355Y-62883856D01*
X82766668Y-62887640D01*
X82772579Y-62892024D01*
X82778033Y-62896967D01*
X82782976Y-62902421D01*
X82787360Y-62908332D01*
X82791144Y-62914645D01*
X82794291Y-62921299D01*
X82796771Y-62928229D01*
X82798559Y-62935368D01*
X82799639Y-62942649D01*
X82800000Y-62950000D01*
X82800000Y-63650000D01*
X82799639Y-63657351D01*
X82798559Y-63664632D01*
X82796771Y-63671771D01*
X82794291Y-63678701D01*
X82791144Y-63685355D01*
X82787360Y-63691668D01*
X82782976Y-63697579D01*
X82778033Y-63703033D01*
X82772579Y-63707976D01*
X82766668Y-63712360D01*
X82760355Y-63716144D01*
X82753701Y-63719291D01*
X82746771Y-63721771D01*
X82739632Y-63723559D01*
X82732351Y-63724639D01*
X82725000Y-63725000D01*
X82575000Y-63725000D01*
X82567649Y-63724639D01*
X82560368Y-63723559D01*
X82553229Y-63721771D01*
X82546299Y-63719291D01*
X82539645Y-63716144D01*
X82533332Y-63712360D01*
X82527421Y-63707976D01*
X82521967Y-63703033D01*
X82517024Y-63697579D01*
X82512640Y-63691668D01*
X82508856Y-63685355D01*
X82505709Y-63678701D01*
X82503229Y-63671771D01*
X82501441Y-63664632D01*
X82500361Y-63657351D01*
X82500000Y-63650000D01*
X82500000Y-62950000D01*
X82500361Y-62942649D01*
X82501441Y-62935368D01*
X82503229Y-62928229D01*
X82505709Y-62921299D01*
X82508856Y-62914645D01*
X82512640Y-62908332D01*
X82517024Y-62902421D01*
X82521967Y-62896967D01*
X82527421Y-62892024D01*
X82533332Y-62887640D01*
X82539645Y-62883856D01*
X82546299Y-62880709D01*
X82553229Y-62878229D01*
X82560368Y-62876441D01*
X82567649Y-62875361D01*
X82575000Y-62875000D01*
X82725000Y-62875000D01*
X82732351Y-62875361D01*
X82732351Y-62875361D01*
G37*
D18*
X82650000Y-63300000D03*
D10*
G36*
X83707351Y-63850361D02*
X83714632Y-63851441D01*
X83721771Y-63853229D01*
X83728701Y-63855709D01*
X83735355Y-63858856D01*
X83741668Y-63862640D01*
X83747579Y-63867024D01*
X83753033Y-63871967D01*
X83757976Y-63877421D01*
X83762360Y-63883332D01*
X83766144Y-63889645D01*
X83769291Y-63896299D01*
X83771771Y-63903229D01*
X83773559Y-63910368D01*
X83774639Y-63917649D01*
X83775000Y-63925000D01*
X83775000Y-64075000D01*
X83774639Y-64082351D01*
X83773559Y-64089632D01*
X83771771Y-64096771D01*
X83769291Y-64103701D01*
X83766144Y-64110355D01*
X83762360Y-64116668D01*
X83757976Y-64122579D01*
X83753033Y-64128033D01*
X83747579Y-64132976D01*
X83741668Y-64137360D01*
X83735355Y-64141144D01*
X83728701Y-64144291D01*
X83721771Y-64146771D01*
X83714632Y-64148559D01*
X83707351Y-64149639D01*
X83700000Y-64150000D01*
X83000000Y-64150000D01*
X82992649Y-64149639D01*
X82985368Y-64148559D01*
X82978229Y-64146771D01*
X82971299Y-64144291D01*
X82964645Y-64141144D01*
X82958332Y-64137360D01*
X82952421Y-64132976D01*
X82946967Y-64128033D01*
X82942024Y-64122579D01*
X82937640Y-64116668D01*
X82933856Y-64110355D01*
X82930709Y-64103701D01*
X82928229Y-64096771D01*
X82926441Y-64089632D01*
X82925361Y-64082351D01*
X82925000Y-64075000D01*
X82925000Y-63925000D01*
X82925361Y-63917649D01*
X82926441Y-63910368D01*
X82928229Y-63903229D01*
X82930709Y-63896299D01*
X82933856Y-63889645D01*
X82937640Y-63883332D01*
X82942024Y-63877421D01*
X82946967Y-63871967D01*
X82952421Y-63867024D01*
X82958332Y-63862640D01*
X82964645Y-63858856D01*
X82971299Y-63855709D01*
X82978229Y-63853229D01*
X82985368Y-63851441D01*
X82992649Y-63850361D01*
X83000000Y-63850000D01*
X83700000Y-63850000D01*
X83707351Y-63850361D01*
X83707351Y-63850361D01*
G37*
D18*
X83350000Y-64000000D03*
D10*
G36*
X83707351Y-64350361D02*
X83714632Y-64351441D01*
X83721771Y-64353229D01*
X83728701Y-64355709D01*
X83735355Y-64358856D01*
X83741668Y-64362640D01*
X83747579Y-64367024D01*
X83753033Y-64371967D01*
X83757976Y-64377421D01*
X83762360Y-64383332D01*
X83766144Y-64389645D01*
X83769291Y-64396299D01*
X83771771Y-64403229D01*
X83773559Y-64410368D01*
X83774639Y-64417649D01*
X83775000Y-64425000D01*
X83775000Y-64575000D01*
X83774639Y-64582351D01*
X83773559Y-64589632D01*
X83771771Y-64596771D01*
X83769291Y-64603701D01*
X83766144Y-64610355D01*
X83762360Y-64616668D01*
X83757976Y-64622579D01*
X83753033Y-64628033D01*
X83747579Y-64632976D01*
X83741668Y-64637360D01*
X83735355Y-64641144D01*
X83728701Y-64644291D01*
X83721771Y-64646771D01*
X83714632Y-64648559D01*
X83707351Y-64649639D01*
X83700000Y-64650000D01*
X83000000Y-64650000D01*
X82992649Y-64649639D01*
X82985368Y-64648559D01*
X82978229Y-64646771D01*
X82971299Y-64644291D01*
X82964645Y-64641144D01*
X82958332Y-64637360D01*
X82952421Y-64632976D01*
X82946967Y-64628033D01*
X82942024Y-64622579D01*
X82937640Y-64616668D01*
X82933856Y-64610355D01*
X82930709Y-64603701D01*
X82928229Y-64596771D01*
X82926441Y-64589632D01*
X82925361Y-64582351D01*
X82925000Y-64575000D01*
X82925000Y-64425000D01*
X82925361Y-64417649D01*
X82926441Y-64410368D01*
X82928229Y-64403229D01*
X82930709Y-64396299D01*
X82933856Y-64389645D01*
X82937640Y-64383332D01*
X82942024Y-64377421D01*
X82946967Y-64371967D01*
X82952421Y-64367024D01*
X82958332Y-64362640D01*
X82964645Y-64358856D01*
X82971299Y-64355709D01*
X82978229Y-64353229D01*
X82985368Y-64351441D01*
X82992649Y-64350361D01*
X83000000Y-64350000D01*
X83700000Y-64350000D01*
X83707351Y-64350361D01*
X83707351Y-64350361D01*
G37*
D18*
X83350000Y-64500000D03*
D10*
G36*
X83707351Y-64850361D02*
X83714632Y-64851441D01*
X83721771Y-64853229D01*
X83728701Y-64855709D01*
X83735355Y-64858856D01*
X83741668Y-64862640D01*
X83747579Y-64867024D01*
X83753033Y-64871967D01*
X83757976Y-64877421D01*
X83762360Y-64883332D01*
X83766144Y-64889645D01*
X83769291Y-64896299D01*
X83771771Y-64903229D01*
X83773559Y-64910368D01*
X83774639Y-64917649D01*
X83775000Y-64925000D01*
X83775000Y-65075000D01*
X83774639Y-65082351D01*
X83773559Y-65089632D01*
X83771771Y-65096771D01*
X83769291Y-65103701D01*
X83766144Y-65110355D01*
X83762360Y-65116668D01*
X83757976Y-65122579D01*
X83753033Y-65128033D01*
X83747579Y-65132976D01*
X83741668Y-65137360D01*
X83735355Y-65141144D01*
X83728701Y-65144291D01*
X83721771Y-65146771D01*
X83714632Y-65148559D01*
X83707351Y-65149639D01*
X83700000Y-65150000D01*
X83000000Y-65150000D01*
X82992649Y-65149639D01*
X82985368Y-65148559D01*
X82978229Y-65146771D01*
X82971299Y-65144291D01*
X82964645Y-65141144D01*
X82958332Y-65137360D01*
X82952421Y-65132976D01*
X82946967Y-65128033D01*
X82942024Y-65122579D01*
X82937640Y-65116668D01*
X82933856Y-65110355D01*
X82930709Y-65103701D01*
X82928229Y-65096771D01*
X82926441Y-65089632D01*
X82925361Y-65082351D01*
X82925000Y-65075000D01*
X82925000Y-64925000D01*
X82925361Y-64917649D01*
X82926441Y-64910368D01*
X82928229Y-64903229D01*
X82930709Y-64896299D01*
X82933856Y-64889645D01*
X82937640Y-64883332D01*
X82942024Y-64877421D01*
X82946967Y-64871967D01*
X82952421Y-64867024D01*
X82958332Y-64862640D01*
X82964645Y-64858856D01*
X82971299Y-64855709D01*
X82978229Y-64853229D01*
X82985368Y-64851441D01*
X82992649Y-64850361D01*
X83000000Y-64850000D01*
X83700000Y-64850000D01*
X83707351Y-64850361D01*
X83707351Y-64850361D01*
G37*
D18*
X83350000Y-65000000D03*
D10*
G36*
X83707351Y-65350361D02*
X83714632Y-65351441D01*
X83721771Y-65353229D01*
X83728701Y-65355709D01*
X83735355Y-65358856D01*
X83741668Y-65362640D01*
X83747579Y-65367024D01*
X83753033Y-65371967D01*
X83757976Y-65377421D01*
X83762360Y-65383332D01*
X83766144Y-65389645D01*
X83769291Y-65396299D01*
X83771771Y-65403229D01*
X83773559Y-65410368D01*
X83774639Y-65417649D01*
X83775000Y-65425000D01*
X83775000Y-65575000D01*
X83774639Y-65582351D01*
X83773559Y-65589632D01*
X83771771Y-65596771D01*
X83769291Y-65603701D01*
X83766144Y-65610355D01*
X83762360Y-65616668D01*
X83757976Y-65622579D01*
X83753033Y-65628033D01*
X83747579Y-65632976D01*
X83741668Y-65637360D01*
X83735355Y-65641144D01*
X83728701Y-65644291D01*
X83721771Y-65646771D01*
X83714632Y-65648559D01*
X83707351Y-65649639D01*
X83700000Y-65650000D01*
X83000000Y-65650000D01*
X82992649Y-65649639D01*
X82985368Y-65648559D01*
X82978229Y-65646771D01*
X82971299Y-65644291D01*
X82964645Y-65641144D01*
X82958332Y-65637360D01*
X82952421Y-65632976D01*
X82946967Y-65628033D01*
X82942024Y-65622579D01*
X82937640Y-65616668D01*
X82933856Y-65610355D01*
X82930709Y-65603701D01*
X82928229Y-65596771D01*
X82926441Y-65589632D01*
X82925361Y-65582351D01*
X82925000Y-65575000D01*
X82925000Y-65425000D01*
X82925361Y-65417649D01*
X82926441Y-65410368D01*
X82928229Y-65403229D01*
X82930709Y-65396299D01*
X82933856Y-65389645D01*
X82937640Y-65383332D01*
X82942024Y-65377421D01*
X82946967Y-65371967D01*
X82952421Y-65367024D01*
X82958332Y-65362640D01*
X82964645Y-65358856D01*
X82971299Y-65355709D01*
X82978229Y-65353229D01*
X82985368Y-65351441D01*
X82992649Y-65350361D01*
X83000000Y-65350000D01*
X83700000Y-65350000D01*
X83707351Y-65350361D01*
X83707351Y-65350361D01*
G37*
D18*
X83350000Y-65500000D03*
D10*
G36*
X83707351Y-65850361D02*
X83714632Y-65851441D01*
X83721771Y-65853229D01*
X83728701Y-65855709D01*
X83735355Y-65858856D01*
X83741668Y-65862640D01*
X83747579Y-65867024D01*
X83753033Y-65871967D01*
X83757976Y-65877421D01*
X83762360Y-65883332D01*
X83766144Y-65889645D01*
X83769291Y-65896299D01*
X83771771Y-65903229D01*
X83773559Y-65910368D01*
X83774639Y-65917649D01*
X83775000Y-65925000D01*
X83775000Y-66075000D01*
X83774639Y-66082351D01*
X83773559Y-66089632D01*
X83771771Y-66096771D01*
X83769291Y-66103701D01*
X83766144Y-66110355D01*
X83762360Y-66116668D01*
X83757976Y-66122579D01*
X83753033Y-66128033D01*
X83747579Y-66132976D01*
X83741668Y-66137360D01*
X83735355Y-66141144D01*
X83728701Y-66144291D01*
X83721771Y-66146771D01*
X83714632Y-66148559D01*
X83707351Y-66149639D01*
X83700000Y-66150000D01*
X83000000Y-66150000D01*
X82992649Y-66149639D01*
X82985368Y-66148559D01*
X82978229Y-66146771D01*
X82971299Y-66144291D01*
X82964645Y-66141144D01*
X82958332Y-66137360D01*
X82952421Y-66132976D01*
X82946967Y-66128033D01*
X82942024Y-66122579D01*
X82937640Y-66116668D01*
X82933856Y-66110355D01*
X82930709Y-66103701D01*
X82928229Y-66096771D01*
X82926441Y-66089632D01*
X82925361Y-66082351D01*
X82925000Y-66075000D01*
X82925000Y-65925000D01*
X82925361Y-65917649D01*
X82926441Y-65910368D01*
X82928229Y-65903229D01*
X82930709Y-65896299D01*
X82933856Y-65889645D01*
X82937640Y-65883332D01*
X82942024Y-65877421D01*
X82946967Y-65871967D01*
X82952421Y-65867024D01*
X82958332Y-65862640D01*
X82964645Y-65858856D01*
X82971299Y-65855709D01*
X82978229Y-65853229D01*
X82985368Y-65851441D01*
X82992649Y-65850361D01*
X83000000Y-65850000D01*
X83700000Y-65850000D01*
X83707351Y-65850361D01*
X83707351Y-65850361D01*
G37*
D18*
X83350000Y-66000000D03*
D10*
G36*
X83707351Y-66350361D02*
X83714632Y-66351441D01*
X83721771Y-66353229D01*
X83728701Y-66355709D01*
X83735355Y-66358856D01*
X83741668Y-66362640D01*
X83747579Y-66367024D01*
X83753033Y-66371967D01*
X83757976Y-66377421D01*
X83762360Y-66383332D01*
X83766144Y-66389645D01*
X83769291Y-66396299D01*
X83771771Y-66403229D01*
X83773559Y-66410368D01*
X83774639Y-66417649D01*
X83775000Y-66425000D01*
X83775000Y-66575000D01*
X83774639Y-66582351D01*
X83773559Y-66589632D01*
X83771771Y-66596771D01*
X83769291Y-66603701D01*
X83766144Y-66610355D01*
X83762360Y-66616668D01*
X83757976Y-66622579D01*
X83753033Y-66628033D01*
X83747579Y-66632976D01*
X83741668Y-66637360D01*
X83735355Y-66641144D01*
X83728701Y-66644291D01*
X83721771Y-66646771D01*
X83714632Y-66648559D01*
X83707351Y-66649639D01*
X83700000Y-66650000D01*
X83000000Y-66650000D01*
X82992649Y-66649639D01*
X82985368Y-66648559D01*
X82978229Y-66646771D01*
X82971299Y-66644291D01*
X82964645Y-66641144D01*
X82958332Y-66637360D01*
X82952421Y-66632976D01*
X82946967Y-66628033D01*
X82942024Y-66622579D01*
X82937640Y-66616668D01*
X82933856Y-66610355D01*
X82930709Y-66603701D01*
X82928229Y-66596771D01*
X82926441Y-66589632D01*
X82925361Y-66582351D01*
X82925000Y-66575000D01*
X82925000Y-66425000D01*
X82925361Y-66417649D01*
X82926441Y-66410368D01*
X82928229Y-66403229D01*
X82930709Y-66396299D01*
X82933856Y-66389645D01*
X82937640Y-66383332D01*
X82942024Y-66377421D01*
X82946967Y-66371967D01*
X82952421Y-66367024D01*
X82958332Y-66362640D01*
X82964645Y-66358856D01*
X82971299Y-66355709D01*
X82978229Y-66353229D01*
X82985368Y-66351441D01*
X82992649Y-66350361D01*
X83000000Y-66350000D01*
X83700000Y-66350000D01*
X83707351Y-66350361D01*
X83707351Y-66350361D01*
G37*
D18*
X83350000Y-66500000D03*
G04 #@! TD*
D10*
G04 #@! TO.C,C9*
G36*
X75699504Y-58401204D02*
X75723773Y-58404804D01*
X75747571Y-58410765D01*
X75770671Y-58419030D01*
X75792849Y-58429520D01*
X75813893Y-58442133D01*
X75833598Y-58456747D01*
X75851777Y-58473223D01*
X75868253Y-58491402D01*
X75882867Y-58511107D01*
X75895480Y-58532151D01*
X75905970Y-58554329D01*
X75914235Y-58577429D01*
X75920196Y-58601227D01*
X75923796Y-58625496D01*
X75925000Y-58650000D01*
X75925000Y-59575000D01*
X75923796Y-59599504D01*
X75920196Y-59623773D01*
X75914235Y-59647571D01*
X75905970Y-59670671D01*
X75895480Y-59692849D01*
X75882867Y-59713893D01*
X75868253Y-59733598D01*
X75851777Y-59751777D01*
X75833598Y-59768253D01*
X75813893Y-59782867D01*
X75792849Y-59795480D01*
X75770671Y-59805970D01*
X75747571Y-59814235D01*
X75723773Y-59820196D01*
X75699504Y-59823796D01*
X75675000Y-59825000D01*
X74425000Y-59825000D01*
X74400496Y-59823796D01*
X74376227Y-59820196D01*
X74352429Y-59814235D01*
X74329329Y-59805970D01*
X74307151Y-59795480D01*
X74286107Y-59782867D01*
X74266402Y-59768253D01*
X74248223Y-59751777D01*
X74231747Y-59733598D01*
X74217133Y-59713893D01*
X74204520Y-59692849D01*
X74194030Y-59670671D01*
X74185765Y-59647571D01*
X74179804Y-59623773D01*
X74176204Y-59599504D01*
X74175000Y-59575000D01*
X74175000Y-58650000D01*
X74176204Y-58625496D01*
X74179804Y-58601227D01*
X74185765Y-58577429D01*
X74194030Y-58554329D01*
X74204520Y-58532151D01*
X74217133Y-58511107D01*
X74231747Y-58491402D01*
X74248223Y-58473223D01*
X74266402Y-58456747D01*
X74286107Y-58442133D01*
X74307151Y-58429520D01*
X74329329Y-58419030D01*
X74352429Y-58410765D01*
X74376227Y-58404804D01*
X74400496Y-58401204D01*
X74425000Y-58400000D01*
X75675000Y-58400000D01*
X75699504Y-58401204D01*
X75699504Y-58401204D01*
G37*
D11*
X75050000Y-59112500D03*
D10*
G36*
X75699504Y-61376204D02*
X75723773Y-61379804D01*
X75747571Y-61385765D01*
X75770671Y-61394030D01*
X75792849Y-61404520D01*
X75813893Y-61417133D01*
X75833598Y-61431747D01*
X75851777Y-61448223D01*
X75868253Y-61466402D01*
X75882867Y-61486107D01*
X75895480Y-61507151D01*
X75905970Y-61529329D01*
X75914235Y-61552429D01*
X75920196Y-61576227D01*
X75923796Y-61600496D01*
X75925000Y-61625000D01*
X75925000Y-62550000D01*
X75923796Y-62574504D01*
X75920196Y-62598773D01*
X75914235Y-62622571D01*
X75905970Y-62645671D01*
X75895480Y-62667849D01*
X75882867Y-62688893D01*
X75868253Y-62708598D01*
X75851777Y-62726777D01*
X75833598Y-62743253D01*
X75813893Y-62757867D01*
X75792849Y-62770480D01*
X75770671Y-62780970D01*
X75747571Y-62789235D01*
X75723773Y-62795196D01*
X75699504Y-62798796D01*
X75675000Y-62800000D01*
X74425000Y-62800000D01*
X74400496Y-62798796D01*
X74376227Y-62795196D01*
X74352429Y-62789235D01*
X74329329Y-62780970D01*
X74307151Y-62770480D01*
X74286107Y-62757867D01*
X74266402Y-62743253D01*
X74248223Y-62726777D01*
X74231747Y-62708598D01*
X74217133Y-62688893D01*
X74204520Y-62667849D01*
X74194030Y-62645671D01*
X74185765Y-62622571D01*
X74179804Y-62598773D01*
X74176204Y-62574504D01*
X74175000Y-62550000D01*
X74175000Y-61625000D01*
X74176204Y-61600496D01*
X74179804Y-61576227D01*
X74185765Y-61552429D01*
X74194030Y-61529329D01*
X74204520Y-61507151D01*
X74217133Y-61486107D01*
X74231747Y-61466402D01*
X74248223Y-61448223D01*
X74266402Y-61431747D01*
X74286107Y-61417133D01*
X74307151Y-61404520D01*
X74329329Y-61394030D01*
X74352429Y-61385765D01*
X74376227Y-61379804D01*
X74400496Y-61376204D01*
X74425000Y-61375000D01*
X75675000Y-61375000D01*
X75699504Y-61376204D01*
X75699504Y-61376204D01*
G37*
D11*
X75050000Y-62087500D03*
G04 #@! TD*
D10*
G04 #@! TO.C,C10*
G36*
X73149504Y-61326204D02*
X73173773Y-61329804D01*
X73197571Y-61335765D01*
X73220671Y-61344030D01*
X73242849Y-61354520D01*
X73263893Y-61367133D01*
X73283598Y-61381747D01*
X73301777Y-61398223D01*
X73318253Y-61416402D01*
X73332867Y-61436107D01*
X73345480Y-61457151D01*
X73355970Y-61479329D01*
X73364235Y-61502429D01*
X73370196Y-61526227D01*
X73373796Y-61550496D01*
X73375000Y-61575000D01*
X73375000Y-62500000D01*
X73373796Y-62524504D01*
X73370196Y-62548773D01*
X73364235Y-62572571D01*
X73355970Y-62595671D01*
X73345480Y-62617849D01*
X73332867Y-62638893D01*
X73318253Y-62658598D01*
X73301777Y-62676777D01*
X73283598Y-62693253D01*
X73263893Y-62707867D01*
X73242849Y-62720480D01*
X73220671Y-62730970D01*
X73197571Y-62739235D01*
X73173773Y-62745196D01*
X73149504Y-62748796D01*
X73125000Y-62750000D01*
X71875000Y-62750000D01*
X71850496Y-62748796D01*
X71826227Y-62745196D01*
X71802429Y-62739235D01*
X71779329Y-62730970D01*
X71757151Y-62720480D01*
X71736107Y-62707867D01*
X71716402Y-62693253D01*
X71698223Y-62676777D01*
X71681747Y-62658598D01*
X71667133Y-62638893D01*
X71654520Y-62617849D01*
X71644030Y-62595671D01*
X71635765Y-62572571D01*
X71629804Y-62548773D01*
X71626204Y-62524504D01*
X71625000Y-62500000D01*
X71625000Y-61575000D01*
X71626204Y-61550496D01*
X71629804Y-61526227D01*
X71635765Y-61502429D01*
X71644030Y-61479329D01*
X71654520Y-61457151D01*
X71667133Y-61436107D01*
X71681747Y-61416402D01*
X71698223Y-61398223D01*
X71716402Y-61381747D01*
X71736107Y-61367133D01*
X71757151Y-61354520D01*
X71779329Y-61344030D01*
X71802429Y-61335765D01*
X71826227Y-61329804D01*
X71850496Y-61326204D01*
X71875000Y-61325000D01*
X73125000Y-61325000D01*
X73149504Y-61326204D01*
X73149504Y-61326204D01*
G37*
D11*
X72500000Y-62037500D03*
D10*
G36*
X73149504Y-58351204D02*
X73173773Y-58354804D01*
X73197571Y-58360765D01*
X73220671Y-58369030D01*
X73242849Y-58379520D01*
X73263893Y-58392133D01*
X73283598Y-58406747D01*
X73301777Y-58423223D01*
X73318253Y-58441402D01*
X73332867Y-58461107D01*
X73345480Y-58482151D01*
X73355970Y-58504329D01*
X73364235Y-58527429D01*
X73370196Y-58551227D01*
X73373796Y-58575496D01*
X73375000Y-58600000D01*
X73375000Y-59525000D01*
X73373796Y-59549504D01*
X73370196Y-59573773D01*
X73364235Y-59597571D01*
X73355970Y-59620671D01*
X73345480Y-59642849D01*
X73332867Y-59663893D01*
X73318253Y-59683598D01*
X73301777Y-59701777D01*
X73283598Y-59718253D01*
X73263893Y-59732867D01*
X73242849Y-59745480D01*
X73220671Y-59755970D01*
X73197571Y-59764235D01*
X73173773Y-59770196D01*
X73149504Y-59773796D01*
X73125000Y-59775000D01*
X71875000Y-59775000D01*
X71850496Y-59773796D01*
X71826227Y-59770196D01*
X71802429Y-59764235D01*
X71779329Y-59755970D01*
X71757151Y-59745480D01*
X71736107Y-59732867D01*
X71716402Y-59718253D01*
X71698223Y-59701777D01*
X71681747Y-59683598D01*
X71667133Y-59663893D01*
X71654520Y-59642849D01*
X71644030Y-59620671D01*
X71635765Y-59597571D01*
X71629804Y-59573773D01*
X71626204Y-59549504D01*
X71625000Y-59525000D01*
X71625000Y-58600000D01*
X71626204Y-58575496D01*
X71629804Y-58551227D01*
X71635765Y-58527429D01*
X71644030Y-58504329D01*
X71654520Y-58482151D01*
X71667133Y-58461107D01*
X71681747Y-58441402D01*
X71698223Y-58423223D01*
X71716402Y-58406747D01*
X71736107Y-58392133D01*
X71757151Y-58379520D01*
X71779329Y-58369030D01*
X71802429Y-58360765D01*
X71826227Y-58354804D01*
X71850496Y-58351204D01*
X71875000Y-58350000D01*
X73125000Y-58350000D01*
X73149504Y-58351204D01*
X73149504Y-58351204D01*
G37*
D11*
X72500000Y-59062500D03*
G04 #@! TD*
D10*
G04 #@! TO.C,C14*
G36*
X87349504Y-58601204D02*
X87373773Y-58604804D01*
X87397571Y-58610765D01*
X87420671Y-58619030D01*
X87442849Y-58629520D01*
X87463893Y-58642133D01*
X87483598Y-58656747D01*
X87501777Y-58673223D01*
X87518253Y-58691402D01*
X87532867Y-58711107D01*
X87545480Y-58732151D01*
X87555970Y-58754329D01*
X87564235Y-58777429D01*
X87570196Y-58801227D01*
X87573796Y-58825496D01*
X87575000Y-58850000D01*
X87575000Y-59775000D01*
X87573796Y-59799504D01*
X87570196Y-59823773D01*
X87564235Y-59847571D01*
X87555970Y-59870671D01*
X87545480Y-59892849D01*
X87532867Y-59913893D01*
X87518253Y-59933598D01*
X87501777Y-59951777D01*
X87483598Y-59968253D01*
X87463893Y-59982867D01*
X87442849Y-59995480D01*
X87420671Y-60005970D01*
X87397571Y-60014235D01*
X87373773Y-60020196D01*
X87349504Y-60023796D01*
X87325000Y-60025000D01*
X86075000Y-60025000D01*
X86050496Y-60023796D01*
X86026227Y-60020196D01*
X86002429Y-60014235D01*
X85979329Y-60005970D01*
X85957151Y-59995480D01*
X85936107Y-59982867D01*
X85916402Y-59968253D01*
X85898223Y-59951777D01*
X85881747Y-59933598D01*
X85867133Y-59913893D01*
X85854520Y-59892849D01*
X85844030Y-59870671D01*
X85835765Y-59847571D01*
X85829804Y-59823773D01*
X85826204Y-59799504D01*
X85825000Y-59775000D01*
X85825000Y-58850000D01*
X85826204Y-58825496D01*
X85829804Y-58801227D01*
X85835765Y-58777429D01*
X85844030Y-58754329D01*
X85854520Y-58732151D01*
X85867133Y-58711107D01*
X85881747Y-58691402D01*
X85898223Y-58673223D01*
X85916402Y-58656747D01*
X85936107Y-58642133D01*
X85957151Y-58629520D01*
X85979329Y-58619030D01*
X86002429Y-58610765D01*
X86026227Y-58604804D01*
X86050496Y-58601204D01*
X86075000Y-58600000D01*
X87325000Y-58600000D01*
X87349504Y-58601204D01*
X87349504Y-58601204D01*
G37*
D11*
X86700000Y-59312500D03*
D10*
G36*
X87349504Y-61576204D02*
X87373773Y-61579804D01*
X87397571Y-61585765D01*
X87420671Y-61594030D01*
X87442849Y-61604520D01*
X87463893Y-61617133D01*
X87483598Y-61631747D01*
X87501777Y-61648223D01*
X87518253Y-61666402D01*
X87532867Y-61686107D01*
X87545480Y-61707151D01*
X87555970Y-61729329D01*
X87564235Y-61752429D01*
X87570196Y-61776227D01*
X87573796Y-61800496D01*
X87575000Y-61825000D01*
X87575000Y-62750000D01*
X87573796Y-62774504D01*
X87570196Y-62798773D01*
X87564235Y-62822571D01*
X87555970Y-62845671D01*
X87545480Y-62867849D01*
X87532867Y-62888893D01*
X87518253Y-62908598D01*
X87501777Y-62926777D01*
X87483598Y-62943253D01*
X87463893Y-62957867D01*
X87442849Y-62970480D01*
X87420671Y-62980970D01*
X87397571Y-62989235D01*
X87373773Y-62995196D01*
X87349504Y-62998796D01*
X87325000Y-63000000D01*
X86075000Y-63000000D01*
X86050496Y-62998796D01*
X86026227Y-62995196D01*
X86002429Y-62989235D01*
X85979329Y-62980970D01*
X85957151Y-62970480D01*
X85936107Y-62957867D01*
X85916402Y-62943253D01*
X85898223Y-62926777D01*
X85881747Y-62908598D01*
X85867133Y-62888893D01*
X85854520Y-62867849D01*
X85844030Y-62845671D01*
X85835765Y-62822571D01*
X85829804Y-62798773D01*
X85826204Y-62774504D01*
X85825000Y-62750000D01*
X85825000Y-61825000D01*
X85826204Y-61800496D01*
X85829804Y-61776227D01*
X85835765Y-61752429D01*
X85844030Y-61729329D01*
X85854520Y-61707151D01*
X85867133Y-61686107D01*
X85881747Y-61666402D01*
X85898223Y-61648223D01*
X85916402Y-61631747D01*
X85936107Y-61617133D01*
X85957151Y-61604520D01*
X85979329Y-61594030D01*
X86002429Y-61585765D01*
X86026227Y-61579804D01*
X86050496Y-61576204D01*
X86075000Y-61575000D01*
X87325000Y-61575000D01*
X87349504Y-61576204D01*
X87349504Y-61576204D01*
G37*
D11*
X86700000Y-62287500D03*
G04 #@! TD*
D10*
G04 #@! TO.C,R7*
G36*
X68849504Y-64026204D02*
X68873773Y-64029804D01*
X68897571Y-64035765D01*
X68920671Y-64044030D01*
X68942849Y-64054520D01*
X68963893Y-64067133D01*
X68983598Y-64081747D01*
X69001777Y-64098223D01*
X69018253Y-64116402D01*
X69032867Y-64136107D01*
X69045480Y-64157151D01*
X69055970Y-64179329D01*
X69064235Y-64202429D01*
X69070196Y-64226227D01*
X69073796Y-64250496D01*
X69075000Y-64275000D01*
X69075000Y-65525000D01*
X69073796Y-65549504D01*
X69070196Y-65573773D01*
X69064235Y-65597571D01*
X69055970Y-65620671D01*
X69045480Y-65642849D01*
X69032867Y-65663893D01*
X69018253Y-65683598D01*
X69001777Y-65701777D01*
X68983598Y-65718253D01*
X68963893Y-65732867D01*
X68942849Y-65745480D01*
X68920671Y-65755970D01*
X68897571Y-65764235D01*
X68873773Y-65770196D01*
X68849504Y-65773796D01*
X68825000Y-65775000D01*
X67900000Y-65775000D01*
X67875496Y-65773796D01*
X67851227Y-65770196D01*
X67827429Y-65764235D01*
X67804329Y-65755970D01*
X67782151Y-65745480D01*
X67761107Y-65732867D01*
X67741402Y-65718253D01*
X67723223Y-65701777D01*
X67706747Y-65683598D01*
X67692133Y-65663893D01*
X67679520Y-65642849D01*
X67669030Y-65620671D01*
X67660765Y-65597571D01*
X67654804Y-65573773D01*
X67651204Y-65549504D01*
X67650000Y-65525000D01*
X67650000Y-64275000D01*
X67651204Y-64250496D01*
X67654804Y-64226227D01*
X67660765Y-64202429D01*
X67669030Y-64179329D01*
X67679520Y-64157151D01*
X67692133Y-64136107D01*
X67706747Y-64116402D01*
X67723223Y-64098223D01*
X67741402Y-64081747D01*
X67761107Y-64067133D01*
X67782151Y-64054520D01*
X67804329Y-64044030D01*
X67827429Y-64035765D01*
X67851227Y-64029804D01*
X67875496Y-64026204D01*
X67900000Y-64025000D01*
X68825000Y-64025000D01*
X68849504Y-64026204D01*
X68849504Y-64026204D01*
G37*
D11*
X68362500Y-64900000D03*
D10*
G36*
X71824504Y-64026204D02*
X71848773Y-64029804D01*
X71872571Y-64035765D01*
X71895671Y-64044030D01*
X71917849Y-64054520D01*
X71938893Y-64067133D01*
X71958598Y-64081747D01*
X71976777Y-64098223D01*
X71993253Y-64116402D01*
X72007867Y-64136107D01*
X72020480Y-64157151D01*
X72030970Y-64179329D01*
X72039235Y-64202429D01*
X72045196Y-64226227D01*
X72048796Y-64250496D01*
X72050000Y-64275000D01*
X72050000Y-65525000D01*
X72048796Y-65549504D01*
X72045196Y-65573773D01*
X72039235Y-65597571D01*
X72030970Y-65620671D01*
X72020480Y-65642849D01*
X72007867Y-65663893D01*
X71993253Y-65683598D01*
X71976777Y-65701777D01*
X71958598Y-65718253D01*
X71938893Y-65732867D01*
X71917849Y-65745480D01*
X71895671Y-65755970D01*
X71872571Y-65764235D01*
X71848773Y-65770196D01*
X71824504Y-65773796D01*
X71800000Y-65775000D01*
X70875000Y-65775000D01*
X70850496Y-65773796D01*
X70826227Y-65770196D01*
X70802429Y-65764235D01*
X70779329Y-65755970D01*
X70757151Y-65745480D01*
X70736107Y-65732867D01*
X70716402Y-65718253D01*
X70698223Y-65701777D01*
X70681747Y-65683598D01*
X70667133Y-65663893D01*
X70654520Y-65642849D01*
X70644030Y-65620671D01*
X70635765Y-65597571D01*
X70629804Y-65573773D01*
X70626204Y-65549504D01*
X70625000Y-65525000D01*
X70625000Y-64275000D01*
X70626204Y-64250496D01*
X70629804Y-64226227D01*
X70635765Y-64202429D01*
X70644030Y-64179329D01*
X70654520Y-64157151D01*
X70667133Y-64136107D01*
X70681747Y-64116402D01*
X70698223Y-64098223D01*
X70716402Y-64081747D01*
X70736107Y-64067133D01*
X70757151Y-64054520D01*
X70779329Y-64044030D01*
X70802429Y-64035765D01*
X70826227Y-64029804D01*
X70850496Y-64026204D01*
X70875000Y-64025000D01*
X71800000Y-64025000D01*
X71824504Y-64026204D01*
X71824504Y-64026204D01*
G37*
D11*
X71337500Y-64900000D03*
G04 #@! TD*
D10*
G04 #@! TO.C,R8*
G36*
X62299504Y-61476204D02*
X62323773Y-61479804D01*
X62347571Y-61485765D01*
X62370671Y-61494030D01*
X62392849Y-61504520D01*
X62413893Y-61517133D01*
X62433598Y-61531747D01*
X62451777Y-61548223D01*
X62468253Y-61566402D01*
X62482867Y-61586107D01*
X62495480Y-61607151D01*
X62505970Y-61629329D01*
X62514235Y-61652429D01*
X62520196Y-61676227D01*
X62523796Y-61700496D01*
X62525000Y-61725000D01*
X62525000Y-62975000D01*
X62523796Y-62999504D01*
X62520196Y-63023773D01*
X62514235Y-63047571D01*
X62505970Y-63070671D01*
X62495480Y-63092849D01*
X62482867Y-63113893D01*
X62468253Y-63133598D01*
X62451777Y-63151777D01*
X62433598Y-63168253D01*
X62413893Y-63182867D01*
X62392849Y-63195480D01*
X62370671Y-63205970D01*
X62347571Y-63214235D01*
X62323773Y-63220196D01*
X62299504Y-63223796D01*
X62275000Y-63225000D01*
X61350000Y-63225000D01*
X61325496Y-63223796D01*
X61301227Y-63220196D01*
X61277429Y-63214235D01*
X61254329Y-63205970D01*
X61232151Y-63195480D01*
X61211107Y-63182867D01*
X61191402Y-63168253D01*
X61173223Y-63151777D01*
X61156747Y-63133598D01*
X61142133Y-63113893D01*
X61129520Y-63092849D01*
X61119030Y-63070671D01*
X61110765Y-63047571D01*
X61104804Y-63023773D01*
X61101204Y-62999504D01*
X61100000Y-62975000D01*
X61100000Y-61725000D01*
X61101204Y-61700496D01*
X61104804Y-61676227D01*
X61110765Y-61652429D01*
X61119030Y-61629329D01*
X61129520Y-61607151D01*
X61142133Y-61586107D01*
X61156747Y-61566402D01*
X61173223Y-61548223D01*
X61191402Y-61531747D01*
X61211107Y-61517133D01*
X61232151Y-61504520D01*
X61254329Y-61494030D01*
X61277429Y-61485765D01*
X61301227Y-61479804D01*
X61325496Y-61476204D01*
X61350000Y-61475000D01*
X62275000Y-61475000D01*
X62299504Y-61476204D01*
X62299504Y-61476204D01*
G37*
D11*
X61812500Y-62350000D03*
D10*
G36*
X65274504Y-61476204D02*
X65298773Y-61479804D01*
X65322571Y-61485765D01*
X65345671Y-61494030D01*
X65367849Y-61504520D01*
X65388893Y-61517133D01*
X65408598Y-61531747D01*
X65426777Y-61548223D01*
X65443253Y-61566402D01*
X65457867Y-61586107D01*
X65470480Y-61607151D01*
X65480970Y-61629329D01*
X65489235Y-61652429D01*
X65495196Y-61676227D01*
X65498796Y-61700496D01*
X65500000Y-61725000D01*
X65500000Y-62975000D01*
X65498796Y-62999504D01*
X65495196Y-63023773D01*
X65489235Y-63047571D01*
X65480970Y-63070671D01*
X65470480Y-63092849D01*
X65457867Y-63113893D01*
X65443253Y-63133598D01*
X65426777Y-63151777D01*
X65408598Y-63168253D01*
X65388893Y-63182867D01*
X65367849Y-63195480D01*
X65345671Y-63205970D01*
X65322571Y-63214235D01*
X65298773Y-63220196D01*
X65274504Y-63223796D01*
X65250000Y-63225000D01*
X64325000Y-63225000D01*
X64300496Y-63223796D01*
X64276227Y-63220196D01*
X64252429Y-63214235D01*
X64229329Y-63205970D01*
X64207151Y-63195480D01*
X64186107Y-63182867D01*
X64166402Y-63168253D01*
X64148223Y-63151777D01*
X64131747Y-63133598D01*
X64117133Y-63113893D01*
X64104520Y-63092849D01*
X64094030Y-63070671D01*
X64085765Y-63047571D01*
X64079804Y-63023773D01*
X64076204Y-62999504D01*
X64075000Y-62975000D01*
X64075000Y-61725000D01*
X64076204Y-61700496D01*
X64079804Y-61676227D01*
X64085765Y-61652429D01*
X64094030Y-61629329D01*
X64104520Y-61607151D01*
X64117133Y-61586107D01*
X64131747Y-61566402D01*
X64148223Y-61548223D01*
X64166402Y-61531747D01*
X64186107Y-61517133D01*
X64207151Y-61504520D01*
X64229329Y-61494030D01*
X64252429Y-61485765D01*
X64276227Y-61479804D01*
X64300496Y-61476204D01*
X64325000Y-61475000D01*
X65250000Y-61475000D01*
X65274504Y-61476204D01*
X65274504Y-61476204D01*
G37*
D11*
X64787500Y-62350000D03*
G04 #@! TD*
M02*
