G04 #@! TF.FileFunction,Copper,L1,Top,Signal*
%FSLAX46Y46*%
G04 Gerber Fmt 4.6, Leading zero omitted, Abs format (unit mm)*
G04 Created by KiCad (PCBNEW 4.0.5+dfsg1-4) date Tue Feb 13 00:54:17 2018*
%MOMM*%
%LPD*%
G01*
G04 APERTURE LIST*
%ADD10C,0.100000*%
%ADD11C,1.699260*%
%ADD12R,1.699260X1.699260*%
%ADD13R,1.727200X1.727200*%
%ADD14O,1.727200X1.727200*%
%ADD15R,1.727200X2.032000*%
%ADD16O,1.727200X2.032000*%
%ADD17R,2.032000X1.727200*%
%ADD18O,2.032000X1.727200*%
%ADD19R,2.032000X2.032000*%
%ADD20O,2.032000X2.032000*%
%ADD21C,1.998980*%
%ADD22C,0.685800*%
%ADD23C,0.635000*%
%ADD24C,1.270000*%
G04 APERTURE END LIST*
D10*
D11*
X125097540Y-78740520D03*
D12*
X125097540Y-68580520D03*
D11*
X120012460Y-68579480D03*
D12*
X120012460Y-78739480D03*
D11*
X127632460Y-68579480D03*
D12*
X127632460Y-78739480D03*
D11*
X122552460Y-68579480D03*
D12*
X122552460Y-78739480D03*
D13*
X163830000Y-66040000D03*
D14*
X166370000Y-66040000D03*
X163830000Y-68580000D03*
X166370000Y-68580000D03*
X163830000Y-71120000D03*
X166370000Y-71120000D03*
X163830000Y-73660000D03*
X166370000Y-73660000D03*
X163830000Y-76200000D03*
X166370000Y-76200000D03*
X163830000Y-78740000D03*
X166370000Y-78740000D03*
D15*
X161290000Y-104140000D03*
D16*
X158750000Y-104140000D03*
X156210000Y-104140000D03*
X153670000Y-104140000D03*
X151130000Y-104140000D03*
X148590000Y-104140000D03*
D17*
X136525000Y-73660000D03*
D18*
X136525000Y-76200000D03*
X136525000Y-78740000D03*
D19*
X123444000Y-65024000D03*
D20*
X125984000Y-65024000D03*
D19*
X133858000Y-65024000D03*
D20*
X131318000Y-65024000D03*
D15*
X151130000Y-109220000D03*
D16*
X153670000Y-109220000D03*
X156210000Y-109220000D03*
X158750000Y-109220000D03*
D15*
X121412000Y-119888000D03*
D16*
X123952000Y-119888000D03*
X126492000Y-119888000D03*
X129032000Y-119888000D03*
D21*
X133350000Y-78740000D03*
X133350000Y-71120000D03*
X130810000Y-78740000D03*
X130810000Y-71120000D03*
D22*
X136144000Y-67310000D03*
X149860000Y-79248000D03*
X163830000Y-83185000D03*
X156210000Y-76200000D03*
X128905000Y-74930000D03*
D23*
X136525000Y-78740000D02*
X136525000Y-80645000D01*
X125097540Y-80642460D02*
X125097540Y-78740520D01*
X125095000Y-80645000D02*
X125097540Y-80642460D01*
X136525000Y-80645000D02*
X125095000Y-80645000D01*
X120012460Y-68579480D02*
X122552460Y-68579480D01*
X127632460Y-78739480D02*
X127632460Y-77467460D01*
X120012460Y-77472540D02*
X120012460Y-78739480D01*
X121285000Y-76200000D02*
X120012460Y-77472540D01*
X126365000Y-76200000D02*
X121285000Y-76200000D01*
X127632460Y-77467460D02*
X126365000Y-76200000D01*
X133350000Y-78740000D02*
X133350000Y-77470000D01*
X129032000Y-76200000D02*
X127632460Y-78739480D01*
X132715000Y-76200000D02*
X129032000Y-76200000D01*
X133350000Y-77470000D02*
X132715000Y-76200000D01*
X136525000Y-76200000D02*
X135890000Y-76200000D01*
X135890000Y-76200000D02*
X133350000Y-78740000D01*
X136144000Y-67310000D02*
X148590000Y-67310000D01*
X148590000Y-67310000D02*
X149860000Y-68580000D01*
X149860000Y-68580000D02*
X149860000Y-79248000D01*
X163830000Y-83185000D02*
X163830000Y-78740000D01*
D24*
X149860000Y-100330000D02*
X148590000Y-104140000D01*
X152400000Y-93218000D02*
X149860000Y-100330000D01*
X163830000Y-66040000D02*
X152400000Y-66040000D01*
X152400000Y-66040000D02*
X152400000Y-93218000D01*
X151130000Y-109220000D02*
X121412000Y-109474000D01*
X121412000Y-109474000D02*
X121412000Y-119888000D01*
X166370000Y-66040000D02*
X167005000Y-66040000D01*
X167005000Y-66040000D02*
X169545000Y-68580000D01*
X169545000Y-68580000D02*
X169545000Y-108585000D01*
X169545000Y-108585000D02*
X163195000Y-114935000D01*
X163195000Y-114935000D02*
X151130000Y-114808000D01*
X151130000Y-114808000D02*
X151130000Y-112268000D01*
X151130000Y-112268000D02*
X151130000Y-109220000D01*
D23*
X163830000Y-68580000D02*
X158750000Y-68580000D01*
X158750000Y-68580000D02*
X158750000Y-104140000D01*
X156210000Y-76200000D02*
X156210000Y-104140000D01*
X133350000Y-71120000D02*
X133350000Y-68072000D01*
X128270000Y-65024000D02*
X125984000Y-65024000D01*
X131064000Y-67818000D02*
X128270000Y-65024000D01*
X133096000Y-67818000D02*
X131064000Y-67818000D01*
X133350000Y-68072000D02*
X133096000Y-67818000D01*
X136525000Y-73660000D02*
X136525000Y-71247000D01*
X136398000Y-71120000D02*
X133350000Y-71120000D01*
X136525000Y-71247000D02*
X136398000Y-71120000D01*
X128905000Y-70231000D02*
X128905000Y-74930000D01*
X129794000Y-68326000D02*
X128905000Y-70231000D01*
X128016000Y-66802000D02*
X129794000Y-68072000D01*
X124460000Y-66802000D02*
X128016000Y-66802000D01*
X124460000Y-66802000D02*
X123444000Y-65786000D01*
X123444000Y-65024000D02*
X123444000Y-65786000D01*
M02*
