G04 #@! TF.GenerationSoftware,KiCad,Pcbnew,(5.0.1)-4*
G04 #@! TF.CreationDate,2019-04-28T12:35:44+01:00*
G04 #@! TF.ProjectId,Bell-Boy,42656C6C2D426F792E6B696361645F70,rev?*
G04 #@! TF.SameCoordinates,Original*
G04 #@! TF.FileFunction,Copper,L1,Top,Signal*
G04 #@! TF.FilePolarity,Positive*
%FSLAX46Y46*%
G04 Gerber Fmt 4.6, Leading zero omitted, Abs format (unit mm)*
G04 Created by KiCad (PCBNEW (5.0.1)-4) date 28/04/2019 12:35:44*
%MOMM*%
%LPD*%
G01*
G04 APERTURE LIST*
G04 #@! TA.AperFunction,ComponentPad*
%ADD10R,1.700000X1.700000*%
G04 #@! TD*
G04 #@! TA.AperFunction,ComponentPad*
%ADD11O,1.700000X1.700000*%
G04 #@! TD*
G04 #@! TA.AperFunction,ComponentPad*
%ADD12C,2.100000*%
G04 #@! TD*
G04 #@! TA.AperFunction,ComponentPad*
%ADD13C,1.750000*%
G04 #@! TD*
G04 #@! TA.AperFunction,ViaPad*
%ADD14C,0.685800*%
G04 #@! TD*
G04 #@! TA.AperFunction,ViaPad*
%ADD15C,1.016000*%
G04 #@! TD*
G04 #@! TA.AperFunction,Conductor*
%ADD16C,0.152400*%
G04 #@! TD*
G04 #@! TA.AperFunction,Conductor*
%ADD17C,0.457200*%
G04 #@! TD*
G04 #@! TA.AperFunction,Conductor*
%ADD18C,0.304800*%
G04 #@! TD*
G04 #@! TA.AperFunction,Conductor*
%ADD19C,0.609600*%
G04 #@! TD*
G04 #@! TA.AperFunction,Conductor*
%ADD20C,0.254000*%
G04 #@! TD*
G04 APERTURE END LIST*
D10*
G04 #@! TO.P,LED1,1*
G04 #@! TO.N,Net-(LED1-Pad1)*
X105550000Y-78000000D03*
D11*
G04 #@! TO.P,LED1,2*
G04 #@! TO.N,Net-(LED1-Pad2)*
X103010000Y-78000000D03*
G04 #@! TD*
D10*
G04 #@! TO.P,BATT1,1*
G04 #@! TO.N,+BATT*
X109650000Y-73100000D03*
D11*
G04 #@! TO.P,BATT1,2*
G04 #@! TO.N,GND*
X107110000Y-73100000D03*
G04 #@! TD*
D12*
G04 #@! TO.P,SW1,*
G04 #@! TO.N,*
X107980000Y-55690000D03*
D13*
G04 #@! TO.P,SW1,2*
G04 #@! TO.N,+BATT*
X106720000Y-53200000D03*
G04 #@! TO.P,SW1,1*
G04 #@! TO.N,+VSW*
X102220000Y-53200000D03*
D12*
G04 #@! TO.P,SW1,*
G04 #@! TO.N,*
X100970000Y-55690000D03*
G04 #@! TD*
D10*
G04 #@! TO.P,J2,1*
G04 #@! TO.N,GND*
X85750000Y-78050000D03*
D11*
G04 #@! TO.P,J2,2*
X88290000Y-78050000D03*
G04 #@! TO.P,J2,3*
G04 #@! TO.N,VDDA*
X90830000Y-78050000D03*
G04 #@! TO.P,J2,4*
G04 #@! TO.N,Net-(J2-Pad4)*
X93370000Y-78050000D03*
G04 #@! TO.P,J2,5*
G04 #@! TO.N,Net-(J2-Pad5)*
X95910000Y-78050000D03*
G04 #@! TO.P,J2,6*
G04 #@! TO.N,Net-(C1-Pad2)*
X98450000Y-78050000D03*
G04 #@! TD*
D10*
G04 #@! TO.P,J3,1*
G04 #@! TO.N,Net-(C1-Pad1)*
X57800000Y-78050000D03*
D11*
G04 #@! TO.P,J3,2*
G04 #@! TO.N,Net-(J3-Pad2)*
X60340000Y-78050000D03*
G04 #@! TO.P,J3,3*
G04 #@! TO.N,Net-(J3-Pad3)*
X62880000Y-78050000D03*
G04 #@! TO.P,J3,4*
G04 #@! TO.N,Net-(J3-Pad4)*
X65420000Y-78050000D03*
G04 #@! TD*
D10*
G04 #@! TO.P,J1,1*
G04 #@! TO.N,Net-(J1-Pad1)*
X106045000Y-58050000D03*
G04 #@! TD*
D14*
G04 #@! TO.N,Net-(U1-Pad11)*
X54250000Y-63100000D03*
X109500000Y-65000000D03*
G04 #@! TO.N,+3V3*
X59150000Y-58250000D03*
X79300000Y-56350000D03*
D15*
X79250000Y-60287500D03*
X85600000Y-60950000D03*
D14*
X73812500Y-63350000D03*
X63550000Y-64100000D03*
D15*
G04 #@! TO.N,GND*
X50895200Y-69500000D03*
X97050000Y-75650000D03*
X51500000Y-61500000D03*
D14*
X77450000Y-63750000D03*
X82650000Y-61950000D03*
D15*
X87000000Y-53700000D03*
X68050000Y-53700000D03*
X105300000Y-70100000D03*
X72950000Y-64950000D03*
X102400000Y-65350000D03*
X92250000Y-63700000D03*
X88519000Y-64135000D03*
G04 #@! TO.N,+BATT*
X112050000Y-62200000D03*
X98171000Y-64897000D03*
D14*
G04 #@! TO.N,Net-(C1-Pad1)*
X64500000Y-76250000D03*
X57200000Y-76250000D03*
G04 #@! TO.N,Net-(C1-Pad2)*
X78500000Y-68350000D03*
D15*
G04 #@! TO.N,+5V*
X56200000Y-51000000D03*
X98933000Y-51000000D03*
G04 #@! TO.N,VDDA*
X59100000Y-69500000D03*
X65750000Y-69700000D03*
D14*
G04 #@! TO.N,Net-(R1-Pad2)*
X57000000Y-67000000D03*
X89050000Y-72050000D03*
G04 #@! TO.N,Net-(C2-Pad1)*
X62243799Y-65006201D03*
X65600000Y-65050000D03*
G04 #@! TO.N,+VSW*
X52650000Y-62400000D03*
X67550000Y-58900000D03*
D15*
X56100000Y-57250000D03*
D14*
G04 #@! TO.N,Net-(R6-Pad1)*
X51400000Y-71950000D03*
X108350000Y-64100000D03*
X106950000Y-62900000D03*
G04 #@! TO.N,Net-(LED1-Pad2)*
X87250000Y-74350000D03*
X58150000Y-68800000D03*
G04 #@! TO.N,Net-(J3-Pad2)*
X58900000Y-66100000D03*
X62850000Y-65650000D03*
G04 #@! TO.N,Net-(J3-Pad4)*
X60850000Y-65300000D03*
X60477284Y-63771696D03*
G04 #@! TO.N,Net-(J1-Pad1)*
X54000000Y-71150000D03*
X102250000Y-60800000D03*
G04 #@! TO.N,Net-(J2-Pad4)*
X56300000Y-71950000D03*
G04 #@! TO.N,Net-(R2-Pad1)*
X54150000Y-72150000D03*
X92650000Y-59900000D03*
G04 #@! TO.N,Net-(J4-Pad7)*
X52200000Y-64300000D03*
X64300000Y-57550000D03*
G04 #@! TO.N,Net-(J4-Pad3)*
X61800000Y-74050000D03*
X64350000Y-73250000D03*
G04 #@! TO.N,Net-(J4-Pad5)*
X64150000Y-74950000D03*
X61900000Y-74950000D03*
G04 #@! TO.N,Net-(J4-Pad19)*
X84600000Y-67150000D03*
X81150000Y-61400000D03*
G04 #@! TO.N,Net-(J4-Pad21)*
X77900000Y-65647700D03*
X83350000Y-60650000D03*
G04 #@! TO.N,Net-(J2-Pad5)*
X55728500Y-71100000D03*
G04 #@! TO.N,Net-(R4-Pad1)*
X59650000Y-71350000D03*
X63756310Y-72150000D03*
X71400000Y-63400000D03*
X63350000Y-62950000D03*
G04 #@! TD*
D16*
G04 #@! TO.N,Net-(U1-Pad11)*
X109500000Y-65000000D02*
X109246001Y-65253999D01*
X87100000Y-58450000D02*
X86950000Y-58450000D01*
X90790790Y-58450000D02*
X90400000Y-58450000D01*
X90400000Y-58450000D02*
X86950000Y-58450000D01*
X56853999Y-60496001D02*
X58300000Y-60496001D01*
X54250000Y-63100000D02*
X56853999Y-60496001D01*
X57703999Y-60496001D02*
X58300000Y-60496001D01*
X95450000Y-58450000D02*
X95250000Y-58450000D01*
X95250000Y-58450000D02*
X90400000Y-58450000D01*
X58300000Y-60496001D02*
X73303999Y-60496001D01*
X75350000Y-58450000D02*
X76900000Y-58450000D01*
X73303999Y-60496001D02*
X75350000Y-58450000D01*
X76450000Y-58450000D02*
X76900000Y-58450000D01*
X76900000Y-58450000D02*
X86950000Y-58450000D01*
X97581066Y-58450000D02*
X96600000Y-58450000D01*
X96600000Y-58450000D02*
X95250000Y-58450000D01*
X100745822Y-58450000D02*
X98750000Y-58450000D01*
X107638721Y-65342899D02*
X100745822Y-58450000D01*
X109157101Y-65342899D02*
X107638721Y-65342899D01*
X109500000Y-65000000D02*
X109157101Y-65342899D01*
X99018934Y-58450000D02*
X98750000Y-58450000D01*
X98750000Y-58450000D02*
X96600000Y-58450000D01*
G04 #@! TO.N,+3V3*
X61050000Y-56350000D02*
X61350000Y-56350000D01*
X59150000Y-58250000D02*
X61050000Y-56350000D01*
X61130000Y-56350000D02*
X61350000Y-56350000D01*
X61350000Y-56350000D02*
X79300000Y-56350000D01*
D17*
X84429501Y-59779501D02*
X85600000Y-60950000D01*
X79250000Y-60287500D02*
X79757999Y-59779501D01*
X79757999Y-59779501D02*
X84429501Y-59779501D01*
D16*
X73062500Y-64100000D02*
X73812500Y-63350000D01*
X63550000Y-64100000D02*
X73062500Y-64100000D01*
D18*
G04 #@! TO.N,GND*
X51500000Y-61500000D02*
X51500000Y-68895200D01*
X51500000Y-68895200D02*
X50895200Y-69500000D01*
D19*
X51500000Y-60421502D02*
X51500000Y-61500000D01*
X58221502Y-53700000D02*
X51500000Y-60421502D01*
X87000000Y-53700000D02*
X58221502Y-53700000D01*
G04 #@! TO.N,+BATT*
X109650000Y-71640400D02*
X112050000Y-69240400D01*
X109650000Y-73100000D02*
X109650000Y-71640400D01*
D17*
X112050000Y-66050000D02*
X111860999Y-66239001D01*
D19*
X112050000Y-66050000D02*
X112050000Y-62200000D01*
X112050000Y-69240400D02*
X112050000Y-66050000D01*
D17*
X105845001Y-54074999D02*
X105845001Y-55190999D01*
X106720000Y-53200000D02*
X105845001Y-54074999D01*
X105845001Y-55190999D02*
X103632000Y-57404000D01*
X107158001Y-61692001D02*
X103632000Y-58166000D01*
X111542001Y-61692001D02*
X107158001Y-61692001D01*
X112050000Y-62200000D02*
X111542001Y-61692001D01*
X103632000Y-57404000D02*
X103632000Y-58166000D01*
D19*
X111784799Y-66315201D02*
X112050000Y-66050000D01*
X99589201Y-66315201D02*
X111784799Y-66315201D01*
X98171000Y-64897000D02*
X99589201Y-66315201D01*
D16*
G04 #@! TO.N,Net-(C1-Pad1)*
X57200000Y-76250000D02*
X64500000Y-76250000D01*
G04 #@! TO.N,Net-(C1-Pad2)*
X96550000Y-76750000D02*
X92750000Y-72950000D01*
X97150000Y-76750000D02*
X96550000Y-76750000D01*
X98450000Y-78050000D02*
X97150000Y-76750000D01*
X92750000Y-72950000D02*
X91750000Y-72950000D01*
X91750000Y-72950000D02*
X90550000Y-71750000D01*
X90050000Y-71250000D02*
X87500000Y-71250000D01*
X90550000Y-71750000D02*
X90050000Y-71250000D01*
X87500000Y-71250000D02*
X84600000Y-68350000D01*
X84600000Y-68350000D02*
X78500000Y-68350000D01*
D17*
G04 #@! TO.N,+5V*
X56200000Y-51000000D02*
X56228999Y-51028999D01*
D19*
X98933000Y-51000000D02*
X56200000Y-51000000D01*
D18*
G04 #@! TO.N,VDDA*
X90830000Y-76630000D02*
X90830000Y-78050000D01*
X65550000Y-69500000D02*
X65750000Y-69700000D01*
X59100000Y-69500000D02*
X65550000Y-69500000D01*
X70156362Y-69700000D02*
X70606362Y-70150000D01*
X65750000Y-69700000D02*
X70156362Y-69700000D01*
X84350000Y-70150000D02*
X84450000Y-70250000D01*
X70606362Y-70150000D02*
X84350000Y-70150000D01*
X84335820Y-70135820D02*
X84450000Y-70250000D01*
X84450000Y-70250000D02*
X90830000Y-76630000D01*
G04 #@! TO.N,Net-(R1-Pad2)*
X57000000Y-67000000D02*
X57450000Y-67450000D01*
X78810897Y-68997701D02*
X71047701Y-68997701D01*
X84442181Y-68731010D02*
X79077588Y-68731010D01*
X79077588Y-68731010D02*
X78810897Y-68997701D01*
X69500000Y-67450000D02*
X65150000Y-67450000D01*
X71047701Y-68997701D02*
X69500000Y-67450000D01*
X57450000Y-67450000D02*
X65150000Y-67450000D01*
X65150000Y-67450000D02*
X66300000Y-67450000D01*
X87761171Y-72050000D02*
X86950000Y-71238829D01*
X89050000Y-72050000D02*
X87761171Y-72050000D01*
X87207101Y-71495930D02*
X86950000Y-71238829D01*
X86950000Y-71238829D02*
X84442181Y-68731010D01*
D16*
G04 #@! TO.N,Net-(C2-Pad1)*
X65193799Y-65006201D02*
X62243799Y-65006201D01*
X65600000Y-65050000D02*
X65193799Y-65006201D01*
G04 #@! TO.N,+VSW*
X59424321Y-58821501D02*
X61395822Y-56850000D01*
D17*
X99712564Y-53200000D02*
X97286465Y-55626099D01*
X57723901Y-55626099D02*
X97286465Y-55626099D01*
X56100000Y-57250000D02*
X57723901Y-55626099D01*
D16*
X56100000Y-57968420D02*
X56953081Y-58821501D01*
X56100000Y-57250000D02*
X56100000Y-57968420D01*
X58900000Y-58821501D02*
X58650883Y-58821501D01*
X56953081Y-58821501D02*
X58900000Y-58821501D01*
X59424321Y-58821501D02*
X58900000Y-58821501D01*
X52650000Y-62400000D02*
X55450000Y-59600000D01*
X55450000Y-57900000D02*
X56100000Y-57250000D01*
X55450000Y-59600000D02*
X55450000Y-57900000D01*
D17*
X99712564Y-53200000D02*
X102220000Y-53200000D01*
D16*
X67550000Y-58900000D02*
X66850000Y-58200000D01*
X66450000Y-56850000D02*
X64300000Y-56850000D01*
X66850000Y-57250000D02*
X66450000Y-56850000D01*
X66850000Y-58200000D02*
X66850000Y-57250000D01*
X61395822Y-56850000D02*
X64300000Y-56850000D01*
X64300000Y-56850000D02*
X64700000Y-56850000D01*
G04 #@! TO.N,Net-(R6-Pad1)*
X59000000Y-59900000D02*
X57585750Y-59900000D01*
X73100000Y-59900000D02*
X74854810Y-58145190D01*
X73100000Y-59900000D02*
X59000000Y-59900000D01*
X98896001Y-57896001D02*
X98900000Y-57900000D01*
X75100000Y-57900000D02*
X74300000Y-58700000D01*
X108350000Y-64100000D02*
X107200000Y-62950000D01*
X56535750Y-59900000D02*
X59000000Y-59900000D01*
X53000000Y-63435750D02*
X56535750Y-59900000D01*
X53000000Y-70350000D02*
X53000000Y-63435750D01*
X51400000Y-71950000D02*
X53000000Y-70350000D01*
X101950000Y-57900000D02*
X97550000Y-57900000D01*
X106950000Y-62900000D02*
X101950000Y-57900000D01*
X98900000Y-57900000D02*
X97550000Y-57900000D01*
X97550000Y-57900000D02*
X75100000Y-57900000D01*
D18*
G04 #@! TO.N,Net-(LED1-Pad2)*
X59800000Y-70650000D02*
X60250000Y-70650000D01*
X59500000Y-70650000D02*
X60250000Y-70650000D01*
X64365209Y-70665209D02*
X64350000Y-70650000D01*
X83565209Y-70665209D02*
X64365209Y-70665209D01*
X87250000Y-74350000D02*
X83565209Y-70665209D01*
X64350000Y-70650000D02*
X64550000Y-70650000D01*
X59047054Y-70650000D02*
X60700000Y-70650000D01*
X58150000Y-69752946D02*
X59047054Y-70650000D01*
X58150000Y-68800000D02*
X58150000Y-69752946D01*
X60250000Y-70650000D02*
X60700000Y-70650000D01*
X60700000Y-70650000D02*
X64350000Y-70650000D01*
D16*
G04 #@! TO.N,Net-(J3-Pad2)*
X62350000Y-66150000D02*
X62850000Y-65650000D01*
X58950000Y-66150000D02*
X62350000Y-66150000D01*
G04 #@! TO.N,Net-(J3-Pad4)*
X60850000Y-65300000D02*
X60850000Y-64144412D01*
X60850000Y-64144412D02*
X60477284Y-63771696D01*
G04 #@! TO.N,Net-(J1-Pad1)*
X73450000Y-61250000D02*
X58453079Y-61250000D01*
X75900000Y-58800000D02*
X73450000Y-61250000D01*
X86350000Y-58800000D02*
X75900000Y-58800000D01*
X92100000Y-58800000D02*
X92590398Y-59290398D01*
X85550000Y-58800000D02*
X92100000Y-58800000D01*
X92590398Y-59290398D02*
X100740398Y-59290398D01*
X54000000Y-65703079D02*
X58453079Y-61250000D01*
X54000000Y-71150000D02*
X54000000Y-65703079D01*
X100740398Y-59290398D02*
X102250000Y-60800000D01*
G04 #@! TO.N,Net-(J2-Pad4)*
X91712676Y-76971399D02*
X84496087Y-69754810D01*
X93370000Y-78050000D02*
X92291399Y-76971399D01*
X92291399Y-76971399D02*
X91712676Y-76971399D01*
X56300000Y-69300000D02*
X57464180Y-68135820D01*
X56300000Y-71950000D02*
X56300000Y-69300000D01*
X57464180Y-68135820D02*
X69215926Y-68135820D01*
X69215926Y-68220736D02*
X70750000Y-69754810D01*
X69215926Y-68135820D02*
X69215926Y-68220736D01*
X84496087Y-69754810D02*
X70750000Y-69754810D01*
G04 #@! TO.N,Net-(R2-Pad1)*
X91900000Y-59150000D02*
X76550000Y-59150000D01*
X92650000Y-59900000D02*
X92650000Y-59900000D01*
X76550000Y-59150000D02*
X73800000Y-61900000D01*
X73800000Y-61900000D02*
X59135750Y-61900000D01*
X59135750Y-61900000D02*
X55235750Y-65800000D01*
X54571501Y-66464249D02*
X55235750Y-65800000D01*
X54571501Y-71728499D02*
X54571501Y-66464249D01*
X54150000Y-72150000D02*
X54571501Y-71728499D01*
X55235750Y-65800000D02*
X54985750Y-66050000D01*
X92650000Y-59900000D02*
X91900000Y-59150000D01*
G04 #@! TO.N,Net-(J4-Pad7)*
X52200000Y-63804684D02*
X52200000Y-64300000D01*
X56704684Y-59300000D02*
X56504684Y-59500000D01*
X56504684Y-59500000D02*
X52200000Y-63804684D01*
X56878374Y-59126310D02*
X56504684Y-59500000D01*
X64300000Y-57550000D02*
X63373690Y-59126310D01*
X63373690Y-59126310D02*
X56878374Y-59126310D01*
G04 #@! TO.N,Net-(J4-Pad3)*
X63550000Y-74050000D02*
X64350000Y-73250000D01*
X61800000Y-74050000D02*
X63550000Y-74050000D01*
G04 #@! TO.N,Net-(J4-Pad5)*
X61900000Y-74950000D02*
X64150000Y-74950000D01*
G04 #@! TO.N,Net-(J4-Pad19)*
X81634933Y-61400000D02*
X81884933Y-61150000D01*
X81150000Y-61400000D02*
X81634933Y-61400000D01*
X81884933Y-61150000D02*
X82900000Y-61150000D01*
X84600000Y-62850000D02*
X84600000Y-67150000D01*
X82900000Y-61150000D02*
X84600000Y-62850000D01*
G04 #@! TO.N,Net-(J4-Pad21)*
X77900000Y-65647700D02*
X77147701Y-65647700D01*
X77147701Y-65647700D02*
X76100000Y-64599999D01*
X76100000Y-64599999D02*
X76100000Y-63250000D01*
X76100000Y-63250000D02*
X77000000Y-62350000D01*
X80995822Y-60650000D02*
X83350000Y-60650000D01*
X79295822Y-62350000D02*
X80995822Y-60650000D01*
X77000000Y-62350000D02*
X79295822Y-62350000D01*
G04 #@! TO.N,Net-(J2-Pad5)*
X95060001Y-77200001D02*
X95910000Y-78050000D01*
X88427153Y-73254810D02*
X91114810Y-73254810D01*
X91114810Y-73254810D02*
X95060001Y-77200001D01*
X70961172Y-69450000D02*
X84622343Y-69450000D01*
X84622343Y-69450000D02*
X88427153Y-73254810D01*
X69342182Y-67831010D02*
X69600000Y-68088828D01*
X57318990Y-67831010D02*
X69342182Y-67831010D01*
X55728500Y-69421500D02*
X57318990Y-67831010D01*
X55728500Y-71100000D02*
X55728500Y-69421500D01*
X69524571Y-68013399D02*
X69600000Y-68088828D01*
X69600000Y-68088828D02*
X70961172Y-69450000D01*
G04 #@! TO.N,Net-(R4-Pad1)*
X59650000Y-71350000D02*
X60450000Y-72150000D01*
X60450000Y-72150000D02*
X63756310Y-72150000D01*
X63800000Y-63400000D02*
X71400000Y-63400000D01*
X63350000Y-62950000D02*
X63800000Y-63400000D01*
G04 #@! TD*
D20*
G04 #@! TO.N,GND*
G36*
X91672100Y-59927888D02*
X91672100Y-60094516D01*
X91820977Y-60453936D01*
X92096064Y-60729023D01*
X92455484Y-60877900D01*
X92844516Y-60877900D01*
X93203936Y-60729023D01*
X93479023Y-60453936D01*
X93627900Y-60094516D01*
X93627900Y-60001598D01*
X100445810Y-60001598D01*
X101272100Y-60827889D01*
X101272100Y-60994516D01*
X101420977Y-61353936D01*
X101696064Y-61629023D01*
X102055484Y-61777900D01*
X102444516Y-61777900D01*
X102803936Y-61629023D01*
X102861496Y-61571463D01*
X106665434Y-65375401D01*
X99978478Y-65375401D01*
X99314000Y-64710923D01*
X99314000Y-64669643D01*
X99139989Y-64249542D01*
X98818458Y-63928011D01*
X98398357Y-63754000D01*
X97943643Y-63754000D01*
X97523542Y-63928011D01*
X97202011Y-64249542D01*
X97028000Y-64669643D01*
X97028000Y-65124357D01*
X97202011Y-65544458D01*
X97523542Y-65865989D01*
X97943643Y-66040000D01*
X97984923Y-66040000D01*
X98859213Y-66914290D01*
X98911644Y-66992758D01*
X99080939Y-67105878D01*
X99222508Y-67200472D01*
X99222509Y-67200472D01*
X99222510Y-67200473D01*
X99496642Y-67255001D01*
X99496646Y-67255001D01*
X99589200Y-67273411D01*
X99681754Y-67255001D01*
X108382405Y-67255001D01*
X108438029Y-71728153D01*
X108342191Y-71792191D01*
X108201843Y-72002235D01*
X108181261Y-72105708D01*
X107876924Y-71828355D01*
X107466890Y-71658524D01*
X107237000Y-71779845D01*
X107237000Y-72973000D01*
X107257000Y-72973000D01*
X107257000Y-73227000D01*
X107237000Y-73227000D01*
X107237000Y-74420155D01*
X107466890Y-74541476D01*
X107876924Y-74371645D01*
X108181261Y-74094292D01*
X108201843Y-74197765D01*
X108342191Y-74407809D01*
X108472434Y-74494835D01*
X108496428Y-76424385D01*
X97944480Y-76538692D01*
X97702423Y-76296635D01*
X97662746Y-76237254D01*
X97427496Y-76080064D01*
X97220046Y-76038800D01*
X97220041Y-76038800D01*
X97150000Y-76024868D01*
X97079959Y-76038800D01*
X96844589Y-76038800D01*
X94262681Y-73456892D01*
X105668514Y-73456892D01*
X105914817Y-73981358D01*
X106343076Y-74371645D01*
X106753110Y-74541476D01*
X106983000Y-74420155D01*
X106983000Y-73227000D01*
X105789181Y-73227000D01*
X105668514Y-73456892D01*
X94262681Y-73456892D01*
X93548897Y-72743108D01*
X105668514Y-72743108D01*
X105789181Y-72973000D01*
X106983000Y-72973000D01*
X106983000Y-71779845D01*
X106753110Y-71658524D01*
X106343076Y-71828355D01*
X105914817Y-72218642D01*
X105668514Y-72743108D01*
X93548897Y-72743108D01*
X93302423Y-72496635D01*
X93262746Y-72437254D01*
X93027496Y-72280064D01*
X92820046Y-72238800D01*
X92820041Y-72238800D01*
X92750000Y-72224868D01*
X92679959Y-72238800D01*
X92044589Y-72238800D01*
X91102426Y-71296638D01*
X91102424Y-71296635D01*
X90602423Y-70796635D01*
X90562746Y-70737254D01*
X90327496Y-70580064D01*
X90120046Y-70538800D01*
X90120041Y-70538800D01*
X90050000Y-70524868D01*
X89979959Y-70538800D01*
X87794589Y-70538800D01*
X85194374Y-67938585D01*
X85429023Y-67703936D01*
X85577900Y-67344516D01*
X85577900Y-66955484D01*
X85429023Y-66596064D01*
X85311200Y-66478241D01*
X85311200Y-62920041D01*
X85325132Y-62849999D01*
X85311200Y-62779955D01*
X85311200Y-62779954D01*
X85269936Y-62572504D01*
X85268220Y-62569936D01*
X85152424Y-62396635D01*
X85152420Y-62396631D01*
X85112745Y-62337254D01*
X85053369Y-62297580D01*
X84069374Y-61313585D01*
X84179023Y-61203936D01*
X84311879Y-60883193D01*
X84457000Y-61028314D01*
X84457000Y-61177357D01*
X84631011Y-61597458D01*
X84952542Y-61918989D01*
X85372643Y-62093000D01*
X85827357Y-62093000D01*
X86247458Y-61918989D01*
X86568989Y-61597458D01*
X86743000Y-61177357D01*
X86743000Y-60722643D01*
X86568989Y-60302542D01*
X86247458Y-59981011D01*
X85958208Y-59861200D01*
X91605412Y-59861200D01*
X91672100Y-59927888D01*
X91672100Y-59927888D01*
G37*
X91672100Y-59927888D02*
X91672100Y-60094516D01*
X91820977Y-60453936D01*
X92096064Y-60729023D01*
X92455484Y-60877900D01*
X92844516Y-60877900D01*
X93203936Y-60729023D01*
X93479023Y-60453936D01*
X93627900Y-60094516D01*
X93627900Y-60001598D01*
X100445810Y-60001598D01*
X101272100Y-60827889D01*
X101272100Y-60994516D01*
X101420977Y-61353936D01*
X101696064Y-61629023D01*
X102055484Y-61777900D01*
X102444516Y-61777900D01*
X102803936Y-61629023D01*
X102861496Y-61571463D01*
X106665434Y-65375401D01*
X99978478Y-65375401D01*
X99314000Y-64710923D01*
X99314000Y-64669643D01*
X99139989Y-64249542D01*
X98818458Y-63928011D01*
X98398357Y-63754000D01*
X97943643Y-63754000D01*
X97523542Y-63928011D01*
X97202011Y-64249542D01*
X97028000Y-64669643D01*
X97028000Y-65124357D01*
X97202011Y-65544458D01*
X97523542Y-65865989D01*
X97943643Y-66040000D01*
X97984923Y-66040000D01*
X98859213Y-66914290D01*
X98911644Y-66992758D01*
X99080939Y-67105878D01*
X99222508Y-67200472D01*
X99222509Y-67200472D01*
X99222510Y-67200473D01*
X99496642Y-67255001D01*
X99496646Y-67255001D01*
X99589200Y-67273411D01*
X99681754Y-67255001D01*
X108382405Y-67255001D01*
X108438029Y-71728153D01*
X108342191Y-71792191D01*
X108201843Y-72002235D01*
X108181261Y-72105708D01*
X107876924Y-71828355D01*
X107466890Y-71658524D01*
X107237000Y-71779845D01*
X107237000Y-72973000D01*
X107257000Y-72973000D01*
X107257000Y-73227000D01*
X107237000Y-73227000D01*
X107237000Y-74420155D01*
X107466890Y-74541476D01*
X107876924Y-74371645D01*
X108181261Y-74094292D01*
X108201843Y-74197765D01*
X108342191Y-74407809D01*
X108472434Y-74494835D01*
X108496428Y-76424385D01*
X97944480Y-76538692D01*
X97702423Y-76296635D01*
X97662746Y-76237254D01*
X97427496Y-76080064D01*
X97220046Y-76038800D01*
X97220041Y-76038800D01*
X97150000Y-76024868D01*
X97079959Y-76038800D01*
X96844589Y-76038800D01*
X94262681Y-73456892D01*
X105668514Y-73456892D01*
X105914817Y-73981358D01*
X106343076Y-74371645D01*
X106753110Y-74541476D01*
X106983000Y-74420155D01*
X106983000Y-73227000D01*
X105789181Y-73227000D01*
X105668514Y-73456892D01*
X94262681Y-73456892D01*
X93548897Y-72743108D01*
X105668514Y-72743108D01*
X105789181Y-72973000D01*
X106983000Y-72973000D01*
X106983000Y-71779845D01*
X106753110Y-71658524D01*
X106343076Y-71828355D01*
X105914817Y-72218642D01*
X105668514Y-72743108D01*
X93548897Y-72743108D01*
X93302423Y-72496635D01*
X93262746Y-72437254D01*
X93027496Y-72280064D01*
X92820046Y-72238800D01*
X92820041Y-72238800D01*
X92750000Y-72224868D01*
X92679959Y-72238800D01*
X92044589Y-72238800D01*
X91102426Y-71296638D01*
X91102424Y-71296635D01*
X90602423Y-70796635D01*
X90562746Y-70737254D01*
X90327496Y-70580064D01*
X90120046Y-70538800D01*
X90120041Y-70538800D01*
X90050000Y-70524868D01*
X89979959Y-70538800D01*
X87794589Y-70538800D01*
X85194374Y-67938585D01*
X85429023Y-67703936D01*
X85577900Y-67344516D01*
X85577900Y-66955484D01*
X85429023Y-66596064D01*
X85311200Y-66478241D01*
X85311200Y-62920041D01*
X85325132Y-62849999D01*
X85311200Y-62779955D01*
X85311200Y-62779954D01*
X85269936Y-62572504D01*
X85268220Y-62569936D01*
X85152424Y-62396635D01*
X85152420Y-62396631D01*
X85112745Y-62337254D01*
X85053369Y-62297580D01*
X84069374Y-61313585D01*
X84179023Y-61203936D01*
X84311879Y-60883193D01*
X84457000Y-61028314D01*
X84457000Y-61177357D01*
X84631011Y-61597458D01*
X84952542Y-61918989D01*
X85372643Y-62093000D01*
X85827357Y-62093000D01*
X86247458Y-61918989D01*
X86568989Y-61597458D01*
X86743000Y-61177357D01*
X86743000Y-60722643D01*
X86568989Y-60302542D01*
X86247458Y-59981011D01*
X85958208Y-59861200D01*
X91605412Y-59861200D01*
X91672100Y-59927888D01*
G36*
X78107000Y-60060143D02*
X78107000Y-60514857D01*
X78281011Y-60934958D01*
X78602542Y-61256489D01*
X79022643Y-61430500D01*
X79209534Y-61430500D01*
X79001234Y-61638800D01*
X77070041Y-61638800D01*
X76999999Y-61624868D01*
X76929957Y-61638800D01*
X76929954Y-61638800D01*
X76722504Y-61680064D01*
X76722503Y-61680065D01*
X76722502Y-61680065D01*
X76546635Y-61797576D01*
X76546633Y-61797578D01*
X76487254Y-61837254D01*
X76447578Y-61896633D01*
X75646634Y-62697578D01*
X75587255Y-62737254D01*
X75547579Y-62796633D01*
X75547576Y-62796636D01*
X75430065Y-62972504D01*
X75374868Y-63250000D01*
X75388801Y-63320046D01*
X75388800Y-64529957D01*
X75374868Y-64599999D01*
X75388800Y-64670040D01*
X75388800Y-64670044D01*
X75430064Y-64877494D01*
X75464121Y-64928464D01*
X75547576Y-65053363D01*
X75547578Y-65053365D01*
X75587254Y-65112744D01*
X75646634Y-65152421D01*
X76595279Y-66101067D01*
X76634955Y-66160446D01*
X76694334Y-66200122D01*
X76694336Y-66200124D01*
X76777217Y-66255503D01*
X76870205Y-66317636D01*
X77077655Y-66358900D01*
X77077659Y-66358900D01*
X77147701Y-66372832D01*
X77217743Y-66358900D01*
X77228241Y-66358900D01*
X77346064Y-66476723D01*
X77705484Y-66625600D01*
X78094516Y-66625600D01*
X78453936Y-66476723D01*
X78729023Y-66201636D01*
X78877900Y-65842216D01*
X78877900Y-65453184D01*
X78729023Y-65093764D01*
X78453936Y-64818677D01*
X78094516Y-64669800D01*
X77705484Y-64669800D01*
X77346064Y-64818677D01*
X77335265Y-64829476D01*
X76811200Y-64305411D01*
X76811200Y-63544588D01*
X77294589Y-63061200D01*
X79225781Y-63061200D01*
X79295822Y-63075132D01*
X79365863Y-63061200D01*
X79365868Y-63061200D01*
X79573318Y-63019936D01*
X79808568Y-62862746D01*
X79848246Y-62803364D01*
X80509326Y-62142285D01*
X80596064Y-62229023D01*
X80955484Y-62377900D01*
X81344516Y-62377900D01*
X81703936Y-62229023D01*
X81850755Y-62082204D01*
X81912429Y-62069936D01*
X82147679Y-61912746D01*
X82182121Y-61861200D01*
X82605412Y-61861200D01*
X83888800Y-63144589D01*
X83888801Y-66478240D01*
X83770977Y-66596064D01*
X83622100Y-66955484D01*
X83622100Y-67344516D01*
X83743997Y-67638800D01*
X79171759Y-67638800D01*
X79053936Y-67520977D01*
X78694516Y-67372100D01*
X78305484Y-67372100D01*
X77946064Y-67520977D01*
X77670977Y-67796064D01*
X77522100Y-68155484D01*
X77522100Y-68210301D01*
X71373853Y-68210301D01*
X70111616Y-66948065D01*
X70067684Y-66882316D01*
X69807228Y-66708285D01*
X69577552Y-66662600D01*
X69577551Y-66662600D01*
X69500000Y-66647174D01*
X69422449Y-66662600D01*
X62862844Y-66662600D01*
X62886029Y-66627900D01*
X63044516Y-66627900D01*
X63403936Y-66479023D01*
X63679023Y-66203936D01*
X63827900Y-65844516D01*
X63827900Y-65717401D01*
X64884442Y-65717401D01*
X65046064Y-65879023D01*
X65405484Y-66027900D01*
X65794516Y-66027900D01*
X66153936Y-65879023D01*
X66429023Y-65603936D01*
X66577900Y-65244516D01*
X66577900Y-64855484D01*
X66559557Y-64811200D01*
X72992459Y-64811200D01*
X73062500Y-64825132D01*
X73132541Y-64811200D01*
X73132546Y-64811200D01*
X73339996Y-64769936D01*
X73575246Y-64612746D01*
X73614924Y-64553364D01*
X73840388Y-64327900D01*
X74007016Y-64327900D01*
X74366436Y-64179023D01*
X74641523Y-63903936D01*
X74790400Y-63544516D01*
X74790400Y-63155484D01*
X74641523Y-62796064D01*
X74366436Y-62520977D01*
X74233300Y-62465830D01*
X74312746Y-62412746D01*
X74352424Y-62353364D01*
X76844589Y-59861200D01*
X78189405Y-59861200D01*
X78107000Y-60060143D01*
X78107000Y-60060143D01*
G37*
X78107000Y-60060143D02*
X78107000Y-60514857D01*
X78281011Y-60934958D01*
X78602542Y-61256489D01*
X79022643Y-61430500D01*
X79209534Y-61430500D01*
X79001234Y-61638800D01*
X77070041Y-61638800D01*
X76999999Y-61624868D01*
X76929957Y-61638800D01*
X76929954Y-61638800D01*
X76722504Y-61680064D01*
X76722503Y-61680065D01*
X76722502Y-61680065D01*
X76546635Y-61797576D01*
X76546633Y-61797578D01*
X76487254Y-61837254D01*
X76447578Y-61896633D01*
X75646634Y-62697578D01*
X75587255Y-62737254D01*
X75547579Y-62796633D01*
X75547576Y-62796636D01*
X75430065Y-62972504D01*
X75374868Y-63250000D01*
X75388801Y-63320046D01*
X75388800Y-64529957D01*
X75374868Y-64599999D01*
X75388800Y-64670040D01*
X75388800Y-64670044D01*
X75430064Y-64877494D01*
X75464121Y-64928464D01*
X75547576Y-65053363D01*
X75547578Y-65053365D01*
X75587254Y-65112744D01*
X75646634Y-65152421D01*
X76595279Y-66101067D01*
X76634955Y-66160446D01*
X76694334Y-66200122D01*
X76694336Y-66200124D01*
X76777217Y-66255503D01*
X76870205Y-66317636D01*
X77077655Y-66358900D01*
X77077659Y-66358900D01*
X77147701Y-66372832D01*
X77217743Y-66358900D01*
X77228241Y-66358900D01*
X77346064Y-66476723D01*
X77705484Y-66625600D01*
X78094516Y-66625600D01*
X78453936Y-66476723D01*
X78729023Y-66201636D01*
X78877900Y-65842216D01*
X78877900Y-65453184D01*
X78729023Y-65093764D01*
X78453936Y-64818677D01*
X78094516Y-64669800D01*
X77705484Y-64669800D01*
X77346064Y-64818677D01*
X77335265Y-64829476D01*
X76811200Y-64305411D01*
X76811200Y-63544588D01*
X77294589Y-63061200D01*
X79225781Y-63061200D01*
X79295822Y-63075132D01*
X79365863Y-63061200D01*
X79365868Y-63061200D01*
X79573318Y-63019936D01*
X79808568Y-62862746D01*
X79848246Y-62803364D01*
X80509326Y-62142285D01*
X80596064Y-62229023D01*
X80955484Y-62377900D01*
X81344516Y-62377900D01*
X81703936Y-62229023D01*
X81850755Y-62082204D01*
X81912429Y-62069936D01*
X82147679Y-61912746D01*
X82182121Y-61861200D01*
X82605412Y-61861200D01*
X83888800Y-63144589D01*
X83888801Y-66478240D01*
X83770977Y-66596064D01*
X83622100Y-66955484D01*
X83622100Y-67344516D01*
X83743997Y-67638800D01*
X79171759Y-67638800D01*
X79053936Y-67520977D01*
X78694516Y-67372100D01*
X78305484Y-67372100D01*
X77946064Y-67520977D01*
X77670977Y-67796064D01*
X77522100Y-68155484D01*
X77522100Y-68210301D01*
X71373853Y-68210301D01*
X70111616Y-66948065D01*
X70067684Y-66882316D01*
X69807228Y-66708285D01*
X69577552Y-66662600D01*
X69577551Y-66662600D01*
X69500000Y-66647174D01*
X69422449Y-66662600D01*
X62862844Y-66662600D01*
X62886029Y-66627900D01*
X63044516Y-66627900D01*
X63403936Y-66479023D01*
X63679023Y-66203936D01*
X63827900Y-65844516D01*
X63827900Y-65717401D01*
X64884442Y-65717401D01*
X65046064Y-65879023D01*
X65405484Y-66027900D01*
X65794516Y-66027900D01*
X66153936Y-65879023D01*
X66429023Y-65603936D01*
X66577900Y-65244516D01*
X66577900Y-64855484D01*
X66559557Y-64811200D01*
X72992459Y-64811200D01*
X73062500Y-64825132D01*
X73132541Y-64811200D01*
X73132546Y-64811200D01*
X73339996Y-64769936D01*
X73575246Y-64612746D01*
X73614924Y-64553364D01*
X73840388Y-64327900D01*
X74007016Y-64327900D01*
X74366436Y-64179023D01*
X74641523Y-63903936D01*
X74790400Y-63544516D01*
X74790400Y-63155484D01*
X74641523Y-62796064D01*
X74366436Y-62520977D01*
X74233300Y-62465830D01*
X74312746Y-62412746D01*
X74352424Y-62353364D01*
X76844589Y-59861200D01*
X78189405Y-59861200D01*
X78107000Y-60060143D01*
G36*
X99141415Y-52542988D02*
X99089944Y-52577380D01*
X99041764Y-52649486D01*
X96928752Y-54762499D01*
X57808950Y-54762499D01*
X57723901Y-54745582D01*
X57638852Y-54762499D01*
X57638848Y-54762499D01*
X57509321Y-54788263D01*
X57502386Y-52502125D01*
X99141415Y-52542988D01*
X99141415Y-52542988D01*
G37*
X99141415Y-52542988D02*
X99089944Y-52577380D01*
X99041764Y-52649486D01*
X96928752Y-54762499D01*
X57808950Y-54762499D01*
X57723901Y-54745582D01*
X57638852Y-54762499D01*
X57638848Y-54762499D01*
X57509321Y-54788263D01*
X57502386Y-52502125D01*
X99141415Y-52542988D01*
G04 #@! TD*
M02*
